<svg xmlns="http://www.w3.org/2000/svg" xmlns:xlink="http://www.w3.org/1999/xlink" width="1521" height="455.43" viewBox="0 0 1521 455.43"><defs><style>.a{fill:#b5b3b3;}.b{fill:#e8e8e8;}.c{stroke:#fff;}.d{font-size:336px;font-family:SimplyRounded, Simply Rounded;}.e{filter:url(#a);}</style><filter id="a" x="96.5" y="68.101" width="287.788" height="319.45" filterUnits="userSpaceOnUse"><feOffset dy="3" input="SourceAlpha"/><feGaussianBlur stdDeviation="3" result="b"/><feFlood flood-opacity="0.161"/><feComposite operator="in" in2="b"/><feComposite in="SourceGraphic"/></filter></defs><g transform="translate(-0.301 0)"><path class="a" d="M405.493,412.764c-69.689,56.889-287.289,56.889-355.556,0-69.689-56.889-62.578-300.089,0-364.089s292.978-64,355.556,0S475.182,355.876,405.493,412.764Z"/><path class="b" d="M229.138,313.209c-62.578,49.778-132.267,75.378-197.689,76.8C-16.907,307.52-6.951,106.987,49.938,48.676,101.138-3.946,261.849-13.9,354.294,18.809,377.049,112.676,330.116,232.142,229.138,313.209Z"/><g class="e" transform="matrix(1, 0, 0, 1, 0.3, 0)"><path class="c" d="M288.294,407.437H140.96V106.987H272.367c23.893,0,41.812,1.767,59.731,7.07,15.928,5.3,29.865,10.6,37.829,19.44,15.928,15.906,21.9,33.58,21.9,53.021,0,22.976-7.964,40.649-25.883,53.021-5.973,3.534-9.955,7.07-11.946,7.07q-2.986,2.651-11.946,5.3c21.9,3.534,37.829,12.372,49.776,24.743s17.919,28.278,17.919,47.719c0,21.209-7.964,38.882-23.893,54.788C367.935,398.6,334.089,407.437,288.294,407.437Zm-71.676-178.5h35.838c21.9,0,35.838-1.767,45.793-5.3s15.928-12.372,15.928-26.51-3.981-22.976-13.938-26.51-25.883-7.07-47.784-7.07H216.618v65.392Zm0,121.947h51.767c21.9,0,37.829-1.767,47.784-7.07S332.1,329.673,332.1,315.534s-5.973-22.976-17.919-28.278-29.865-7.07-55.748-7.07h-43.8V350.88h1.991Z" transform="translate(-34.96 -32.39)"/></g><text class="d" transform="translate(469.301 315)"><tspan x="0" y="0">ayshop</tspan></text></g></svg>
