<svg id="Capa_1" enable-background="new 0 0 512 512" height="512" viewBox="0 0 512 512" width="512" xmlns="http://www.w3.org/2000/svg" xmlns:xlink="http://www.w3.org/1999/xlink"><linearGradient id="SVGID_1_" gradientUnits="userSpaceOnUse" x1="420.854" x2="181.854" y1="79.136" y2="450.136"><stop offset=".0112" stop-color="#dafced"/><stop offset=".3814" stop-color="#e7f0ed"/><stop offset="1" stop-color="#ffd9ec"/></linearGradient><g><g><path d="m364.823 52.715c-69.098-27.035-164.784-16.764-217.662 31.51-37.336 34.085-8.439 43.8 17.016 106.17 18.423 45.14-164.177 38.927-164.177 120.495 0 94.299 132.251 76.424 181.329 87.218 75.036 16.504 140.496 78.242 220.668 70.103 69.795-7.086 96.403-61.855 106.109-124.642 18.082-116.976-26.329-245.094-143.283-290.854z" fill="url(#SVGID_1_)"/></g><g><g><path d="m413.327 325.868h-102.674v-172.79c22.236-6.634 38.451-27.229 38.451-51.621 0-29.753-24.12-53.873-53.873-53.873-25.919 0-47.555 18.306-52.704 42.692h-133.854c-11.04 0-20 8.96-20 20v352.42c0 11.04 8.96 20 20 20h122.444v1.718c0 5.523 4.477 10 10 10h131.49c5.523 0 10-4.477 10-10v-1.718h30.719c5.523 0 10-4.477 10-10v-136.828c.001-5.522-4.477-10-9.999-10z" fill="#2626bc" opacity=".1"/><g><g><g><path d="m413.327 457.697h-136.829c-5.523 0-10-4.477-10-10v-136.829c0-5.523 4.477-10 10-10h136.828c5.523 0 10 4.477 10 10v136.828c.001 5.524-4.477 10.001-9.999 10.001z" fill="#02ffb3"/><path d="m359.651 335.229h-29.476c-2.761 0-5-2.239-5-5v-29.36h39.476v29.36c0 2.761-2.239 5-5 5z" fill="#dcfdee"/></g></g><g><g><path d="m330.621 357.935h58.583c2.761 0 5-2.239 5-5s-2.239-5-5-5h-58.583c-2.761 0-5 2.239-5 5s2.239 5 5 5z" fill="#00d890"/></g><g><path d="m360.621 378.256h28.583c2.761 0 5-2.239 5-5s-2.239-5-5-5h-28.583c-2.761 0-5 2.239-5 5s2.239 5 5 5z" fill="#00d890"/></g><g><path d="m360.621 395.578h28.583c2.761 0 5-2.239 5-5s-2.239-5-5-5h-28.583c-2.761 0-5 2.239-5 5s2.239 5 5 5z" fill="#00d890"/></g></g></g><g><g><path d="m310.653 85.277v352.42c0 11.04-8.96 20-20 20h-181.98c-11.04 0-20-8.96-20-20v-352.42c0-11.04 8.96-20 20-20h181.98c11.041 0 20 8.96 20 20z" fill="#8399fe"/><path d="m310.653 85.277v214.85h-221.98v-214.85c0-11.04 8.96-20 20-20h181.98c11.041 0 20 8.96 20 20z" fill="#fff"/><path d="m310.653 85.277v66.27c-4.88 1.46-10.06 2.24-15.42 2.24-29.75 0-53.87-24.12-53.87-53.87 0-13.19 4.74-25.27 12.61-34.64h36.68c11.041 0 20 8.96 20 20z" fill="#dcfdee"/><path d="m88.676 261.353h221.975v140.899h-221.975z" fill="#6583fe"/><path d="m88.676 261.353h221.975v26.18h-221.975z" fill="#6583fe"/><g fill="#9fb0fe"><path d="m245.147 94.312h-90.967c-4.268 0-8.065-2.708-9.455-6.743l-7.677-22.29h125.232l-7.677 22.29c-1.391 4.035-5.188 6.743-9.456 6.743z"/><path d="m154.18 428.661h90.967c4.268 0 8.065 2.708 9.455 6.743l7.677 22.29h-125.231l7.677-22.29c1.39-4.035 5.187-6.743 9.455-6.743z"/></g></g><g><g><g><circle cx="199.663" cy="174.413" fill="#01eca5" r="53.269"/><path d="m212.65 181.656c3.978-3.57 6.499-8.733 6.499-14.486 0-10.745-8.741-19.486-19.486-19.486s-19.486 8.741-19.486 19.486c0 5.753 2.521 10.916 6.499 14.486-3.978 3.57-6.499 8.733-6.499 14.486 0 2.761 2.239 5 5 5s5-2.239 5-5c0-5.23 4.255-9.486 9.486-9.486s9.486 4.255 9.486 9.486c0 2.761 2.239 5 5 5s5-2.239 5-5c0-5.753-2.521-10.916-6.499-14.486zm-22.472-14.486c0-5.23 4.255-9.486 9.486-9.486s9.486 4.255 9.486 9.486-4.255 9.486-9.486 9.486-9.486-4.255-9.486-9.486z" fill="#fff"/></g></g></g></g><g><g fill="#ff7eb8"><path d="m128.39 305.17-5.947 2.115c-1.601.569-3.274-.646-3.227-2.345l.174-6.309-3.849-5.002c-1.036-1.346-.397-3.313 1.233-3.794l6.054-1.785 3.568-5.206c.96-1.401 3.029-1.401 3.989 0l3.568 5.206 6.054 1.785c1.63.48 2.269 2.447 1.233 3.794l-3.849 5.002.174 6.309c.047 1.698-1.626 2.914-3.227 2.345z"/><path d="m164.027 305.17-5.947 2.115c-1.601.569-3.274-.646-3.227-2.345l.174-6.309-3.849-5.002c-1.036-1.346-.397-3.313 1.233-3.794l6.054-1.785 3.568-5.206c.96-1.401 3.029-1.401 3.989 0l3.568 5.206 6.054 1.785c1.63.48 2.269 2.447 1.233 3.794l-3.849 5.002.174 6.309c.047 1.698-1.626 2.914-3.227 2.345z"/><path d="m199.663 305.17-5.947 2.115c-1.601.569-3.274-.646-3.227-2.345l.174-6.309-3.849-5.002c-1.036-1.346-.397-3.313 1.233-3.794l6.054-1.785 3.568-5.206c.96-1.401 3.029-1.401 3.989 0l3.568 5.206 6.054 1.785c1.63.48 2.269 2.447 1.233 3.794l-3.849 5.002.174 6.309c.047 1.698-1.626 2.914-3.227 2.345z"/><path d="m235.3 305.17-5.947 2.115c-1.601.569-3.274-.646-3.227-2.345l.174-6.309-3.849-5.002c-1.036-1.346-.397-3.313 1.233-3.794l6.054-1.785 3.568-5.206c.96-1.401 3.029-1.401 3.989 0l3.568 5.206 6.054 1.785c1.63.48 2.269 2.447 1.233 3.794l-3.849 5.002.174 6.309c.047 1.698-1.626 2.914-3.227 2.345z"/></g><path d="m270.936 305.17-5.947 2.115c-1.601.569-3.274-.646-3.227-2.345l.174-6.309-3.849-5.002c-1.036-1.346-.397-3.313 1.233-3.794l6.054-1.785 3.568-5.206c.96-1.401 3.029-1.401 3.989 0l3.568 5.206 6.054 1.785c1.63.48 2.269 2.447 1.233 3.794l-3.849 5.002.174 6.309c.047 1.698-1.626 2.914-3.227 2.345z" fill="#fff"/></g><g><path d="m372.607 469.415h-131.49c-5.523 0-10-4.477-10-10v-27.066c0-5.523 4.477-10 10-10h131.49c5.523 0 10 4.477 10 10v27.066c0 5.523-4.477 10-10 10z" fill="#ffa8cf"/><path d="m318.892 422.349h32.585v47.066h-32.585z" fill="#ff7eb8"/></g><g><g><path d="m280.084 338.05h-41.403c-2.761 0-5-2.239-5-5s2.239-5 5-5h41.403c2.761 0 5 2.239 5 5s-2.239 5-5 5z" fill="#01eca5"/></g><g><path d="m279.963 366.311h-150.483c-2.761 0-5-2.239-5-5s2.239-5 5-5h150.483c2.761 0 5 2.239 5 5s-2.239 5-5 5z" fill="#fff"/></g><g><path d="m280.084 384.813h-150.483c-2.761 0-5-2.239-5-5s2.239-5 5-5h150.483c2.761 0 5 2.239 5 5s-2.239 5-5 5z" fill="#fff"/></g></g><g fill="#ff5ba8"><circle cx="280.285" cy="242.399" r="4.678"/><circle cx="265.485" cy="242.399" r="4.678"/></g><g><g><circle cx="295.232" cy="76.458" fill="#02ffb3" r="53.873"/><path d="m413.326 295.868h-73.421c-2.762 0-5 2.239-5 5s2.238 5 5 5h73.421c2.757 0 5 2.243 5 5v136.829c0 2.757-2.243 5-5 5h-25.719v-20.348c0-8.271-6.729-15-15-15h-56.957v-285.674c22.427-8.32 38.454-29.93 38.454-55.217 0-32.462-26.41-58.873-58.873-58.873s-58.873 26.41-58.873 58.873 26.41 58.873 58.873 58.873c3.557 0 7.034-.335 10.419-.942v282.96h-64.532c-8.271 0-15 6.729-15 15v20.346h-117.442c-8.271 0-15-6.729-15-15v-352.416c0-8.271 6.729-15 15-15h104.905c2.762 0 5-2.239 5-5s-2.238-5-5-5h-104.905c-13.785 0-25 11.215-25 25v352.415c0 13.785 11.215 25 25 25h117.814c1.501 6.697 7.484 11.721 14.628 11.721h131.489c7.143 0 13.125-5.022 14.627-11.718h26.092c8.271 0 15-6.729 15-15v-136.829c0-8.271-6.728-15-15-15zm-166.968-219.411c0-26.948 21.925-48.873 48.873-48.873s48.873 21.924 48.873 48.873-21.925 48.873-48.873 48.873-48.873-21.924-48.873-48.873zm131.249 382.958c0 2.757-2.243 5-5 5h-131.489c-2.757 0-5-2.243-5-5v-27.066c0-2.757 2.243-5 5-5h131.489c2.757 0 5 2.243 5 5z" fill="#2626bc"/></g><g><path d="m287.278 106.875c-.188 0-.376-.008-.565-.025-2.425-.213-4.524-1.772-5.428-4.032l-6.984-17.46c-.141-.354-.48-.583-.861-.583-3.564 0-6.453-2.889-6.453-6.453s2.889-6.453 6.453-6.453c5.689 0 10.731 3.413 12.844 8.696l2.243 5.606 23.013-37.08c1.88-3.029 5.858-3.959 8.885-2.08 3.028 1.88 3.959 5.857 2.079 8.886l-29.746 47.928c-1.182 1.907-3.262 3.05-5.48 3.05z" fill="#fff"/></g></g></g><path d="m388.206 104.062c-1.279 0-2.56-.488-3.535-1.464l-5.965-5.964-5.965 5.964c-1.951 1.952-5.119 1.952-7.07 0-1.953-1.953-1.953-5.119 0-7.071l9.5-9.5c1.951-1.952 5.119-1.952 7.07 0l9.5 9.5c1.953 1.953 1.953 5.119 0 7.071-.975.976-2.256 1.464-3.535 1.464z" fill="#6583fe"/><path d="m420.607 59.518c-1.279 0-2.56-.488-3.535-1.464l-5.965-5.964-5.965 5.964c-1.951 1.952-5.119 1.952-7.07 0-1.953-1.953-1.953-5.119 0-7.071l9.5-9.5c1.951-1.952 5.119-1.952 7.07 0l9.5 9.5c1.953 1.953 1.953 5.119 0 7.071-.975.975-2.255 1.464-3.535 1.464z" fill="#ff7eb8"/><path d="m69.28 227.58c-1.279 0-2.56-.488-3.535-1.464l-5.965-5.964-5.965 5.964c-1.951 1.952-5.119 1.952-7.07 0-1.953-1.953-1.953-5.119 0-7.071l9.5-9.5c1.951-1.952 5.119-1.952 7.07 0l9.5 9.5c1.953 1.953 1.953 5.119 0 7.071-.975.976-2.255 1.464-3.535 1.464z" fill="#00eca2"/><g fill="#ff7eb8"><path d="m461.867 416.746c-3.713 0-7.427-1.414-10.253-4.24-5.654-5.654-5.654-14.853 0-20.506 5.652-5.653 14.854-5.653 20.506 0 5.654 5.654 5.654 14.853 0 20.506-2.826 2.826-6.54 4.24-10.253 4.24zm0-18.992c-1.152 0-2.305.438-3.183 1.316-1.754 1.754-1.754 4.609 0 6.364 1.756 1.755 4.609 1.755 6.365 0 1.754-1.754 1.754-4.609 0-6.364-.877-.877-2.029-1.316-3.182-1.316z"/><path d="m59.78 188.906c-3.713 0-7.427-1.414-10.253-4.24-5.654-5.654-5.654-14.853 0-20.506 5.652-5.653 14.854-5.653 20.506 0 5.654 5.654 5.654 14.853 0 20.506-2.826 2.827-6.54 4.24-10.253 4.24zm0-18.991c-1.152 0-2.305.438-3.183 1.316-1.754 1.754-1.754 4.609 0 6.364 1.756 1.755 4.609 1.755 6.365 0 1.754-1.754 1.754-4.609 0-6.364-.877-.877-2.029-1.316-3.182-1.316z"/></g></g></g></svg>