<svg id="Capa_1" enable-background="new 0 0 512 512" height="512" viewBox="0 0 512 512" width="512" xmlns="http://www.w3.org/2000/svg" xmlns:xlink="http://www.w3.org/1999/xlink"><linearGradient id="SVGID_1_" gradientUnits="userSpaceOnUse" x1="404.445" x2="241.778" y1="29.898" y2="377.232"><stop offset="0" stop-color="#c6d1ff"/><stop offset=".5834" stop-color="#e6d5f4"/><stop offset=".997" stop-color="#ffd9ec"/></linearGradient><g><g><path d="m317.823.425c-95.818 8.652-105.091 192.429-146.416 286.587-20.478 46.658-68.772 94.794-60.258 149.782 9.605 62.035 72.897 80.075 121.683 74.14 120.723-14.685 172.899-141.053 180.797-260.801 4.869-73.829 20.3-260.192-95.806-249.708z" fill="url(#SVGID_1_)"/></g><g><path d="m454.123 155.092h-12.393v-55.247c0-26.789-21.795-48.583-48.584-48.583s-48.584 21.794-48.584 48.583v8.445h-258.898c-5.53 0-10 4.47-10 10v335.42c0 5.53 4.47 10 10 10h335.42c5.53 0 10-4.47 10-10v-170.382h23.04c4.563 0 8.261-3.699 8.261-8.261v-111.714c0-4.562-3.699-8.261-8.262-8.261zm-84.776-55.247c0-13.123 10.676-23.799 23.8-23.799 13.123 0 23.8 10.676 23.8 23.799v8.445h-47.599v-8.445z" fill="#2626bc" opacity=".1"/><g><g><g><path d="m431.084 93.29v335.42c0 5.53-4.47 10-10 10h-335.42c-5.53 0-10-4.47-10-10v-335.42c0-5.53 4.47-10 10-10h335.42c5.53 0 10 4.47 10 10z" fill="#ffa8cf"/><path d="m431.084 155.394v128.24h-98.91c-4.57 0-8.26-3.7-8.26-8.26v-111.72c0-4.56 3.69-8.26 8.26-8.26z" fill="#ff7eb8"/><path d="m75.664 107.37h355.42v13.77h-355.42z" fill="#ff7eb8"/><path d="m284.132 201.303h-61.517c-2.761 0-5-2.239-5-5v-113.016h71.517v113.016c0 2.761-2.239 5-5 5z" fill="#ffdbed"/><path d="m244.494 83.29h17.76v118.01h-17.76z" fill="#ffc4df"/><g fill="#6583fe"><path d="m396.845 374.296h-58.617c-2.761 0-5-2.239-5-5v-15.127c0-2.761 2.239-5 5-5h58.617c2.761 0 5 2.239 5 5v15.127c0 2.761-2.239 5-5 5z"/><path d="m396.845 408.535h-58.617c-2.761 0-5-2.239-5-5v-15.127c0-2.761 2.239-5 5-5h58.617c2.761 0 5 2.239 5 5v15.127c0 2.761-2.239 5-5 5z"/></g></g></g><path d="m176.526 408.535h-59.241c-2.761 0-5-2.239-5-5v-122.156c0-2.761 2.239-5 5-5h59.241c2.761 0 5 2.239 5 5v122.156c0 2.761-2.239 5-5 5z" fill="#fff"/><g><g><g><path d="m190.239 303.182h-58.583c-2.761 0-5-2.239-5-5s2.239-5 5-5h58.583c2.761 0 5 2.239 5 5s-2.238 5-5 5z" fill="#ff7eb8"/></g><g><path d="m160.239 323.504h-28.583c-2.761 0-5-2.239-5-5s2.239-5 5-5h28.583c2.761 0 5 2.239 5 5s-2.238 5-5 5z" fill="#9fb0fe"/></g><g><path d="m160.239 340.825h-28.583c-2.761 0-5-2.239-5-5s2.239-5 5-5h28.583c2.761 0 5 2.239 5 5s-2.238 5-5 5z" fill="#9fb0fe"/></g></g><g><g><path d="m160.239 369.093h-28.583c-2.761 0-5-2.239-5-5s2.239-5 5-5h28.583c2.761 0 5 2.239 5 5s-2.238 5-5 5z" fill="#9fb0fe"/></g><g><path d="m160.239 386.415h-28.583c-2.761 0-5-2.239-5-5s2.239-5 5-5h28.583c2.761 0 5 2.239 5 5s-2.238 5-5 5z" fill="#9fb0fe"/></g></g></g></g><g><g><path d="m369.347 158.049v-83.204c0-13.123 10.676-23.799 23.8-23.799 13.123 0 23.8 10.676 23.8 23.799v83.204h24.784v-83.204c0-26.789-21.795-48.583-48.584-48.583s-48.584 21.795-48.584 48.583v83.204z" fill="#dcfdee"/></g><path d="m454.123 258.328h-121.953c-4.563 0-8.261-3.699-8.261-8.261v-111.714c0-4.563 3.699-8.261 8.261-8.261h121.953c4.563 0 8.261 3.699 8.261 8.261v111.714c.001 4.562-3.698 8.261-8.261 8.261z" fill="#01eca5"/><path d="m462.385 146.067v-7.714c0-4.563-3.699-8.261-8.261-8.261h-121.954c-4.563 0-8.261 3.699-8.261 8.261v7.714z" fill="#00d890"/><path d="m323.909 242.353v7.714c0 4.563 3.699 8.261 8.261 8.261h121.953c4.563 0 8.261-3.699 8.261-8.261v-7.714z" fill="#00d890"/><path d="m323.909 176.395h138.476v35.63h-138.476z" fill="#02ffb3"/><path d="m454.124 125.092h-32.178v-50.247c0-15.88-12.919-28.799-28.799-28.799s-28.8 12.919-28.8 28.799v50.247h-14.784v-50.247c0-24.032 19.552-43.583 43.584-43.583s43.583 19.551 43.583 43.583v25.995c0 2.761 2.238 5 5 5s5-2.239 5-5v-25.995c0-29.546-24.037-53.583-53.583-53.583s-53.584 24.037-53.584 53.583v3.441h-253.903c-8.271 0-15 6.729-15 15v335.427c0 8.271 6.729 15 15 15h111.36c2.761 0 5-2.239 5-5s-2.239-5-5-5h-111.36c-2.757 0-5-2.243-5-5v-335.426c0-2.757 2.243-5 5-5h253.903v36.805h-7.393c-7.313 0-13.262 5.949-13.262 13.261v111.714c0 7.313 5.949 13.261 13.262 13.261h93.916v165.385c0 2.757-2.243 5-5 5h-194.814c-2.761 0-5 2.239-5 5s2.239 5 5 5h194.814c8.271 0 15-6.729 15-15v-165.385h18.037c7.312 0 13.261-5.949 13.261-13.261v-111.714c0-7.312-5.949-13.261-13.26-13.261zm-60.977-69.046c10.365 0 18.799 8.433 18.799 18.799v3.441h-37.599v-3.441c0-10.366 8.434-18.799 18.8-18.799zm-18.8 32.241h37.599v36.805h-37.599zm83.037 161.78c0 1.798-1.463 3.261-3.261 3.261h-121.952c-1.799 0-3.262-1.463-3.262-3.261v-111.714c0-1.798 1.463-3.261 3.262-3.261h121.953c1.798 0 3.261 1.463 3.261 3.261v111.714z" fill="#2626bc"/></g><path d="m413.056 181.041c0-11.366-9.523-20.507-21.026-19.879-9.851.538-17.975 8.468-18.733 18.304-.618 8.019 3.529 15.112 9.894 18.799v19.069c0 5.498 4.457 9.955 9.955 9.955 5.498 0 9.955-4.457 9.955-9.955v-19.069c5.946-3.444 9.955-9.859 9.955-17.224z" fill="#6583fe"/><path d="m413.054 181.04c0 2.02-.3 3.96-.86 5.79-2.59-8.5-10.71-14.59-20.16-14.07-8.39.46-15.53 6.28-17.93 14.07-.71-2.3-1.01-4.78-.81-7.36.76-9.84 8.89-17.77 18.74-18.31 11.5-.63 21.02 8.51 21.02 19.88z" fill="#4369fd"/><path d="m38.763 393.473c-3.713 0-7.426-1.414-10.253-4.24-5.653-5.654-5.653-14.853 0-20.506 5.653-5.654 14.853-5.653 20.506 0 5.653 5.654 5.653 14.853 0 20.506-2.826 2.827-6.54 4.24-10.253 4.24zm0-18.991c-1.153 0-2.305.438-3.182 1.316-1.755 1.754-1.755 4.609 0 6.364 1.753 1.754 4.609 1.755 6.364 0 1.755-1.754 1.755-4.609 0-6.364-.877-.878-2.029-1.316-3.182-1.316z" fill="#6583fe"/><path d="m165.948 61.511c-3.713 0-7.427-1.414-10.253-4.24-5.653-5.654-5.653-14.853 0-20.506 5.654-5.653 14.854-5.653 20.506 0 5.653 5.654 5.653 14.853 0 20.506-2.826 2.827-6.54 4.24-10.253 4.24zm0-18.991c-1.152 0-2.305.438-3.182 1.316-1.755 1.754-1.755 4.609 0 6.364 1.754 1.755 4.61 1.754 6.364 0 1.755-1.754 1.755-4.609 0-6.364-.877-.878-2.029-1.316-3.182-1.316z" fill="#ff7eb8"/><path d="m226.776 52.268c-1.28 0-2.559-.488-3.536-1.464l-5.964-5.964-5.964 5.964c-1.953 1.952-5.118 1.952-7.071 0-1.953-1.953-1.953-5.119 0-7.071l9.5-9.5c1.953-1.952 5.118-1.952 7.071 0l9.5 9.5c1.953 1.953 1.953 5.119 0 7.071-.977.975-2.256 1.464-3.536 1.464z" fill="#00eca2"/><g fill="#ff7eb8"><path d="m482.73 319.677c-1.279 0-2.56-.488-3.535-1.464l-5.965-5.964-5.965 5.964c-1.951 1.952-5.119 1.952-7.07 0-1.953-1.953-1.953-5.119 0-7.071l9.5-9.5c1.951-1.952 5.119-1.952 7.07 0l9.5 9.5c1.953 1.953 1.953 5.119 0 7.071-.975.975-2.256 1.464-3.535 1.464z"/><path d="m278.524 481.196c-1.279 0-2.56-.488-3.535-1.464l-5.965-5.964-5.965 5.964c-1.951 1.952-5.119 1.952-7.07 0-1.953-1.953-1.953-5.119 0-7.071l9.5-9.5c1.951-1.952 5.119-1.952 7.07 0l9.5 9.5c1.953 1.953 1.953 5.119 0 7.071-.975.976-2.256 1.464-3.535 1.464z"/></g></g></g></svg>