<svg id="Capa_1" enable-background="new 0 0 512 512" height="512" viewBox="0 0 512 512" width="512" xmlns="http://www.w3.org/2000/svg" xmlns:xlink="http://www.w3.org/1999/xlink"><linearGradient id="SVGID_1_" gradientUnits="userSpaceOnUse" x1="420.854" x2="181.854" y1="89.448" y2="460.448"><stop offset=".0112" stop-color="#dafced"/><stop offset=".3814" stop-color="#e7f0ed"/><stop offset="1" stop-color="#ffd9ec"/></linearGradient><g><g><path d="m364.823 63.027c-69.098-27.035-164.784-16.764-217.662 31.51-37.336 34.085-8.439 43.8 17.016 106.17 18.423 45.14-164.177 38.927-164.177 120.495 0 94.299 132.251 76.424 181.329 87.218 75.036 16.504 140.496 78.242 220.668 70.103 69.795-7.086 96.403-61.855 106.109-124.642 18.082-116.976-26.329-245.094-143.283-290.854z" fill="url(#SVGID_1_)"/></g><g><g><g><g><path d="m475.988 153.952c0-39.498-32.019-71.517-71.517-71.517-25.594 0-48.035 13.454-60.672 33.667h-255.509c-5.53 0-10 4.47-10 10v335.42c0 5.53 4.47 10 10 10h335.42c5.53 0 10-4.47 10-10v-242.307c24.915-11.18 42.278-36.186 42.278-65.263z" fill="#2626bc" opacity=".1"/><path d="m433.71 101.102v335.42c0 5.53-4.47 10-10 10h-335.42c-5.53 0-10-4.47-10-10v-335.42c0-5.53 4.47-10 10-10h335.42c5.53 0 10 4.47 10 10z" fill="#9fb0fe"/><path d="m179.152 416.347h-59.241c-2.761 0-5-2.239-5-5v-122.156c0-2.761 2.239-5 5-5h59.241c2.761 0 5 2.239 5 5v122.156c0 2.761-2.239 5-5 5z" fill="#fff"/><g><path d="m192.866 310.995h-58.583c-2.761 0-5-2.239-5-5s2.239-5 5-5h58.583c2.761 0 5 2.239 5 5s-2.239 5-5 5z" fill="#ff7eb8"/></g><path d="m78.29 222.576 54.827 32.135 47.21-12.399c1.734-.455 3.578.052 4.835 1.33l50.156 51.006 60.367-27.036c5.196-2.327 9.62 4.452 5.398 8.271l-57.054 51.606c-1.709 1.546-4.254 1.723-6.161.429l-57.637-39.106-53.179 35.908c-1.607 1.085-3.696 1.143-5.361.149l-43.404-25.915z" fill="#6583fe"/><path d="m301.08 275.882-37.68 34.08-28.08 12.58-50.16-51c-1.25-1.28-3.1-1.79-4.83-1.33l-47.21 12.4-54.83-32.14v-27.9l54.83 32.14 47.21-12.4c1.73-.46 3.58.05 4.83 1.33l50.16 51.01 60.36-27.04c5.2-2.33 9.63 4.45 5.4 8.27z" fill="#4369fd"/><path d="m433.71 101.102v116.87c-8.92 4.01-18.82 6.24-29.24 6.24-39.5 0-71.52-32.02-71.52-71.51 0-26.22 14.11-49.15 35.16-61.6h55.6c5.53 0 10 4.47 10 10z" fill="#8399fe"/><path d="m78.29 115.182h355.42v13.77h-355.42z" fill="#8399fe"/><path d="m286.758 209.115h-61.517c-2.761 0-5-2.239-5-5v-113.016h71.517v113.016c0 2.761-2.238 5-5 5z" fill="#d2deff"/><path d="m247.12 91.102h17.76v118.01h-17.76z" fill="#b7c5ff"/><g fill="#d2deff"><path d="m399.471 382.108h-58.617c-2.761 0-5-2.239-5-5v-15.128c0-2.761 2.239-5 5-5h58.617c2.761 0 5 2.239 5 5v15.127c0 2.762-2.239 5.001-5 5.001z"/><path d="m399.471 416.347h-58.617c-2.761 0-5-2.239-5-5v-15.127c0-2.761 2.239-5 5-5h58.617c2.761 0 5 2.239 5 5v15.127c0 2.761-2.239 5-5 5z"/></g><path d="m399.471 334.662h-32.04c-2.761 0-5-2.239-5-5v-32.04c0-2.761 2.239-5 5-5h32.04c2.761 0 5 2.239 5 5v32.04c0 2.762-2.239 5-5 5z" fill="#02ffb3"/><g><circle cx="404.471" cy="128.952" fill="#ff5ba8" r="71.517"/><path d="m480.987 128.952c0-15.15-4.43-29.805-12.81-42.38-1.532-2.298-4.637-2.92-6.934-1.388-2.298 1.531-2.92 4.636-1.389 6.934 7.282 10.927 11.132 23.664 11.132 36.834 0 36.677-29.839 66.517-66.517 66.517s-66.517-29.839-66.517-66.517 29.839-66.517 66.517-66.517c12.802 0 25.246 3.662 35.988 10.59 2.321 1.498 5.416.828 6.912-1.492 1.496-2.321.828-5.415-1.492-6.912-12.361-7.972-26.68-12.186-41.408-12.186-26.325 0-49.585 13.365-63.358 33.663h-252.824c-8.271 0-15 6.729-15 15v235.315c0 2.761 2.238 5 5 5s5-2.239 5-5v-235.314c0-2.757 2.243-5 5-5h247.093c-4.756 9.961-7.426 21.1-7.426 32.854 0 42.191 34.325 76.517 76.517 76.517 8.473 0 16.618-1.405 24.242-3.959v235.016c0 2.757-2.243 5-5 5h-335.426c-2.757 0-5-2.243-5-5v-70.86c0-2.761-2.238-5-5-5s-5 2.239-5 5v70.86c0 8.271 6.729 15 15 15h335.426c8.271 0 15-6.729 15-15v-239.178c25.041-12.589 42.274-38.511 42.274-68.397z" fill="#2626bc"/></g></g><path d="m324.49 54.714c-3.714 0-7.426-1.413-10.253-4.24-5.654-5.654-5.654-14.853 0-20.506 5.651-5.652 14.852-5.654 20.505 0 2.739 2.739 4.248 6.38 4.248 10.253 0 3.874-1.509 7.515-4.248 10.254-2.826 2.826-6.54 4.239-10.252 4.239zm0-18.991c-1.152 0-2.305.438-3.183 1.316-1.754 1.754-1.754 4.609 0 6.364 1.755 1.754 4.607 1.756 6.364 0 .851-.85 1.318-1.98 1.318-3.182s-.468-2.332-1.318-3.181c-.877-.878-2.029-1.317-3.181-1.317z" fill="#6583fe"/><path d="m466.488 246.576c-3.874 0-7.515-1.508-10.254-4.248-2.738-2.738-4.247-6.379-4.247-10.252s1.509-7.515 4.248-10.253c5.654-5.654 14.853-5.652 20.505 0h.001c5.652 5.654 5.652 14.853-.001 20.506-2.738 2.739-6.379 4.247-10.252 4.247zm-.001-18.998c-1.151 0-2.304.438-3.182 1.316-.851.85-1.318 1.98-1.318 3.182s.468 2.332 1.318 3.181c.851.851 1.98 1.319 3.183 1.319 1.201 0 2.331-.468 3.181-1.318 1.755-1.755 1.755-4.61 0-6.365-.877-.877-2.029-1.315-3.182-1.315z" fill="#00eca2"/><path d="m54.602 241.826c-1.279 0-2.56-.488-3.535-1.464l-5.965-5.964-5.965 5.964c-1.951 1.952-5.119 1.952-7.07 0-1.953-1.953-1.953-5.119 0-7.071l9.5-9.5c1.951-1.952 5.119-1.952 7.07 0l9.5 9.5c1.953 1.953 1.953 5.119 0 7.071-.976.976-2.256 1.464-3.535 1.464z" fill="#ff7eb8"/><path d="m272.454 62.866c-1.279 0-2.56-.488-3.535-1.464l-5.965-5.964-5.965 5.964c-1.951 1.952-5.119 1.952-7.07 0-1.953-1.953-1.953-5.119 0-7.071l9.5-9.5c1.951-1.952 5.119-1.952 7.07 0l9.5 9.5c1.953 1.953 1.953 5.119 0 7.071-.975.976-2.256 1.464-3.535 1.464z" fill="#00eca2"/><path d="m341.871 486.272c-1.279 0-2.56-.488-3.535-1.464l-5.965-5.964-5.965 5.964c-1.951 1.952-5.119 1.952-7.07 0-1.953-1.953-1.953-5.119 0-7.071l9.5-9.5c1.951-1.952 5.119-1.952 7.07 0l9.5 9.5c1.953 1.953 1.953 5.119 0 7.071-.975.976-2.256 1.464-3.535 1.464z" fill="#6583fe"/></g><path d="m434.83 97.137c-3.514-3.514-9.211-3.514-12.725 0l-17.634 17.634-17.634-17.634c-3.514-3.514-9.211-3.514-12.725 0-3.514 3.514-3.514 9.211 0 12.725l17.634 17.634-17.634 17.634c-3.514 3.514-3.514 9.211 0 12.725 3.514 3.514 9.211 3.514 12.725 0l17.634-17.634 17.634 17.634c3.514 3.514 9.211 3.514 12.725 0 3.514-3.514 3.514-9.211 0-12.725l-17.634-17.634 17.634-17.634c3.514-3.514 3.514-9.211 0-12.725z" fill="#fff"/></g><g><g><g><path d="m162.866 331.316h-18.583c-2.761 0-5-2.239-5-5s2.239-5 5-5h18.583c2.761 0 5 2.239 5 5s-2.239 5-5 5z" fill="#9fb0fe"/></g><g><path d="m162.866 348.637h-28.583c-2.761 0-5-2.239-5-5s2.239-5 5-5h28.583c2.761 0 5 2.239 5 5s-2.239 5-5 5z" fill="#9fb0fe"/></g></g><g><g><path d="m162.866 376.905h-28.583c-2.761 0-5-2.239-5-5s2.239-5 5-5h28.583c2.761 0 5 2.239 5 5s-2.239 5-5 5z" fill="#9fb0fe"/></g><g><path d="m162.866 394.227h-28.583c-2.761 0-5-2.239-5-5s2.239-5 5-5h28.583c2.761 0 5 2.239 5 5s-2.239 5-5 5z" fill="#9fb0fe"/></g></g></g><path d="m169.18 296.272-42.13 28.45c-.89.6-1.92.88-2.96.85v-24.3c0-2.76 2.24-5 5-5z" fill="#d2deff"/></g></g></svg>