<svg id="Capa_1" enable-background="new 0 0 512 512" height="512" viewBox="0 0 512 512" width="512" xmlns="http://www.w3.org/2000/svg" xmlns:xlink="http://www.w3.org/1999/xlink"><linearGradient id="SVGID_1_" gradientUnits="userSpaceOnUse" x1="283.281" x2="235.281" y1="408.211" y2="139.544"><stop offset=".0112" stop-color="#dafced"/><stop offset=".761" stop-color="#cbdcfa"/><stop offset="1" stop-color="#c6d1ff"/></linearGradient><g><g><path d="m501.873 140.768c-22.357-56.888-91.226-91.003-149.556-68.427-68.57 26.539-43.27 131.236-104.983 153.088-32.669 11.568-80.963-31.644-113.969-38.27-60.821-12.21-115.881 30.705-129.439 90.134-13.832 60.63 8.353 141.61 74.967 158.066 79.35 19.602 120.683-51.729 187.249-72.211 68.31-21.019 144.263 28.622 200.814-31.776 41.78-44.621 57.055-134.272 34.917-190.604z" fill="url(#SVGID_1_)"/></g><g><g><g><path d="m475.988 151.452c0-39.498-32.019-71.517-71.517-71.517-25.594 0-48.035 13.454-60.672 33.667h-255.509c-5.53 0-10 4.47-10 10v335.42c0 5.53 4.47 10 10 10h335.42c5.53 0 10-4.47 10-10v-242.307c24.915-11.18 42.278-36.186 42.278-65.263z" fill="#2626bc" opacity=".1"/><path d="m433.71 98.602v335.42c0 5.53-4.47 10-10 10h-335.42c-5.53 0-10-4.47-10-10v-335.42c0-5.53 4.47-10 10-10h335.42c5.53 0 10 4.47 10 10z" fill="#9fb0fe"/><path d="m433.71 98.602v116.87c-8.92 4.01-18.82 6.24-29.24 6.24-39.5 0-71.52-32.02-71.52-71.51 0-26.22 14.11-49.15 35.16-61.6h55.6c5.53 0 10 4.47 10 10z" fill="#8399fe"/><path d="m78.29 112.682h355.42v13.77h-355.42z" fill="#8399fe"/><path d="m286.758 206.615h-61.517c-2.761 0-5-2.239-5-5v-113.016h71.517v113.016c0 2.761-2.238 5-5 5z" fill="#d2deff"/><path d="m247.12 88.602h17.76v118.01h-17.76z" fill="#b7c5ff"/><path d="m423.713 449.026h-335.426c-8.271 0-15-6.729-15-15v-335.427c0-8.271 6.729-15 15-15h224.667c2.762 0 5 2.239 5 5s-2.238 5-5 5h-224.667c-2.757 0-5 2.243-5 5v335.427c0 2.757 2.243 5 5 5h335.426c2.757 0 5-2.243 5-5v-213.361c0-2.761 2.238-5 5-5s5 2.239 5 5v213.361c0 8.271-6.729 15-15 15z" fill="#2626bc"/><g fill="#6583fe"><path d="m399.471 379.608h-58.617c-2.761 0-5-2.239-5-5v-15.128c0-2.761 2.239-5 5-5h58.617c2.761 0 5 2.239 5 5v15.127c0 2.762-2.239 5.001-5 5.001z"/><path d="m399.471 413.847h-58.617c-2.761 0-5-2.239-5-5v-15.127c0-2.761 2.239-5 5-5h58.617c2.761 0 5 2.239 5 5v15.127c0 2.761-2.239 5-5 5z"/></g><g><circle cx="404.471" cy="126.452" fill="#02ffb3" r="71.517"/><path d="m404.471 202.969c-42.191 0-76.517-34.325-76.517-76.517s34.325-76.517 76.517-76.517 76.517 34.325 76.517 76.517-34.326 76.517-76.517 76.517zm0-143.033c-36.678 0-66.517 29.839-66.517 66.517s29.839 66.517 66.517 66.517 66.517-29.839 66.517-66.517-29.84-66.517-66.517-66.517z" fill="#2626bc"/></g></g><path d="m259.49 57.214c-3.714 0-7.426-1.413-10.253-4.24-5.654-5.654-5.654-14.853 0-20.506 5.651-5.652 14.852-5.654 20.505 0 2.739 2.739 4.248 6.38 4.248 10.253 0 3.874-1.509 7.515-4.248 10.254-2.826 2.826-6.54 4.239-10.252 4.239zm0-18.991c-1.152 0-2.305.438-3.183 1.316-1.754 1.754-1.754 4.609 0 6.364 1.756 1.754 4.608 1.756 6.364 0 .851-.85 1.318-1.98 1.318-3.182s-.468-2.332-1.318-3.181c-.877-.878-2.029-1.317-3.181-1.317z" fill="#ff7eb8"/><path d="m466.488 244.076c-3.874 0-7.515-1.508-10.254-4.248-2.738-2.738-4.247-6.379-4.247-10.252s1.509-7.515 4.248-10.253c5.654-5.654 14.853-5.652 20.505 0h.001c5.652 5.654 5.652 14.853-.001 20.506-2.738 2.739-6.379 4.247-10.252 4.247zm-.001-18.998c-1.151 0-2.304.438-3.182 1.316-.851.85-1.318 1.98-1.318 3.182s.468 2.332 1.318 3.181c.851.851 1.98 1.319 3.183 1.319 1.201 0 2.331-.468 3.181-1.318 1.755-1.755 1.755-4.61 0-6.365-.877-.877-2.029-1.315-3.182-1.315z" fill="#6583fe"/><path d="m84.602 479.326c-1.279 0-2.56-.488-3.535-1.464l-5.965-5.964-5.965 5.964c-1.951 1.952-5.119 1.952-7.07 0-1.953-1.953-1.953-5.119 0-7.071l9.5-9.5c1.951-1.952 5.119-1.952 7.07 0l9.5 9.5c1.953 1.953 1.953 5.119 0 7.071-.976.976-2.256 1.464-3.535 1.464z" fill="#ff7eb8"/><g fill="#00eca2"><path d="m322.454 60.366c-1.279 0-2.56-.488-3.535-1.464l-5.965-5.964-5.965 5.964c-1.951 1.952-5.119 1.952-7.07 0-1.953-1.953-1.953-5.119 0-7.071l9.5-9.5c1.951-1.952 5.119-1.952 7.07 0l9.5 9.5c1.953 1.953 1.953 5.119 0 7.071-.975.976-2.256 1.464-3.535 1.464z"/><path d="m341.871 483.772c-1.279 0-2.56-.488-3.535-1.464l-5.965-5.964-5.965 5.964c-1.951 1.952-5.119 1.952-7.07 0-1.953-1.953-1.953-5.119 0-7.071l9.5-9.5c1.951-1.952 5.119-1.952 7.07 0l9.5 9.5c1.953 1.953 1.953 5.119 0 7.071-.975.976-2.256 1.464-3.535 1.464z"/></g></g><g fill="#fff"><path d="m376.7 111.127c.709 0 1.416-.125 2.093-.359v24.35c0 3.524 2.857 6.381 6.381 6.381s6.381-2.857 6.381-6.381v-24.35c2.237.774 4.818.276 6.603-1.51 2.493-2.492 2.493-6.533 0-9.025l-8.468-8.468c-2.377-2.471-6.655-2.47-9.032 0l-8.469 8.468c-2.493 2.491-2.493 6.532-.001 9.024 1.245 1.247 2.879 1.87 4.512 1.87z"/><path d="m417.388 110.768v24.35c0 3.524 2.857 6.381 6.381 6.381s6.381-2.857 6.381-6.381v-24.35c.677.234 1.383.359 2.091.359 1.633 0 3.267-.623 4.512-1.869 2.493-2.492 2.493-6.533 0-9.025l-8.468-8.468c-2.377-2.472-6.656-2.472-9.033-.001l-8.468 8.468c-2.493 2.492-2.493 6.533 0 9.025 1.786 1.787 4.367 2.285 6.604 1.511z"/><path d="m432.241 150.25h-54.294c-3.525 0-6.381 2.857-6.381 6.381s2.856 6.381 6.381 6.381h54.294c3.525 0 6.381-2.857 6.381-6.381s-2.856-6.381-6.381-6.381z"/></g><path d="m179.152 293.678h-59.241c-2.761 0-5-2.239-5-5v-122.156c0-2.761 2.239-5 5-5h59.241c2.761 0 5 2.239 5 5v122.156c0 2.762-2.239 5-5 5z" fill="#fff"/><g><g><g><path d="m192.866 188.326h-58.583c-2.761 0-5-2.239-5-5s2.239-5 5-5h58.583c2.761 0 5 2.239 5 5s-2.239 5-5 5z" fill="#ff7eb8"/></g><g><path d="m162.866 208.647h-28.583c-2.761 0-5-2.239-5-5s2.239-5 5-5h28.583c2.761 0 5 2.239 5 5s-2.239 5-5 5z" fill="#9fb0fe"/></g><g><path d="m162.866 225.969h-28.583c-2.761 0-5-2.239-5-5s2.239-5 5-5h28.583c2.761 0 5 2.239 5 5s-2.239 5-5 5z" fill="#9fb0fe"/></g></g><g><g><path d="m162.866 254.237h-28.583c-2.761 0-5-2.239-5-5s2.239-5 5-5h28.583c2.761 0 5 2.239 5 5s-2.239 5-5 5z" fill="#9fb0fe"/></g><g><path d="m162.866 271.558h-28.583c-2.761 0-5-2.239-5-5s2.239-5 5-5h28.583c2.761 0 5 2.239 5 5s-2.239 5-5 5z" fill="#9fb0fe"/></g></g></g><g><path d="m212.085 370.602-42.342-47.377c-2.783-3.114-7.656-3.114-10.439 0l-42.342 47.377c-4.031 4.51-.83 11.665 5.219 11.665h21.41v24.58c0 3.866 3.134 7 7 7h27.865c3.866 0 7-3.134 7-7v-24.58h21.41c6.048 0 9.25-7.155 5.219-11.665z" fill="#ff5ba8"/><path d="m278.769 370.602-42.342-47.377c-2.783-3.114-7.656-3.114-10.439 0l-42.342 47.377c-4.031 4.51-.83 11.665 5.219 11.665h21.41v24.58c0 3.866 3.134 7 7 7h27.865c3.866 0 7-3.134 7-7v-24.58h21.41c6.049 0 9.25-7.155 5.219-11.665z" fill="#ff7eb8"/></g></g></g></svg>