<svg id="Capa_1" enable-background="new 0 0 512 512" height="512" viewBox="0 0 512 512" width="512" xmlns="http://www.w3.org/2000/svg" xmlns:xlink="http://www.w3.org/1999/xlink"><linearGradient id="SVGID_1_" gradientUnits="userSpaceOnUse" x1="125.669" x2="334.669" y1="420.174" y2="150.174"><stop offset=".0112" stop-color="#dafced"/><stop offset=".761" stop-color="#cbdcfa"/><stop offset="1" stop-color="#c6d1ff"/></linearGradient><g><g><path d="m38.145 134.71c19.974-57.707 57.562-157.818 137.712-129.893 31.204 10.872 41.003 52.164 72.37 57.311 29.626 4.861 54.704-24.255 82.89-29.776 35.014-6.859 72.067 2.317 85.37 36.48 15.916 40.874-30.997 86.737-19.655 124.062 18.708 61.564 87.863-40.471 100.229 58.88 17.304 139.025-136.801 386.519-240.619 182.998-52.643-103.199-107.815-30.825-189.876-82.161-77.922-48.747-53.805-144.567-28.421-217.901z" fill="url(#SVGID_1_)"/></g><g><g><g><path d="m411.972 459.361h-9.144c5.523 0 10-4.477 10-10v-136.828c0-5.523-4.477-10-10-10h-131.428v-91.497c36.885-7.183 64.731-39.651 64.731-78.637 0-44.255-35.876-80.131-80.131-80.131s-80.131 35.876-80.131 80.131c0 38.986 27.846 71.454 64.731 78.637v91.497h-74.591c2.065-6.001 3.201-12.434 3.201-19.136 0-32.484-26.333-58.817-58.817-58.817s-58.817 26.333-58.817 58.817c0 28.645 20.481 52.495 47.595 57.735v108.23c0 5.523 4.477 10 10 10h-9.144c-5.523 0-10 4.477-10 10v.371c0 16.569 13.431 30 30 30h271.944c16.569 0 30-13.431 30-30v-.371c.001-5.524-4.476-10.001-9.999-10.001z" fill="#2626bc" opacity=".1"/><g><path d="m240.6 160.323h30.8v151.57h-30.8z" fill="#8399fe"/><path d="m271.4 160.323v41.713c-5.02.79-10.17 1.19-15.4 1.19s-10.38-.4-15.4-1.19v-41.713z" fill="#6583fe"/><circle cx="256" cy="107.399" fill="#ff7eb8" r="80.131"/><circle cx="256" cy="107.399" fill="#ffc4df" r="65.306"/><g><g><g><g><path d="m402.828 434.361h-136.828c-5.523 0-10-4.477-10-10v-136.828c0-5.523 4.477-10 10-10h136.828c5.523 0 10 4.477 10 10v136.828c0 5.523-4.477 10-10 10z" fill="#02ffb3"/><path d="m349.152 311.893h-29.476c-2.761 0-5-2.239-5-5v-29.36h39.476v29.36c0 2.762-2.238 5-5 5z" fill="#dcfdee"/></g></g><g><g><path d="m320.123 334.599h58.583c2.761 0 5-2.239 5-5s-2.239-5-5-5h-58.583c-2.761 0-5 2.239-5 5s2.238 5 5 5z" fill="#00d890"/></g><g><path d="m350.123 354.921h28.583c2.761 0 5-2.239 5-5s-2.239-5-5-5h-28.583c-2.761 0-5 2.239-5 5s2.238 5 5 5z" fill="#00d890"/></g><g><path d="m350.123 372.242h28.583c2.761 0 5-2.239 5-5s-2.239-5-5-5h-28.583c-2.761 0-5 2.239-5 5s2.238 5 5 5z" fill="#00d890"/></g></g></g><g><g><g><path d="m256 287.53v136.83c0 5.52-4.48 10-10 10h-136.83c-5.52 0-10-4.48-10-10v-136.83c0-5.52 4.48-10 10-10h136.83c5.52 0 10 4.48 10 10z" fill="#02ffb3"/><path d="m169.21 277.53c0 32.49-26.33 58.82-58.82 58.82-3.84 0-7.59-.37-11.22-1.07v-47.75c0-5.52 4.48-10 10-10z" fill="#01eca5"/><path d="m192.324 311.893h-29.476c-2.761 0-5-2.239-5-5v-29.36h39.476v29.36c0 2.762-2.238 5-5 5z" fill="#dcfdee"/><path d="m169.21 277.53c0 12.14-3.68 23.42-9.98 32.79-.86-.89-1.38-2.1-1.38-3.43v-29.36z" fill="#97ffd2"/></g></g><g><g><path d="m163.294 334.599h58.583c2.761 0 5-2.239 5-5s-2.239-5-5-5h-58.583c-2.761 0-5 2.239-5 5s2.239 5 5 5z" fill="#00d890"/></g><g><path d="m193.294 354.921h28.583c2.761 0 5-2.239 5-5s-2.239-5-5-5h-28.583c-2.761 0-5 2.239-5 5s2.239 5 5 5z" fill="#00d890"/></g><g><path d="m193.294 372.242h28.583c2.761 0 5-2.239 5-5s-2.239-5-5-5h-28.583c-2.761 0-5 2.239-5 5s2.239 5 5 5z" fill="#00d890"/></g></g></g></g><g><g><path d="m100.028 434.361h311.944c5.523 0 10 4.477 10 10v.371c0 16.569-13.431 30-30 30h-271.944c-16.569 0-30-13.431-30-30v-.371c0-5.523 4.477-10 10-10z" fill="#9fb0fe"/><path d="m337.5 434.361h42.02v40.371h-42.02z" fill="#8399fe"/></g><g fill="#ff5ba8"><circle cx="320.924" cy="459.225" r="4.678"/><circle cx="306.124" cy="459.225" r="4.678"/></g></g><g><path d="m278.549 134.948c-1.279 0-2.56-.488-3.535-1.464l-22.549-22.549c-1.953-1.953-1.953-5.119 0-7.071s5.12-1.952 7.071 0l22.549 22.549c1.953 1.953 1.953 5.119 0 7.071-.977.975-2.257 1.464-3.536 1.464z" fill="#ff5ba8"/></g><g fill="#6583fe"><g><circle cx="256" cy="54.679" r="5.272"/><circle cx="256" cy="161.767" r="5.272"/></g><g><circle cx="229.228" cy="61.853" r="5.272"/><circle cx="282.772" cy="154.593" r="5.272"/></g><g><circle cx="209.63" cy="81.451" r="5.272"/><circle cx="302.37" cy="134.995" r="5.272"/></g><g><circle cx="282.772" cy="61.853" r="5.272"/><circle cx="229.228" cy="154.593" r="5.272"/></g><g><circle cx="302.37" cy="81.451" r="5.272"/><circle cx="209.63" cy="134.995" r="5.272"/></g><g><circle cx="202.456" cy="108.223" r="5.272"/><circle cx="309.544" cy="108.223" r="5.272"/></g></g></g></g><path d="m148.809 177.719c-3.713 0-7.426-1.414-10.253-4.24-5.653-5.654-5.653-14.853 0-20.506s14.853-5.653 20.506 0c5.653 5.654 5.653 14.853 0 20.506-2.826 2.827-6.54 4.24-10.253 4.24zm.001-18.991c-1.153 0-2.305.438-3.182 1.316-1.755 1.754-1.755 4.609 0 6.364 1.754 1.754 4.61 1.755 6.364 0 1.755-1.754 1.755-4.609 0-6.364-.878-.877-2.03-1.316-3.182-1.316z" fill="#ff7eb8"/><path d="m450.447 411.164c-3.714 0-7.427-1.413-10.253-4.24-5.654-5.654-5.654-14.853 0-20.506 5.652-5.652 14.853-5.654 20.505 0 5.654 5.654 5.654 14.853 0 20.506-2.826 2.827-6.539 4.24-10.252 4.24zm0-18.991c-1.152 0-2.305.438-3.183 1.316-1.754 1.754-1.754 4.609 0 6.364 1.756 1.754 4.608 1.756 6.364 0 1.754-1.754 1.754-4.609 0-6.364-.877-.877-2.029-1.316-3.181-1.316z" fill="#ff7eb8"/><path d="m182.309 200.605c-1.28 0-2.559-.488-3.536-1.464l-5.964-5.964-5.964 5.964c-1.953 1.952-5.118 1.952-7.071 0-1.953-1.953-1.953-5.119 0-7.071l9.5-9.5c1.953-1.952 5.118-1.952 7.071 0l9.5 9.5c1.953 1.953 1.953 5.119 0 7.071-.977.976-2.256 1.464-3.536 1.464z" fill="#00eca2"/><g fill="#6583fe"><path d="m377.958 71.603c-1.279 0-2.56-.488-3.535-1.464l-5.965-5.964-5.965 5.964c-1.951 1.952-5.119 1.952-7.07 0-1.953-1.953-1.953-5.119 0-7.071l9.5-9.5c1.951-1.952 5.119-1.952 7.07 0l9.5 9.5c1.953 1.953 1.953 5.119 0 7.071-.975.975-2.256 1.464-3.535 1.464z"/><path d="m74.306 346.643c-1.28 0-2.559-.488-3.536-1.464l-5.964-5.964-5.964 5.964c-1.953 1.952-5.118 1.952-7.071 0-1.953-1.953-1.953-5.119 0-7.071l9.5-9.5c1.953-1.952 5.118-1.952 7.071 0l9.5 9.5c1.953 1.953 1.953 5.119 0 7.071-.977.976-2.256 1.464-3.536 1.464z"/></g></g><g><g><circle cx="110.393" cy="258.397" fill="#ff7eb8" r="58.817"/><path d="m416.673 430.126c.742-1.776 1.156-3.723 1.156-5.765v-136.828c0-8.271-6.729-15-15-15h-126.43v-57.436c0-2.761-2.238-5-5-5s-5 2.239-5 5v57.436h-.399c-3.844 0-7.343 1.466-10 3.852-2.657-2.386-6.156-3.851-10-3.851h-.4v-80.661c3.412.418 6.877.658 10.4.658 46.941 0 85.131-38.19 85.131-85.131s-38.19-85.132-85.131-85.132-85.131 38.19-85.131 85.131c0 39.91 27.612 73.478 64.731 82.643v82.491h-62.988c1.034-4.551 1.598-9.278 1.598-14.137 0-35.189-28.628-63.817-63.817-63.817-35.188 0-63.816 28.628-63.816 63.817s28.628 63.817 63.816 63.817c26.65 0 49.524-16.426 59.063-39.68h76.544c2.757 0 5 2.243 5 5v136.828c0 2.757-2.243 5-5 5h-136.828c-2.757 0-5-2.243-5-5v-79.44c0-2.761-2.239-5-5-5s-5 2.239-5 5v79.44c0 2.042.413 3.989 1.156 5.765-5.974 1.978-10.3 7.606-10.3 14.235v.371c0 19.299 15.701 35 35 35h271.945c19.299 0 35-15.701 35-35v-.371c0-6.628-4.327-12.257-10.3-14.235zm-235.804-322.727c0-41.428 33.704-75.131 75.131-75.131s75.131 33.704 75.131 75.131-33.703 75.131-75.131 75.131-75.131-33.703-75.131-75.131zm-70.476 204.814c-29.674 0-53.816-24.142-53.816-53.817s24.142-53.817 53.816-53.817c29.675 0 53.817 24.142 53.817 53.817s-24.142 53.817-53.817 53.817zm150.607-24.68c0-2.757 2.243-5 5-5h136.828c2.757 0 5 2.243 5 5v136.829c0 2.757-2.243 5-5 5h-136.828c-2.757 0-5-2.243-5-5zm155.973 157.199c0 13.785-11.215 25-25 25h-271.945c-13.785 0-25-11.215-25-25v-.371c0-2.757 2.243-5 5-5h9.144 136.828 20 136.828 9.145c2.757 0 5 2.243 5 5z" fill="#2626bc"/></g><g fill="#fff"><path d="m108.115 233.39c-1.783-2.105-4.941-2.365-7.047-.579l-11.19 9.493v-5.68c0-2.761-2.238-5-5-5s-5 2.239-5 5v32.958c0 2.761 2.238 5 5 5s5-2.239 5-5v-5.68l11.19 9.493c.939.797 2.089 1.187 3.231 1.187 1.418 0 2.827-.6 3.815-1.766 1.787-2.105 1.527-5.261-.578-7.047l-14.93-12.666 14.93-12.666c2.107-1.786 2.366-4.941.579-7.047z"/><path d="m135.91 241.972c-1.001 0-1.928.301-2.71.807-1.987-1.042-4.242-1.639-6.637-1.639-7.91 0-14.346 6.436-14.346 14.346 0 7.911 6.436 14.346 14.346 14.346 1.515 0 2.975-.24 4.347-.677v4.374c0 2.396-1.95 4.346-4.347 4.346-1.272 0-2.478-.556-3.307-1.525-1.796-2.1-4.952-2.346-7.049-.552-2.1 1.794-2.347 4.95-.553 7.049 2.73 3.195 6.707 5.028 10.908 5.028 7.911 0 14.347-6.436 14.347-14.346v-26.558c.001-2.76-2.238-4.999-4.999-4.999zm-9.347 17.86c-2.396 0-4.346-1.95-4.346-4.346s1.949-4.346 4.346-4.346 4.347 1.95 4.347 4.346c0 2.397-1.951 4.346-4.347 4.346z"/></g></g></g></g></svg>