<svg id="Capa_1" enable-background="new 0 0 512 512" height="512" viewBox="0 0 512 512" width="512" xmlns="http://www.w3.org/2000/svg" xmlns:xlink="http://www.w3.org/1999/xlink"><linearGradient id="SVGID_1_" gradientUnits="userSpaceOnUse" x1="278.123" x2="234.123" y1="492.018" y2="106.018"><stop offset="0" stop-color="#c6d1ff"/><stop offset=".5834" stop-color="#e6d5f4"/><stop offset=".997" stop-color="#ffd9ec"/></linearGradient><g><g><path d="m364.823 55.263c-69.098-27.035-164.784-16.764-217.662 31.51-37.336 34.085-8.439 43.8 17.016 106.17 18.423 45.14-164.177 38.927-164.177 120.495 0 94.299 132.251 76.424 181.329 87.218 75.036 16.504 140.496 78.242 220.668 70.103 69.795-7.086 96.403-61.855 106.109-124.642 18.082-116.976-26.329-245.094-143.283-290.854z" fill="url(#SVGID_1_)"/></g><g><path d="m473.959 437.17h-5.315l-35.363-68.385c-6.476-12.523-19.396-20.387-33.495-20.387h-15.129v-23.807h57.114c8.284 0 15-6.716 15-15 0-5.133-4.161-9.294-9.294-9.294h-73.057c5.525-.006 9.989-4.483 9.989-9.999v-136.83c0-5.52-4.47-10-10-10h-183.768c-5.377-26.94-29.151-47.242-57.672-47.242-32.484 0-58.817 26.333-58.817 58.817 0 30.669 23.477 55.843 53.437 58.561v76.694c0 5.516 4.464 9.993 9.989 9.999h-73.056c-5.133 0-9.294 4.161-9.294 9.294 0 8.284 6.716 15 15 15h57.114v23.807h-15.129c-14.098 0-27.019 7.865-33.495 20.387l-35.362 68.385h-5.315c-5.523 0-10 4.477-10 10v3.195c0 5.523 4.477 10 10 10h435.918c5.523 0 10-4.477 10-10v-3.195c0-5.523-4.477-10-10-10zm-301.677-112.579h167.436v23.807h-167.436z" fill="#2626bc" opacity=".1"/><g><g fill="#9fb0fe"><path d="m127.343 296.439h44.94v30.112h-44.94z"/><path d="m339.718 296.439h44.94v30.112h-44.94z"/></g><path d="m472.739 420.088h-433.478l39.457-76.303c6.476-12.523 19.396-20.387 33.495-20.387h287.574c14.098 0 27.019 7.864 33.495 20.387z" fill="#6583fe"/><path d="m473.959 435.364h-435.918c-5.523 0-10-4.477-10-10v-3.195c0-5.523 4.477-10 10-10h435.919c5.523 0 10 4.477 10 10v3.195c-.001 5.523-4.478 10-10.001 10z" fill="#9fb0fe"/><path d="m441.771 299.591h-371.542c-8.284 0-15-6.716-15-15 0-5.133 4.161-9.294 9.294-9.294h382.955c5.133 0 9.294 4.161 9.294 9.294-.001 8.285-6.716 15-15.001 15z" fill="#d2deff"/><g><path d="m398.783 389.321h-119.635c-2.761 0-5-2.239-5-5v-29.921c0-2.761 2.239-5 5-5h119.635c2.761 0 5 2.239 5 5v29.921c0 2.761-2.238 5-5 5z" fill="#02ffb3"/><path d="m395.178 349.4h-17.507c-13.307 13.307-26.614 26.614-39.921 39.921h17.453c13.334-13.299 26.662-26.602 39.975-39.921z" fill="#97ffd2"/><path d="m363.609 349.4h-35.393c-13.307 13.307-26.614 26.614-39.921 39.921h35.382c13.291-13.326 26.6-26.635 39.932-39.921z" fill="#97ffd2"/><g fill="#b7c5ff"><g><path d="m121.206 366.718h-8.661c-2.391 0-4.329-1.938-4.329-4.329v-8.661c0-2.391 1.938-4.329 4.329-4.329h8.661c2.391 0 4.329 1.938 4.329 4.329v8.661c0 2.391-1.938 4.329-4.329 4.329z"/><path d="m145.959 366.718h-8.661c-2.391 0-4.329-1.938-4.329-4.329v-8.661c0-2.391 1.938-4.329 4.329-4.329h8.661c2.391 0 4.329 1.938 4.329 4.329v8.661c0 2.391-1.938 4.329-4.329 4.329z"/><path d="m170.713 366.718h-8.661c-2.391 0-4.329-1.938-4.329-4.329v-8.661c0-2.391 1.938-4.329 4.329-4.329h8.661c2.391 0 4.329 1.938 4.329 4.329v8.661c-.001 2.391-1.939 4.329-4.329 4.329z"/><path d="m195.466 366.718h-8.661c-2.391 0-4.329-1.938-4.329-4.329v-8.661c0-2.391 1.938-4.329 4.329-4.329h8.661c2.391 0 4.329 1.938 4.329 4.329v8.661c0 2.391-1.938 4.329-4.329 4.329z"/><path d="m220.219 366.718h-8.661c-2.391 0-4.329-1.938-4.329-4.329v-8.661c0-2.391 1.938-4.329 4.329-4.329h8.661c2.391 0 4.329 1.938 4.329 4.329v8.661c0 2.391-1.938 4.329-4.329 4.329z"/><path d="m244.972 366.718h-8.661c-2.391 0-4.329-1.938-4.329-4.329v-8.661c0-2.391 1.938-4.329 4.329-4.329h8.661c2.391 0 4.329 1.938 4.329 4.329v8.661c0 2.391-1.938 4.329-4.329 4.329z"/></g><g><path d="m121.206 389.321h-8.661c-2.391 0-4.329-1.938-4.329-4.329v-8.661c0-2.391 1.938-4.329 4.329-4.329h8.661c2.391 0 4.329 1.938 4.329 4.329v8.661c0 2.391-1.938 4.329-4.329 4.329z"/><path d="m145.959 389.321h-8.661c-2.391 0-4.329-1.938-4.329-4.329v-8.661c0-2.391 1.938-4.329 4.329-4.329h8.661c2.391 0 4.329 1.938 4.329 4.329v8.661c0 2.391-1.938 4.329-4.329 4.329z"/><path d="m170.713 389.321h-8.661c-2.391 0-4.329-1.938-4.329-4.329v-8.661c0-2.391 1.938-4.329 4.329-4.329h8.661c2.391 0 4.329 1.938 4.329 4.329v8.661c-.001 2.391-1.939 4.329-4.329 4.329z"/><path d="m244.972 389.321h-58.167c-2.391 0-4.329-1.938-4.329-4.329v-8.661c0-2.391 1.938-4.329 4.329-4.329h58.167c2.391 0 4.329 1.938 4.329 4.329v8.661c0 2.391-1.938 4.329-4.329 4.329z"/></g></g></g></g><g><g><g><g><path d="m384.41 128.468v136.83c0 5.52-4.47 10-10 10h-236.82c-5.53 0-10-4.48-10-10v-136.83c0-5.52 4.47-10 10-10h236.82c5.53 0 10 4.48 10 10z" fill="#02ffb3"/><path d="m191.79 151.538c0 32.49-26.34 58.82-58.82 58.82-1.81 0-3.61-.08-5.38-.24v-81.65c0-5.52 4.47-10 10-10h44.02c6.42 9.42 10.18 20.81 10.18 33.07z" fill="#01eca5"/><path d="m270.738 162.829h-29.476c-2.761 0-5-2.239-5-5v-39.36h39.476v39.36c0 2.762-2.238 5-5 5z" fill="#dcfdee"/></g></g><g><g><path d="m296.66 212.014h58.583c2.761 0 5-2.239 5-5s-2.239-5-5-5h-58.583c-2.761 0-5 2.239-5 5s2.239 5 5 5z" fill="#00d890"/></g><g><path d="m326.66 232.336h28.583c2.761 0 5-2.239 5-5s-2.239-5-5-5h-28.583c-2.761 0-5 2.239-5 5s2.239 5 5 5z" fill="#00d890"/></g><g><path d="m326.66 249.657h28.583c2.761 0 5-2.239 5-5s-2.239-5-5-5h-28.583c-2.761 0-5 2.239-5 5s2.239 5 5 5z" fill="#00d890"/></g></g></g><path d="m194.795 255.771h-39.982c-2.761 0-5-2.239-5-5v-12.228c0-2.761 2.239-5 5-5h39.982c2.761 0 5 2.239 5 5v12.228c0 2.762-2.239 5-5 5z" fill="#ff7eb8"/></g><g><g><circle cx="132.97" cy="130.043" fill="#ff7eb8" r="58.817"/><path d="m473.959 407.17h-2.271l-33.965-65.681c-7.365-14.243-21.901-23.091-37.936-23.091h-10.13v-13.807h52.114c11.028 0 20-8.972 20-20 0-7.882-6.412-14.294-14.294-14.294h-58.938c.556-1.567.875-3.245.875-5v-136.828c0-8.271-6.729-15-15-15h-179.824c-7.318-27.177-32.164-47.243-61.62-47.243-35.188 0-63.816 28.628-63.816 63.817 0 35.188 28.628 63.816 63.816 63.816s63.816-28.628 63.816-63.816c0-2.219-.115-4.412-.338-6.574h177.965c2.757 0 5 2.243 5 5v136.829c0 2.757-2.243 5-5 5h-236.827c-2.757 0-5-2.243-5-5v-48.019c0-2.761-2.238-5-5-5s-5 2.239-5 5v48.019c0 1.755.319 3.433.875 5h-58.939c-7.882 0-14.294 6.412-14.294 14.294 0 11.028 8.972 20 20 20h52.114v13.807h-10.13c-16.034 0-30.57 8.848-37.936 23.09l-33.964 65.681h-2.271c-8.271 0-15 6.729-15 15v3.194c0 8.271 6.729 15 15 15h435.918c8.271 0 15-6.729 15-15v-3.194c0-8.271-6.729-15-15-15zm-340.989-223.311c-29.675 0-53.816-24.142-53.816-53.816 0-29.675 24.142-53.817 53.816-53.817s53.816 24.142 53.816 53.817c0 29.674-24.141 53.816-53.816 53.816zm246.687 134.539h-34.939v-13.807h34.939zm-202.375-13.807h157.436v13.807h-157.436zm-107.053-10c-5.514 0-10-4.486-10-10 0-2.368 1.926-4.294 4.294-4.294h382.955c2.368 0 4.294 1.926 4.294 4.294 0 5.514-4.486 10-10 10zm62.114 10h34.939v13.807h-34.939zm346.616 120.773c0 2.757-2.243 5-5 5h-435.918c-2.757 0-5-2.243-5-5v-3.194c0-2.757 2.243-5 5-5h293.953c2.762 0 5-2.239 5-5s-2.238-5-5-5h-280.424l31.59-61.088c5.641-10.908 16.772-17.684 29.053-17.684h287.574c12.28 0 23.412 6.776 29.053 17.684l31.59 61.088h-99.183c-2.762 0-5 2.239-5 5s2.238 5 5 5h112.713c2.757 0 5 2.243 5 5v3.194z" fill="#2626bc"/></g><g fill="#fff"><path d="m130.691 105.037c-1.783-2.105-4.941-2.365-7.047-.579l-11.19 9.493v-5.68c0-2.761-2.238-5-5-5s-5 2.239-5 5v32.958c0 2.761 2.238 5 5 5s5-2.239 5-5v-5.68l11.19 9.493c.939.797 2.089 1.187 3.231 1.187 1.418 0 2.827-.6 3.815-1.766 1.787-2.105 1.527-5.261-.578-7.047l-14.93-12.666 14.93-12.666c2.108-1.787 2.367-4.942.579-7.047z"/><path d="m158.486 113.618c-1.001 0-1.928.301-2.71.807-1.987-1.042-4.242-1.639-6.637-1.639-7.91 0-14.346 6.436-14.346 14.346s6.436 14.346 14.346 14.346c1.515 0 2.975-.24 4.347-.677v4.374c0 2.396-1.95 4.346-4.347 4.346-1.272 0-2.478-.556-3.307-1.525-1.796-2.1-4.952-2.346-7.049-.552-2.1 1.794-2.347 4.95-.553 7.049 2.73 3.195 6.707 5.028 10.908 5.028 7.911 0 14.347-6.436 14.347-14.346v-26.558c.001-2.76-2.237-4.999-4.999-4.999zm-9.346 17.861c-2.396 0-4.346-1.95-4.346-4.346s1.949-4.346 4.346-4.346 4.347 1.95 4.347 4.346-1.951 4.346-4.347 4.346z"/></g></g><path d="m74.153 227.329c-3.714 0-7.426-1.413-10.253-4.24-5.654-5.654-5.654-14.853 0-20.506 5.652-5.653 14.853-5.654 20.505 0 2.739 2.739 4.248 6.38 4.248 10.253 0 3.874-1.509 7.515-4.248 10.254-2.826 2.826-6.54 4.239-10.252 4.239zm0-18.991c-1.152 0-2.305.438-3.183 1.316-1.754 1.754-1.754 4.609 0 6.364 1.755 1.754 4.607 1.755 6.364 0 .851-.85 1.318-1.98 1.318-3.182s-.468-2.332-1.318-3.181c-.877-.879-2.029-1.317-3.181-1.317z" fill="#ff7eb8"/><path d="m384.41 69.492c-3.714 0-7.426-1.413-10.253-4.24-5.654-5.654-5.654-14.853 0-20.506 5.651-5.652 14.852-5.654 20.505 0 2.739 2.739 4.248 6.38 4.248 10.253 0 3.874-1.509 7.515-4.248 10.254-2.826 2.826-6.54 4.239-10.252 4.239zm0-18.991c-1.152 0-2.305.438-3.183 1.316-1.754 1.754-1.754 4.609 0 6.364 1.755 1.754 4.607 1.755 6.364 0 .851-.85 1.318-1.98 1.318-3.182s-.468-2.332-1.318-3.181c-.877-.878-2.029-1.317-3.181-1.317z" fill="#00eca2"/><path d="m439.679 227.336c-1.279 0-2.56-.488-3.535-1.464l-5.965-5.964-5.965 5.964c-1.951 1.952-5.119 1.952-7.07 0-1.953-1.953-1.953-5.119 0-7.071l9.5-9.5c1.951-1.952 5.119-1.952 7.07 0l9.5 9.5c1.953 1.953 1.953 5.119 0 7.071-.976.976-2.256 1.464-3.535 1.464z" fill="#6583fe"/><path d="m297.794 471.494c-1.279 0-2.56-.488-3.535-1.464l-5.965-5.964-5.965 5.964c-1.951 1.952-5.119 1.952-7.07 0-1.953-1.953-1.953-5.119 0-7.071l9.5-9.5c1.951-1.952 5.119-1.952 7.07 0l9.5 9.5c1.953 1.953 1.953 5.119 0 7.071-.975.976-2.256 1.464-3.535 1.464z" fill="#00eca2"/><path d="m348.466 86.249c-1.279 0-2.56-.488-3.535-1.464l-5.965-5.964-5.965 5.964c-1.951 1.952-5.119 1.952-7.07 0-1.953-1.953-1.953-5.119 0-7.071l9.5-9.5c1.951-1.952 5.119-1.952 7.07 0l9.5 9.5c1.953 1.953 1.953 5.119 0 7.071-.976.976-2.256 1.464-3.535 1.464z" fill="#ff7eb8"/></g></g></svg>