<svg id="Capa_1" enable-background="new 0 0 512 512" height="512" viewBox="0 0 512 512" width="512" xmlns="http://www.w3.org/2000/svg" xmlns:xlink="http://www.w3.org/1999/xlink"><linearGradient id="SVGID_1_" gradientUnits="userSpaceOnUse" x1="125.669" x2="334.669" y1="420.174" y2="150.174"><stop offset=".0112" stop-color="#dafced"/><stop offset=".761" stop-color="#cbdcfa"/><stop offset="1" stop-color="#c6d1ff"/></linearGradient><g><g><path d="m38.145 134.71c19.974-57.707 57.562-157.818 137.712-129.893 31.204 10.872 41.003 52.164 72.37 57.311 29.626 4.861 54.704-24.255 82.89-29.776 35.014-6.859 72.067 2.317 85.37 36.48 15.916 40.874-30.997 86.737-19.655 124.062 18.708 61.564 87.863-40.471 100.229 58.88 17.304 139.025-136.801 386.519-240.619 182.998-52.643-103.199-107.815-30.825-189.876-82.161-77.922-48.747-53.805-144.567-28.421-217.901z" fill="url(#SVGID_1_)"/></g><g><path d="m445.937 356.386-87.08-87.08c30.157-39.394 27.221-95.994-8.817-132.033-31.117-31.117-77.564-37.553-115.029-19.319-9.399-15.763-26.611-26.326-46.297-26.326-29.753 0-53.873 24.12-53.873 53.873 0 26.431 19.04 48.401 44.149 52.981-.525 5.367-.615 10.767-.279 16.146h-102.2c-7.93 0-14.36 6.42-14.36 14.35v227.04c0 7.93 6.43 14.35 14.36 14.35h227.04c7.92 0 14.35-6.42 14.35-14.35v-155.032c7.749-3.251 15.173-7.514 22.07-12.793l87.08 87.08c5.215 5.215 13.671 5.215 18.886 0 5.216-5.216 5.216-13.672 0-18.887z" fill="#2626bc" opacity=".1"/><g><g><g><g><path d="m317.901 203.978v227.04c0 7.93-6.43 14.35-14.35 14.35h-227.04c-7.93 0-14.36-6.42-14.36-14.35v-227.04c0-7.93 6.43-14.35 14.36-14.35h227.04c7.92 0 14.35 6.42 14.35 14.35z" fill="#ffa8cf"/><path d="m317.901 203.978v95.16c-36.51 15.32-80.23 8.12-109.96-21.61-23.92-23.92-33.26-56.91-28.01-87.9h123.62c7.92 0 14.35 6.42 14.35 14.35z" fill="#ff7eb8"/><path d="m98.042 225.513h183.971v183.97h-183.971z" fill="#ff5ba8" transform="matrix(0 1 -1 0 507.526 127.47)"/><g fill="#ff7eb8"><path d="m217.311 285.818-119.26 119.26v-162.89h73.048c8.105 0 15.449 4.557 19.274 11.702 4.545 8.492 10.401 16.47 17.569 23.637 2.989 2.991 6.119 5.751 9.369 8.291z"/><path d="m265.347 327.835v81.654h-120.96l93.175-93.164c10.254-10.252 27.785-2.99 27.785 11.51z"/></g></g><path d="m303.751 229.278-67.95 67.95-129.69 129.68-25.37-25.37 125.62-125.63 72.01-72.01z" fill="#ffa8cf"/><path d="m303.751 229.278-67.95 67.95c-10.08-4.79-19.52-11.36-27.86-19.7-.53-.53-1.06-1.07-1.58-1.62l72.01-72.01z" fill="#ff7eb8"/></g><g><g><path d="m445.937 350.272c-5.215 5.215-13.671 5.215-18.886 0l-98.065-98.065 18.886-18.887 98.065 98.065c5.216 5.216 5.216 13.672 0 18.887z" fill="#8399fe"/><path d="m370.251 255.698c-2.73 3.46-5.7 6.79-8.9 9.99-3.18 3.18-6.51 6.15-9.98 8.91l-22.39-22.39 18.89-18.89z" fill="#6583fe"/><path d="m395.798 319.02 31.253 31.253c5.215 5.215 13.671 5.215 18.886 0s5.215-13.671 0-18.886l-31.253-31.253z" fill="#ff5ba8"/></g><circle cx="278.989" cy="183.324" fill="#00d890" r="100.481"/><path d="m242.591 143.958c0 29.75-24.12 53.87-53.88 53.87-3.16 0-6.25-.27-9.26-.8-4.12-30.06 5.38-61.64 28.49-84.75 4.19-4.19 8.66-7.93 13.35-11.23 12.94 9.84 21.3 25.4 21.3 42.91z" fill="#00d890"/><circle cx="278.989" cy="183.324" fill="#02ffb3" r="77.332"/></g><path d="m332.737 170.288v68.62c-30.26 29.3-78.54 28.99-108.43-.9-22.19-22.19-28.07-54.51-17.65-82.08h111.73c7.93 0 14.35 6.43 14.35 14.36z" fill="#ffa8cf"/><path d="m241.251 155.928c-4.41 19.46-19.37 34.92-38.55 40.06-2.21-13.38-.89-27.23 3.96-40.06z" fill="#ff7eb8"/><path d="m280.797 203.698v56.94c-20.39.47-40.93-7.07-56.49-22.63-9.87-9.87-16.51-21.74-19.93-34.31z" fill="#ff7eb8"/><path d="m204.377 203.698c2.344 8.614 6.201 16.898 11.572 24.436h36.792v27.926c9.042 3.256 18.562 4.797 28.056 4.578v-56.94z" fill="#ff5ba8"/></g><g><g><circle cx="188.715" cy="120.501" fill="#8399fe" r="53.873"/><path d="m449.473 327.85-66.586-66.586c-1.951-1.952-5.119-1.952-7.07 0-1.953 1.953-1.953 5.119 0 7.071l66.585 66.585c3.258 3.258 3.258 8.558.001 11.815-1.578 1.578-3.677 2.447-5.908 2.447-2.232 0-4.33-.869-5.908-2.447l-83.152-83.152c2.103-1.796 4.153-3.686 6.141-5.674 41.127-41.127 41.127-108.046 0-149.173-30.669-30.67-77.203-39.355-116.755-22.114-10.668-15.104-28.248-24.996-48.105-24.996-32.463 0-58.873 26.41-58.873 58.873 0 27.267 18.635 50.256 43.836 56.919-1.68 30.007 9.405 59.171 30.725 80.491 20.563 20.563 47.574 30.845 74.586 30.845 11.469 0 22.937-1.861 33.912-5.568v147.827c0 5.159-4.197 9.355-9.355 9.355h-227.038c-5.158 0-9.355-4.197-9.355-9.355v-227.035c0-5.159 4.197-9.355 9.355-9.355h73.407c2.762 0 5-2.239 5-5s-2.238-5-5-5h-73.407c-10.673 0-19.355 8.683-19.355 19.355v227.037c0 10.673 8.683 19.355 19.355 19.355h227.037c10.673 0 19.355-8.683 19.355-19.355v-151.785c5.735-2.618 11.282-5.775 16.563-9.474l84.051 84.051c3.467 3.467 8.076 5.376 12.979 5.376 4.902 0 9.512-1.909 12.979-5.376 7.156-7.156 7.156-18.8 0-25.957zm-309.631-207.35c0-26.948 21.925-48.873 48.873-48.873s48.873 21.924 48.873 48.873-21.925 48.873-48.873 48.873-48.873-21.924-48.873-48.873zm71.632 130.339c-19.023-19.023-29.041-44.947-27.866-71.701 1.685.146 3.386.236 5.108.236 32.463 0 58.873-26.41 58.873-58.873 0-9.008-2.04-17.547-5.673-25.188 35.563-14.972 77.111-6.983 104.59 20.497 37.228 37.228 37.228 97.802 0 135.03-37.23 37.228-97.804 37.228-135.032-.001z" fill="#2626bc"/></g><g><path d="m180.761 150.918c-.188 0-.376-.008-.565-.025-2.425-.213-4.524-1.772-5.428-4.032l-6.984-17.46c-.141-.354-.48-.583-.861-.583-3.564 0-6.453-2.889-6.453-6.453s2.889-6.453 6.453-6.453c5.689 0 10.731 3.413 12.844 8.696l2.243 5.606 23.013-37.08c1.88-3.029 5.858-3.959 8.885-2.08 3.028 1.88 3.959 5.857 2.079 8.886l-29.746 47.928c-1.182 1.907-3.262 3.05-5.48 3.05z" fill="#fff"/></g></g></g><path d="m440.186 188.874c-1.279 0-2.56-.488-3.535-1.464l-5.965-5.964-5.965 5.964c-1.951 1.952-5.119 1.952-7.07 0-1.953-1.953-1.953-5.119 0-7.071l9.5-9.5c1.951-1.952 5.119-1.952 7.07 0l9.5 9.5c1.953 1.953 1.953 5.119 0 7.071-.976.975-2.256 1.464-3.535 1.464z" fill="#ff7eb8"/><path d="m98.043 151.785c-3.873 0-7.515-1.508-10.254-4.248-2.738-2.738-4.246-6.379-4.246-10.252s1.508-7.514 4.247-10.253c5.652-5.653 14.854-5.653 20.506 0 2.739 2.739 4.247 6.38 4.247 10.253 0 3.874-1.508 7.515-4.247 10.253-2.738 2.738-6.38 4.247-10.253 4.247zm0-18.998c-1.152 0-2.305.438-3.183 1.316-.85.85-1.317 1.98-1.317 3.182s.468 2.332 1.317 3.182c.851.851 1.98 1.318 3.183 1.318s2.332-.468 3.182-1.318c.851-.85 1.318-1.98 1.318-3.182s-.468-2.332-1.317-3.182c-.878-.877-2.031-1.316-3.183-1.316z" fill="#6583fe"/><path d="m464.196 247.82c-3.873 0-7.515-1.508-10.254-4.248-2.738-2.738-4.246-6.379-4.246-10.252s1.508-7.514 4.247-10.253c5.652-5.653 14.854-5.653 20.506 0 2.739 2.739 4.247 6.38 4.247 10.253 0 3.874-1.508 7.515-4.247 10.253-2.738 2.739-6.38 4.247-10.253 4.247zm0-18.997c-1.152 0-2.305.438-3.183 1.316-.85.85-1.317 1.98-1.317 3.182s.468 2.332 1.317 3.182c.851.851 1.98 1.318 3.183 1.318s2.332-.468 3.182-1.318c.851-.85 1.318-1.98 1.318-3.182s-.468-2.332-1.317-3.182c-.878-.878-2.03-1.316-3.183-1.316z" fill="#6583fe"/><path d="m395.799 441.4c-3.714 0-7.427-1.413-10.253-4.24-5.654-5.654-5.654-14.853 0-20.506 5.652-5.653 14.853-5.654 20.505 0 5.654 5.654 5.654 14.853 0 20.506-2.826 2.827-6.539 4.24-10.252 4.24zm0-18.99c-1.152 0-2.305.438-3.183 1.316-1.754 1.754-1.754 4.609 0 6.364 1.756 1.754 4.608 1.756 6.364 0 1.754-1.754 1.754-4.609 0-6.364-.877-.878-2.03-1.316-3.181-1.316z" fill="#ff7eb8"/><path d="m359.116 465.741c-1.279 0-2.56-.488-3.535-1.464l-5.965-5.964-5.965 5.964c-1.951 1.952-5.119 1.952-7.07 0-1.953-1.953-1.953-5.119 0-7.071l9.5-9.5c1.951-1.952 5.119-1.952 7.07 0l9.5 9.5c1.953 1.953 1.953 5.119 0 7.071-.975.976-2.255 1.464-3.535 1.464z" fill="#00eca2"/></g></g></svg>