<svg id="Capa_1" enable-background="new 0 0 512 512" height="512" viewBox="0 0 512 512" width="512" xmlns="http://www.w3.org/2000/svg" xmlns:xlink="http://www.w3.org/1999/xlink"><linearGradient id="SVGID_1_" gradientUnits="userSpaceOnUse" x1="152.291" x2="397.291" y1="419.371" y2="64.371"><stop offset="0" stop-color="#c6d1ff"/><stop offset=".5834" stop-color="#e6d5f4"/><stop offset=".997" stop-color="#ffd9ec"/></linearGradient><g><g><path d="m501.873 142.018c-22.357-56.888-91.226-91.003-149.556-68.427-66.582 25.769-44.506 131.673-104.983 153.088-32.669 11.568-80.963-31.644-113.969-38.271-60.821-12.21-115.881 30.705-129.439 90.134-13.832 60.63 8.353 141.61 74.967 158.066 79.35 19.602 120.683-51.729 187.249-72.211 68.31-21.019 144.263 28.622 200.814-31.776 41.78-44.62 57.055-134.271 34.917-190.603z" fill="url(#SVGID_1_)"/></g><g><path d="m455.584 225.902c-8.796 0-16.883 3.017-23.301 8.061-.586-3.714-3.792-6.557-7.671-6.557-9.685 0-18.515 3.651-25.198 9.647v-144.693c0-5.523-4.477-10-10-10h-266.828c-5.523 0-10 4.477-10 10v144.694c-6.683-5.996-15.513-9.647-25.198-9.647-3.879 0-7.085 2.843-7.671 6.557-6.418-5.044-14.505-8.061-23.301-8.061-4.294 0-7.776 3.481-7.776 7.776v33.015c0 4.336.882 8.626 2.591 12.611l31.26 72.848c3.673 8.56 10.017 15.702 18.084 20.36l47.658 27.515c9.099 5.253 14.705 14.962 14.705 25.469v24.144c0 5.523 4.477 10 10 10h58.078c5.523 0 10-4.477 10-10v-83.03c0-6.065-1.352-12.007-3.896-17.422h37.756c-2.544 5.415-3.896 11.357-3.896 17.422v83.03c0 5.523 4.477 10 10 10h58.078c5.523 0 10-4.477 10-10v-24.144c0-10.507 5.605-20.216 14.705-25.469l47.658-27.515c8.067-4.657 14.411-11.8 18.084-20.36l31.26-72.848c1.71-3.984 2.591-8.275 2.591-12.611v-33.015c.003-4.295-3.478-7.777-7.772-7.777z" fill="#2626bc" opacity=".1"/><path d="m392.473 330.956 37.324-75.149c1.71-3.984 2.592-8.275 2.592-12.611v-33.015c0-4.294-3.481-7.776-7.776-7.776-20.849 0-37.75 16.901-37.75 37.75 0 8.064-2.08 15.991-6.039 23.016l-38.82 67.784h50.469z" fill="#ff7eb8"/><path d="m119.527 330.956-37.324-75.149c-1.71-3.984-2.592-8.275-2.592-12.611v-33.015c0-4.294 3.481-7.776 7.776-7.776 20.849 0 37.75 16.901 37.75 37.75 0 8.064 2.08 15.991 6.039 23.016l38.82 67.784h-50.469z" fill="#ff7eb8"/><g><g><g><path d="m389.414 324.188h-266.828c-5.523 0-10-4.477-10-10v-246.828c0-5.523 4.477-10 10-10h266.828c5.523 0 10 4.477 10 10v246.828c0 5.523-4.477 10-10 10z" fill="#02ffb3"/><g fill="#00d890"><path d="m146.468 208.413v21.304c0 2.761 2.239 5 5 5s5-2.239 5-5v-21.303c.531.184 1.083.294 1.639.294 1.28 0 2.559-.488 3.536-1.464 1.953-1.953 1.953-5.119 0-7.071l-6.639-6.639c-1.878-1.922-5.193-1.922-7.071 0l-6.639 6.639c-1.953 1.953-1.953 5.119 0 7.071 1.4 1.399 3.42 1.778 5.174 1.169z"/><path d="m176.709 208.413v21.304c0 2.761 2.239 5 5 5s5-2.239 5-5v-21.303c.531.184 1.083.294 1.639.294 1.28 0 2.559-.488 3.536-1.464 1.953-1.953 1.953-5.119 0-7.071l-6.639-6.639c-1.878-1.922-5.193-1.922-7.071 0l-6.639 6.639c-1.953 1.953-1.953 5.119 0 7.071 1.401 1.399 3.421 1.778 5.174 1.169z"/><path d="m188.348 239.362h-42.542c-2.761 0-5 2.239-5 5s2.239 5 5 5h42.542c2.761 0 5-2.239 5-5s-2.239-5-5-5z"/></g><path d="m270.738 131.72h-29.476c-2.761 0-5-2.239-5-5v-69.36h39.476v69.36c0 2.761-2.238 5-5 5z" fill="#6583fe"/></g><g><g><path d="m226.708 159.426h58.583c2.761 0 5-2.239 5-5s-2.239-5-5-5h-58.583c-2.761 0-5 2.239-5 5s2.239 5 5 5z" fill="#fff"/></g><g><path d="m241.708 179.747h28.583c2.761 0 5-2.239 5-5s-2.239-5-5-5h-28.583c-2.761 0-5 2.239-5 5s2.239 5 5 5z" fill="#fff"/></g><g><path d="m241.708 197.069h28.583c2.761 0 5-2.239 5-5s-2.239-5-5-5h-28.583c-2.761 0-5 2.239-5 5s2.239 5 5 5z" fill="#fff"/></g></g><path d="m219.131 306.471h-77.134c-2.761 0-5-2.239-5-5v-32.154c0-2.761 2.239-5 5-5h77.134c2.761 0 5 2.239 5 5v32.154c0 2.762-2.238 5-5 5z" fill="#00d890"/></g></g><path d="m280.26 315.643 43.442-53.037c3.802-4.641 6.776-9.902 8.794-15.552 4.8-13.439 18.859-21.198 32.788-18.094 8.943 1.993 14.194 11.289 11.285 19.977l-6.961 20.79c-1.224 3.656-3.169 7.03-5.719 9.923l-36.792 41.734 47.088-7.261c5.634-.964 10.535-4.415 13.341-9.395l24.267-43.059c3.959-7.025 6.039-14.952 6.039-23.016 0-20.849 16.901-37.75 37.75-37.75 4.294 0 7.776 3.481 7.776 7.776v33.015c0 4.336-.882 8.626-2.592 12.611l-31.26 72.848c-3.673 8.56-10.017 15.702-18.084 20.36l-47.658 27.515c-9.099 5.253-14.705 14.962-14.705 25.469v34.144h-78.078v-93.03c.002-9.468 3.28-18.644 9.279-25.968z" fill="#ffa8cf"/><path d="m231.74 315.643-43.442-53.037c-3.802-4.641-6.776-9.902-8.794-15.552-4.8-13.439-18.859-21.198-32.788-18.094-8.943 1.993-14.194 11.289-11.285 19.977l6.961 20.79c1.224 3.656 3.169 7.03 5.719 9.923l36.792 41.734-47.088-7.261c-5.634-.964-10.535-4.415-13.341-9.395l-24.267-43.059c-3.959-7.025-6.039-14.952-6.039-23.016 0-20.849-16.901-37.75-37.75-37.75-4.294 0-7.776 3.481-7.776 7.776v33.015c0 4.336.882 8.626 2.592 12.611l31.26 72.848c3.673 8.56 10.017 15.702 18.084 20.36l47.658 27.515c9.099 5.253 14.705 14.962 14.705 25.469v34.144h78.078v-93.03c-.002-9.468-3.28-18.644-9.279-25.968z" fill="#ffa8cf"/><path d="m455.583 195.903c-7.815 0-15.141 2.118-21.451 5.795-2.38-2.652-5.824-4.292-9.521-4.292-7.078 0-14.023 1.778-20.198 5.084v-135.13c0-8.271-6.729-15-15-15h-35.655c-2.761 0-5 2.239-5 5s2.239 5 5 5h35.655c2.757 0 5 2.243 5 5v214.396c0 .165.033.321.049.482l-11.291 20.035c-2.077 3.685-5.659 6.208-9.748 6.909l-33.45 5.158 27.667-31.383c3.007-3.412 5.265-7.329 6.708-11.642l6.961-20.79c1.835-5.482 1.257-11.514-1.586-16.547s-7.71-8.641-13.353-9.898c-16.357-3.645-32.947 5.508-38.583 21.292-1.831 5.125-4.507 9.856-7.954 14.065l-43.442 53.038c-1.725 2.106-3.247 4.356-4.562 6.713h-31.659c-1.315-2.358-2.837-4.608-4.562-6.713l-43.442-53.038c-3.447-4.208-6.124-8.94-7.954-14.065-5.637-15.784-22.224-24.937-38.584-21.292-5.642 1.257-10.509 4.865-13.353 9.898s-3.422 11.064-1.586 16.547l6.961 20.79c1.444 4.313 3.701 8.23 6.709 11.642l27.667 31.382-33.368-5.145c-4.17-.714-7.752-3.237-9.829-6.922l-11.243-19.948v-29.761c0-2.761-2.239-5-5-5s-5 2.239-5 5v12.018l-3.025-5.367c-3.529-6.262-5.395-13.373-5.395-20.562 0-12.115-5.074-23.06-13.197-30.846.421-.251.906-.4 1.42-.4 7.321 0 14.458 2.476 20.198 6.978v8.927c0 2.761 2.239 5 5 5s5-2.239 5-5v-155.951c0-2.757 2.243-5 5-5h201.921c2.761 0 5-2.239 5-5s-2.239-5-5-5h-201.922c-8.271 0-15 6.729-15 15v135.13c-6.174-3.306-13.12-5.084-20.198-5.084-3.718 0-7.154 1.635-9.527 4.288-6.309-3.675-13.632-5.791-21.444-5.791-7.044 0-12.776 5.731-12.776 12.776v33.014c0 5.043 1.008 9.95 2.997 14.583l31.26 72.848c4.071 9.488 11.238 17.556 20.179 22.718l47.658 27.515c7.528 4.346 12.205 12.446 12.205 21.139v34.144c0 2.761 2.239 5 5 5s5-2.239 5-5v-34.144c0-12.254-6.592-23.672-17.205-29.799l-47.658-27.515c-7.085-4.09-12.764-10.483-15.99-18.001l-31.26-72.848c-1.451-3.38-2.186-6.96-2.186-10.64v-33.014c0-1.531 1.245-2.776 2.776-2.776 18.058 0 32.75 14.691 32.75 32.75 0 8.905 2.311 17.713 6.683 25.471l24.268 43.059c3.562 6.319 9.704 10.645 16.935 11.881l47.088 7.261c2.08.323 4.138-.695 5.148-2.542 1.01-1.846.756-4.128-.636-5.707l-36.792-41.733c-2.12-2.405-3.71-5.165-4.728-8.204l-6.961-20.79c-.951-2.842-.664-5.844.811-8.453 1.474-2.609 3.896-4.404 6.821-5.056 11.443-2.553 23.048 3.853 26.992 14.895 2.217 6.208 5.459 11.94 9.635 17.039l43.442 53.038c5.253 6.413 8.146 14.509 8.146 22.798v93.03c0 2.761 2.239 5 5 5s5-2.239 5-5v-93.03c0-4.221-.596-8.4-1.727-12.422h23.419c-1.131 4.022-1.727 8.201-1.727 12.422v93.03c0 2.761 2.239 5 5 5s5-2.239 5-5v-93.03c0-8.289 2.893-16.386 8.146-22.798l43.442-53.038c4.176-5.098 7.417-10.831 9.635-17.039 3.943-11.042 15.548-17.444 26.992-14.895 2.924.651 5.347 2.447 6.821 5.056s1.762 5.611.811 8.453l-6.961 20.79c-1.018 3.039-2.608 5.799-4.728 8.204l-36.792 41.733c-1.392 1.579-1.646 3.86-.636 5.707s3.07 2.866 5.148 2.542l47.17-7.274c7.149-1.224 13.292-5.549 16.854-11.868l24.268-43.06c4.372-7.758 6.683-16.566 6.683-25.471 0-18.058 14.691-32.75 32.75-32.75 1.531 0 2.776 1.245 2.776 2.776v33.014c0 3.68-.735 7.259-2.186 10.64l-31.26 72.848c-3.226 7.518-8.905 13.911-15.99 18.001l-47.658 27.515c-10.612 6.127-17.205 17.545-17.205 29.799v34.144c0 2.761 2.239 5 5 5s5-2.239 5-5v-34.144c0-8.693 4.677-16.793 12.205-21.139l47.658-27.515c8.941-5.162 16.108-13.23 20.179-22.718l31.26-72.848c1.988-4.633 2.997-9.54 2.997-14.583v-33.014c-.004-7.044-5.735-12.775-12.78-12.775zm-42.749 42.75c0 7.188-1.866 14.299-5.395 20.561l-3.025 5.367v-50.197c5.739-4.502 12.877-6.978 20.198-6.978.511 0 .996.15 1.418.402-8.123 7.786-13.196 18.731-13.196 30.845z" fill="#2626bc"/><path d="m408.915 406.057c-3.874 0-7.515-1.508-10.253-4.248-2.738-2.738-4.247-6.379-4.247-10.252s1.508-7.514 4.247-10.253 6.38-4.247 10.253-4.247 7.514 1.508 10.253 4.248c2.739 2.738 4.247 6.379 4.247 10.252 0 3.874-1.509 7.515-4.248 10.253-2.738 2.739-6.379 4.247-10.252 4.247zm0-19c-1.202 0-2.332.468-3.182 1.318s-1.318 1.98-1.318 3.182.468 2.332 1.317 3.182c.851.851 1.98 1.318 3.183 1.318 1.202 0 2.332-.468 3.182-1.318s1.318-1.98 1.318-3.182-.468-2.332-1.318-3.182c-.851-.85-1.981-1.318-3.182-1.318z" fill="#00eca2"/><path d="m79.612 128.04c-3.873 0-7.514-1.508-10.253-4.248-2.738-2.738-4.247-6.379-4.247-10.252s1.508-7.514 4.247-10.253c5.653-5.654 14.853-5.653 20.506 0 2.739 2.739 4.247 6.38 4.247 10.253 0 3.874-1.508 7.515-4.247 10.253s-6.38 4.247-10.253 4.247zm0-18.998c-1.153 0-2.305.438-3.182 1.316-.85.85-1.318 1.98-1.318 3.182s.468 2.332 1.318 3.182c.851.851 1.98 1.318 3.182 1.318s2.332-.468 3.182-1.318 1.318-1.98 1.318-3.182-.468-2.332-1.318-3.182c-.877-.877-2.029-1.316-3.182-1.316z" fill="#00eca2"/><path d="m437.275 173.926c-3.874 0-7.515-1.508-10.253-4.248-5.653-5.653-5.653-14.852 0-20.506 5.653-5.652 14.854-5.653 20.506 0 5.653 5.654 5.653 14.853 0 20.506-2.739 2.74-6.38 4.248-10.253 4.248zm-.001-18.998c-1.152 0-2.305.438-3.182 1.316-1.755 1.754-1.755 4.609 0 6.364.85.851 1.98 1.318 3.182 1.318s2.332-.468 3.182-1.318c1.755-1.755 1.755-4.61 0-6.364-.876-.878-2.029-1.316-3.182-1.316z" fill="#ff7eb8"/><path d="m89.112 376.637c-1.28 0-2.559-.488-3.536-1.464l-5.964-5.964-5.964 5.964c-1.953 1.952-5.118 1.952-7.071 0-1.953-1.953-1.953-5.119 0-7.071l9.5-9.5c1.953-1.952 5.118-1.952 7.071 0l9.5 9.5c1.953 1.953 1.953 5.119 0 7.071-.977.976-2.256 1.464-3.536 1.464z" fill="#6583fe"/><path d="m82.456 159.176c-1.28 0-2.559-.488-3.536-1.464l-5.964-5.964-5.964 5.964c-1.953 1.952-5.118 1.952-7.071 0-1.953-1.953-1.953-5.119 0-7.071l9.5-9.5c1.953-1.952 5.118-1.952 7.071 0l9.5 9.5c1.953 1.953 1.953 5.119 0 7.071-.977.976-2.256 1.464-3.536 1.464z" fill="#ff7eb8"/></g></g></svg>