<svg id="Capa_1" enable-background="new 0 0 512 512" height="512" viewBox="0 0 512 512" width="512" xmlns="http://www.w3.org/2000/svg" xmlns:xlink="http://www.w3.org/1999/xlink"><linearGradient id="SVGID_1_" gradientUnits="userSpaceOnUse" x1="377.838" x2="220.346" y1="501.989" y2="143.507"><stop offset=".0112" stop-color="#dafced"/><stop offset=".3814" stop-color="#e7f0ed"/><stop offset="1" stop-color="#ffd9ec"/></linearGradient><g><g><path d="m471.476 120.383c-65.417-50.293-128.867-9.306-199.64-23.797-71.285-14.597-99.685-63.2-180.876-40.765-71.922 19.873-115.562 99.551-76.024 166.258 11.267 19.009 30.461 33.35 38.305 54.619 12.653 34.311-6.607 60.653-2.85 94.372 15.612 140.102 229.574 85.834 308.303 42.245 123.47-68.36 206.998-220.497 112.782-292.932z" fill="url(#SVGID_1_)"/></g><g><g><g><path d="m419.186 188.922-157.987-82.927c-3.255-1.709-7.142-1.709-10.397 0l-37.536 19.702c.134-1.539.216-3.092.216-4.666 0-29.42-23.849-53.269-53.269-53.269s-53.269 23.849-53.269 53.269c0 19.852 10.867 37.155 26.97 46.318l-41.098 21.572c-3.681 1.932-5.987 5.747-5.987 9.904v273.725c0 6.178 5.008 11.185 11.185 11.185h315.975c6.177 0 11.185-5.008 11.185-11.185v-273.724c-.001-4.157-2.307-7.972-5.988-9.904z" fill="#2626bc" opacity=".1"/><g><g><g><path d="m425.173 447.551v-273.725c0-4.157-2.306-7.972-5.987-9.904l-157.987-82.926c-3.255-1.709-7.142-1.709-10.397 0l-157.988 82.926c-3.681 1.932-5.987 5.747-5.987 9.904v273.725c0 6.178 5.008 11.185 11.185 11.185h315.974c6.179.001 11.187-5.007 11.187-11.185z" fill="#ffa8cf"/><path d="m213.48 117.274c0 29.42-23.85 53.27-53.27 53.27-16.88 0-31.93-7.86-41.7-20.11l92.68-48.65c1.49 4.9 2.29 10.1 2.29 15.49z" fill="#ff7eb8"/><path d="m86.827 263.244v184.307c0 6.178 5.008 11.185 11.185 11.185h315.974c6.178 0 11.185-5.008 11.185-11.185v-184.307z" fill="#ffdbed"/><path d="m396.13 458.737h-280.26v-230.031c0-6.178 5.008-11.185 11.185-11.185h257.89c6.178 0 11.185 5.008 11.185 11.185z" fill="#4369fd"/><g><g><g><path d="m250.09 458.737h-86.508c-3.021 0-5.47-2.449-5.47-5.47v-86.508c0-3.021 2.449-5.47 5.47-5.47h86.508c3.021 0 5.47 2.449 5.47 5.47v86.508c0 3.021-2.449 5.47-5.47 5.47z" fill="#ffa8cf"/><path d="m171.787 374.964h70.099v70.098h-70.099z" fill="#ff5ba8" transform="matrix(0 1 -1 0 616.849 203.177)"/><g fill="#ff7eb8"><path d="m230.38 383.107-58.591 60.278v-60.278z"/><path d="m233.856 412.739v32.325h-40.131l34.615-34.61c2.035-2.035 5.516-.594 5.516 2.285z"/></g></g><path d="m200.843 355.967h13.675v106.497h-13.675z" fill="#ffa8cf" transform="matrix(.707 .707 -.707 .707 350.188 -26.996)"/></g><g><g><path d="m347.538 458.737h-86.508c-3.021 0-5.47-2.449-5.47-5.47v-86.508c0-3.021 2.449-5.47 5.47-5.47h86.508c3.021 0 5.47 2.449 5.47 5.47v86.508c0 3.021-2.449 5.47-5.47 5.47z" fill="#ff7eb8"/><path d="m269.235 374.964h70.099v70.098h-70.099z" fill="#fe2c8f" transform="matrix(0 1 -1 0 714.297 105.729)"/><g fill="#ff5ba8"><path d="m327.828 383.107-58.591 60.278v-60.278z"/><path d="m331.303 412.739v32.325h-40.131l34.615-34.61c2.036-2.035 5.516-.594 5.516 2.285z"/></g></g><path d="m298.291 355.967h13.675v106.497h-13.675z" fill="#ff7eb8" transform="matrix(.707 .707 -.707 .707 378.729 -95.902)"/></g><g><g><path d="m396.13 361.289h-37.653c-3.021 0-5.47 2.449-5.47 5.47v86.508c0 3.021 2.449 5.47 5.47 5.47h37.653z" fill="#ffa8cf"/><path d="m366.683 374.964h29.448v70.099h-29.448z" fill="#ff5ba8"/><g fill="#ff7eb8"><path d="m396.13 383.107h-29.446v60.278l29.446-30.294z"/><path d="m396.13 437.555-7.51 7.509h7.51z"/></g></g><path d="m396.13 405.992-36.041 36.041 9.67 9.67 26.371-26.372z" fill="#ffa8cf"/></g></g><g><g><g><path d="m250.09 361.289h-86.508c-3.021 0-5.47-2.449-5.47-5.47v-86.508c0-3.021 2.449-5.47 5.47-5.47h86.508c3.021 0 5.47 2.449 5.47 5.47v86.508c0 3.021-2.449 5.47-5.47 5.47z" fill="#ff7eb8"/><path d="m171.787 277.516h70.099v70.098h-70.099z" fill="#fe2c8f" transform="matrix(0 1 -1 0 519.401 105.729)"/><g fill="#ff5ba8"><path d="m230.38 285.659-58.591 60.278v-60.278z"/><path d="m233.856 315.291v32.325h-40.131l34.615-34.61c2.035-2.035 5.516-.593 5.516 2.285z"/></g></g><path d="m200.843 258.52h13.675v106.497h-13.675z" fill="#ff7eb8" transform="matrix(.707 .707 -.707 .707 281.282 -55.538)"/></g><g><g><path d="m347.538 361.289h-86.508c-3.021 0-5.47-2.449-5.47-5.47v-86.508c0-3.021 2.449-5.47 5.47-5.47h86.508c3.021 0 5.47 2.449 5.47 5.47v86.508c0 3.021-2.449 5.47-5.47 5.47z" fill="#ffa8cf"/><path d="m269.235 277.516h70.099v70.098h-70.099z" fill="#ff5ba8" transform="matrix(0 1 -1 0 616.849 8.281)"/><g fill="#ff7eb8"><path d="m327.828 285.659-58.591 60.278v-60.278z"/><path d="m331.303 315.291v32.325h-40.131l34.615-34.61c2.036-2.035 5.516-.593 5.516 2.285z"/></g></g><path d="m298.291 258.52h13.675v106.497h-13.675z" fill="#ffa8cf" transform="matrix(.707 .707 -.707 .707 309.823 -124.444)"/></g><g><g><path d="m396.13 263.841h-37.653c-3.021 0-5.47 2.449-5.47 5.47v86.508c0 3.021 2.449 5.47 5.47 5.47h37.653z" fill="#ff7eb8"/><path d="m366.683 277.516h29.448v70.099h-29.448z" fill="#fe2c8f"/><path d="m396.13 285.659h-29.446v60.278l29.446-30.294z" fill="#ff5ba8"/><path d="m396.13 340.108-7.51 7.509h7.51z" fill="#ff7eb8"/></g><path d="m396.13 308.544-36.041 36.042 9.67 9.669 26.371-26.371z" fill="#ff7eb8"/></g></g><path d="m396.02 228.694v22.86c0-6.18-5.01-11.19-11.18-11.19h-257.89c-6.18 0-11.19 5.01-11.19 11.19v-22.86c0-6.18 5.01-11.19 11.19-11.19h257.89c6.17 0 11.18 5.01 11.18 11.19z" fill="#2d58e0"/></g><path d="m295.708 182.117c0 2.696-1.096 5.123-2.852 6.879-1.756 1.767-4.195 2.852-6.879 2.852h-59.954c-5.369 0-9.731-4.351-9.731-9.731 0-2.684 1.096-5.112 2.852-6.879s4.195-2.852 6.879-2.852h59.954c5.369-.001 9.731 4.362 9.731 9.731z" fill="#fe2c8f"/></g><g><circle cx="160.212" cy="96.032" fill="#6583fe" r="53.269"/><path d="m173.199 103.275c3.978-3.57 6.499-8.733 6.499-14.486 0-10.745-8.741-19.486-19.486-19.486s-19.486 8.741-19.486 19.486c0 5.753 2.521 10.916 6.499 14.486-3.978 3.57-6.499 8.733-6.499 14.486 0 2.761 2.239 5 5 5s5-2.239 5-5c0-5.23 4.255-9.486 9.486-9.486s9.486 4.255 9.486 9.486c0 2.761 2.239 5 5 5s5-2.239 5-5c0-5.753-2.521-10.916-6.499-14.486zm-22.473-14.486c0-5.23 4.255-9.486 9.486-9.486s9.486 4.255 9.486 9.486-4.255 9.486-9.486 9.486-9.486-4.255-9.486-9.486z" fill="#fff"/><path d="m421.509 159.495-157.987-82.927c-4.711-2.473-10.335-2.472-15.045 0l-30.123 15.812c-1.549-24.547-18.583-45.826-42.504-52.478-2.659-.74-5.417.817-6.157 3.478s.817 5.417 3.478 6.157c20.791 5.781 35.311 24.901 35.311 46.495 0 26.616-21.654 48.27-48.27 48.27s-48.269-21.654-48.269-48.27c0-21.307 14.276-40.356 34.717-46.327 2.65-.774 4.172-3.55 3.397-6.201-.774-2.651-3.552-4.17-6.201-3.397-24.678 7.207-41.913 30.205-41.913 55.925 0 32.13 26.139 58.27 58.269 58.27 29.463 0 53.872-21.985 57.724-50.409l35.189-18.47c1.8-.945 3.95-.944 5.75 0l157.987 82.927c2.042 1.072 3.311 3.17 3.311 5.477v273.725c0 3.411-2.775 6.186-6.186 6.186h-315.974c-3.411 0-6.186-2.775-6.186-6.186v-273.726c0-2.306 1.269-4.405 3.311-5.477l15.385-8.076c2.445-1.284 3.387-4.306 2.104-6.751s-4.306-3.387-6.751-2.104l-15.385 8.076c-5.344 2.805-8.664 8.296-8.664 14.331v273.725c0 8.925 7.261 16.186 16.186 16.186h315.975c8.925 0 16.186-7.261 16.186-16.186v-273.724c-.001-6.035-3.321-11.526-8.665-14.331z" fill="#2626bc"/></g></g><path d="m235.428 172.389h41.145v45.131h-41.145z" fill="#ff7eb8"/><path d="m235.43 172.385h41.14v19.463h-41.14z" fill="#ff5ba8"/></g><path d="m36.373 307.44c-3.873 0-7.514-1.508-10.253-4.248-2.738-2.738-4.247-6.379-4.247-10.252s1.508-7.514 4.247-10.253c5.653-5.654 14.853-5.653 20.506 0 2.739 2.739 4.247 6.38 4.247 10.253 0 3.874-1.508 7.515-4.247 10.253-2.739 2.739-6.38 4.247-10.253 4.247zm0-18.998c-1.153 0-2.305.438-3.182 1.316-.85.85-1.318 1.98-1.318 3.182s.468 2.332 1.318 3.182c.851.851 1.98 1.318 3.182 1.318s2.332-.468 3.182-1.318 1.318-1.98 1.318-3.182-.468-2.332-1.318-3.182c-.877-.877-2.03-1.316-3.182-1.316z" fill="#00eca2"/><g fill="#6583fe"><path d="m59.279 261.064c-1.28 0-2.559-.488-3.536-1.464l-5.964-5.964-5.964 5.964c-1.953 1.952-5.118 1.952-7.071 0-1.953-1.953-1.953-5.119 0-7.071l9.5-9.5c1.953-1.952 5.118-1.952 7.071 0l9.5 9.5c1.953 1.953 1.953 5.119 0 7.071-.977.976-2.256 1.464-3.536 1.464z"/><path d="m380.394 101.829c-3.713 0-7.426-1.413-10.253-4.24-5.653-5.654-5.653-14.853 0-20.506 5.653-5.654 14.852-5.653 20.506 0 5.653 5.654 5.653 14.853 0 20.506-2.827 2.826-6.541 4.24-10.253 4.24zm0-18.991c-1.152 0-2.305.438-3.182 1.316-1.755 1.754-1.755 4.609 0 6.364 1.754 1.755 4.609 1.754 6.364 0 1.754-1.754 1.754-4.609 0-6.364-.877-.877-2.03-1.316-3.182-1.316z"/></g></g><path d="m251.385 47.763c-1.28 0-2.559-.488-3.536-1.464l-5.964-5.964-5.964 5.964c-1.953 1.952-5.118 1.952-7.071 0-1.953-1.953-1.953-5.119 0-7.071l9.5-9.5c1.953-1.952 5.118-1.952 7.071 0l9.5 9.5c1.953 1.953 1.953 5.119 0 7.071-.977.976-2.256 1.464-3.536 1.464z" fill="#00eca2"/><path d="m457.986 470.899c-1.28 0-2.559-.488-3.536-1.464l-5.964-5.964-5.964 5.964c-1.953 1.952-5.118 1.952-7.071 0-1.953-1.953-1.953-5.119 0-7.071l9.5-9.5c1.953-1.952 5.118-1.952 7.071 0l9.5 9.5c1.953 1.953 1.953 5.119 0 7.071-.977.976-2.256 1.464-3.536 1.464z" fill="#ff7eb8"/></g></g></svg>