<svg id="Capa_1" enable-background="new 0 0 512 512" height="512" viewBox="0 0 512 512" width="512" xmlns="http://www.w3.org/2000/svg" xmlns:xlink="http://www.w3.org/1999/xlink"><linearGradient id="SVGID_1_" gradientUnits="userSpaceOnUse" x1="220.073" x2="264.073" y1="40.409" y2="306.409"><stop offset="0" stop-color="#c6d1ff"/><stop offset=".5834" stop-color="#e6d5f4"/><stop offset=".997" stop-color="#ffd9ec"/></linearGradient><g><g><path d="m501.873 142.814c-22.357-56.888-91.226-91.003-149.556-68.427-66.582 25.769-44.506 131.673-104.983 153.088-32.669 11.568-80.963-31.644-113.969-38.271-60.821-12.21-115.881 30.705-129.439 90.134-13.832 60.63 8.353 141.61 74.967 158.066 79.35 19.602 120.683-51.729 187.249-72.211 68.31-21.019 144.263 28.622 200.814-31.776 41.78-44.62 57.055-134.271 34.917-190.603z" fill="url(#SVGID_1_)"/></g><g><g><path d="m419.186 184.172-157.987-82.927c-3.255-1.709-7.142-1.709-10.397 0l-37.536 19.702c.134-1.539.216-3.092.216-4.666 0-29.42-23.849-53.269-53.269-53.269s-53.269 23.849-53.269 53.269c0 19.852 10.867 37.155 26.97 46.318l-41.098 21.572c-3.681 1.932-5.987 5.747-5.987 9.904v273.725c0 6.178 5.008 11.185 11.185 11.185h315.975c6.177 0 11.185-5.008 11.185-11.185v-273.724c-.001-4.157-2.307-7.972-5.988-9.904z" fill="#2626bc" opacity=".1"/><g><g><g><path d="m425.063 442.789v-273.725c0-4.157-2.306-7.972-5.987-9.904l-157.987-82.926c-3.255-1.709-7.142-1.709-10.397 0l-157.988 82.926c-3.681 1.932-5.987 5.747-5.987 9.904v273.725c0 6.178 5.008 11.185 11.185 11.185h315.974c6.179.001 11.187-5.007 11.187-11.185z" fill="#9fb0fe"/><path d="m213.37 112.512c0 29.42-23.85 53.27-53.27 53.27-16.88 0-31.93-7.86-41.7-20.11l92.68-48.65c1.49 4.9 2.29 10.1 2.29 15.49z" fill="#8399fe"/><path d="m86.718 258.482v184.307c0 6.178 5.008 11.185 11.185 11.185h315.974c6.178 0 11.185-5.008 11.185-11.185v-184.307z" fill="#d2deff"/><path d="m396.02 223.944v230.03h-280.26v-230.03c0-6.18 5.01-11.19 11.19-11.19h257.89c6.17 0 11.18 5.01 11.18 11.19z" fill="#4369fd"/><g><g><g><g><path d="m233.243 453.999h-76.42c-3.085 0-5.585-2.501-5.585-5.585v-76.42c0-3.085 2.501-5.585 5.585-5.585h76.42c3.085 0 5.585 2.501 5.585 5.585v76.42c0 3.084-2.501 5.585-5.585 5.585z" fill="#ffa8cf"/><path d="m203.264 396.028h-16.463c-1.542 0-2.793-1.25-2.793-2.793v-26.826h22.048v26.826c.001 1.542-1.249 2.793-2.792 2.793z" fill="#ffdbed"/></g><g fill="#02ffb3"><path d="m179.602 444.104h-14.208c-1.773 0-3.21-1.437-3.21-3.21v-4.592c0-1.773 1.437-3.21 3.21-3.21h14.208c1.773 0 3.21 1.437 3.21 3.21v4.592c-.001 1.773-1.438 3.21-3.21 3.21z"/><path d="m179.602 427.307h-14.208c-1.773 0-3.21-1.437-3.21-3.21v-4.592c0-1.773 1.437-3.21 3.21-3.21h14.208c1.773 0 3.21 1.437 3.21 3.21v4.592c-.001 1.773-1.438 3.21-3.21 3.21z"/></g></g></g><g><g><g><path d="m320.833 453.999h-76.42c-3.085 0-5.585-2.501-5.585-5.585v-76.42c0-3.085 2.501-5.585 5.585-5.585h76.42c3.085 0 5.585 2.501 5.585 5.585v76.42c0 3.084-2.5 5.585-5.585 5.585z" fill="#b7c5ff"/><path d="m290.855 396.028h-16.463c-1.542 0-2.793-1.25-2.793-2.793v-26.826h22.048v26.826c0 1.542-1.25 2.793-2.792 2.793z" fill="#d2deff"/></g><g fill="#fff"><path d="m267.192 444.104h-14.208c-1.773 0-3.21-1.437-3.21-3.21v-4.592c0-1.773 1.437-3.21 3.21-3.21h14.208c1.773 0 3.21 1.437 3.21 3.21v4.592c-.001 1.773-1.438 3.21-3.21 3.21z"/><path d="m267.192 427.307h-14.208c-1.773 0-3.21-1.437-3.21-3.21v-4.592c0-1.773 1.437-3.21 3.21-3.21h14.208c1.773 0 3.21 1.437 3.21 3.21v4.592c-.001 1.773-1.438 3.21-3.21 3.21z"/></g></g></g><g><g><g><path d="m396.021 366.409h-64.017c-3.085 0-5.585 2.501-5.585 5.585v76.42c0 3.085 2.501 5.585 5.585 5.585h64.017z" fill="#ff5ba8"/><path d="m378.445 396.028h-16.463c-1.542 0-2.793-1.25-2.793-2.793v-26.826h22.048v26.826c0 1.542-1.25 2.793-2.792 2.793z" fill="#ffa8cf"/></g><g fill="#00d890"><path d="m354.782 444.104h-14.208c-1.773 0-3.21-1.437-3.21-3.21v-4.592c0-1.773 1.437-3.21 3.21-3.21h14.208c1.773 0 3.21 1.437 3.21 3.21v4.592c0 1.773-1.437 3.21-3.21 3.21z"/><path d="m354.782 427.307h-14.208c-1.773 0-3.21-1.437-3.21-3.21v-4.592c0-1.773 1.437-3.21 3.21-3.21h14.208c1.773 0 3.21 1.437 3.21 3.21v4.592c0 1.773-1.437 3.21-3.21 3.21z"/></g></g></g></g><g><g><g><g><path d="m283.243 366.409h-76.42c-3.085 0-5.585-2.501-5.585-5.585v-76.42c0-3.085 2.501-5.585 5.585-5.585h76.42c3.085 0 5.585 2.501 5.585 5.585v76.42c0 3.084-2.501 5.585-5.585 5.585z" fill="#ff5ba8"/><path d="m253.264 308.437h-16.463c-1.542 0-2.793-1.25-2.793-2.793v-26.826h22.048v26.826c.001 1.543-1.249 2.793-2.792 2.793z" fill="#ffa8cf"/></g><g fill="#00d890"><path d="m229.602 356.514h-14.208c-1.773 0-3.21-1.437-3.21-3.21v-4.592c0-1.773 1.437-3.21 3.21-3.21h14.208c1.773 0 3.21 1.437 3.21 3.21v4.592c-.001 1.773-1.438 3.21-3.21 3.21z"/><path d="m229.602 339.717h-14.208c-1.773 0-3.21-1.437-3.21-3.21v-4.592c0-1.773 1.437-3.21 3.21-3.21h14.208c1.773 0 3.21 1.437 3.21 3.21v4.592c-.001 1.773-1.438 3.21-3.21 3.21z"/></g></g></g><g><g><g><path d="m370.833 366.409h-76.42c-3.085 0-5.585-2.501-5.585-5.585v-76.42c0-3.085 2.501-5.585 5.585-5.585h76.42c3.085 0 5.585 2.501 5.585 5.585v76.42c0 3.084-2.5 5.585-5.585 5.585z" fill="#97ffd2"/><path d="m340.855 308.437h-16.463c-1.542 0-2.793-1.25-2.793-2.793v-26.826h22.048v26.826c0 1.543-1.25 2.793-2.792 2.793z" fill="#fff"/></g><g fill="#9fb0fe"><path d="m317.192 356.514h-14.208c-1.773 0-3.21-1.437-3.21-3.21v-4.592c0-1.773 1.437-3.21 3.21-3.21h14.208c1.773 0 3.21 1.437 3.21 3.21v4.592c-.001 1.773-1.438 3.21-3.21 3.21z"/><path d="m317.192 339.717h-14.208c-1.773 0-3.21-1.437-3.21-3.21v-4.592c0-1.773 1.437-3.21 3.21-3.21h14.208c1.773 0 3.21 1.437 3.21 3.21v4.592c-.001 1.773-1.438 3.21-3.21 3.21z"/></g></g></g><g><g><g><path d="m396.02 278.814v87.59h-14.02c-3.08 0-5.58-2.5-5.58-5.58v-76.42c0-3.09 2.5-5.59 5.58-5.59z" fill="#ff7eb8"/></g><path d="m396.02 345.504v11.01h-5.45c-1.77 0-3.21-1.44-3.21-3.21v-4.59c0-1.77 1.44-3.21 3.21-3.21z" fill="#02ffb3"/><path d="m396.02 328.704v11.01h-5.45c-1.77 0-3.21-1.43-3.21-3.21v-4.59c0-1.77 1.44-3.21 3.21-3.21z" fill="#02ffb3"/><path d="m471.613 389.025c-1.279 0-2.56-.488-3.535-1.464l-5.965-5.964-5.965 5.964c-1.951 1.952-5.119 1.952-7.07 0-1.953-1.953-1.953-5.119 0-7.071l9.5-9.5c1.951-1.952 5.119-1.952 7.07 0l9.5 9.5c1.953 1.953 1.953 5.119 0 7.071-.975.976-2.255 1.464-3.535 1.464z" fill="#6583fe"/></g></g></g></g><path d="m295.708 177.367c0 2.696-1.096 5.123-2.852 6.879-1.756 1.767-4.195 2.852-6.879 2.852h-59.954c-5.369 0-9.731-4.351-9.731-9.731 0-2.684 1.096-5.112 2.852-6.879s4.195-2.852 6.879-2.852h59.954c5.369-.001 9.731 4.362 9.731 9.731z" fill="#4369fd"/></g><g><circle cx="160.212" cy="91.282" fill="#ff7eb8" r="53.269"/><path d="m173.199 98.525c3.978-3.57 6.499-8.733 6.499-14.486 0-10.745-8.741-19.486-19.486-19.486s-19.486 8.741-19.486 19.486c0 5.753 2.521 10.916 6.499 14.486-3.978 3.57-6.499 8.733-6.499 14.486 0 2.761 2.239 5 5 5s5-2.239 5-5c0-5.23 4.255-9.486 9.486-9.486s9.486 4.255 9.486 9.486c0 2.761 2.239 5 5 5s5-2.239 5-5c0-5.753-2.521-10.916-6.499-14.486zm-22.473-14.486c0-5.23 4.255-9.486 9.486-9.486s9.486 4.255 9.486 9.486-4.255 9.486-9.486 9.486-9.486-4.255-9.486-9.486z" fill="#fff"/><g fill="#2626bc"><path d="m280.128 448.975h-182.225c-3.411 0-6.186-2.775-6.186-6.186v-213.675c0-2.761-2.238-5-5-5s-5 2.239-5 5v213.675c0 8.925 7.261 16.186 16.186 16.186h182.225c2.762 0 5-2.239 5-5s-2.238-5-5-5z"/><path d="m421.4 154.733-157.987-82.926c-4.711-2.474-10.335-2.473-15.046 0l-30.017 15.756c-1.926-30.402-27.259-54.549-58.138-54.549-32.13 0-58.269 26.139-58.269 58.269 0 18.523 8.698 35.042 22.212 45.722l-33.775 17.728c-5.343 2.805-8.662 8.296-8.662 14.331v30.797c0 2.761 2.238 5 5 5s5-2.239 5-5v-30.797c0-2.306 1.269-4.405 3.311-5.477l38.811-20.372c7.925 4.041 16.883 6.336 26.373 6.336 29.488 0 53.914-22.023 57.734-50.483l35.07-18.408c1.8-.945 3.949-.946 5.749 0l157.987 82.926c2.042 1.072 3.311 3.17 3.311 5.477v273.725c0 3.411-2.774 6.186-6.185 6.186h-104.499c-2.762 0-5 2.239-5 5s2.238 5 5 5h104.498c8.924 0 16.185-7.261 16.185-16.186v-273.724c0-6.035-3.32-11.526-8.663-14.331zm-261.188-15.181c-26.615 0-48.269-21.654-48.269-48.27s21.653-48.269 48.269-48.269 48.27 21.653 48.27 48.269-21.654 48.27-48.27 48.27z"/></g></g></g><path d="m235.428 167.639h41.145v45.131h-41.145z" fill="#d2deff"/><path d="m235.43 167.635h41.14v19.463h-41.14z" fill="#b7c5ff"/></g><path d="m396.02 223.944v22.86c0-6.18-5.01-11.19-11.18-11.19h-257.89c-6.18 0-11.19 5.01-11.19 11.19v-22.86c0-6.18 5.01-11.19 11.19-11.19h257.89c6.17 0 11.18 5.01 11.18 11.19z" fill="#2d58e0"/><path d="m48.827 397.413c-3.713 0-7.427-1.414-10.253-4.24-5.654-5.654-5.654-14.853 0-20.506 5.652-5.653 14.854-5.653 20.506 0 5.654 5.654 5.654 14.853 0 20.506-2.826 2.826-6.54 4.24-10.253 4.24zm0-18.992c-1.152 0-2.305.438-3.183 1.316-1.754 1.754-1.754 4.609 0 6.364 1.756 1.755 4.609 1.755 6.365 0 1.754-1.754 1.754-4.609 0-6.364-.877-.877-2.03-1.316-3.182-1.316z" fill="#ff7eb8"/><path d="m405.521 114.147c-1.279 0-2.56-.488-3.535-1.464l-5.965-5.964-5.965 5.964c-1.951 1.952-5.119 1.952-7.07 0-1.953-1.953-1.953-5.119 0-7.071l9.5-9.5c1.951-1.952 5.119-1.952 7.07 0l9.5 9.5c1.953 1.953 1.953 5.119 0 7.071-.976.976-2.256 1.464-3.535 1.464z" fill="#ff7eb8"/><path d="m77.827 136.519c-3.713 0-7.427-1.414-10.253-4.24-5.654-5.654-5.654-14.853 0-20.506 5.652-5.653 14.854-5.653 20.506 0 5.654 5.654 5.654 14.853 0 20.506-2.826 2.826-6.54 4.24-10.253 4.24zm0-18.991c-1.152 0-2.305.438-3.183 1.316-1.754 1.754-1.754 4.609 0 6.364 1.756 1.755 4.609 1.755 6.365 0 1.754-1.754 1.754-4.609 0-6.364-.877-.878-2.03-1.316-3.182-1.316z" fill="#6583fe"/><path d="m60.56 172.39c-1.279 0-2.56-.488-3.535-1.464l-5.965-5.964-5.965 5.964c-1.951 1.952-5.119 1.952-7.07 0-1.953-1.953-1.953-5.119 0-7.071l9.5-9.5c1.951-1.952 5.119-1.952 7.07 0l9.5 9.5c1.953 1.953 1.953 5.119 0 7.071-.976.975-2.256 1.464-3.535 1.464z" fill="#00eca2"/></g></g></svg>