<svg id="Capa_1" enable-background="new 0 0 512 512" height="512" viewBox="0 0 512 512" width="512" xmlns="http://www.w3.org/2000/svg" xmlns:xlink="http://www.w3.org/1999/xlink"><linearGradient id="SVGID_1_" gradientTransform="matrix(.987 .163 -.163 .987 -321.686 179.551)" gradientUnits="userSpaceOnUse" x1="798.223" x2="473.25" y1="51.069" y2="-80.566"><stop offset=".0112" stop-color="#dafced"/><stop offset=".761" stop-color="#cbdcfa"/><stop offset="1" stop-color="#c6d1ff"/></linearGradient><g><g><path d="m342.125.425c-95.818 8.652-105.091 192.429-146.416 286.587-20.478 46.658-68.772 94.794-60.258 149.782 9.605 62.035 72.897 80.075 121.683 74.14 120.723-14.685 172.899-141.053 180.797-260.801 4.869-73.829 20.301-260.192-95.806-249.708z" fill="url(#SVGID_1_)"/></g><g><path d="m409.226 403.211c-1.279 0-2.56-.488-3.535-1.464l-5.965-5.964-5.965 5.964c-1.951 1.952-5.119 1.952-7.07 0-1.953-1.953-1.953-5.119 0-7.071l9.5-9.5c1.951-1.952 5.119-1.952 7.07 0l9.5 9.5c1.953 1.953 1.953 5.119 0 7.071-.976.976-2.256 1.464-3.535 1.464z" fill="#6583fe"/><g><path d="m426.575 181.312c-10.194-81.984-80.11-145.433-164.854-145.433s-154.661 63.449-164.854 145.433c-.483 3.887 1.331 7.468 4.31 9.501-.35.938-.432 1.987-.155 3.029l11.491 43.134c.003.013.007.025.01.038l32.38 121.54c.117.44.303.841.522 1.217-.428.737-.691 1.582-.691 2.496v13.492c0 2.761 2.239 5 5 5h15.185v114.131c0 6.01 4.87 10.87 10.87 10.87h171.86c6 0 10.87-4.86 10.87-10.87v-114.131h15.189c2.761 0 5-2.239 5-5v-13.492c0-.913-.263-1.758-.691-2.495.219-.376.405-.777.522-1.218l43.88-164.712c.278-1.042.196-2.09-.155-3.029 2.98-2.033 4.794-5.615 4.311-9.501zm-304.66 52.112-10.888-40.869h145.691v30.114c-27.764 27.274-55.138 40.25-81.317 38.533-30.358-1.982-49.934-23.558-53.486-27.778zm43.004 89.606v34.237h-10.204c0-.426-.035-.856-.15-1.287l-27.695-103.956c10.439 8.322 26.654 17.732 47.734 19.147 1.806.121 3.612.182 5.424.182 25.206 0 50.941-11.734 76.69-34.945v75.753h-80.93c-5.999-.001-10.869 4.869-10.869 10.869zm203.958 32.949c-.115.431-.15.861-.15 1.287h-10.208v-34.236c0-6-4.87-10.87-10.87-10.87h-80.93v-75.753c25.75 23.213 51.483 34.945 76.69 34.945 1.81 0 3.621-.061 5.425-.182 21.083-1.415 37.299-10.827 47.738-19.151zm-20.84-94.778c-26.202 1.709-53.556-11.259-81.318-38.533v-30.114h145.695l-10.886 40.862c-3.54 4.208-23.121 25.803-53.491 27.785z" fill="#2626bc" opacity=".1"/><path d="m416.644 167.555c6.015 0 10.673-5.274 9.93-11.243-10.193-81.984-80.11-145.433-164.854-145.433s-154.66 63.449-164.853 145.433c-.742 5.969 3.915 11.243 9.93 11.243z" fill="#8399fe"/><g><g><g><path d="m358.519 298.03v171.86c0 6.01-4.87 10.87-10.87 10.87h-171.86c-6 0-10.87-4.86-10.87-10.87v-171.86c0-6 4.87-10.87 10.87-10.87h171.86c6 0 10.87 4.87 10.87 10.87z" fill="#ffa8cf"/><path d="m192.089 355.68v13.49c0 2.76-2.24 5-5 5h-22.17v-23.49h22.17c2.76 0 5 2.24 5 5z" fill="#ff7eb8"/><path d="m358.519 350.68v23.49h-22.17c-2.76 0-5-2.24-5-5v-13.49c0-2.76 2.24-5 5-5z" fill="#ff7eb8"/><path d="m192.086 314.329h139.265v139.264h-139.265z" fill="#ff5ba8" transform="matrix(0 1 -1 0 645.68 122.242)"/><path d="m315.398 326.954-123.308 123.307v-123.307z" fill="#ff7eb8"/><g><g><path d="m209.791 337.821h20.194c3.001 0 5.434-2.433 5.434-5.434s-2.433-5.434-5.434-5.434h-20.194c-3.001 0-5.434 2.433-5.434 5.434.001 3.001 2.434 5.434 5.434 5.434z" fill="#fe2c8f"/></g><g><path d="m209.791 356.644h9.327c3.001 0 5.434-2.433 5.434-5.434s-2.433-5.434-5.434-5.434h-9.327c-3.001 0-5.434 2.433-5.434 5.434.001 3.001 2.434 5.434 5.434 5.434z" fill="#fe2c8f"/></g><g><path d="m209.791 373.294h9.327c3.001 0 5.434-2.433 5.434-5.434s-2.433-5.434-5.434-5.434h-9.327c-3.001 0-5.434 2.433-5.434 5.434s2.434 5.434 5.434 5.434z" fill="#fe2c8f"/></g></g><path d="m318.734 377.539v76.059h-91.565l80.608-80.598c4.044-4.044 10.957-1.18 10.957 4.539z" fill="#ff7eb8"/></g><path d="m249.813 276.589h27.168v211.577h-27.168z" fill="#ffa8cf" transform="matrix(.707 .707 -.707 .707 347.529 -74.254)"/></g><g fill="#8399fe"><path d="m187.09 355.759h-37.356c-2.761 0-5-2.239-5-5v-13.492c0-2.761 2.239-5 5-5h37.356c2.761 0 5 2.239 5 5v13.492c0 2.761-2.238 5-5 5z"/><path d="m373.707 355.759h-37.356c-2.761 0-5-2.239-5-5v-13.492c0-2.761 2.239-5 5-5h37.356c2.761 0 5 2.239 5 5v13.492c0 2.761-2.238 5-5 5z"/></g></g><path d="m351.722 167.555c-2.663-87.352-41.937-156.676-90.001-156.676s-87.339 69.324-90.001 156.676z" fill="#6583fe"/><path d="m334.809 167.555c-2.162-87.352-34.056-156.676-73.089-156.676s-70.926 69.324-73.089 156.676z" fill="#01eca5"/><g><g><path d="m223.502 107.576h20.194c3.001 0 5.434-2.433 5.434-5.434s-2.433-5.434-5.434-5.434h-20.194c-3.001 0-5.434 2.433-5.434 5.434.001 3.001 2.434 5.434 5.434 5.434z" fill="#fff"/></g><g><path d="m223.502 126.399h9.327c3.001 0 5.434-2.433 5.434-5.434s-2.433-5.434-5.434-5.434h-9.327c-3.001 0-5.434 2.433-5.434 5.434s2.434 5.434 5.434 5.434z" fill="#fff"/></g><g><path d="m223.502 143.049h9.327c3.001 0 5.434-2.433 5.434-5.434s-2.433-5.434-5.434-5.434h-9.327c-3.001 0-5.434 2.433-5.434 5.434.001 3.001 2.434 5.434 5.434 5.434z" fill="#fff"/></g></g><path d="m431.536 155.695c-3.888-31.273-16.391-60.855-36.157-85.548-1.726-2.157-4.872-2.504-7.028-.779-2.155 1.726-2.504 4.872-.778 7.028 18.61 23.249 30.381 51.096 34.04 80.532.18 1.445-.253 2.842-1.218 3.934-.964 1.091-2.296 1.692-3.75 1.692h-309.848c-1.454 0-2.786-.601-3.75-1.692-.965-1.092-1.397-2.489-1.218-3.934 9.998-80.412 78.736-141.05 159.892-141.05 39.13 0 76.862 14.206 106.245 40 2.075 1.822 5.235 1.615 7.057-.458 1.821-2.076 1.616-5.235-.459-7.056-31.21-27.398-71.284-42.486-112.843-42.486-86.191 0-159.196 64.407-169.815 149.816-.53 4.268.799 8.564 3.646 11.788 1.701 1.926 3.855 3.348 6.225 4.191l41.984 157.592c-2.438 1.825-4.027 4.727-4.027 8.001v13.492c0 5.514 4.486 10 10 10h37.356c5.514 0 10-4.486 10-10v-13.492c0-5.514-4.486-10-10-10h-17.172v-29.239c0-3.235 2.632-5.867 5.867-5.867h171.865c3.235 0 5.867 2.632 5.867 5.867v29.239h-17.168c-5.514 0-10 4.486-10 10v13.492c0 5.514 4.486 10 10 10h17.168v109.135c0 3.235-2.632 5.867-5.867 5.867h-171.864c-3.235 0-5.867-2.632-5.867-5.867v-85.933c0-2.761-2.238-5-5-5s-5 2.239-5 5v85.934c0 8.749 7.118 15.867 15.867 15.867h171.865c8.749 0 15.867-7.118 15.867-15.867v-109.135h10.188c5.514 0 10-4.486 10-10v-13.492c0-3.273-1.588-6.175-4.026-8l41.983-157.593c2.37-.843 4.524-2.265 6.225-4.191 2.849-3.224 4.178-7.521 3.648-11.788zm-30.008 52.722c-3.54 4.208-23.121 25.802-53.491 27.785-26.202 1.709-53.556-11.259-81.318-38.533v-25.114h144.363zm-279.613.007-9.556-35.869h144.359v25.114c-27.764 27.274-55.138 40.25-81.317 38.533-30.358-1.982-49.934-23.558-53.486-27.778zm65.182 142.335h-37.362v-13.491c.006 0 .013-.001.02-.001h37.337zm-27.178-52.731v29.239h-6.343l-26.706-100.243c10.439 8.322 26.654 17.732 47.734 19.147 1.806.121 3.612.182 5.424.182 25.206 0 50.941-11.734 76.69-34.945v70.755h-80.933c-8.748-.002-15.866 7.116-15.866 15.865zm187.732-15.867h-80.933v-70.754c25.75 23.213 51.483 34.945 76.69 34.945 1.81 0 3.621-.061 5.425-.182 21.083-1.415 37.299-10.827 47.738-19.151l-26.706 100.247h-6.348v-29.239c.002-8.748-7.117-15.866-15.866-15.866zm-11.3 68.598v-13.492h37.338c.006 0 .012.001.019.001l.007 13.49z" fill="#2626bc"/></g><path d="m120.527 342.137c-1.279 0-2.56-.488-3.535-1.464l-5.965-5.964-5.965 5.964c-1.951 1.952-5.119 1.952-7.07 0-1.953-1.953-1.953-5.119 0-7.071l9.5-9.5c1.951-1.952 5.119-1.952 7.07 0l9.5 9.5c1.953 1.953 1.953 5.119 0 7.071-.975.976-2.255 1.464-3.535 1.464z" fill="#00eca2"/><path d="m79.086 306.654c-3.714 0-7.427-1.413-10.253-4.24-5.654-5.654-5.654-14.853 0-20.506 5.651-5.653 14.852-5.654 20.505 0 5.654 5.654 5.654 14.853 0 20.506-2.826 2.827-6.539 4.24-10.252 4.24zm0-18.991c-1.152 0-2.305.438-3.183 1.316-1.754 1.754-1.754 4.609 0 6.364 1.755 1.754 4.607 1.756 6.364 0 1.754-1.754 1.754-4.609 0-6.364-.877-.877-2.03-1.316-3.181-1.316z" fill="#ff7eb8"/><path d="m402.914 451.236c-3.713 0-7.427-1.414-10.253-4.24-5.654-5.654-5.654-14.853 0-20.506 5.652-5.653 14.854-5.653 20.506 0 5.654 5.654 5.654 14.853 0 20.506-2.826 2.827-6.54 4.24-10.253 4.24zm0-18.991c-1.152 0-2.305.438-3.183 1.316-1.754 1.754-1.754 4.609 0 6.364 1.756 1.755 4.609 1.755 6.365 0 1.754-1.754 1.754-4.609 0-6.364-.877-.877-2.03-1.316-3.182-1.316z" fill="#00eca2"/><path d="m432.914 81.209c-3.873 0-7.515-1.508-10.254-4.248-5.653-5.653-5.653-14.852.001-20.506 5.652-5.653 14.854-5.653 20.506 0 5.654 5.654 5.654 14.853 0 20.506-2.738 2.74-6.38 4.248-10.253 4.248zm0-18.998c-1.152 0-2.305.438-3.183 1.316-1.754 1.754-1.754 4.609 0 6.364.851.851 1.98 1.318 3.183 1.318s2.332-.468 3.182-1.318c1.755-1.755 1.755-4.61.001-6.364-.878-.878-2.031-1.316-3.183-1.316z" fill="#ff7eb8"/></g></g></svg>