<svg id="Capa_1" enable-background="new 0 0 512 512" height="512" viewBox="0 0 512 512" width="512" xmlns="http://www.w3.org/2000/svg" xmlns:xlink="http://www.w3.org/1999/xlink"><linearGradient id="SVGID_1_" gradientUnits="userSpaceOnUse" x1="482.476" x2="279.476" y1="332.861" y2="249.861"><stop offset="0" stop-color="#c6d1ff"/><stop offset=".5834" stop-color="#e6d5f4"/><stop offset=".997" stop-color="#ffd9ec"/></linearGradient><g><g><path d="m347.094.425c-95.818 8.652-105.091 192.429-146.416 286.587-20.478 46.658-68.772 94.794-60.258 149.782 9.605 62.035 72.897 80.075 121.683 74.14 120.723-14.685 172.899-141.053 180.797-260.801 4.869-73.829 20.3-260.192-95.806-249.708z" fill="url(#SVGID_1_)"/></g><g><g><path d="m391.617 138.491h-61.445v-31.356c0-5.523-4.477-10-10-10h-24.647c-5.523 0-10 4.477-10 10v31.356h-87.044c-1.041-34.216-28.943-61.676-63.342-61.967-34.79-.294-63.772 27.822-64.483 62.605-.497 24.314 12.591 45.601 32.181 56.833v92.708c0 5.53 4.48 10 10 10h97.853v17.51c0 5.523 4.477 10 10 10h26.578v128.684c0 5.523 4.477 10 10 10h19.918c5.523 0 10-4.477 10-10v-128.683h26.578c5.523 0 10-4.477 10-10v-17.51h97.853c5.52 0 10-4.47 10-10v-110.18c0-22.1-17.91-40-40-40z" fill="#2626bc" opacity=".1"/><g><path d="m247.268 301.181h39.918v138.684h-39.918z" fill="#8399fe"/><path d="m247.268 380.271h39.918v30.443h-39.918z" fill="#9fb0fe"/><path d="m247.268 301.181h39.918v19.812h-39.918z" fill="#6583fe"/><path d="m313.764 301.181h-93.074c-5.523 0-10-4.477-10-10v-23.825h113.074v23.825c0 5.523-4.477 10-10 10z" fill="#fe2c8f"/><path d="m431.617 153.491v110.18c0 5.53-4.48 10-10 10h-308.78c-5.52 0-10-4.47-10-10v-110.18c0-22.1 17.91-40 40-40h248.78c22.09 0 40 17.9 40 40z" fill="#ff7eb8"/><path d="m330.177 113.491v36.93c0 3.9-2.27 7.44-5.8 9.08l-16.92 7.83v48.11c0 3.03-1.23 5.77-3.21 7.76-1.98 1.98-4.72 3.21-7.75 3.21-6.06 0-10.97-4.91-10.97-10.97v-101.95z" fill="#ff5ba8"/><path d="m102.838 248.51v15.165c0 5.523 4.477 10 10 10h308.778c5.523 0 10-4.477 10-10v-15.165z" fill="#ff5ba8"/><path d="m264.147 153.49v110.18c0 5.53-4.48 10-10 10h-141.31c-5.52 0-10-4.47-10-10v-110.18c0-22.09 17.91-40 40-40h81.31c22.09 0 40 17.91 40 40z" fill="#ffa8cf"/><path d="m198.527 136.08c0 35.31-28.62 63.94-63.94 63.94-11.56 0-22.39-3.07-31.75-8.43v-38.1c0-22.09 17.91-40 40-40h51.58c2.66 7.02 4.11 14.64 4.11 22.59z" fill="#ff7eb8"/><path d="m232.397 160.42v113.25h-97.81v-113.25c0-5.52 4.48-10 10-10h77.81c5.52 0 10 4.48 10 10z" fill="#ff5ba8"/><path d="m196.907 150.42c-6.5 28.41-31.93 49.6-62.32 49.6v-39.6c0-5.52 4.48-10 10-10z" fill="#fe2c8f"/><path d="m320.172 72.135h-24.647c-5.523 0-10 4.477-10 10v111.446c0 6.057 4.91 10.968 10.968 10.968 6.057 0 10.968-4.91 10.968-10.968v-48.113l16.913-7.83c3.536-1.637 5.799-5.178 5.799-9.075v-46.428c-.001-5.523-4.478-10-10.001-10z" fill="#fe2c8f"/><path d="m134.587 166.84h97.81v12.57h-97.81z" fill="#ff7eb8"/><path d="m190.647 166.84c-2.5 4.56-5.54 8.78-9.04 12.57h-47.02v-12.57z" fill="#ff5ba8"/><g fill="#ff7eb8"><path d="m134.587 191.98h97.81v12.57h-97.81z"/><path d="m134.587 217.121h97.81v12.57h-97.81z"/><path d="m134.587 242.261h97.81v12.57h-97.81z"/></g></g><g><circle cx="134.587" cy="115.466" fill="#02ffb3" r="63.944"/><g fill="#2626bc"><path d="m247.268 325.434c-2.761 0-5 2.238-5 5v109.432c0 2.762 2.239 5 5 5s5-2.238 5-5v-109.432c0-2.762-2.239-5-5-5z"/><path d="m391.616 108.487h-56.444v-26.352c0-8.271-6.729-15-15-15h-24.647c-8.271 0-15 6.729-15 15v111.446c0 8.805 7.163 15.968 15.968 15.968s15.968-7.163 15.968-15.968v-44.918l14.013-6.488c5.284-2.446 8.698-7.789 8.698-13.611v-10.076h56.444c19.299 0 35 15.701 35 35v110.188c0 2.757-2.243 5-5 5h-308.778c-2.757 0-5-2.243-5-5v-84.666c8.229 3.477 17.268 5.402 26.749 5.402 37.003 0 67.28-29.305 68.868-65.924h52.82c2.761 0 5-2.238 5-5s-2.239-5-5-5h-53.096c-3.51-34.75-32.932-61.965-68.592-61.965-38.016 0-68.944 30.929-68.944 68.944 0 24.512 12.869 46.063 32.196 58.291v89.917c0 8.271 6.729 15 15 15h92.852v12.506c0 8.271 6.729 15 15 15h61.496v133.685c0 2.762 2.239 5 5 5s5-2.238 5-5v-133.685h21.578c8.271 0 15-6.729 15-15v-12.506h92.853c8.271 0 15-6.729 15-15v-110.188c-.002-24.813-20.189-45-45.002-45zm-66.444 20.076c0 1.94-1.138 3.722-2.899 4.537l-16.913 7.83c-1.768.818-2.899 2.589-2.899 4.537v48.113c0 3.291-2.677 5.968-5.968 5.968s-5.968-2.677-5.968-5.968v-111.445c0-2.757 2.243-5 5-5h24.647c2.757 0 5 2.243 5 5zm-249.53-13.096c0-32.502 26.442-58.944 58.944-58.944s58.944 26.442 58.944 58.944-26.442 58.944-58.944 58.944-58.944-26.442-58.944-58.944zm243.121 175.714c0 2.757-2.243 5-5 5h-93.073c-2.757 0-5-2.243-5-5v-12.506h103.073z"/></g></g><g><path d="m166.497 139.139h-63.819c-2.001 0-3.622-1.622-3.622-3.622v-40.1c0-2.001 1.622-3.622 3.622-3.622h63.819c2.001 0 3.622 1.622 3.622 3.622v40.1c0 2-1.622 3.622-3.622 3.622z" fill="#9fb0fe"/><path d="m135.69 109.07 34.429 26.447c0 2.001-1.622 3.622-3.622 3.622h-63.819c-2.001 0-3.622-1.622-3.622-3.622l34.429-26.447c.649-.5 1.555-.5 2.205 0z" fill="#8399fe"/><path d="m133.484 121.863-34.429-26.447c0-2.001 1.622-3.622 3.622-3.622h63.819c2.001 0 3.622 1.622 3.622 3.622l-34.429 26.447c-.649.5-1.555.5-2.205 0z" fill="#b7c5ff"/></g><path d="m134.587 191.98h31.06c-9.19 5.12-19.78 8.04-31.06 8.04z" fill="#ff5ba8"/></g><path d="m150.681 335.486c-3.713 0-7.426-1.413-10.253-4.24-5.654-5.653-5.654-14.853 0-20.506 5.653-5.655 14.853-5.654 20.506 0 5.654 5.653 5.654 14.853 0 20.506-2.826 2.827-6.539 4.24-10.253 4.24zm.001-18.991c-1.153 0-2.305.438-3.182 1.315-1.755 1.755-1.755 4.61 0 6.365 1.753 1.753 4.609 1.755 6.364 0s1.755-4.61 0-6.365c-.877-.876-2.03-1.315-3.182-1.315z" fill="#00eca2"/><path d="m200.298 367.47c-1.28 0-2.559-.488-3.536-1.465l-5.964-5.964-5.964 5.964c-1.953 1.953-5.118 1.953-7.071 0-1.953-1.952-1.953-5.118 0-7.07l9.5-9.5c1.953-1.953 5.118-1.953 7.071 0l9.5 9.5c1.953 1.952 1.953 5.118 0 7.07-.977.976-2.257 1.465-3.536 1.465z" fill="#6583fe"/><path d="m251.397 63.785c-1.28 0-2.559-.488-3.536-1.465l-5.964-5.964-5.964 5.964c-1.953 1.953-5.118 1.953-7.071 0-1.953-1.952-1.953-5.118 0-7.07l9.5-9.5c1.953-1.953 5.118-1.953 7.071 0l9.5 9.5c1.953 1.952 1.953 5.118 0 7.07-.977.977-2.256 1.465-3.536 1.465z" fill="#00eca2"/><g fill="#ff7eb8"><path d="m368.239 340.243c-1.28 0-2.559-.488-3.536-1.465l-5.964-5.964-5.964 5.964c-1.953 1.953-5.118 1.953-7.071 0-1.953-1.952-1.953-5.118 0-7.07l9.5-9.5c1.953-1.953 5.118-1.953 7.071 0l9.5 9.5c1.953 1.952 1.953 5.118 0 7.07-.977.977-2.256 1.465-3.536 1.465z"/><path d="m179.948 446.063c-3.713 0-7.426-1.413-10.253-4.24-2.739-2.738-4.247-6.379-4.247-10.253 0-3.873 1.508-7.514 4.248-10.253 5.652-5.653 14.851-5.654 20.505.001 5.653 5.653 5.653 14.852 0 20.505-2.827 2.826-6.541 4.24-10.253 4.24zm0-18.991c-1.152 0-2.305.438-3.182 1.315-.851.851-1.318 1.98-1.318 3.182s.468 2.332 1.318 3.182c1.755 1.756 4.61 1.755 6.364.001 1.754-1.755 1.754-4.609 0-6.364-.878-.877-2.03-1.316-3.182-1.316z"/></g></g></g></svg>