<svg id="Capa_1" enable-background="new 0 0 512 512" height="512" viewBox="0 0 512 512" width="512" xmlns="http://www.w3.org/2000/svg" xmlns:xlink="http://www.w3.org/1999/xlink"><linearGradient id="SVGID_1_" gradientUnits="userSpaceOnUse" x1="32.686" x2="399.686" y1="195.079" y2="263.079"><stop offset=".0112" stop-color="#dafced"/><stop offset=".3814" stop-color="#e7f0ed"/><stop offset="1" stop-color="#ffd9ec"/></linearGradient><g><g><path d="m501.873 123.784c-22.357-56.888-91.226-91.003-149.556-68.427-66.582 25.769-44.506 131.673-104.983 153.088-32.669 11.568-80.963-31.644-113.969-38.27-60.821-12.21-115.881 30.705-129.439 90.134-13.832 60.63 8.353 141.61 74.967 158.066 79.35 19.602 120.683-51.729 187.249-72.211 68.31-21.019 144.263 28.622 200.814-31.776 41.78-44.622 57.055-134.273 34.917-190.604z" fill="url(#SVGID_1_)"/></g><g><path d="m474.929 264.994-128.322-20.055 62.488-121.25c2.119-4.113-2.29-8.522-6.402-6.402l-121.25 62.488-20.055-128.322c-.961-6.148-9.815-6.148-10.775 0l-20.055 128.322-121.25-62.488c-4.113-2.12-8.522 2.29-6.402 6.402l62.488 121.25-128.323 20.055c-6.148.961-6.148 9.815 0 10.775l128.322 20.055-62.488 121.25c-2.12 4.113 2.29 8.522 6.402 6.402l121.25-62.488 20.055 128.322c.961 6.148 9.815 6.148 10.775 0l20.055-128.322 121.25 62.488c4.113 2.12 8.522-2.29 6.402-6.402l-62.488-121.25 128.322-20.055c6.149-.96 6.149-9.814.001-10.775z" fill="#2626bc" opacity=".1"/><g><g><g><path d="m333.495 246.617 75.6-146.693c2.12-4.113-2.29-8.522-6.402-6.402l-146.693 75.6-146.693-75.6c-4.113-2.12-8.522 2.29-6.402 6.402l75.6 146.693-75.6 146.693c-2.12 4.113 2.29 8.522 6.402 6.402l146.693-75.6 146.693 75.6c4.113 2.12 8.522-2.29 6.402-6.402z" fill="#ff7eb8"/><path d="m356.665 291.573-100.665 15.727-100.665-15.727 23.165-44.956-3.054-5.933 80.554-12.586 80.554 12.586-3.054 5.933z" fill="#ff5ba8"/><path d="m215.313 246.617-43.265-83.952 83.952 43.267 83.952-43.267-43.266 83.952 43.266 83.952-83.952-43.266-83.952 43.266z" fill="#ffc4df"/><path d="m322.594 296.895-36.82 5.748-29.774-15.345-29.774 15.345-36.831-5.748 25.914-50.278-5.803-11.255 46.494-7.264 46.483 7.264-5.803 11.255z" fill="#ffa8cf"/><path d="m474.929 241.229-218.929-34.215-218.929 34.215c-6.148.961-6.148 9.815 0 10.775l218.929 34.216 218.929-34.215c6.148-.961 6.148-9.815 0-10.776z" fill="#6583fe"/><g><path d="m250.612 27.688-34.215 218.929 34.215 218.929c.961 6.148 9.815 6.148 10.775 0l34.216-218.929-34.215-218.929c-.961-6.148-9.815-6.148-10.776 0z" fill="#8399fe"/><path d="m295.601 246.617-8.758 56.069c-17.592 15.541-44.094 15.541-61.686 0l-8.758-56.069.742-4.722c1.68-2.541 3.643-4.941 5.879-7.176 18.214-18.213 47.748-18.213 65.961 0 2.236 2.236 4.199 4.635 5.879 7.176z" fill="#6583fe"/></g><circle cx="256" cy="246.617" fill="#b7c5ff" r="46.641"/><path d="m475.702 236.29-121.474-18.989 59.311-115.085c1.951-3.785 1.239-8.352-1.772-11.363-3.01-3.013-7.575-3.726-11.365-1.774l-115.088 59.311-18.984-121.471c-.813-5.205-5.061-8.841-10.331-8.841s-9.517 3.636-10.33 8.84l-18.982 121.472-115.089-59.312c-3.786-1.951-8.353-1.238-11.364 1.773-3.011 3.012-3.724 7.579-1.772 11.364l49.686 96.408c.887 1.723 2.636 2.711 4.448 2.711.771 0 1.554-.179 2.287-.557 2.455-1.265 3.419-4.28 2.154-6.734l-49.331-95.723 117.355 60.48-7.686 49.183-181.076 28.307c-5.202.813-8.837 5.055-8.841 10.318-.004 5.268 3.628 9.52 8.84 10.342l121.474 18.984-59.311 115.085c-1.951 3.786-1.239 8.353 1.773 11.364 1.879 1.88 4.364 2.863 6.887 2.863 1.52 0 3.054-.357 4.477-1.091l115.088-59.312 18.984 121.478c.813 5.2 5.061 8.833 10.33 8.833s9.517-3.633 10.331-8.833l18.984-121.477 115.087 59.311c1.424.733 2.957 1.091 4.478 1.091 2.522 0 5.008-.984 6.888-2.863 3.012-3.012 3.724-7.579 1.772-11.363l-59.312-115.09 18.236-2.851c2.729-.427 4.594-2.984 4.168-5.713-.427-2.729-2.987-4.585-5.713-4.168l-71.369 11.157c10.741-16.858 10.74-38.624-.002-55.481l174.611 27.296c.264.041.384.06.385.445 0 .393-.131.413-.386.453l-74.55 11.65c-2.728.427-4.594 2.984-4.168 5.713.386 2.467 2.514 4.229 4.935 4.229.256 0 .517-.021.778-.061l74.556-11.651c5.206-.821 8.839-5.073 8.835-10.341-.006-5.263-3.642-9.505-8.842-10.317zm-71.406-137.968-60.479 117.351-49.19-7.689-7.686-49.182zm-118.851 177.74c-16.236 16.233-42.654 16.233-58.89 0-7.865-7.865-12.196-18.322-12.196-29.445 0-11.122 4.331-21.579 12.196-29.444s18.322-12.196 29.444-12.196c11.123 0 21.58 4.331 29.445 12.196 16.237 16.235 16.236 42.653.001 58.889zm-29.895-247.6c.042-.264.06-.384.45-.384s.409.12.45.385l27.284 174.59c-8.211-5.25-17.753-8.076-27.734-8.076s-19.523 2.826-27.734 8.077zm-218.092 218.154c0-.386.12-.404.385-.445l174.597-27.294c-5.253 8.213-8.08 17.756-8.08 27.74 0 9.983 2.827 19.525 8.078 27.738l-174.589-27.285c-.261-.041-.392-.062-.391-.454zm70.247 148.296 60.477-117.351 49.19 7.687 7.686 49.185zm148.745 69.865c-.041.26-.059.378-.45.378s-.409-.118-.45-.378l-27.287-174.61c8.428 5.37 18.079 8.066 27.738 8.066 9.656 0 19.309-2.698 27.737-8.066zm147.845-69.864-117.354-60.479 7.687-49.186 49.187-7.689z" fill="#2626bc"/></g><circle cx="256" cy="246.617" fill="#d2deff" r="25.901"/></g><path d="m459.412 205.433c-1.279 0-2.559-.488-3.535-1.464l-5.965-5.965-5.965 5.965c-1.951 1.951-5.118 1.952-7.071-.001-1.952-1.952-1.952-5.118.001-7.071l9.5-9.499c1.953-1.951 5.117-1.951 7.07 0l9.5 9.499c1.953 1.953 1.953 5.119.001 7.071-.976.977-2.257 1.465-3.536 1.465z" fill="#ff7eb8"/><path d="m104.454 334.609c-1.28 0-2.559-.488-3.536-1.465l-5.964-5.964-5.964 5.964c-1.953 1.953-5.118 1.953-7.071 0-1.953-1.952-1.953-5.118 0-7.07l9.5-9.5c1.953-1.953 5.118-1.953 7.071 0l9.5 9.5c1.953 1.952 1.953 5.118 0 7.07-.977.977-2.257 1.465-3.536 1.465z" fill="#00eca2"/><path d="m434.631 166.513c-1.279 0-2.56-.488-3.535-1.465l-5.965-5.964-5.965 5.964c-1.951 1.953-5.119 1.953-7.07 0-1.953-1.952-1.953-5.118 0-7.07l9.5-9.5c1.951-1.953 5.119-1.953 7.07 0l9.5 9.5c1.953 1.952 1.953 5.118 0 7.07-.976.977-2.256 1.465-3.535 1.465z" fill="#6583fe"/><path d="m304.258 64.118c-3.713 0-7.426-1.413-10.252-4.24-5.653-5.653-5.653-14.852 0-20.505 5.653-5.655 14.854-5.653 20.505 0 5.654 5.653 5.654 14.852 0 20.505-2.826 2.827-6.539 4.24-10.253 4.24zm0-18.99c-1.151 0-2.304.438-3.182 1.315-1.754 1.755-1.754 4.609 0 6.364 1.757 1.755 4.609 1.753 6.364 0 1.754-1.755 1.754-4.609 0-6.364-.877-.877-2.03-1.315-3.182-1.315z" fill="#00eca2"/><path d="m202.911 422.851c-3.713 0-7.427-1.413-10.253-4.24-5.653-5.653-5.653-14.852 0-20.505s14.853-5.654 20.506 0c5.653 5.653 5.653 14.852 0 20.505-2.827 2.827-6.54 4.24-10.253 4.24zm-.001-18.99c-1.152 0-2.305.438-3.182 1.315-1.754 1.755-1.754 4.609 0 6.364 1.754 1.754 4.61 1.753 6.364 0 1.754-1.755 1.754-4.609 0-6.364-.877-.877-2.029-1.315-3.182-1.315z" fill="#6583fe"/></g></g></g></svg>