<svg id="Capa_1" enable-background="new 0 0 512 512" height="512" viewBox="0 0 512 512" width="512" xmlns="http://www.w3.org/2000/svg" xmlns:xlink="http://www.w3.org/1999/xlink"><linearGradient id="SVGID_1_" gradientUnits="userSpaceOnUse" x1="239.382" x2="329.378" y1="92.627" y2="559.103"><stop offset=".0112" stop-color="#dafced"/><stop offset=".761" stop-color="#cbdcfa"/><stop offset="1" stop-color="#c6d1ff"/></linearGradient><g><g><path d="m471.476 114.121c-65.417-50.293-128.867-9.306-199.64-23.797-71.285-14.597-99.685-63.201-180.876-40.766-71.922 19.873-115.562 99.551-76.024 166.258 11.267 19.009 30.461 33.35 38.305 54.619 12.653 34.311-6.607 60.653-2.85 94.372 15.612 140.102 229.574 85.834 308.303 42.245 123.47-68.36 206.998-220.497 112.782-292.931z" fill="url(#SVGID_1_)"/></g><g><path d="m430.791 261.441-33.831-29.948v-.002h-.002l-.003-.002-91.528-32.201 26.47-29.617c5.758-6.443 1.185-16.664-7.456-16.664h-35.667v-74.447c0-5.523-4.477-10-10-10h-45.548c-5.523 0-10 4.477-10 10v74.446h-35.667c-8.641 0-13.214 10.221-7.456 16.664l26.47 29.617-91.528 32.201-.003.002h-.002v.002l-33.831 29.948c-2.856 2.528-1.943 7.195 1.655 8.46l32.176 11.32v136.147c0 4.244 2.678 8.025 6.681 9.433l130.96 46.072c2.148.756 4.489.756 6.637 0l130.96-46.072c4.003-1.408 6.681-5.19 6.681-9.433v-136.146l32.176-11.32c3.599-1.266 4.511-5.932 1.656-8.46z" fill="#2626bc" opacity=".1"/><g><g><g><path d="m396.96 206.49v185.877c0 4.244-2.678 8.025-6.681 9.433l-134.279 47.24-134.279-47.239c-4.003-1.408-6.681-5.19-6.681-9.433v-185.878z" fill="#ffa8cf"/><g><path d="m256 256.08v22.74l-38 33.64c-1.36 1.2-3.26 1.57-4.98.97l-97.98-34.47v-72.47z" fill="#ff7eb8"/></g><path d="m396.96 206.49v185.877c0 4.244-2.678 8.025-6.681 9.433l-134.279 47.24v-242.55z" fill="#ff7eb8"/><g><path d="m396.96 206.49v72.47l-97.98 34.47c-1.72.6-3.62.23-4.98-.97l-38-33.64v-22.74z" fill="#ff5ba8"/></g><g><path d="m256 156.898-140.955 49.59 140.955 49.591 140.955-49.591z" fill="#6583fe"/><path d="m351.2 222.59-95.2 33.49-95.2-33.49 91.881-32.323c2.148-.756 4.489-.756 6.637 0z" fill="#4369fd"/></g></g><path d="m180.103 144.67 68.441 76.579c3.976 4.448 10.937 4.448 14.912 0l68.441-76.579c5.758-6.443 1.185-16.664-7.456-16.664h-35.667v-74.446c0-5.523-4.477-10-10-10h-45.548c-5.523 0-10 4.477-10 10v74.446h-35.667c-8.641 0-13.214 10.221-7.456 16.664z" fill="#01eca5"/><path d="m283.54 198.79-20.08 22.46c-3.98 4.45-10.94 4.45-14.92 0l-20.08-22.46 24.221-8.522c2.148-.756 4.49-.756 6.638 0z" fill="#00d890"/><g fill="#6583fe"><path d="m328.902 339.171v14.538c0 3.441 3.395 5.854 6.645 4.722l38.862-13.539c2.009-.7 3.355-2.594 3.355-4.722v-14.538c0-3.441-3.395-5.854-6.645-4.722l-38.862 13.539c-2.009.7-3.355 2.595-3.355 4.722z"/><path d="m328.902 373.41v14.538c0 3.441 3.395 5.854 6.645 4.722l38.862-13.539c2.009-.7 3.355-2.594 3.355-4.722v-14.538c0-3.441-3.395-5.854-6.645-4.722l-38.862 13.539c-2.009.7-3.355 2.595-3.355 4.722z"/></g><g><g><path d="m160.8 338.431c-.535 0-1.08-.086-1.615-.27l-22.907-7.82c-2.613-.892-4.009-3.733-3.116-6.347.892-2.613 3.731-4.013 6.347-3.116l22.907 7.82c2.613.892 4.009 3.733 3.116 6.347-.71 2.078-2.652 3.386-4.732 3.386z" fill="#fe2c8f"/></g><g><path d="m160.8 356.813c-.535 0-1.08-.086-1.615-.27l-22.907-7.821c-2.613-.892-4.009-3.733-3.116-6.347.892-2.613 3.731-4.013 6.347-3.116l22.907 7.821c2.613.892 4.009 3.733 3.116 6.347-.71 2.078-2.652 3.386-4.732 3.386z" fill="#fe2c8f"/></g></g><g><g><path d="m196.476 328.718c-.535 0-1.08-.086-1.615-.27l-58.583-20c-2.613-.892-4.009-3.733-3.116-6.347.892-2.613 3.731-4.013 6.347-3.116l58.583 20c2.613.892 4.009 3.733 3.116 6.347-.71 2.078-2.652 3.386-4.732 3.386z" fill="#fe2c8f"/></g></g></g><g><path d="m396.955 206.488 33.835 29.952c2.856 2.528 1.943 7.195-1.655 8.46l-130.159 45.792c-1.712.602-3.615.23-4.974-.973l-38.002-33.64z" fill="#ffa8cf"/></g><g><path d="m115.045 206.488-33.835 29.952c-2.856 2.528-1.943 7.195 1.655 8.46l130.159 45.792c1.712.602 3.615.23 4.974-.973l38.002-33.64z" fill="#ffc4df"/></g><path d="m434.105 232.696-33.836-29.952c-.494-.415-1.052-.745-1.655-.973l-84.481-29.722 21.491-24.047c3.997-4.471 4.958-10.648 2.509-16.122s-7.696-8.874-13.692-8.874h-30.667v-69.446c0-8.271-6.729-15-15-15h-45.548c-8.271 0-15 6.729-15 15v69.445h-30.666c-5.996 0-11.243 3.4-13.692 8.874s-1.488 11.651 2.508 16.122l68.44 76.579c2.843 3.18 6.919 5.004 11.185 5.004s8.342-1.824 11.185-5.004l39.74-44.467 74.964 26.374-125.89 44.291-125.889-44.29 47.59-16.743c2.605-.917 3.974-3.771 3.058-6.376-.917-2.605-3.771-3.976-6.376-3.058l-60.996 21.46c-.603.228-1.161.557-1.655.973l-33.836 29.953c-2.683 2.374-3.873 5.892-3.185 9.407.688 3.516 3.116 6.325 6.495 7.514l28.84 10.146v132.602c0 6.354 4.027 12.041 10.021 14.149l134.274 47.24c.537.188 1.098.283 1.659.283s1.122-.095 1.659-.283l134.274-47.24c5.994-2.108 10.021-7.795 10.021-14.149v-108.042c0-2.762-2.238-5-5-5s-5 2.238-5 5v108.042c0 2.118-1.342 4.013-3.34 4.716l-132.614 46.656-132.615-46.656c-1.998-.703-3.34-2.598-3.34-4.716v-129.083l91.318 32.127c1.082.381 2.203.566 3.316.566 2.407 0 4.776-.868 6.632-2.512l34.689-30.707 34.688 30.707c1.856 1.645 4.227 2.513 6.633 2.513 1.113 0 2.233-.186 3.315-.566l130.159-45.792c3.379-1.188 5.808-3.998 6.495-7.514.689-3.516-.502-7.034-3.185-9.409zm-174.377-14.779c-.961 1.076-2.285 1.668-3.728 1.668s-2.767-.592-3.728-1.668l-68.44-76.579s0 0-.001 0c-2.003-2.242-1.146-4.681-.836-5.374.311-.694 1.558-2.958 4.564-2.958h35.666c2.762 0 5-2.238 5-5v-74.446c0-2.757 2.243-5 5-5h45.548c2.757 0 5 2.243 5 5v74.445c0 2.762 2.238 5 5 5h35.667c3.007 0 4.254 2.264 4.564 2.958.311.693 1.167 3.132-.837 5.374zm-45.045 68.059-130.16-45.792 31.635-28.004 37.821 13.306 92.338 32.486zm82.634 0-31.634-28.004 130.159-45.792 31.635 28.004z" fill="#2626bc"/></g><path d="m192.311 62.435c-1.279 0-2.56-.488-3.535-1.465l-5.965-5.964-5.965 5.964c-1.951 1.953-5.119 1.953-7.07 0-1.953-1.952-1.953-5.118 0-7.07l9.5-9.5c1.951-1.953 5.119-1.953 7.07 0l9.5 9.5c1.953 1.952 1.953 5.118 0 7.07-.976.977-2.256 1.465-3.535 1.465z" fill="#00eca2"/><path d="m92.526 434.559c-1.279 0-2.56-.488-3.535-1.465l-5.965-5.964-5.965 5.964c-1.951 1.953-5.119 1.953-7.07 0-1.953-1.952-1.953-5.118 0-7.07l9.5-9.5c1.951-1.953 5.119-1.953 7.07 0l9.5 9.5c1.953 1.952 1.953 5.118 0 7.07-.975.977-2.255 1.465-3.535 1.465z" fill="#ff7eb8"/><path d="m422.979 190.801c-3.714 0-7.427-1.413-10.253-4.24-5.654-5.653-5.654-14.853 0-20.506 5.652-5.654 14.853-5.654 20.505 0 5.654 5.653 5.654 14.853 0 20.506-2.827 2.827-6.54 4.24-10.252 4.24zm0-18.992c-1.152 0-2.305.438-3.183 1.315-1.754 1.755-1.754 4.61 0 6.365 1.756 1.754 4.608 1.754 6.364 0 1.754-1.755 1.754-4.61 0-6.365-.878-.876-2.03-1.315-3.181-1.315z" fill="#6583fe"/><path d="m124.54 464.38c-3.713 0-7.427-1.413-10.253-4.24-5.654-5.653-5.654-14.853 0-20.506 5.652-5.654 14.854-5.654 20.506 0 5.654 5.653 5.654 14.853 0 20.506-2.826 2.827-6.54 4.24-10.253 4.24zm0-18.991c-1.152 0-2.305.438-3.183 1.315-1.754 1.755-1.754 4.61 0 6.365 1.756 1.754 4.609 1.754 6.365 0 1.754-1.755 1.754-4.61 0-6.365-.877-.877-2.03-1.315-3.182-1.315z" fill="#6583fe"/><path d="m319.402 105.776c-3.714 0-7.427-1.413-10.253-4.24-5.654-5.653-5.654-14.852 0-20.505 5.652-5.653 14.853-5.655 20.505 0 5.653 5.653 5.653 14.852 0 20.505-2.826 2.827-6.539 4.24-10.252 4.24zm0-18.99c-1.152 0-2.305.438-3.183 1.315-1.754 1.755-1.754 4.609 0 6.364 1.756 1.753 4.608 1.755 6.364 0 1.754-1.755 1.754-4.609 0-6.364-.877-.877-2.029-1.315-3.181-1.315z" fill="#ff7eb8"/></g></g></svg>