<svg id="Capa_1" enable-background="new 0 0 512 512" height="512" viewBox="0 0 512 512" width="512" xmlns="http://www.w3.org/2000/svg" xmlns:xlink="http://www.w3.org/1999/xlink"><linearGradient id="SVGID_1_" gradientUnits="userSpaceOnUse" x1="125.669" x2="334.669" y1="420.174" y2="150.174"><stop offset=".0112" stop-color="#dafced"/><stop offset=".761" stop-color="#cbdcfa"/><stop offset="1" stop-color="#c6d1ff"/></linearGradient><g><g><path d="m38.145 134.71c19.974-57.707 57.562-157.818 137.712-129.893 31.204 10.872 41.003 52.164 72.37 57.311 29.626 4.861 54.704-24.255 82.89-29.776 35.014-6.859 72.067 2.317 85.37 36.48 15.916 40.874-30.997 86.737-19.655 124.062 18.708 61.564 87.863-40.471 100.229 58.88 17.304 139.025-136.801 386.519-240.619 182.998-52.643-103.199-107.815-30.825-189.876-82.161-77.922-48.747-53.805-144.567-28.421-217.901z" fill="url(#SVGID_1_)"/></g><g><path d="m459.366 440.611h-56.122c5.523 0 10-4.477 10-10v-158.154c0-5.523-4.477-10-10-10h-68.168c5.523 0 10-4.477 10-10v-158.153c0-5.523-4.477-10-10-10h-158.153c-5.523 0-10 4.477-10 10v158.153c0 5.523 4.477 10 10 10h-68.168c-5.523 0-10 4.477-10 10v158.154c0 5.523 4.477 10 10 10h-56.121c-2.761 0-5 2.239-5 5v17.914c0 2.761 2.239 5 5 5h6.257v18.796c0 2.761 2.239 5 5 5h23.796c2.761 0 5-2.239 5-5v-18.796h146.415v18.796c0 2.761 2.239 5 5 5h23.796c2.761 0 5-2.239 5-5v-18.796h146.415v18.796c0 2.761 2.239 5 5 5h23.796c2.761 0 5-2.239 5-5v-18.796h6.257c2.761 0 5-2.239 5-5v-17.914c0-2.762-2.239-5-5-5z" fill="#2626bc" opacity=".1"/><g><g><g><path d="m87.687 467.321h-23.796c-2.761 0-5-2.239-5-5v-28.796h33.796v28.796c0 2.761-2.239 5-5 5z" fill="#ff5ba8"/><path d="m267.898 467.321h-23.796c-2.761 0-5-2.239-5-5v-28.796h33.796v28.796c0 2.761-2.239 5-5 5z" fill="#ff5ba8"/><g><path d="m448.109 467.321h-23.796c-2.761 0-5-2.239-5-5v-28.796h33.796v28.796c0 2.761-2.239 5-5 5z" fill="#ff5ba8"/></g></g><path d="m459.366 443.525h-406.732c-2.761 0-5-2.239-5-5v-17.914c0-2.761 2.239-5 5-5h406.732c2.761 0 5 2.239 5 5v17.914c0 2.761-2.239 5-5 5z" fill="#ff7eb8"/><g><g><g><path d="m266.909 415.611h-158.153c-5.523 0-10-4.477-10-10v-158.154c0-5.523 4.477-10 10-10h158.153c5.523 0 10 4.477 10 10v158.153c0 5.523-4.477 10.001-10 10.001z" fill="#ffa8cf"/><path d="m123.756 262.457h128.154v128.153h-128.154z" fill="#ff5ba8" transform="matrix(0 1 -1 0 514.366 138.701)"/><g fill="#ff7eb8"><path d="m237.229 274.075-113.47 113.47v-113.47z"/><path d="m240.299 320.624v69.991h-84.26l74.176-74.168c3.722-3.721 10.084-1.085 10.084 4.177z"/></g></g><path d="m176.876 227.728h25v194.697h-25z" fill="#ffa8cf" transform="matrix(.707 .707 -.707 .707 285.331 -38.697)"/></g><g><g><path d="m403.244 415.611h-158.153c-5.523 0-10-4.477-10-10v-158.154c0-5.523 4.477-10 10-10h158.154c5.523 0 10 4.477 10 10v158.153c-.001 5.523-4.478 10.001-10.001 10.001z" fill="#ffa8cf"/><path d="m260.091 262.457h128.154v128.153h-128.154z" fill="#ff5ba8" transform="matrix(0 1 -1 0 650.701 2.366)"/><g fill="#ff7eb8"><path d="m373.564 274.075-113.47 113.47v-113.47z"/><path d="m376.634 320.624v69.991h-84.26l74.176-74.168c3.722-3.721 10.084-1.085 10.084 4.177z"/></g></g><path d="m313.211 227.728h25v194.697h-25z" fill="#ffa8cf" transform="matrix(.707 .707 -.707 .707 325.263 -135.1)"/></g></g><g><g><path d="m335.077 237.457h-158.154c-5.523 0-10-4.477-10-10v-158.153c0-5.523 4.477-10 10-10h158.153c5.523 0 10 4.477 10 10v158.153c.001 5.523-4.476 10-9.999 10z" fill="#ffa8cf"/><path d="m191.923 84.304h128.154v128.153h-128.154z" fill="#ff5ba8" transform="matrix(0 1 -1 0 404.38 -107.62)"/><path d="m305.397 95.921-113.47 113.47v-113.47z" fill="#ff7eb8"/><g><g><path d="m208.215 105.921h18.583c2.761 0 5-2.239 5-5s-2.239-5-5-5h-18.583c-2.761 0-5 2.239-5 5s2.239 5 5 5z" fill="#fe2c8f"/></g><g><path d="m208.215 123.243h8.583c2.761 0 5-2.239 5-5s-2.239-5-5-5h-8.583c-2.761 0-5 2.239-5 5s2.239 5 5 5z" fill="#fe2c8f"/></g><g><path d="m208.215 138.564h8.583c2.761 0 5-2.239 5-5s-2.239-5-5-5h-8.583c-2.761 0-5 2.239-5 5s2.239 5 5 5z" fill="#fe2c8f"/></g></g><path d="m308.467 142.471v69.991h-84.26l74.176-74.168c3.721-3.721 10.084-1.086 10.084 4.177z" fill="#ff7eb8"/></g><path d="m459.366 410.61h-41.997c.556-1.567.875-3.245.875-5v-158.153c0-8.271-6.729-15-15-15h-54.043c.556-1.567.875-3.245.875-5v-158.153c0-8.271-6.729-15-15-15h-158.153c-8.271 0-15 6.729-15 15 0 2.761 2.239 5 5 5s5-2.239 5-5c0-2.757 2.243-5 5-5h158.153c2.757 0 5 2.243 5 5v158.153c0 2.757-2.243 5-5 5h-158.153c-2.757 0-5-2.243-5-5v-128.901c0-2.761-2.239-5-5-5s-5 2.239-5 5v128.901c0 1.755.319 3.433.875 5h-54.043c-8.271 0-15 6.729-15 15v158.153c0 1.755.319 3.433.875 5h-41.996c-5.514 0-10 4.486-10 10v17.915c0 5.514 4.486 10 10 10h1.257v13.796c0 5.514 4.486 10 10 10h23.796c5.514 0 10-4.486 10-10v-13.796h136.415v13.796c0 5.514 4.486 10 10 10h23.796c5.514 0 10-4.486 10-10v-13.796h112.163c2.761 0 5-2.239 5-5s-2.239-5-5-5h-337.427v-17.915h406.732v17.915h-40.053c-2.761 0-5 2.239-5 5v18.796c0 5.514 4.486 10 10 10h23.796c5.514 0 10-4.486 10-10v-13.796h1.257c5.514 0 10-4.486 10-10v-17.915c0-5.514-4.486-10-10-10zm-371.679 51.711h-23.796v-13.796h23.796zm180.211 0h-23.796v-13.796h23.796zm-164.142-56.711v-158.153c0-2.757 2.243-5 5-5h122.21c-.556 1.567-.875 3.245-.875 5v158.153c0 1.755.319 3.433.875 5h-122.21c-2.757 0-5-2.243-5-5zm165.819 5h-24.484c-2.757 0-5-2.243-5-5v-158.153c0-2.757 2.243-5 5-5h158.153c2.757 0 5 2.243 5 5v158.153c0 2.757-2.243 5-5 5zm178.534 51.711h-23.796v-13.796h23.796z" fill="#2626bc"/><path d="m245.044 49.575h25v194.697h-25z" fill="#ffa8cf" transform="matrix(.707 .707 -.707 .707 179.323 -139.078)"/></g></g><path d="m372.211 382.508h-22.134c-2.761 0-5-2.239-5-5v-7.154c0-2.761 2.239-5 5-5h22.134c2.761 0 5 2.239 5 5v7.154c0 2.761-2.239 5-5 5z" fill="#02ffb3"/></g><path d="m430.052 193.954c-3.874 0-7.515-1.508-10.253-4.248-5.653-5.653-5.653-14.852 0-20.506 5.653-5.652 14.853-5.653 20.506 0 5.653 5.654 5.653 14.853 0 20.506-2.739 2.739-6.38 4.248-10.253 4.248zm0-18.998c-1.152 0-2.305.438-3.182 1.316-1.755 1.754-1.755 4.609 0 6.364.85.851 1.98 1.318 3.182 1.318s2.332-.468 3.182-1.318c1.755-1.755 1.755-4.61 0-6.364-.877-.878-2.029-1.316-3.182-1.316z" fill="#00eca2"/><path d="m113.755 196.108c-3.873 0-7.514-1.508-10.253-4.248-2.738-2.738-4.247-6.379-4.247-10.252s1.508-7.514 4.247-10.253c5.653-5.654 14.853-5.653 20.506 0 2.739 2.739 4.247 6.38 4.247 10.253 0 3.874-1.508 7.515-4.247 10.253-2.738 2.739-6.379 4.247-10.253 4.247zm.001-18.997c-1.153 0-2.305.438-3.182 1.316-.85.85-1.318 1.98-1.318 3.182s.468 2.332 1.318 3.182c.851.851 1.98 1.318 3.182 1.318s2.332-.468 3.182-1.318 1.318-1.98 1.318-3.182-.468-2.332-1.318-3.182c-.877-.878-2.03-1.316-3.182-1.316z" fill="#ff7eb8"/><path d="m61.838 319.699c-3.713 0-7.426-1.413-10.253-4.24-5.653-5.654-5.653-14.853 0-20.506s14.853-5.653 20.506 0c2.739 2.739 4.247 6.38 4.247 10.253s-1.508 7.514-4.248 10.253c-2.826 2.826-6.539 4.239-10.252 4.24zm0-18.991c-1.152 0-2.305.438-3.182 1.316-1.755 1.754-1.755 4.609 0 6.364 1.754 1.755 4.609 1.755 6.363 0 .851-.85 1.318-1.98 1.318-3.182s-.468-2.332-1.318-3.182c-.876-.878-2.029-1.316-3.181-1.316z" fill="#00eca2"/><path d="m402.064 204.973c-1.28 0-2.559-.488-3.536-1.464l-5.964-5.964-5.964 5.964c-1.953 1.952-5.118 1.952-7.071 0-1.953-1.953-1.953-5.119 0-7.071l9.5-9.5c1.953-1.952 5.118-1.952 7.071 0l9.5 9.5c1.953 1.953 1.953 5.119 0 7.071-.976.976-2.256 1.464-3.536 1.464z" fill="#ff7eb8"/><path d="m133.256 151.314c-1.28 0-2.559-.488-3.536-1.464l-5.964-5.964-5.964 5.964c-1.953 1.952-5.118 1.952-7.071 0-1.953-1.953-1.953-5.119 0-7.071l9.5-9.5c1.953-1.952 5.118-1.952 7.071 0l9.5 9.5c1.953 1.953 1.953 5.119 0 7.071-.977.976-2.256 1.464-3.536 1.464z" fill="#6583fe"/></g></g></svg>