<svg id="Capa_1" enable-background="new 0 0 512 512" height="512" viewBox="0 0 512 512" width="512" xmlns="http://www.w3.org/2000/svg" xmlns:xlink="http://www.w3.org/1999/xlink"><linearGradient id="SVGID_1_" gradientUnits="userSpaceOnUse" x1="263.975" x2="247.476" y1="86.005" y2="531.482"><stop offset=".0112" stop-color="#dafced"/><stop offset=".761" stop-color="#cbdcfa"/><stop offset="1" stop-color="#c6d1ff"/></linearGradient><g><g><path d="m364.823 49.582c-69.098-27.035-164.784-16.764-217.662 31.51-37.336 34.085-8.439 43.8 17.016 106.17 18.423 45.14-164.177 38.927-164.177 120.495 0 94.299 132.251 76.424 181.329 87.218 75.036 16.504 140.496 78.242 220.668 70.103 69.795-7.086 96.403-61.855 106.109-124.642 18.082-116.976-26.329-245.094-143.283-290.854z" fill="url(#SVGID_1_)"/></g><g><path d="m430.791 265.08-33.831-29.948v-.002h-.002l-.003-.002-91.528-32.201 26.47-29.617c5.758-6.443 1.185-16.664-7.456-16.664h-35.667v-74.446c0-5.523-4.477-10-10-10h-45.548c-5.523 0-10 4.477-10 10v74.446h-35.667c-8.641 0-13.214 10.221-7.456 16.664l26.47 29.617-91.528 32.201-.003.002h-.002v.002l-33.831 29.948c-2.856 2.528-1.943 7.195 1.655 8.46l32.176 11.32v136.147c0 4.244 2.678 8.025 6.681 9.433l130.96 46.072c2.148.756 4.489.756 6.637 0l130.96-46.072c4.003-1.408 6.681-5.19 6.681-9.433v-136.146l32.176-11.32c3.599-1.266 4.511-5.932 1.656-8.461z" fill="#2626bc" opacity=".1"/><g><g><g><path d="m396.96 210.13v185.877c0 4.244-2.678 8.025-6.681 9.433l-134.279 47.24-134.279-47.239c-4.003-1.408-6.681-5.19-6.681-9.433v-185.878z" fill="#ffa8cf"/><g><path d="m256 259.72v22.74l-38 33.64c-1.36 1.2-3.26 1.57-4.98.97l-97.98-34.47v-72.47z" fill="#ff7eb8"/></g><path d="m396.96 210.13v185.877c0 4.244-2.678 8.025-6.681 9.433l-134.279 47.24v-242.55z" fill="#ff7eb8"/><g><path d="m396.96 210.13v72.47l-97.98 34.47c-1.72.6-3.62.23-4.98-.97l-38-33.64v-22.74z" fill="#ff5ba8"/></g><g><path d="m256 160.537-140.955 49.591 140.955 49.59 140.955-49.59z" fill="#6583fe"/><path d="m351.2 226.229-95.2 33.49-95.2-33.49 91.881-32.323c2.148-.756 4.489-.756 6.637 0z" fill="#4369fd"/></g></g><path d="m324.44 143.78h-35.67v104.41l-32.77 11.53-32.77-11.53v-104.41h-35.67c-8.64 0-13.22-10.22-7.46-16.67l68.44-76.57c3.98-4.45 10.94-4.45 14.92 0l68.44 76.57c5.76 6.45 1.18 16.67-7.46 16.67z" fill="#ff5ba8"/><path d="m288.77 204.27v43.92l-32.77 11.53-32.77-11.53v-43.92l29.451-10.362c2.148-.756 4.49-.756 6.638 0z" fill="#fe2c8f"/><g fill="#6583fe"><path d="m328.902 342.811v14.538c0 3.441 3.395 5.854 6.645 4.722l38.862-13.539c2.009-.7 3.355-2.594 3.355-4.722v-14.538c0-3.441-3.395-5.854-6.645-4.722l-38.862 13.539c-2.009.7-3.355 2.594-3.355 4.722z"/><path d="m328.902 377.05v14.538c0 3.441 3.395 5.854 6.645 4.722l38.862-13.539c2.009-.7 3.355-2.594 3.355-4.722v-14.538c0-3.441-3.395-5.854-6.645-4.722l-38.862 13.539c-2.009.7-3.355 2.594-3.355 4.722z"/></g><g><g><path d="m160.8 342.071c-.535 0-1.08-.086-1.615-.27l-22.907-7.82c-2.613-.892-4.009-3.733-3.116-6.347.892-2.613 3.731-4.013 6.347-3.116l22.907 7.82c2.613.892 4.009 3.733 3.116 6.347-.71 2.078-2.652 3.386-4.732 3.386z" fill="#fe2c8f"/></g><g><path d="m160.8 360.453c-.535 0-1.08-.086-1.615-.27l-22.907-7.821c-2.613-.892-4.009-3.733-3.116-6.347.892-2.613 3.731-4.013 6.347-3.116l22.907 7.821c2.613.892 4.009 3.733 3.116 6.347-.71 2.078-2.652 3.386-4.732 3.386z" fill="#fe2c8f"/></g></g><g><g><path d="m196.476 332.358c-.535 0-1.08-.086-1.615-.27l-58.583-20c-2.613-.892-4.009-3.733-3.116-6.347.892-2.613 3.731-4.013 6.347-3.116l58.583 20c2.613.892 4.009 3.733 3.116 6.347-.71 2.078-2.652 3.386-4.732 3.386z" fill="#fe2c8f"/></g></g></g><g><path d="m396.955 210.128 33.835 29.952c2.856 2.528 1.943 7.195-1.655 8.46l-130.159 45.792c-1.712.602-3.615.23-4.974-.973l-38.002-33.641z" fill="#ffa8cf"/></g><g><path d="m115.045 210.128-33.836 29.952c-2.856 2.528-1.943 7.195 1.655 8.46l130.159 45.792c1.712.602 3.615.23 4.974-.973l38.003-33.641z" fill="#ffc4df"/></g><path d="m434.105 236.336-33.836-29.952c-.494-.415-1.052-.745-1.655-.973l-104.84-36.885v-19.748h30.667c5.996 0 11.242-3.4 13.691-8.874s1.487-11.65-2.508-16.121l-68.44-76.579c-2.842-3.181-6.918-5.004-11.184-5.004s-8.342 1.823-11.185 5.004l-68.439 76.579c-3.996 4.471-4.958 10.647-2.509 16.121s7.695 8.874 13.692 8.874h30.667v19.748l-104.841 36.885c-.603.228-1.161.557-1.655.973l-33.836 29.953c-2.683 2.375-3.873 5.892-3.185 9.408s3.116 6.324 6.495 7.513l28.84 10.146v132.602c0 6.354 4.027 12.041 10.021 14.149l134.274 47.24c.537.188 1.098.283 1.659.283s1.122-.095 1.659-.283l134.274-47.24c5.994-2.108 10.021-7.795 10.021-14.149v-132.602l28.84-10.146c3.379-1.188 5.808-3.998 6.495-7.514.692-3.516-.499-7.033-3.182-9.408zm-246.545-97.558c-3.007 0-4.254-2.264-4.564-2.958-.311-.693-1.167-3.132.837-5.373l68.44-76.579c.961-1.076 2.285-1.668 3.728-1.668s2.767.592 3.728 1.668l68.441 76.579c2.003 2.241 1.146 4.68.836 5.373-.311.694-1.557 2.958-4.563 2.958h-35.667c-2.762 0-5 2.238-5 5v74.705c0 2.762 2.238 5 5 5s5-2.238 5-5v-39.356l88.115 31-57.19 20.121-68.701 24.17-27.773-9.771v-100.869c0-2.762-2.238-5-5-5zm30.667 102.351-30.926-10.88-57.19-20.121 88.116-31.001zm173.728 154.877c0 2.118-1.342 4.013-3.34 4.716l-132.615 46.656-132.615-46.656c-1.998-.703-3.34-2.598-3.34-4.716v-129.084l37.207 13.09c2.603.916 5.459-.453 6.376-3.058.916-2.604-.452-5.459-3.058-6.376l-76.047-26.755 31.635-28.004 37.821 13.306 92.338 32.486-31.634 28.004-26.041-9.161c-2.605-.919-5.46.453-6.376 3.058s.452 5.459 3.058 6.376l26.04 9.161c1.082.381 2.203.566 3.316.566 2.407 0 4.776-.868 6.632-2.512l34.688-30.706 34.688 30.707c1.856 1.645 4.227 2.513 6.633 2.513 1.113 0 2.233-.186 3.315-.566l91.319-32.128zm-94.638-106.39-31.634-28.004 92.338-32.486 37.821-13.306 31.635 28.004z" fill="#2626bc"/></g><path d="m102.026 140.128c-1.279 0-2.56-.488-3.535-1.465l-5.965-5.964-5.965 5.964c-1.951 1.953-5.119 1.953-7.07 0-1.953-1.952-1.953-5.118 0-7.07l9.5-9.5c1.951-1.953 5.119-1.953 7.07 0l9.5 9.5c1.953 1.952 1.953 5.118 0 7.07-.975.977-2.255 1.465-3.535 1.465z" fill="#00eca2"/><path d="m422.979 194.44c-3.714 0-7.427-1.413-10.253-4.24-5.654-5.653-5.654-14.853 0-20.506 5.651-5.654 14.852-5.654 20.505 0 5.654 5.653 5.654 14.853 0 20.506-2.827 2.827-6.54 4.24-10.252 4.24zm0-18.991c-1.152 0-2.305.438-3.183 1.315-1.754 1.755-1.754 4.61 0 6.365 1.756 1.754 4.608 1.754 6.364 0 1.754-1.755 1.754-4.61 0-6.365-.878-.876-2.03-1.315-3.181-1.315z" fill="#6583fe"/><path d="m79.54 428.019c-3.713 0-7.427-1.413-10.253-4.24-5.654-5.653-5.654-14.853 0-20.506 5.652-5.654 14.854-5.654 20.506 0 5.654 5.653 5.654 14.853 0 20.506-2.826 2.827-6.54 4.24-10.253 4.24zm0-18.991c-1.152 0-2.305.438-3.183 1.315-1.754 1.755-1.754 4.61 0 6.365 1.756 1.754 4.609 1.754 6.365 0 1.754-1.755 1.754-4.61 0-6.365-.877-.876-2.03-1.315-3.182-1.315z" fill="#6583fe"/><path d="m115.044 184.94c-3.713 0-7.426-1.413-10.252-4.24-5.654-5.653-5.654-14.853 0-20.506 5.651-5.653 14.851-5.654 20.506-.001v.001c5.654 5.653 5.654 14.853 0 20.506-2.826 2.826-6.541 4.24-10.254 4.24zm.001-18.991c-1.153 0-2.305.438-3.183 1.315-1.754 1.755-1.754 4.61 0 6.365 1.756 1.754 4.609 1.755 6.365-.001 1.754-1.754 1.755-4.608 0-6.363-.877-.877-2.03-1.316-3.182-1.316z" fill="#00eca2"/></g><path d="m441.979 316.854c-1.279 0-2.56-.488-3.535-1.465l-5.965-5.964-5.965 5.964c-1.951 1.953-5.119 1.953-7.07 0-1.953-1.952-1.953-5.118 0-7.07l9.5-9.5c1.951-1.953 5.119-1.953 7.07 0l9.5 9.5c1.953 1.952 1.953 5.118 0 7.07-.976.977-2.256 1.465-3.535 1.465z" fill="#ff7eb8"/></g></svg>