<svg id="Capa_1" enable-background="new 0 0 512 512" height="512" viewBox="0 0 512 512" width="512" xmlns="http://www.w3.org/2000/svg" xmlns:xlink="http://www.w3.org/1999/xlink"><linearGradient id="SVGID_1_" gradientUnits="userSpaceOnUse" x1="537.242" x2="75.242" y1="396.227" y2="96.227"><stop offset=".0112" stop-color="#dafced"/><stop offset=".761" stop-color="#cbdcfa"/><stop offset="1" stop-color="#c6d1ff"/></linearGradient><g><g><path d="m38.145 134.71c19.974-57.707 57.562-157.818 137.712-129.893 31.204 10.872 41.003 52.164 72.37 57.311 29.626 4.861 54.704-24.255 82.89-29.776 35.014-6.859 72.067 2.317 85.37 36.48 15.916 40.874-30.997 86.737-19.655 124.062 18.708 61.564 87.863-40.471 100.229 58.88 17.304 139.025-136.801 386.519-240.619 182.998-52.643-103.199-107.815-30.825-189.876-82.161-77.922-48.747-53.805-144.567-28.421-217.901z" fill="url(#SVGID_1_)"/></g><g><g><path d="m477.019 148.613c-2.761 0-5 2.238-5 5v10.946h-13.691c-.504 0-.982.097-1.441.236v-20.159c0-3.094-1.432-6.013-3.878-7.907l-23.379-18.099c-1.752-1.357-3.906-2.093-6.122-2.093h-335.017c-2.216 0-4.369.736-6.122 2.093l-23.378 18.099c-2.446 1.894-3.878 4.813-3.878 7.907v23.933c-.23-.032-.459-.07-.698-.07h-9.081c-2.761 0-5 2.238-5 5s2.239 5 5 5h9.081c.239 0 .468-.038.698-.07v25.657c-.23-.032-.459-.07-.698-.07h-9.081c-2.761 0-5 2.238-5 5s2.239 5 5 5h9.081c.239 0 .468-.038.698-.07v25.657c-.23-.032-.459-.07-.698-.07h-9.081c-2.761 0-5 2.238-5 5s2.239 5 5 5h9.081c.239 0 .468-.038.698-.07v25.657c-.23-.032-.459-.07-.698-.07h-9.081c-2.761 0-5 2.238-5 5s2.239 5 5 5h9.081c.239 0 .468-.038.698-.07v25.657c-.23-.032-.459-.07-.698-.07h-9.081c-2.761 0-5 2.238-5 5s2.239 5 5 5h9.081c.239 0 .468-.038.698-.07v25.657c-.23-.032-.459-.07-.698-.07h-9.081c-2.761 0-5 2.238-5 5s2.239 5 5 5h9.081c.239 0 .468-.038.698-.07v25.657c-.23-.032-.459-.07-.698-.07h-9.081c-2.761 0-5 2.238-5 5s2.239 5 5 5h9.081c.239 0 .468-.038.698-.07v25.373h-.78c-2.761 0-5 2.239-5 5v26.094h-1.584c-5.363 0-9.711 4.348-9.711 9.711s4.348 9.711 9.711 9.711h20.091v18.417c0 7.606 6.166 13.772 13.772 13.772 7.606 0 13.772-6.166 13.772-13.772v-18.417h7.89c2.761 0 5-2.239 5-5v-40.516c0-2.393-1.684-4.388-3.929-4.879l20.353-243.969h50.441v105.451h-1.574c-3.655 0-6.622 2.967-6.622 6.622v84.297c0 3.655 2.967 6.622 6.622 6.622h164.872c3.655 0 6.622-2.967 6.622-6.622v-84.297c0-3.655-2.967-6.622-6.622-6.622h-1.574v-105.453h50.441l20.353 243.969c-2.246.491-3.929 2.486-3.929 4.879v40.516c0 2.761 2.239 5 5 5h7.89v18.417c0 7.606 6.166 13.772 13.772 13.772s13.772-6.166 13.772-13.772v-18.417h20.091c5.363 0 9.711-4.348 9.711-9.711s-4.348-9.711-9.711-9.711h-1.584v-26.094c0-2.761-2.239-5-5-5h-.78v-38.518c.459.139.936.236 1.441.236h13.691v15.126c0 2.762 2.239 5 5 5s5-2.238 5-5v-240.133c-.002-2.761-2.241-5-5.002-5zm-272.351 114.208h-19.531v-89.767h19.531zm10 15.684v-105.451h82.663v105.451zm112.194-15.684h-19.531v-89.767h19.531zm145.157 105.799h-13.691c-.504 0-.982.097-1.441.236v-194.533c.459.139.936.236 1.441.236h13.691z" fill="#2626bc" opacity=".1"/><g><g><path d="m423.509 91.537h-335.018c-2.216 0-4.369.736-6.122 2.093l-23.378 18.099c-2.446 1.894-3.878 4.813-3.878 7.907v290.826h47.692l21.892-262.409h262.606l21.892 262.409h47.692v-290.825c0-3.094-1.432-6.013-3.878-7.907l-23.379-18.1c-1.752-1.357-3.905-2.093-6.121-2.093z" fill="#ff7eb8"/><path d="m55.113 263.915v146.548h47.692l12.226-146.548z" fill="#ff5ba8"/><path d="m396.969 263.915 12.226 146.548h47.692v-146.548z" fill="#ff5ba8"/><path d="m55.113 242.17v27.06h59.475l2.257-27.06z" fill="#ffc4df"/><path d="m395.155 242.17 2.257 27.06h59.475v-27.06z" fill="#ffc4df"/><g><g><g><path d="m345.058 260.127v84.297c0 3.655-2.967 6.622-6.622 6.622h-164.872c-3.655 0-6.622-2.967-6.622-6.622v-84.297c0-3.655 2.967-6.622 6.622-6.622h164.872c3.655 0 6.622 2.967 6.622 6.622z" fill="#97ffd2"/><path d="m173.564 253.505h9.642v15.893h-16.264v-9.271c0-3.655 2.967-6.622 6.622-6.622z" fill="#dcfdee"/><path d="m166.942 335.161h16.264v15.886h-9.642c-3.655 0-6.622-2.967-6.622-6.622z" fill="#dcfdee"/><path d="m345.058 260.127v9.271h-16.264v-15.893h9.642c3.655 0 6.622 2.967 6.622 6.622z" fill="#dcfdee"/><path d="m328.795 335.161h16.264v9.264c0 3.655-2.967 6.622-6.622 6.622h-9.642z" fill="#dcfdee"/><path d="m180.799 265.364h150.402v73.823h-150.402z" fill="#01eca5"/><g fill="#00d890"><path d="m212.359 333.692c-2.746 0-4.972-2.226-4.972-4.972v-52.888c0-2.746 2.226-4.972 4.972-4.972 2.746 0 4.972 2.226 4.972 4.972v52.888c0 2.747-2.226 4.972-4.972 4.972z"/><path d="m299.641 333.692c-2.746 0-4.972-2.226-4.972-4.972v-52.888c0-2.746 2.226-4.972 4.972-4.972 2.746 0 4.972 2.226 4.972 4.972v52.888c0 2.747-2.226 4.972-4.972 4.972z"/><path d="m199.668 283.002h-9.531c-5.523 0-10-4.477-10-10v-12.544c0-2.761 2.239-5 5-5h19.531c2.761 0 5 2.239 5 5v12.544c0 5.523-4.477 10-10 10z"/><path d="m321.862 283.002h-9.531c-5.523 0-10-4.477-10-10v-12.544c0-2.761 2.239-5 5-5h19.531c2.761 0 5 2.239 5 5v12.544c0 5.523-4.477 10-10 10z"/><path d="m317.097 333.692c-2.746 0-4.972-2.226-4.972-4.972v-52.888c0-2.746 2.226-4.972 4.972-4.972 2.746 0 4.972 2.226 4.972 4.972v52.888c0 2.747-2.226 4.972-4.972 4.972z"/></g></g><g fill="#00d890"><path d="m194.903 333.692c-2.746 0-4.972-2.226-4.972-4.972v-52.888c0-2.746 2.226-4.972 4.972-4.972 2.746 0 4.972 2.226 4.972 4.972v52.888c0 2.747-2.226 4.972-4.972 4.972z"/><path d="m229.816 333.692c-2.746 0-4.972-2.226-4.972-4.972v-52.888c0-2.746 2.226-4.972 4.972-4.972 2.746 0 4.972 2.226 4.972 4.972v52.888c-.001 2.747-2.227 4.972-4.972 4.972z"/><path d="m247.272 333.692c-2.746 0-4.972-2.226-4.972-4.972v-52.888c0-2.746 2.226-4.972 4.972-4.972 2.746 0 4.972 2.226 4.972 4.972v52.888c0 2.747-2.226 4.972-4.972 4.972z"/><path d="m264.728 333.692c-2.746 0-4.972-2.226-4.972-4.972v-52.888c0-2.746 2.226-4.972 4.972-4.972 2.746 0 4.972 2.226 4.972 4.972v52.888c0 2.747-2.226 4.972-4.972 4.972z"/><path d="m282.185 333.692c-2.746 0-4.972-2.226-4.972-4.972v-52.888c0-2.746 2.226-4.972 4.972-4.972 2.746 0 4.972 2.226 4.972 4.972v52.888c-.001 2.747-2.227 4.972-4.972 4.972z"/></g></g></g><g><g><path d="m81.611 474.606c-7.606 0-13.772-6.166-13.772-13.772v-24.067c0-7.606 6.166-13.772 13.772-13.772 7.606 0 13.772 6.166 13.772 13.772v24.067c0 7.607-6.166 13.772-13.772 13.772z" fill="#4369fd"/><path d="m95.383 458.653v-21.885c0-7.606-6.166-13.772-13.772-13.772-7.606 0-13.772 6.166-13.772 13.772v21.885z" fill="#2d58e0"/><path d="m108.273 426.323h-58.94v-29.421c0-2.761 2.239-5 5-5h48.94c2.761 0 5 2.239 5 5z" fill="#8399fe"/><path d="m103.273 442.418h-55.524c-5.363 0-9.711-4.348-9.711-9.711 0-5.363 4.348-9.711 9.711-9.711h60.524v14.421c0 2.762-2.239 5.001-5 5.001z" fill="#d2deff"/></g><g><path d="m430.389 474.606c7.606 0 13.772-6.166 13.772-13.772v-24.067c0-7.606-6.166-13.772-13.772-13.772-7.606 0-13.772 6.166-13.772 13.772v24.067c0 7.607 6.166 13.772 13.772 13.772z" fill="#4369fd"/><path d="m444.16 458.653v-21.885c0-7.606-6.166-13.772-13.772-13.772s-13.772 6.166-13.772 13.772v21.885z" fill="#2d58e0"/><path d="m403.727 426.323h58.94v-29.421c0-2.761-2.239-5-5-5h-48.94c-2.761 0-5 2.239-5 5z" fill="#8399fe"/><path d="m408.727 442.418h55.524c5.363 0 9.711-4.348 9.711-9.711 0-5.363-4.348-9.711-9.711-9.711h-60.524v14.421c0 2.762 2.239 5.001 5 5.001z" fill="#d2deff"/></g></g><g><g><path d="m90.615 229.047h-5.332c-6.508 0-11.802-5.295-11.802-11.803v-16.457c0-6.508 5.294-11.803 11.802-11.803h5.332c6.508 0 11.803 5.295 11.803 11.803v16.457c0 6.508-5.295 11.803-11.803 11.803zm-5.331-30.063c-.994 0-1.802.809-1.802 1.803v16.457c0 .994.809 1.803 1.802 1.803h5.332c.994 0 1.803-.809 1.803-1.803v-16.457c0-.994-.809-1.803-1.803-1.803z" fill="#01eca5"/></g><g><path d="m433.518 228.606h-18.108c-2.122 0-4.012-1.34-4.716-3.341-.705-2.001-.068-4.229 1.586-5.559 5.042-4.05 12.846-11.452 14.406-15.229.6-1.451.505-3.051-.247-4.176-.585-.875-1.456-1.318-2.587-1.318-1.898 0-3.442 1.544-3.442 3.442 0 2.762-2.239 5-5 5s-5-2.238-5-5c0-7.412 6.03-13.442 13.442-13.442 4.479 0 8.452 2.1 10.899 5.76 2.623 3.922 3.063 8.989 1.177 13.555-1.354 3.274-4.398 6.997-7.594 10.308h5.184c2.761 0 5 2.238 5 5s-2.238 5-5 5z" fill="#01eca5"/></g></g><g><g><path d="m199.668 265.364h-9.531c-5.523 0-10-4.477-10-10v-12.544c0-2.761 2.239-5 5-5h19.531c2.761 0 5 2.239 5 5v12.544c0 5.523-4.477 10-10 10z" fill="#8399fe"/><path d="m226.673 73.958v17.579h-63.54v-17.579c0-1.326.527-2.598 1.464-3.536l8.831-8.831c.938-.938 2.209-1.464 3.536-1.464h35.878c1.326 0 2.598.527 3.536 1.464l8.831 8.831c.937.938 1.464 2.21 1.464 3.536z" fill="#8399fe"/><g fill="#d2deff"><circle cx="208.214" cy="77.142" r="4.678"/><circle cx="181.817" cy="77.142" r="4.678"/></g></g><g><path d="m321.862 265.364h-9.531c-5.523 0-10-4.477-10-10v-12.544c0-2.761 2.239-5 5-5h19.531c2.761 0 5 2.239 5 5v12.544c0 5.523-4.477 10-10 10z" fill="#8399fe"/><path d="m348.867 73.958v17.579h-63.54v-17.579c0-1.326.527-2.598 1.464-3.536l8.831-8.831c.938-.938 2.209-1.464 3.536-1.464h35.878c1.326 0 2.598.527 3.536 1.464l8.831 8.831c.937.938 1.464 2.21 1.464 3.536z" fill="#8399fe"/><g fill="#d2deff"><circle cx="330.409" cy="77.142" r="4.678"/><circle cx="304.011" cy="77.142" r="4.678"/></g></g></g><path d="m199.87 275.83v7.17h-9.94v-7.17c0-2.74 2.23-4.97 4.97-4.97 1.38 0 2.62.56 3.52 1.46s1.45 2.14 1.45 3.51z" fill="#00b574"/><path d="m322.07 275.83v7.17h-9.94v-7.17c0-2.74 2.22-4.97 4.97-4.97 1.37 0 2.61.56 3.51 1.46s1.46 2.14 1.46 3.51z" fill="#00b574"/><path d="m477.019 123.613c-2.761 0-5 2.238-5 5v10.946h-10.132v-19.923c0-4.607-2.175-9.041-5.817-11.86l-23.379-18.101c-2.615-2.024-5.876-3.139-9.182-3.139h-69.642v-12.578c0-2.671-1.04-5.182-2.929-7.07l-8.832-8.832c-1.89-1.889-4.4-2.929-7.07-2.929h-35.878c-2.671 0-5.182 1.04-7.071 2.93l-8.831 8.831c-1.889 1.889-2.929 4.399-2.929 7.07v12.579h-48.654v-12.579c0-2.671-1.04-5.182-2.929-7.07l-8.832-8.832c-1.89-1.889-4.4-2.929-7.07-2.929h-35.878c-2.67 0-5.181 1.04-7.071 2.93l-8.831 8.831c-1.889 1.889-2.929 4.399-2.929 7.07v12.579h-69.642c-3.306 0-6.567 1.114-9.183 3.14l-23.378 18.099c-3.643 2.82-5.817 7.254-5.817 11.861v23.862h-4.778c-2.761 0-5 2.238-5 5s2.239 5 5 5h4.778v25.517h-4.778c-2.761 0-5 2.238-5 5s2.239 5 5 5h4.778v25.517h-4.778c-2.761 0-5 2.238-5 5s2.239 5 5 5h4.778v25.517h-4.778c-2.761 0-5 2.238-5 5s2.239 5 5 5h4.778v25.517h-4.778c-2.761 0-5 2.238-5 5s2.239 5 5 5h4.778v25.517h-4.778c-2.761 0-5 2.238-5 5s2.239 5 5 5h4.778v25.517h-4.778c-2.761 0-5 2.238-5 5s2.239 5 5 5h4.778v21.25c-3.408 1.595-5.78 5.048-5.78 9.053v21.511c-6.467 1.546-11.295 7.361-11.295 14.294 0 8.111 6.599 14.711 14.711 14.711h15.091v13.417c0 10.351 8.421 18.771 18.771 18.771 10.351 0 18.772-8.421 18.772-18.771v-13.417h2.89c5.514 0 10-4.486 10-10v-40.517c0-3.115-1.433-5.901-3.673-7.736l19.697-236.111h45.841v95.454h-1.571c-6.408 0-11.622 5.214-11.622 11.622v84.294c0 6.408 5.214 11.621 11.622 11.621h164.868c6.408 0 11.622-5.213 11.622-11.621v-84.296c0-6.408-5.214-11.622-11.622-11.622h-1.572v-95.454h45.841l19.697 236.111c-2.24 1.835-3.674 4.621-3.674 7.737v40.517c0 5.514 4.486 10 10 10h2.89v13.417c0 10.351 8.421 18.771 18.772 18.771s18.771-8.421 18.771-18.771v-13.417h15.091c8.112 0 14.711-6.6 14.711-14.711 0-6.934-4.828-12.748-11.295-14.294v-21.511c0-5.514-4.486-10-10-10h-45.419l-19.961-239.264c-.216-2.591-2.383-4.584-4.983-4.584h-50.441v-46.518h86.646c1.102 0 2.189.372 3.061 1.046l23.379 18.101c1.214.939 1.938 2.417 1.938 3.953v243.972c0 2.762 2.239 5 5 5s5-2.238 5-5v-9.988h10.132v15.126c0 2.762 2.239 5 5 5s5-2.238 5-5v-240.134c0-2.761-2.239-5-5-5zm-37.859 337.222c0 4.837-3.935 8.771-8.771 8.771-4.837 0-8.772-3.935-8.772-8.771v-13.417h17.543zm25.091-23.417h-55.524v-9.422h55.524c2.598 0 4.711 2.113 4.711 4.711s-2.113 4.711-4.711 4.711zm-6.584-19.422h-48.939v-21.095h48.939zm-252.999-321.459v46.517h-19.531v-46.517zm10 0h82.663v46.517h-82.663zm-46.535-22.579 8.831-8.831h35.878l8.831 8.831v12.579h-53.54zm-64.86 322.943v21.095h-48.94v-21.095zm-12.89 63.934c0 4.837-3.935 8.771-8.772 8.771-4.836 0-8.771-3.935-8.771-8.771v-13.417h17.543zm-42.634-23.417c-2.598 0-4.711-2.113-4.711-4.711s2.113-4.711 4.711-4.711h55.526l.004 9.422zm76.948-294.364c-2.6 0-4.767 1.993-4.983 4.584l-19.961 239.263h-39.64v-267.264c0-1.536.725-3.014 1.939-3.954l23.378-18.099c.872-.675 1.959-1.047 3.061-1.047h86.646v46.517zm79.971 10v79.768h-19.531v-79.768zm-19.53 89.767h19.531v12.543c0 2.757-2.243 5-5 5h-9.531c-2.757 0-5-2.243-5-5zm154.918 17.309v84.294c0 .894-.728 1.621-1.622 1.621h-164.868c-.895 0-1.622-.728-1.622-1.621v-84.294c0-.895.728-1.622 1.622-1.622h1.909c1.449 6.766 7.47 11.856 14.663 11.856h9.531c8.271 0 15-6.729 15-15v-102.31h82.663v95.454h-58.412c-2.761 0-5 2.238-5 5s2.239 5 5 5h58.748c1.449 6.766 7.47 11.856 14.663 11.856h9.531c7.192 0 13.213-5.09 14.663-11.856h1.909c.895 0 1.622.727 1.622 1.622zm-32.724-17.309h19.531v12.543c0 2.757-2.243 5-5 5h-9.531c-2.757 0-5-2.243-5-5zm19.53-10h-19.531v-79.768h19.531zm0-89.767h-19.531v-46.517h19.531zm-36.535-56.517v-12.579l8.831-8.831h35.878l8.831 8.831v12.579zm171.56 257.083v-194.06h10.132v194.06z" fill="#2626bc"/></g><g><g><circle cx="90.243" cy="407.035" fill="#4369fd" r="4.678"/></g><g><circle cx="421.757" cy="407.035" fill="#4369fd" r="4.678"/></g></g></g></g><path d="m153.633 447.207c-3.874 0-7.515-1.509-10.254-4.248-2.738-2.737-4.246-6.379-4.246-10.252s1.508-7.515 4.247-10.253c5.653-5.653 14.853-5.654 20.506 0 2.739 2.738 4.247 6.38 4.247 10.253s-1.509 7.515-4.248 10.253c-2.737 2.738-6.379 4.247-10.252 4.247zm0-18.998c-1.152 0-2.305.438-3.182 1.315-.85.851-1.318 1.98-1.318 3.183s.468 2.331 1.317 3.181c.851.852 1.98 1.319 3.183 1.319 1.202 0 2.332-.468 3.181-1.318.851-.851 1.319-1.979 1.319-3.182s-.468-2.332-1.318-3.183c-.877-.877-2.029-1.315-3.182-1.315z" fill="#00eca2"/><path d="m192.706 411.51c-1.28 0-2.559-.488-3.536-1.465l-5.964-5.964-5.964 5.964c-1.953 1.953-5.118 1.953-7.071 0-1.953-1.952-1.953-5.118 0-7.07l9.5-9.5c1.953-1.953 5.118-1.953 7.071 0l9.5 9.5c1.953 1.952 1.953 5.118 0 7.07-.977.976-2.257 1.465-3.536 1.465z" fill="#6583fe"/><path d="m265.5 45.285c-1.28 0-2.559-.488-3.536-1.465l-5.964-5.964-5.964 5.964c-1.953 1.953-5.118 1.953-7.071 0-1.953-1.952-1.953-5.118 0-7.07l9.5-9.5c1.953-1.953 5.118-1.953 7.071 0l9.5 9.5c1.953 1.952 1.953 5.118 0 7.07-.977.977-2.256 1.465-3.536 1.465z" fill="#ff7eb8"/><path d="m421.887 74.877c-1.28 0-2.559-.488-3.536-1.465l-5.964-5.964-5.964 5.964c-1.953 1.953-5.118 1.953-7.071 0-1.953-1.952-1.953-5.118 0-7.07l9.5-9.5c1.953-1.953 5.118-1.953 7.071 0l9.5 9.5c1.953 1.952 1.953 5.118 0 7.07-.977.977-2.256 1.465-3.536 1.465z" fill="#6583fe"/><path d="m376.389 482.646c-3.713.001-7.426-1.413-10.253-4.24-2.739-2.738-4.247-6.379-4.247-10.252 0-3.874 1.508-7.515 4.248-10.254 2.738-2.738 6.379-4.247 10.252-4.247s7.514 1.508 10.252 4.247c2.739 2.739 4.248 6.38 4.248 10.254 0 3.873-1.508 7.514-4.248 10.253-2.826 2.825-6.539 4.239-10.252 4.239zm0-18.994c-1.202 0-2.332.468-3.181 1.318-.851.851-1.319 1.98-1.319 3.183 0 1.201.468 2.331 1.318 3.181 1.755 1.756 4.61 1.755 6.364.001.851-.851 1.318-1.98 1.318-3.182s-.468-2.332-1.318-3.182c0-.001 0-.001-.001-.001-.85-.85-1.98-1.318-3.181-1.318z" fill="#ff7eb8"/></g></g></svg>