<svg id="Capa_1" enable-background="new 0 0 512 512" height="512" viewBox="0 0 512 512" width="512" xmlns="http://www.w3.org/2000/svg" xmlns:xlink="http://www.w3.org/1999/xlink"><linearGradient id="SVGID_1_" gradientUnits="userSpaceOnUse" x1="222.235" x2="284.235" y1="136.096" y2="327.429"><stop offset=".0112" stop-color="#dafced"/><stop offset=".761" stop-color="#cbdcfa"/><stop offset="1" stop-color="#c6d1ff"/></linearGradient><g><g><path d="m501.873 125.723c-22.357-56.888-91.226-91.003-149.556-68.427-68.57 26.539-43.27 131.236-104.983 153.088-32.669 11.568-80.963-31.644-113.969-38.27-60.821-12.21-115.881 30.705-129.439 90.134-13.832 60.63 8.353 141.61 74.967 158.066 79.35 19.602 120.683-51.729 187.249-72.211 68.31-21.019 144.263 28.622 200.814-31.776 41.78-44.622 57.055-134.273 34.917-190.604z" fill="url(#SVGID_1_)"/></g><g><g><path d="m453.009 137.202-23.378-18.099c-1.752-1.357-3.906-2.093-6.122-2.093h-24.067v-9.073c0-5.523-4.477-10-10-10h-27.257c-5.523 0-10 4.477-10 10v9.073h-192.369v-9.073c0-5.523-4.477-10-10-10h-27.257c-5.523 0-10 4.477-10 10v9.073h-24.068c-2.216 0-4.369.736-6.122 2.093l-23.378 18.099c-2.446 1.894-3.878 4.813-3.878 7.907v27.99c0 5.523 4.477 10 10 10h37.232v56.98c0 1.931 1.566 3.497 3.497 3.497h1.966v12.843c0 3.863 3.131 6.994 6.994 6.994h5.13v39.386c0 5.297 2.983 10.232 7.785 12.879 1.95 1.074 3.097 3.126 2.995 5.354-.033.722-.212 1.417-.505 2.056l-2.227-1.712c-1.797-1.381-4.299-1.381-6.096 0l-2.242 1.724c-.324-.729-.497-1.523-.497-2.348 0-2.762-2.239-5-5-5s-5 2.238-5 5c0 3.023.899 5.972 2.506 8.493l-59.155 45.49c-1.278.983-1.93 2.464-1.932 3.961h-8.069c-3.655 0-6.622 2.967-6.622 6.622v84.297c0 3.655 2.967 6.622 6.622 6.622h164.872c3.655 0 6.622-2.967 6.622-6.622v-84.297c0-3.655-2.967-6.622-6.622-6.622h-8.069c-.002-1.497-.654-2.977-1.932-3.961l-59.171-45.503c1.462-2.265 2.375-4.909 2.505-7.74.279-6.062-2.846-11.646-8.157-14.572-1.636-.901-2.612-2.442-2.612-4.121v-39.386h5.129c3.863 0 6.994-3.131 6.994-6.994v-12.843h1.966c1.931 0 3.497-1.566 3.497-3.497v-43.991c8.108 9.852 25.283 16.502 45.619 16.502s37.512-6.651 45.619-16.503c8.107 9.852 25.283 16.503 45.62 16.503s37.512-6.651 45.619-16.503c8.107 9.852 25.283 16.503 45.62 16.503 28.385 0 50.619-12.954 50.619-29.49h20.653c5.523 0 10-4.477 10-10v-27.99c.001-3.095-1.431-6.014-3.877-7.908zm-266.897 241.493h-122.361l55.977-43.047c1.65.575 3.395.89 5.192.89.25 0 .5-.006.751-.017 1.552-.072 3.048-.379 4.458-.878zm47.644-195.595c0 11.486-21.407 19.49-40.619 19.49s-40.62-8.004-40.62-19.49h81.239c0-.001 0-.001 0 0zm91.239 0c0 11.486-21.407 19.49-40.619 19.49s-40.62-8.004-40.62-19.49h81.239c0-.001 0-.001 0 0zm91.239 0c0 11.486-21.407 19.49-40.619 19.49s-40.62-8.004-40.62-19.49h81.239c0-.001 0-.001 0 0z" fill="#2626bc" opacity=".1"/><g><g><path d="m135.061 238.412h-20.259c-3.863 0-6.994-3.131-6.994-6.994v-12.843h34.247v12.843c0 3.863-3.131 6.994-6.994 6.994z" fill="#9fb0fe"/><path d="m147.518 146.604v68.475c0 1.931-1.566 3.497-3.497 3.497h-38.179c-1.931 0-3.497-1.566-3.497-3.497v-68.475" fill="#ff7eb8"/><path d="m102.345 146.604h45.173v28.877h-45.173z" fill="#ff5ba8"/></g><g><g><g><path d="m213.99 360.317v84.297c0 3.655-2.967 6.622-6.622 6.622h-164.873c-3.655 0-6.622-2.967-6.622-6.622v-84.297c0-3.655 2.967-6.622 6.622-6.622h164.872c3.656 0 6.623 2.967 6.623 6.622z" fill="#97ffd2"/><g fill="#dcfdee"><path d="m42.495 353.695h9.642v15.893h-16.264v-9.271c0-3.655 2.967-6.622 6.622-6.622z"/><path d="m35.873 435.35h16.264v15.886h-9.642c-3.655 0-6.622-2.967-6.622-6.622z"/><path d="m213.99 360.317v9.271h-16.264v-15.893h9.642c3.655 0 6.622 2.967 6.622 6.622z"/><path d="m197.726 435.35h16.264v9.264c0 3.655-2.967 6.622-6.622 6.622h-9.642z"/></g><path d="m49.731 365.554h150.402v73.823h-150.402z" fill="#01eca5"/><path d="m81.291 433.882c-2.746 0-4.972-2.226-4.972-4.972v-52.888c0-2.746 2.226-4.972 4.972-4.972 2.746 0 4.972 2.226 4.972 4.972v52.888c-.001 2.746-2.226 4.972-4.972 4.972z" fill="#00d890"/><path d="m168.572 433.882c-2.746 0-4.972-2.226-4.972-4.972v-52.888c0-2.746 2.226-4.972 4.972-4.972 2.746 0 4.972 2.226 4.972 4.972v52.888c0 2.746-2.226 4.972-4.972 4.972z" fill="#00d890"/><path d="m186.029 433.882c-2.746 0-4.972-2.226-4.972-4.972v-52.888c0-2.746 2.226-4.972 4.972-4.972 2.746 0 4.972 2.226 4.972 4.972v52.888c-.001 2.746-2.227 4.972-4.972 4.972z" fill="#00d890"/></g><g fill="#00d890"><path d="m63.834 433.882c-2.746 0-4.972-2.226-4.972-4.972v-52.888c0-2.746 2.226-4.972 4.972-4.972 2.746 0 4.972 2.226 4.972 4.972v52.888c0 2.746-2.226 4.972-4.972 4.972z"/><path d="m98.747 433.882c-2.746 0-4.972-2.226-4.972-4.972v-52.888c0-2.746 2.226-4.972 4.972-4.972 2.746 0 4.972 2.226 4.972 4.972v52.888c0 2.746-2.226 4.972-4.972 4.972z"/><path d="m116.203 433.882c-2.746 0-4.972-2.226-4.972-4.972v-52.888c0-2.746 2.226-4.972 4.972-4.972 2.746 0 4.972 2.226 4.972 4.972v52.888c0 2.746-2.226 4.972-4.972 4.972z"/><path d="m133.66 433.882c-2.746 0-4.972-2.226-4.972-4.972v-52.888c0-2.746 2.226-4.972 4.972-4.972 2.746 0 4.972 2.226 4.972 4.972v52.888c-.001 2.746-2.227 4.972-4.972 4.972z"/><path d="m151.116 433.882c-2.746 0-4.972-2.226-4.972-4.972v-52.888c0-2.746 2.226-4.972 4.972-4.972 2.746 0 4.972 2.226 4.972 4.972v52.888c0 2.746-2.226 4.972-4.972 4.972z"/></g></g></g></g><path d="m456.887 148.099v-27.99c0-3.094-1.432-6.013-3.878-7.907l-23.379-18.099c-1.752-1.357-3.906-2.093-6.122-2.093h-335.017c-2.216 0-4.369.736-6.122 2.093l-23.378 18.099c-2.446 1.894-3.878 4.813-3.878 7.907v27.99c0 5.523 4.477 10 10 10h381.774c5.523 0 10-4.477 10-10z" fill="#ff7eb8"/><path d="m55.113 135.109v12.99c0 5.523 4.477 10 10 10h381.774c5.523 0 10-4.477 10-10v-12.99z" fill="#ffc4df"/><g><g><path d="m159.816 158.099h-47.257v-75.162c0-5.523 4.477-10 10-10h27.257c5.523 0 10 4.477 10 10z" fill="#8399fe"/><g fill="#d2deff"><circle cx="136.187" cy="138.441" r="4.678"/><circle cx="136.187" cy="112.044" r="4.678"/></g></g><g><path d="m399.441 158.099h-47.257v-75.162c0-5.523 4.477-10 10-10h27.257c5.523 0 10 4.477 10 10z" fill="#8399fe"/><g fill="#d2deff"><circle cx="375.813" cy="138.441" r="4.678"/><circle cx="375.813" cy="112.044" r="4.678"/></g></g></g><path d="m456.07 108.249-23.379-18.101c-2.615-2.024-5.876-3.139-9.182-3.139h-19.067v-4.073c0-8.271-6.729-15-15-15h-27.257c-8.271 0-15 6.729-15 15v4.073h-158.117c-2.761 0-5 2.238-5 5s2.239 5 5 5h158.116v56.09h-182.368v-70.163c0-8.271-6.729-15-15-15h-27.257c-8.271 0-15 6.729-15 15v4.073h-19.068c-3.306 0-6.567 1.114-9.183 3.14l-23.377 18.099c-3.644 2.819-5.818 7.254-5.818 11.861v27.99c0 8.271 6.729 15 15 15h77.404v50.477h-.463-34.247-.463v-27.786c0-2.762-2.239-5-5-5s-5 2.238-5 5v29.289c0 3.615 2.274 6.702 5.463 7.927v8.411c0 6.613 5.38 11.994 11.994 11.994h5.13v34.386c0 5.297 2.983 10.232 7.785 12.879 1.95 1.074 3.097 3.126 2.995 5.354-.033.722-.212 1.417-.505 2.056l-2.227-1.712c-1.797-1.381-4.299-1.381-6.096 0l-2.242 1.724c-.324-.729-.497-1.523-.497-2.348 0-2.762-2.239-5-5-5s-5 2.238-5 5c0 3.023.899 5.972 2.506 8.493l-51.107 39.302v-.442c0-2.762-2.239-5-5-5s-5 2.238-5 5v5.595h-8.047c-6.408 0-11.622 5.214-11.622 11.622v84.293c0 6.408 5.214 11.622 11.622 11.622h164.868c6.408 0 11.622-5.214 11.622-11.622v-84.293c0-6.408-5.214-11.622-11.622-11.622h-8.047v-5.595c0-2.762-2.239-5-5-5s-5 2.238-5 5v.442l-51.123-39.314c1.462-2.265 2.375-4.909 2.505-7.74.279-6.062-2.846-11.646-8.157-14.572-1.636-.901-2.612-2.442-2.612-4.121v-34.386h5.129c6.613 0 11.994-5.381 11.994-11.994v-8.411c3.189-1.225 5.463-4.312 5.463-7.927v-39.176c9.155 7.141 23.808 11.687 40.62 11.687 20.336 0 37.512-6.651 45.619-16.503 8.107 9.852 25.283 16.503 45.62 16.503s37.512-6.651 45.619-16.503c8.107 9.852 25.283 16.503 45.62 16.503 25.451 0 45.944-10.417 49.911-24.49h21.361c8.271 0 15-6.729 15-15v-27.99c.001-4.609-2.174-9.043-5.816-11.862zm-331.15 203.289c.25 0 .5-.006.751-.017 1.552-.072 3.048-.379 4.458-.878l49.486 38.055h-109.366l49.479-38.05c1.65.575 3.395.89 5.192.89zm84.068 48.782v84.293c0 .895-.728 1.622-1.622 1.622h-164.868c-.895 0-1.622-.728-1.622-1.622v-84.293c0-.895.728-1.622 1.622-1.622h164.868c.894 0 1.622.728 1.622 1.622zm148.196-277.384c0-2.757 2.243-5 5-5h27.257c2.757 0 5 2.243 5 5v70.164h-37.257zm-297.071 65.164v-27.99c0-1.536.725-3.014 1.939-3.954l23.378-18.099c.872-.675 1.959-1.047 3.061-1.047h19.067v56.09h-42.445c-2.757 0-5-2.244-5-5zm57.446-65.164c0-2.757 2.243-5 5-5h27.257c2.757 0 5 2.243 5 5v70.164h-37.257zm19.496 148.482c0 1.1-.895 1.994-1.994 1.994h-20.259c-1.099 0-1.994-.895-1.994-1.994v-7.842h24.247zm56.082-53.828c-16.279 0-34.129-5.748-39.201-14.49h78.402c-5.072 8.742-22.921 14.49-39.201 14.49zm91.239 0c-16.279 0-34.129-5.748-39.201-14.49h78.402c-5.072 8.742-22.922 14.49-39.201 14.49zm91.239 0c-16.279 0-34.129-5.748-39.201-14.49h78.402c-5.073 8.742-22.922 14.49-39.201 14.49zm76.272-29.49c0 2.757-2.243 5-5 5h-42.445v-56.09h19.067c1.102 0 2.189.372 3.061 1.046l23.379 18.101c1.214.939 1.938 2.417 1.938 3.953z" fill="#2626bc"/></g><path d="m282.788 424.85c-3.713 0-7.427-1.413-10.253-4.24-5.653-5.653-5.653-14.852 0-20.505s14.853-5.654 20.506 0c5.653 5.653 5.653 14.852 0 20.505-2.827 2.826-6.541 4.24-10.253 4.24zm-.001-18.991c-1.152 0-2.305.438-3.182 1.315-1.754 1.755-1.754 4.609 0 6.364 1.754 1.754 4.61 1.753 6.364 0 1.754-1.755 1.754-4.609 0-6.364-.877-.876-2.029-1.315-3.182-1.315z" fill="#00eca2"/><path d="m265.5 381.269c-1.28 0-2.559-.488-3.536-1.465l-5.964-5.963-5.964 5.964c-1.953 1.953-5.118 1.953-7.071 0-1.953-1.952-1.953-5.118 0-7.07l9.5-9.5c1.953-1.953 5.118-1.953 7.071 0l9.5 9.5c1.953 1.952 1.953 5.118 0 7.07-.977.976-2.256 1.464-3.536 1.464z" fill="#6583fe"/><path d="m209.632 274.138c-1.28 0-2.559-.488-3.536-1.465l-5.964-5.964-5.964 5.964c-1.953 1.953-5.118 1.953-7.071 0-1.953-1.952-1.953-5.118 0-7.07l9.5-9.5c1.953-1.953 5.118-1.953 7.071 0l9.5 9.5c1.953 1.952 1.953 5.118 0 7.07-.977.976-2.256 1.465-3.536 1.465z" fill="#ff7eb8"/><path d="m301.515 64.751c-3.713 0-7.426-1.413-10.253-4.24-5.654-5.653-5.654-14.853 0-20.506 5.653-5.655 14.853-5.654 20.506 0 5.654 5.653 5.654 14.853 0 20.506-2.826 2.827-6.539 4.24-10.253 4.24zm.001-18.991c-1.153 0-2.305.438-3.182 1.315-1.755 1.755-1.755 4.61 0 6.365 1.753 1.754 4.609 1.754 6.364 0 1.755-1.755 1.755-4.61 0-6.365-.878-.877-2.03-1.315-3.182-1.315z" fill="#00eca2"/><path d="m451.188 217.083c-3.713 0-7.426-1.413-10.253-4.24-5.654-5.653-5.654-14.853 0-20.506 5.653-5.655 14.853-5.654 20.506 0 5.654 5.653 5.654 14.853 0 20.506-2.826 2.827-6.54 4.24-10.253 4.24zm0-18.991c-1.153 0-2.305.438-3.182 1.315-1.755 1.755-1.755 4.61 0 6.365 1.753 1.754 4.609 1.754 6.364 0 1.755-1.755 1.755-4.61 0-6.365-.877-.877-2.029-1.315-3.182-1.315z" fill="#6583fe"/></g></g></svg>