<svg id="Capa_1" enable-background="new 0 0 512 512" height="512" viewBox="0 0 512 512" width="512" xmlns="http://www.w3.org/2000/svg" xmlns:xlink="http://www.w3.org/1999/xlink"><linearGradient id="SVGID_1_" gradientUnits="userSpaceOnUse" x1="545.415" x2="144.935" y1="177.887" y2="320.38"><stop offset="0" stop-color="#c6d1ff"/><stop offset=".5834" stop-color="#e6d5f4"/><stop offset=".997" stop-color="#ffd9ec"/></linearGradient><g><g><path d="m364.823 55.215c-69.098-27.035-164.784-16.764-217.662 31.51-37.336 34.085-8.439 43.8 17.016 106.17 18.423 45.14-164.177 38.927-164.177 120.495 0 94.299 132.251 76.424 181.329 87.218 75.036 16.504 140.496 78.242 220.668 70.103 69.795-7.086 96.403-61.855 106.109-124.642 18.082-116.976-26.329-245.094-143.283-290.854z" fill="url(#SVGID_1_)"/></g><g><g><g><path d="m460.041 458.467c6.127 0 10.813-5.46 9.884-11.516l-11.913-77.696c-3.27-21.325-21.241-37.202-42.647-37.979l-36.657-53.319 4.395-2.939c2.171-1.452 3.049-4.335 1.811-6.634-1.42-2.638-4.759-3.425-7.189-1.799l-4.682 3.132-34.526-50.22 4.663-3.119c2.171-1.452 3.047-4.335 1.808-6.633-1.422-2.637-4.758-3.424-7.189-1.798l-4.948 3.309-53.78-78.226c-.992-16.456-14.646-29.497-31.352-29.497-8.414 0-16.049 3.314-21.688 8.7l-90.208 4.985c-4.511-5.965-11.859-9.666-20.038-9.087-11.385.806-20.605 10.131-21.293 21.524-.702 11.635 7.248 21.539 18.022 23.9-.019.179-.054.354-.054.539v114.772l-57.012 31.121c-1.661.907-2.58 2.621-2.582 4.389h-18.11c-3.51 0-6.356 2.846-6.356 6.356v82.982c0 3.51 2.846 6.356 6.356 6.356h165.404c3.51 0 6.356-2.846 6.356-6.356v-82.982c0-3.51-2.846-6.356-6.356-6.356h-18.108c-.002-1.768-.921-3.482-2.582-4.389l-57.012-31.121v-106.627l102.31 20.113s139.023 203.836 141.528 207.355l-8.778 57.246c-.929 6.056 3.758 11.516 9.884 11.516h92.639zm-121.635-165.585-17.964 12.015-34.335-50.349 17.773-11.887zm-99.998-127.938c2.943.913 6.066 1.42 9.31 1.42 1.206 0 2.394-.075 3.565-.207l46.931 68.264-17.742 11.866-46.924-68.809 4.526-8.835c.61-1.191.687-2.51.334-3.699zm-102.587-19.997 84.105 4.648c2.675 5.066 6.698 9.307 11.586 12.259-.971.454-1.812 1.203-2.338 2.23l-4.162 8.124-99.565-19.573c4.151-1.539 7.749-4.217 10.374-7.688zm30.818 159.429h-98.362l44.248-24.154c.329 2.443 2.4 4.334 4.933 4.334s4.604-1.89 4.933-4.334zm159.437 8.783 17.996-12.036 33.405 48.589c-4.093 5.627-6.929 12.265-8.045 19.544l-.936 6.106z" fill="#2626bc" opacity=".1"/><g><path d="m309.105 83.627h41.665v270.326h-41.665z" fill="#ff7eb8" transform="matrix(.824 -.567 .567 .824 -65.896 225.417)"/><path d="m289.219 122.795c-1.33 15.94-14.56 28.5-30.78 28.76l-22.24-32.34 34.33-23.61z" fill="#ff5ba8"/><g><path d="m343.939 202.385-34.63 23.17-5.67-8.24 34.64-23.17z" fill="#ff5ba8"/></g><g><path d="m384.139 260.855-34.64 23.16-5.67-8.24 34.64-23.17z" fill="#ff5ba8"/></g><path d="m117.49 93.231 111.141-6.142v37.987l-111.141-6.142z" fill="#ff7eb8"/><circle cx="247.718" cy="109.948" fill="#6583fe" r="31.415"/><circle cx="247.718" cy="109.948" fill="#b7c5ff" r="12.725"/><path d="m460.041 433.467h-92.637c-6.127 0-10.813-5.46-9.884-11.516l11.913-77.696c3.353-21.869 22.166-38.016 44.29-38.016 22.124 0 40.937 16.148 44.29 38.016l11.913 77.696c.928 6.057-3.759 11.516-9.885 11.516z" fill="#6583fe"/><path d="m360.683 401.317-3.164 20.635c-.929 6.056 3.758 11.516 9.884 11.516h92.637c6.127 0 10.813-5.46 9.884-11.516l-3.164-20.635z" fill="#4369fd"/><circle cx="117.458" cy="106.082" fill="#6583fe" r="23.011"/><g fill="#b7c5ff"><circle cx="117.458" cy="106.082" r="8.859"/><circle cx="413.722" cy="346.726" r="17.897"/></g></g></g><path d="m182.561 432.965c-1.28 0-2.559-.488-3.536-1.465l-5.964-5.964-5.964 5.964c-1.953 1.953-5.118 1.953-7.071 0-1.953-1.952-1.953-5.118 0-7.07l9.5-9.5c1.953-1.953 5.118-1.953 7.071 0l9.5 9.5c1.953 1.952 1.953 5.118 0 7.07-.977.977-2.257 1.465-3.536 1.465z" fill="#00eca2"/><path d="m241.012 283.529c-1.28 0-2.559-.488-3.536-1.465l-5.964-5.964-5.964 5.964c-1.953 1.953-5.118 1.953-7.071 0-1.953-1.952-1.953-5.118 0-7.07l9.5-9.5c1.953-1.953 5.118-1.953 7.071 0l9.5 9.5c1.953 1.952 1.953 5.118 0 7.07-.977.977-2.256 1.465-3.536 1.465z" fill="#6583fe"/><path d="m470.043 287.215c-1.279 0-2.56-.488-3.535-1.465l-5.965-5.964-5.965 5.964c-1.951 1.953-5.119 1.953-7.07 0-1.953-1.952-1.953-5.118 0-7.07l9.5-9.5c1.951-1.953 5.119-1.953 7.07 0l9.5 9.5c1.953 1.952 1.953 5.118 0 7.07-.975.977-2.256 1.465-3.535 1.465z" fill="#6583fe"/><g fill="#ff7eb8"><path d="m211.397 418.877c-3.713 0-7.427-1.413-10.253-4.24-5.653-5.653-5.653-14.852 0-20.505 5.653-5.654 14.853-5.654 20.506 0 5.653 5.653 5.653 14.852 0 20.505-2.827 2.827-6.54 4.24-10.253 4.24zm-.001-18.99c-1.152 0-2.305.438-3.182 1.315-1.754 1.755-1.754 4.609 0 6.364 1.754 1.754 4.61 1.753 6.364 0 1.754-1.755 1.754-4.609 0-6.364-.876-.877-2.029-1.315-3.182-1.315z"/><path d="m323.789 88.064c-3.713 0-7.426-1.413-10.253-4.239-5.654-5.654-5.654-14.854 0-20.507 5.652-5.652 14.854-5.654 20.506 0 5.654 5.653 5.654 14.853 0 20.506-2.826 2.827-6.539 4.24-10.253 4.24zm0-18.991c-1.152 0-2.305.438-3.183 1.316-1.754 1.754-1.754 4.609 0 6.364 1.756 1.754 4.609 1.754 6.365 0 1.754-1.755 1.754-4.61 0-6.365-.877-.876-2.03-1.315-3.182-1.315z"/></g></g><g><g><g><g><path d="m206.516 285.998v84.297c0 3.655-2.967 6.622-6.622 6.622h-164.872c-3.655 0-6.622-2.967-6.622-6.622v-84.297c0-3.655 2.967-6.622 6.622-6.622h164.872c3.655 0 6.622 2.966 6.622 6.622z" fill="#97ffd2"/><g fill="#dcfdee"><path d="m35.022 279.376h9.642v15.893h-16.264v-9.271c0-3.655 2.966-6.622 6.622-6.622z"/><path d="m28.4 361.031h16.264v15.886h-9.642c-3.655 0-6.622-2.967-6.622-6.622z"/><path d="m206.516 285.998v9.271h-16.264v-15.893h9.642c3.655 0 6.622 2.967 6.622 6.622z"/><path d="m190.252 361.031h16.264v9.264c0 3.655-2.967 6.622-6.622 6.622h-9.642z"/></g><path d="m42.257 291.235h150.402v73.823h-150.402z" fill="#01eca5"/><path d="m73.817 359.563c-2.746 0-4.972-2.226-4.972-4.972v-52.888c0-2.746 2.226-4.972 4.972-4.972 2.746 0 4.972 2.226 4.972 4.972v52.888c0 2.746-2.226 4.972-4.972 4.972z" fill="#00d890"/><path d="m161.099 359.563c-2.746 0-4.972-2.226-4.972-4.972v-52.888c0-2.746 2.226-4.972 4.972-4.972 2.746 0 4.972 2.226 4.972 4.972v52.888c-.001 2.746-2.226 4.972-4.972 4.972z" fill="#00d890"/><path d="m178.555 359.563c-2.746 0-4.972-2.226-4.972-4.972v-52.888c0-2.746 2.226-4.972 4.972-4.972 2.746 0 4.972 2.226 4.972 4.972v52.888c0 2.746-2.226 4.972-4.972 4.972z" fill="#00d890"/></g><path d="m474.867 421.194-11.913-77.696c-3.754-24.486-24.459-42.259-49.232-42.259-14.061 0-26.807 5.73-35.891 15.16l-29.602-43.057 26.323-17.605 19.453 28.296c1.563 2.273 4.676 2.852 6.953 1.287 2.275-1.564 2.852-4.678 1.287-6.953l-19.38-28.19.419-.28c2.296-1.535 2.912-4.641 1.377-6.936-1.534-2.296-4.641-2.913-6.936-1.377l-.526.352-34.527-50.22.684-.458c2.296-1.535 2.912-4.641 1.377-6.936-1.535-2.296-4.64-2.913-6.936-1.377l-.791.529-53.056-77.172c-1.835-18.375-17.383-32.771-36.233-32.771-9.05 0-17.333 3.326-23.71 8.811l-85.984 4.748c-5.121-5.542-12.444-9.02-20.566-9.02-15.445 0-28.011 12.565-28.011 28.011 0 13.738 9.944 25.19 23.011 27.556v110.228l-49.7 27.13c-.398-2.364-2.44-4.169-4.916-4.169-2.761 0-5 2.238-5 5v2.552h-17.817c-6.408 0-11.622 5.214-11.622 11.622v84.293c0 6.408 5.214 11.622 11.622 11.622h109.938c2.761 0 5-2.238 5-5s-2.239-5-5-5h-109.938c-.895 0-1.622-.728-1.622-1.622v-84.293c0-.895.728-1.622 1.622-1.622h164.868c.895 0 1.622.728 1.622 1.622v84.293c0 .895-.728 1.622-1.622 1.622h-25.678c-2.761 0-5 2.238-5 5s2.239 5 5 5h25.678c6.408 0 11.622-5.214 11.622-11.622v-84.293c0-6.408-5.214-11.622-11.622-11.622h-17.818v-2.552c0-2.762-2.239-5-5-5-2.477 0-4.519 1.805-4.916 4.169l-49.7-27.13v-106.626l102.31 20.113 136.608 200.319c.234.343.504.646.801.91l-9.6 62.614c-.663 4.33.593 8.72 3.446 12.043s7.001 5.229 11.381 5.229h92.638c4.38 0 8.528-1.906 11.382-5.23 2.851-3.324 4.107-7.714 3.443-12.043zm-105.981-173.697-26.323 17.605-34.527-50.221 26.323-17.605zm-82.779-17.949 13.616-9.107 34.527 50.221-13.808 9.235zm-52.559-77.071 3.893-7.6c3.261.961 6.708 1.486 10.277 1.486.355 0 .705-.017 1.058-.027l45.281 65.864-13.585 9.086zm-100.261-23.301c1.73-1.19 3.32-2.568 4.741-4.106l78.957 4.375c2.898 4.552 6.775 8.418 11.337 11.301l-3.311 6.462zm-15.829 130.38c2.533 0 4.604-1.89 4.933-4.334l35.094 19.157h-80.054l35.094-19.157c.329 2.443 2.4 4.334 4.933 4.334zm184.913-52.916-42.808-62.265c10.668-3.681 19.101-12.183 22.688-22.893l46.443 67.553zm-28.237-96.692c0 14.565-11.85 26.415-26.416 26.415-14.565 0-26.416-11.85-26.416-26.415s11.85-26.416 26.416-26.416 26.416 11.851 26.416 26.416zm-58.541-17.126c-2.734 5.108-4.29 10.938-4.29 17.126 0 3.189.415 6.282 1.189 9.232l-68.615-3.802c1.027-2.911 1.592-6.038 1.592-9.297s-.565-6.387-1.593-9.299zm-116.146 13.26c0-9.932 8.08-18.011 18.011-18.011s18.011 8.079 18.011 18.011-8.08 18.012-18.011 18.012c-9.932 0-18.011-8.08-18.011-18.012zm226.629 182.077 13.839-9.256 31.474 45.78c-3.449 5.577-5.845 11.931-6.9 18.815l-.124.807zm137.758 138.566c-.965 1.124-2.312 1.743-3.793 1.743h-92.638c-1.481 0-2.828-.619-3.794-1.743-.965-1.124-1.373-2.551-1.148-4.015l11.913-77.696c3.001-19.57 19.549-33.774 39.348-33.774 19.8 0 36.348 14.204 39.348 33.774l11.913 77.696c.224 1.465-.183 2.89-1.149 4.015z" fill="#2626bc"/></g><g fill="#00d890"><path d="m56.361 359.563c-2.746 0-4.972-2.226-4.972-4.972v-52.888c0-2.746 2.226-4.972 4.972-4.972 2.746 0 4.972 2.226 4.972 4.972v52.888c-.001 2.746-2.226 4.972-4.972 4.972z"/><path d="m91.274 359.563c-2.746 0-4.972-2.226-4.972-4.972v-52.888c0-2.746 2.226-4.972 4.972-4.972 2.746 0 4.972 2.226 4.972 4.972v52.888c-.001 2.746-2.227 4.972-4.972 4.972z"/><path d="m108.73 359.563c-2.746 0-4.972-2.226-4.972-4.972v-52.888c0-2.746 2.226-4.972 4.972-4.972 2.746 0 4.972 2.226 4.972 4.972v52.888c-.001 2.746-2.226 4.972-4.972 4.972z"/><path d="m126.186 359.563c-2.746 0-4.972-2.226-4.972-4.972v-52.888c0-2.746 2.226-4.972 4.972-4.972 2.746 0 4.972 2.226 4.972 4.972v52.888c0 2.746-2.226 4.972-4.972 4.972z"/><path d="m143.643 359.563c-2.746 0-4.972-2.226-4.972-4.972v-52.888c0-2.746 2.226-4.972 4.972-4.972 2.746 0 4.972 2.226 4.972 4.972v52.888c-.001 2.746-2.227 4.972-4.972 4.972z"/></g></g></g></g></g></svg>