<svg id="Capa_1" enable-background="new 0 0 512 512" height="512" viewBox="0 0 512 512" width="512" xmlns="http://www.w3.org/2000/svg" xmlns:xlink="http://www.w3.org/1999/xlink"><linearGradient id="SVGID_1_" gradientTransform="matrix(.987 .163 -.163 .987 -495.069 166.273)" gradientUnits="userSpaceOnUse" x1="948.837" x2="623.864" y1="39.661" y2="-91.973"><stop offset=".0112" stop-color="#dafced"/><stop offset=".761" stop-color="#cbdcfa"/><stop offset="1" stop-color="#c6d1ff"/></linearGradient><g><g><path d="m319.203.425c-95.818 8.652-105.091 192.429-146.416 286.587-20.478 46.658-68.772 94.794-60.258 149.782 9.605 62.035 72.897 80.075 121.683 74.14 120.723-14.685 172.899-141.053 180.797-260.801 4.869-73.829 20.3-260.192-95.806-249.708z" fill="url(#SVGID_1_)"/></g><g><path d="m451.098 202.253c-3.713 0-7.427-1.413-10.253-4.24-5.654-5.653-5.654-14.852 0-20.505 5.652-5.654 14.854-5.654 20.506 0 5.654 5.653 5.654 14.852 0 20.505-2.827 2.827-6.54 4.24-10.253 4.24zm0-18.99c-1.152 0-2.305.438-3.183 1.315-1.754 1.755-1.754 4.609 0 6.364 1.756 1.754 4.609 1.754 6.365 0 1.754-1.755 1.754-4.609 0-6.364-.878-.877-2.03-1.315-3.182-1.315z" fill="#00eca2"/><g><path d="m433.169 340.985h-19.983c2.697-1.863 4.469-4.973 4.469-8.497v-152.962c0-5.699-4.625-10.324-10.324-10.324h-195.723c-.001-1.365-.54-2.73-1.617-3.748l-51.581-48.723c-3.292-3.11-8.707-.776-8.707 3.753v23.422h-71.903c-2.851 0-5.162 2.311-5.162 5.162v40.278c0 2.851 2.311 5.162 5.162 5.162h16.545v137.981c0 3.524 1.771 6.634 4.469 8.497h-19.983c-23.42 0-42.405 18.985-42.405 42.405 0 23.42 18.985 42.405 42.405 42.405h354.338c23.42 0 42.405-18.985 42.405-42.405 0-23.42-18.985-42.406-42.405-42.406z" fill="#2626bc" opacity=".1"/><g><path d="m433.169 399.985h-354.338c-23.42 0-42.405-18.985-42.405-42.405 0-23.42 18.985-42.405 42.405-42.405h354.338c23.42 0 42.405 18.985 42.405 42.405 0 23.42-18.985 42.405-42.405 42.405z" fill="#8399fe"/><g><g><circle cx="96.096" cy="357.58" fill="#b7c5ff" r="25.173"/><circle cx="96.096" cy="357.58" fill="#ff7eb8" r="11.4"/></g><g><circle cx="160.058" cy="357.58" fill="#b7c5ff" r="25.173"/><circle cx="160.058" cy="357.58" fill="#ff7eb8" r="11.4"/></g><g><circle cx="224.019" cy="357.58" fill="#b7c5ff" r="25.173"/><circle cx="224.019" cy="357.58" fill="#ff7eb8" r="11.4"/></g><g><circle cx="287.981" cy="357.58" fill="#b7c5ff" r="25.173"/><circle cx="287.981" cy="357.58" fill="#ff7eb8" r="11.4"/></g><g><circle cx="351.942" cy="357.58" fill="#b7c5ff" r="25.173"/><circle cx="351.942" cy="357.58" fill="#ff7eb8" r="11.4"/></g><g><circle cx="415.904" cy="357.58" fill="#b7c5ff" r="25.173"/><circle cx="415.904" cy="357.58" fill="#ff7eb8" r="11.4"/></g></g><g fill="#6583fe"><circle cx="128.077" cy="377.924" r="4.829"/><circle cx="192.039" cy="377.924" r="4.829"/></g><g fill="#6583fe"><circle cx="256" cy="377.924" r="4.829"/><circle cx="319.961" cy="377.924" r="4.829"/></g><g><circle cx="383.923" cy="377.924" fill="#6583fe" r="4.829"/></g></g><path d="m232.704 118.771c-3.873 0-7.514-1.509-10.253-4.248-2.738-2.737-4.246-6.379-4.246-10.252s1.508-7.515 4.247-10.253c5.652-5.653 14.853-5.655 20.505 0 2.739 2.738 4.247 6.38 4.247 10.253s-1.508 7.515-4.247 10.253c-2.738 2.738-6.379 4.247-10.253 4.247zm.001-18.999c-1.152 0-2.305.438-3.183 1.315-.85.851-1.317 1.98-1.317 3.183s.468 2.331 1.317 3.181c.851.852 1.98 1.319 3.182 1.319s2.332-.468 3.182-1.318c.851-.851 1.318-1.979 1.318-3.182s-.468-2.332-1.317-3.183c-.878-.876-2.031-1.315-3.182-1.315z" fill="#6583fe"/><path d="m210.5 74.84c-1.279 0-2.56-.488-3.535-1.465l-5.965-5.964-5.965 5.964c-1.951 1.953-5.119 1.953-7.07 0-1.953-1.952-1.953-5.118 0-7.07l9.5-9.5c1.951-1.953 5.119-1.953 7.07 0l9.5 9.5c1.953 1.952 1.953 5.118 0 7.07-.975.977-2.256 1.465-3.535 1.465z" fill="#00eca2"/><path d="m322.502 436.953c-1.279 0-2.56-.488-3.535-1.465l-5.965-5.964-5.965 5.964c-1.951 1.953-5.119 1.953-7.07 0-1.953-1.952-1.953-5.118 0-7.07l9.5-9.5c1.951-1.953 5.119-1.953 7.07 0l9.5 9.5c1.953 1.952 1.953 5.118 0 7.07-.975.977-2.256 1.465-3.535 1.465z" fill="#ff7eb8"/><g><g><path d="m417.655 151.888v152.962c0 5.699-4.625 10.324-10.324 10.324h-302.662c-5.699 0-10.324-4.625-10.324-10.324v-152.962c0-5.699 4.625-10.324 10.324-10.324h302.662c5.699 0 10.324 4.625 10.324 10.324z" fill="#ff7eb8"/><path d="m209.996 160.808-51.59 48.72c-3.283 3.108-8.703.774-8.703-3.748v-23.425h-55.358v-30.466c0-5.699 4.625-10.324 10.324-10.324h92.896l12.43 11.739c2.148 2.033 2.148 5.471.001 7.504z" fill="#ff5ba8"/><g fill="#ffc4df"><path d="m104.669 141.565h15.032v24.778h-25.356v-14.454c0-5.699 4.625-10.324 10.324-10.324z"/><path d="m94.345 290.408h25.356v24.768h-15.032c-5.699 0-10.324-4.625-10.324-10.324z"/><path d="m417.655 151.889v14.454h-25.356v-24.778h15.032c5.699 0 10.324 4.625 10.324 10.324z"/><path d="m392.299 290.408h25.356v14.443c0 5.699-4.625 10.324-10.324 10.324h-15.032z"/></g><path d="m109.831 157.05h292.338v142.638h-292.338z" fill="#ff5ba8"/><path d="m355.7 290.404c-4.481 0-8.113-3.632-8.113-8.113v-107.841c0-4.481 3.632-8.113 8.113-8.113 4.481 0 8.113 3.632 8.113 8.113v107.841c0 4.481-3.632 8.113-8.113 8.113z" fill="#fe2c8f"/><path d="m384.186 290.404c-4.481 0-8.113-3.632-8.113-8.113v-107.841c0-4.481 3.632-8.113 8.113-8.113 4.481 0 8.113 3.632 8.113 8.113v107.841c0 4.481-3.632 8.113-8.113 8.113z" fill="#fe2c8f"/><path d="m184.786 290.404c-4.481 0-8.113-3.632-8.113-8.113v-107.841c0-4.481 3.632-8.113 8.113-8.113 4.481 0 8.113 3.632 8.113 8.113v107.841c0 4.481-3.632 8.113-8.113 8.113z" fill="#fe2c8f"/><path d="m211.606 157.05c0 1.373-.537 2.746-1.611 3.758l-51.59 48.72c-3.283 3.108-8.703.774-8.703-3.748v-23.425h-39.872v-25.305z" fill="#fe2c8f"/><g><g><path d="m382.987 190.687c0 2.86-2.313 5.162-5.162 5.162h-60.479c-2.849 0-5.162-2.302-5.162-5.162 0-2.849 2.313-5.162 5.162-5.162h60.479c2.849 0 5.162 2.312 5.162 5.162z" fill="#9fb0fe"/></g><g><path d="m382.987 211.676c0 2.849-2.313 5.162-5.162 5.162h-29.506c-2.849 0-5.162-2.313-5.162-5.162 0-2.86 2.313-5.162 5.162-5.162h29.506c2.849 0 5.162 2.302 5.162 5.162z" fill="#9fb0fe"/></g><g><path d="m382.987 229.557c0 2.849-2.313 5.162-5.162 5.162h-29.506c-2.849 0-5.162-2.313-5.162-5.162s2.313-5.162 5.162-5.162h29.506c2.849 0 5.162 2.313 5.162 5.162z" fill="#9fb0fe"/></g></g></g><g><path d="m127.815 290.404c-4.481 0-8.113-3.632-8.113-8.113v-107.841c0-4.481 3.632-8.113 8.113-8.113 4.481 0 8.113 3.632 8.113 8.113v107.841c-.001 4.481-3.633 8.113-8.113 8.113z" fill="#fe2c8f"/><path d="m156.3 290.404c-4.481 0-8.113-3.632-8.113-8.113v-107.841c0-4.481 3.632-8.113 8.113-8.113 4.481 0 8.113 3.632 8.113 8.113v107.841c0 4.481-3.632 8.113-8.113 8.113z" fill="#fe2c8f"/><path d="m135.931 174.447v7.908h-16.23v-7.908c0-4.481 3.634-8.104 8.115-8.104 2.24 0 4.274.909 5.74 2.375 1.466 1.465 2.375 3.488 2.375 5.729z" fill="#db237a"/><path d="m164.415 174.447v29.403l-6.009 5.678c-3.283 3.108-8.703.774-8.703-3.748v-23.425h-1.518v-7.908c0-4.481 3.634-8.104 8.115-8.104 2.24 0 4.264.909 5.74 2.375 1.466 1.465 2.375 3.488 2.375 5.729z" fill="#db237a"/><path d="m192.899 174.447v2.509l-16.23 15.321v-17.83c0-4.481 3.634-8.104 8.115-8.104 2.24 0 4.274.909 5.74 2.375 1.466 1.465 2.375 3.488 2.375 5.729z" fill="#db237a"/><g fill="#fe2c8f"><path d="m213.272 290.404c-4.481 0-8.113-3.632-8.113-8.113v-107.841c0-4.481 3.632-8.113 8.113-8.113 4.481 0 8.113 3.632 8.113 8.113v107.841c-.001 4.481-3.633 8.113-8.113 8.113z"/><path d="m241.757 290.404c-4.481 0-8.113-3.632-8.113-8.113v-107.841c0-4.481 3.632-8.113 8.113-8.113 4.481 0 8.113 3.632 8.113 8.113v107.841c0 4.481-3.632 8.113-8.113 8.113z"/><path d="m270.243 290.404c-4.481 0-8.113-3.632-8.113-8.113v-107.841c0-4.481 3.632-8.113 8.113-8.113 4.481 0 8.113 3.632 8.113 8.113v107.841c0 4.481-3.632 8.113-8.113 8.113z"/><path d="m298.729 290.404c-4.481 0-8.113-3.632-8.113-8.113v-107.841c0-4.481 3.632-8.113 8.113-8.113 4.481 0 8.113 3.632 8.113 8.113v107.841c0 4.481-3.633 8.113-8.113 8.113z"/><path d="m327.215 290.404c-4.481 0-8.113-3.632-8.113-8.113v-107.841c0-4.481 3.632-8.113 8.113-8.113 4.481 0 8.113 3.632 8.113 8.113v107.841c-.001 4.481-3.633 8.113-8.113 8.113z"/></g></g><g><g fill="#8399fe"><path d="m319.101 185.525h16.23v10.324h-16.23z"/><path d="m347.585 185.525h16.229v10.324h-16.229z"/></g><g><path d="m363.815 206.514v10.324h-15.496c-.248 0-.496-.021-.733-.062v-10.2c.237-.041.485-.062.733-.062z" fill="#8399fe"/></g><g><path d="m363.815 224.395v10.324h-15.496c-.248 0-.496-.021-.733-.062v-10.2c.237-.041.485-.062.733-.062z" fill="#8399fe"/><path d="m382.987 229.557c0 2.849-2.313 5.162-5.162 5.162h-1.755v-10.324h1.755c2.849 0 5.162 2.313 5.162 5.162z" fill="#9fb0fe"/></g></g><g fill="#8399fe"><path d="m382.987 229.557c0 2.849-2.313 5.162-5.162 5.162h-1.755v-10.324h1.755c2.849 0 5.162 2.313 5.162 5.162z"/><path d="m382.987 211.676c0 2.849-2.313 5.162-5.162 5.162h-1.755v-10.324h1.755c2.849 0 5.162 2.302 5.162 5.162z"/><path d="m377.825 195.849h-1.755v-10.324h1.755c2.849 0 5.162 2.313 5.162 5.162 0 2.86-2.313 5.162-5.162 5.162z"/></g></g><g><path d="m209.991 137.817-51.581-48.723c-3.292-3.11-8.707-.776-8.707 3.753v23.422h-71.903c-2.851 0-5.162 2.311-5.162 5.162v40.278c0 2.851 2.311 5.162 5.162 5.162h71.904v23.422c0 4.528 5.415 6.862 8.707 3.753l51.581-48.723c2.156-2.038 2.156-5.469-.001-7.506z" fill="#02ffb3"/><path d="m433.169 310.175h-11.49c.619-1.662.974-3.451.974-5.326v-152.955c0-8.45-6.874-15.324-15.324-15.324h-192.043c-.495-.878-1.119-1.686-1.861-2.388l-51.581-48.723c-2.997-2.832-7.211-3.576-10.999-1.945-3.788 1.632-6.141 5.208-6.141 9.333v18.422h-66.904c-5.604 0-10.162 4.559-10.162 10.162v40.277c0 5.604 4.559 10.162 10.162 10.162h66.904v18.422c0 4.124 2.353 7.7 6.141 9.333 1.329.572 2.709.852 4.072.852 2.521 0 4.981-.959 6.927-2.797l51.58-48.723c.743-.702 1.367-1.51 1.862-2.388h192.042c2.936 0 5.324 2.389 5.324 5.324v152.955c0 2.936-2.389 5.324-5.324 5.324h-302.655c-2.936 0-5.324-2.389-5.324-5.324v-109.253c0-2.762-2.238-5-5-5s-5 2.238-5 5v109.254c0 1.875.355 3.664.974 5.326h-11.492c-26.14 0-47.405 21.266-47.405 47.405s21.266 47.405 47.405 47.405h287.336c2.762 0 5-2.238 5-5s-2.238-5-5-5h-287.336c-20.625 0-37.405-16.78-37.405-37.405s16.78-37.405 37.405-37.405h354.338c20.625 0 37.405 16.78 37.405 37.405s-16.78 37.405-37.405 37.405h-37.749c-2.762 0-5 2.238-5 5s2.238 5 5 5h37.749c26.14 0 47.405-21.266 47.405-47.405s-21.265-47.405-47.405-47.405zm-226.611-168.488-51.648 48.777c-.047.018-.169-.041-.205-.172v-23.422c0-2.762-2.238-5-5-5h-71.905c-.09 0-.162-.072-.162-.162v-40.277c0-.09.072-.162.162-.162h71.904c2.762 0 5-2.238 5-5l.008-23.509c.027-.044.144-.097.265-.031l51.581 48.723c.02.018.051.048.051.118-.001.069-.032.098-.051.117z" fill="#2626bc"/></g><path d="m263.71 455.946c-3.713 0-7.427-1.413-10.253-4.24-5.654-5.653-5.654-14.852 0-20.505 5.652-5.654 14.854-5.654 20.506 0 5.654 5.653 5.654 14.852 0 20.505-2.826 2.827-6.54 4.24-10.253 4.24zm0-18.99c-1.152 0-2.305.438-3.183 1.315-1.754 1.755-1.754 4.609 0 6.364 1.756 1.754 4.609 1.754 6.365 0 1.754-1.755 1.754-4.609 0-6.364-.877-.876-2.03-1.315-3.182-1.315z" fill="#6583fe"/></g></g></g></svg>