<svg id="Capa_1" enable-background="new 0 0 512 512" height="512" viewBox="0 0 512 512" width="512" xmlns="http://www.w3.org/2000/svg" xmlns:xlink="http://www.w3.org/1999/xlink"><linearGradient id="SVGID_1_" gradientUnits="userSpaceOnUse" x1="449.799" x2="264.799" y1="90.424" y2="321.424"><stop offset=".0112" stop-color="#dafced"/><stop offset=".3814" stop-color="#e7f0ed"/><stop offset="1" stop-color="#ffd9ec"/></linearGradient><g><g><path d="m343.363.425c-95.818 8.652-105.091 192.429-146.416 286.587-20.478 46.658-68.772 94.794-60.258 149.782 9.605 62.035 72.897 80.075 121.683 74.14 120.723-14.685 172.899-141.053 180.797-260.801 4.869-73.829 20.301-260.192-95.806-249.708z" fill="url(#SVGID_1_)"/></g><path d="m480.613 414.379c-8.978-7.183-20.134-11.096-31.631-11.096h-72.28v-30.087h7.886c2.761 0 5-2.238 5-5s-2.239-5-5-5h-7.886v-18.08h7.886c2.761 0 5-2.238 5-5s-2.239-5-5-5h-7.886v-71.424c0-2.761-2.239-5-5-5h-5.483v-118.663c0-2.761-2.239-5-5-5h-9.517c-2.761 0-5 2.239-5 5v195.087h-26.892v-37.526c0-63.521-17.614-125.682-50.938-179.759-5.873-9.53-16.474-15.45-27.668-15.45h-141.742c-5.523 0-10 4.477-10 10v5c0 5.523 4.477 10 10 10h1.525v141.272h-21.147c-11.083 0-20.067 8.984-20.067 20.067v20.341c-.913-.092-1.839-.139-2.776-.139-15.19 0-27.503 12.314-27.503 27.503 0 15.19 12.314 27.503 27.503 27.503.937 0 1.863-.048 2.776-.139v49.495c0 5.523 4.477 10 10 10h14.853c1.34 14.766 13.746 26.336 28.861 26.336s27.521-11.57 28.861-26.336h96.567c1.34 14.766 13.746 26.336 28.861 26.336s27.521-11.57 28.861-26.336h13.052c5.523 0 10-4.477 10-10l.121-40.087h26.892v35.087c0 8.284 6.716 15 15 15h115.788c4.726-.001 6.814-5.952 3.123-8.905zm-354.626-286.998h115.216c2.583 0 5.029 1.366 6.385 3.565 23.509 38.15 38.574 80.64 44.437 124.723l-21.876 21.876c-4.826 4.826-7.537 11.371-7.537 18.196v.633l-33.225-33.225 3.902-3.902c1.953-1.952 1.953-5.118 0-7.07-1.953-1.953-5.118-1.953-7.071 0l-14.359 14.359c-1.953 1.952-1.953 5.118 0 7.07.977.977 2.256 1.465 3.536 1.465s2.559-.488 3.536-1.465l3.387-3.387 35.311 35.311c.977.977 2.256 1.465 3.536 1.465.491 0 .976-.094 1.449-.238v37.399h-43.805v-13.45c0-8.253-6.69-14.943-14.943-14.943h-26.633v-54.754c0-9.389-7.611-17-17-17h-6.557c-5.523 0-10 4.477-10 10v14.644h-17.687v-141.272zm193.823 235.815v-18.08h26.892v18.08z" fill="#2626bc" opacity=".1"/><g><g><g><path d="m366.219 256.445h-19.517v-141.416c0-2.761 2.239-5 5-5h9.517c2.761 0 5 2.239 5 5z" fill="#9fb0fe"/><path d="m346.702 213.21h19.517v43.235h-19.517z" fill="#6583fe"/><g><path d="m270.149 252.545 34.262-34.262v112.349h-41.799v-59.892c0-6.824 2.712-13.369 7.537-18.195z" fill="#6583fe"/><path d="m143.674 290.763h-83.901v-27.043c0-11.083 8.984-20.067 20.067-20.067h63.834z" fill="#ff7eb8"/><path d="m143.674 273.612h-58.887c-3.736 0-6.765-3.029-6.765-6.765 0-3.736 3.029-6.765 6.765-6.765h58.887z" fill="#ff5ba8"/><path d="m177.231 290.763h-33.557v-61.754c0-5.523 4.477-10 10-10h6.557c9.389 0 17 7.611 17 17z" fill="#6583fe"/><path d="m218.807 323.73h-159.034v-32.967h144.091c8.253 0 14.943 6.69 14.943 14.943z" fill="#6583fe"/><path d="m309.689 398.283h-239.916c-5.523 0-10-4.477-10-10v-69.127h259.916v69.127c0 5.523-4.477 10-10 10z" fill="#02ffb3"/><path d="m59.773 374.34v13.943c0 5.523 4.477 10 10 10h239.916c5.523 0 10-4.477 10-10v-13.943z" fill="#00d890"/><g><g><g><g><g><g><circle cx="113.487" cy="395.632" fill="#6583fe" r="28.987"/><circle cx="113.487" cy="395.632" fill="#d2deff" r="13.127"/></g></g></g></g></g></g><g><circle cx="267.776" cy="395.632" fill="#6583fe" r="28.987"/><circle cx="267.776" cy="395.632" fill="#d2deff" r="13.127"/></g><g><circle cx="56.997" cy="311.424" fill="#ff7eb8" r="27.503"/><circle cx="56.997" cy="311.424" fill="#ffc4df" r="14.462"/></g><g><path d="m100.987 81.374h25v236.889h-25z" fill="#d2deff"/></g><g><path d="m100.987 81.374h25v40.99h-25z" fill="#b7c5ff"/></g><g><path d="m319.689 359.34h-15c-5.523 0-10-4.477-10-10v-76.75c0-58.888-16.329-116.512-47.222-166.644-1.355-2.199-3.802-3.565-6.385-3.565h-141.741c-5.523 0-10-4.477-10-10v-5c0-5.523 4.477-10 10-10h141.741c11.194 0 21.796 5.92 27.668 15.45 33.324 54.077 50.938 116.237 50.938 179.759v86.75z" fill="#d2deff"/></g><g><path d="m294.689 329.658v19.682c0 5.523 4.477 10 10 10h15v-29.682z" fill="#ff7eb8"/></g></g><g><g><path d="m477.49 398.283h-115.788c-8.284 0-15-6.716-15-15v-144.591c0-2.761 2.239-5 5-5h20c2.761 0 5 2.239 5 5v139.591h72.28c11.498 0 22.653 3.913 31.631 11.096 3.691 2.953 1.603 8.904-3.123 8.904z" fill="#d2deff"/></g><g fill="#b7c5ff"><path d="m346.702 343.196h30v16.144h-30z"/><path d="m346.702 315.116h30v16.144h-30z"/></g></g><path d="m483.737 385.475c-9.827-7.861-22.17-12.191-34.755-12.191h-67.28v-25.087h2.886c2.761 0 5-2.238 5-5s-2.239-5-5-5h-2.886v-18.08h2.886c2.761 0 5-2.238 5-5s-2.239-5-5-5h-2.886v-71.424c0-5.514-4.486-10-10-10h-.483v-113.664c0-5.514-4.486-10-10-10h-9.517c-5.514 0-10 4.486-10 10v195.087h-17.013v-37.526c0-64.449-17.871-127.516-51.682-182.382-6.776-10.996-19.009-17.827-31.925-17.827h-141.741c-8.271 0-15 6.729-15 15v5c0 7.117 4.986 13.079 11.646 14.608v131.663h-16.147c-13.822 0-25.067 11.245-25.067 25.067v15.286c-16.888 1.148-30.279 15.245-30.279 32.419s13.391 31.271 30.279 32.418v44.44c0 8.271 6.729 15 15 15h10.606c3.481 15.066 16.999 26.336 33.108 26.336s29.626-11.27 33.108-26.336h62.943c2.761 0 5-2.238 5-5s-2.239-5-5-5h-62.154c-1.212-17.648-15.947-31.639-33.897-31.639s-32.685 13.991-33.897 31.639h-9.817c-2.757 0-5-2.243-5-5v-45.302c9.977-2.459 18.156-9.534 22.127-18.824h202.789v25.184c0 8.271 6.729 15 15 15h10v23.943c0 2.757-2.243 5-5 5h-8.017c-1.212-17.648-15.947-31.639-33.897-31.639-18.74 0-33.987 15.247-33.987 33.987s15.247 33.987 33.987 33.987c16.109 0 29.627-11.27 33.108-26.336h8.805c8.271 0 15-6.729 15-15v-40.087h17.013v35.087c0 11.028 8.972 20 20 20h115.789c4.307 0 8.011-2.626 9.437-6.69s.173-8.428-3.19-11.117zm-370.25-13.83c13.227 0 23.987 10.761 23.987 23.987s-10.76 23.987-23.987 23.987-23.987-10.761-23.987-23.987 10.76-23.987 23.987-23.987zm154.289 47.974c-13.227 0-23.987-10.761-23.987-23.987s10.76-23.987 23.987-23.987 23.987 10.761 23.987 23.987-10.761 23.987-23.987 23.987zm103.926-81.423h-20v-18.08h20zm-20-223.167h9.517v113.663h-9.517zm0 123.663h20v71.424h-20zm-245.715-131.311h135.096c.848 0 1.683.467 2.128 1.188 22.723 36.874 37.438 77.868 43.425 120.42l-20.021 20.021c-4.829 4.828-7.845 10.982-8.726 17.64l-28.501-28.501 3.902-3.902c1.953-1.952 1.953-5.118 0-7.07-1.953-1.953-5.118-1.953-7.071 0l-14.359 14.359c-1.953 1.952-1.953 5.118 0 7.07.977.977 2.256 1.465 3.536 1.465s2.559-.488 3.536-1.465l3.387-3.387 35.296 35.295v33.642h-33.805v-8.45c0-10.997-8.946-19.943-19.943-19.943h-21.633v-49.754c0-12.131-9.869-22-22-22h-6.557c-8.271 0-15 6.729-15 15v9.644h-7.687v-107.43c0-2.762-2.239-5-5-5s-5 2.238-5 5v107.43h-15v-131.272zm0 141.271h15v65.504h-15zm66.244 37.111h-23.557v-56.754c0-2.757 2.243-5 5-5h6.557c6.617 0 12 5.383 12 12zm-33.557 0h-7.687v-37.11h7.687zm-7.687 10h72.877c5.482 0 9.943 4.461 9.943 9.943v8.45h-82.82zm-51.147-47.111h16.147v37.11h-19.077c-3.538-2.752-7.654-4.79-12.137-5.895v-16.147c0-8.309 6.759-15.068 15.067-15.068zm-22.844 85.276c-12.408 0-22.503-10.095-22.503-22.503 0-12.409 10.095-22.504 22.503-22.504s22.504 10.095 22.504 22.504c0 12.408-10.095 22.503-22.504 22.503zm28.471-38.165h10.52v18.394h-6.61c.075-.901.123-1.811.123-2.731 0-5.677-1.466-11.015-4.033-15.663zm182.145 18.393v-43.415c0-5.538 2.157-10.744 6.073-14.66l14.46-14.46c1.02 10.26 1.544 20.594 1.544 30.969v41.566zm37.077 40.184c-2.757 0-5-2.243-5-5v-76.75c0-59.814-16.586-118.346-47.966-169.267-2.259-3.666-6.336-5.942-10.641-5.942h-141.741c-2.757 0-5-2.243-5-5v-5c0-2.757 2.243-5 5-5h141.741c9.472 0 18.443 5.01 23.412 13.073 32.838 53.288 50.195 114.541 50.195 177.136v46.566 35.184zm20-16.144v-18.08h17.013v18.08zm152.801 55.087h-115.788c-5.514 0-10-4.486-10-10v-35.087h20v30.087c0 2.762 2.239 5 5 5h72.28c10.323 0 20.447 3.552 28.567 9.996 0 0-.018.004-.059.004z" fill="#2626bc"/></g><path d="m317.094 102.572c-3.713 0-7.427-1.413-10.253-4.24-5.654-5.653-5.654-14.853 0-20.506 5.653-5.653 14.853-5.653 20.506 0 5.654 5.653 5.654 14.853 0 20.506-2.827 2.827-6.54 4.24-10.253 4.24zm-.001-18.991c-1.152 0-2.305.438-3.182 1.315-1.755 1.755-1.755 4.61 0 6.365 1.754 1.753 4.61 1.753 6.364 0 1.755-1.755 1.755-4.61 0-6.365-.877-.876-2.029-1.315-3.182-1.315z" fill="#00eca2"/><path d="m55.109 223.812c-3.713 0-7.426-1.413-10.253-4.24-5.653-5.653-5.653-14.852 0-20.505 5.653-5.655 14.853-5.654 20.506 0 5.653 5.653 5.653 14.852 0 20.505-2.826 2.826-6.539 4.24-10.253 4.24zm.001-18.991c-1.153 0-2.305.438-3.182 1.315-1.754 1.755-1.754 4.609 0 6.364 1.753 1.754 4.609 1.754 6.364 0 1.754-1.755 1.754-4.609 0-6.364-.878-.876-2.03-1.315-3.182-1.315z" fill="#00eca2"/><path d="m418.224 214.318c-1.28 0-2.559-.488-3.536-1.465l-5.964-5.964-5.964 5.964c-1.953 1.953-5.118 1.953-7.071 0-1.953-1.952-1.953-5.118 0-7.07l9.5-9.5c1.953-1.953 5.118-1.953 7.071 0l9.5 9.5c1.953 1.952 1.953 5.118 0 7.07-.977.977-2.257 1.465-3.536 1.465z" fill="#6583fe"/><path d="m148.79 459.369c-1.28 0-2.559-.488-3.536-1.465l-5.964-5.964-5.964 5.964c-1.953 1.953-5.118 1.953-7.071 0-1.953-1.952-1.953-5.118 0-7.07l9.5-9.5c1.953-1.953 5.118-1.953 7.071 0l9.5 9.5c1.953 1.952 1.953 5.118 0 7.07-.977.977-2.256 1.465-3.536 1.465z" fill="#6583fe"/><path d="m427.724 352.946c-1.28 0-2.559-.488-3.536-1.465l-5.964-5.964-5.964 5.964c-1.953 1.953-5.118 1.953-7.071 0-1.953-1.952-1.953-5.118 0-7.07l9.5-9.5c1.953-1.953 5.118-1.953 7.071 0l9.5 9.5c1.953 1.952 1.953 5.118 0 7.07-.977.977-2.257 1.465-3.536 1.465z" fill="#ff7eb8"/></g></g></g></svg>