<svg id="Capa_1" enable-background="new 0 0 512 512" height="512" viewBox="0 0 512 512" width="512" xmlns="http://www.w3.org/2000/svg" xmlns:xlink="http://www.w3.org/1999/xlink"><linearGradient id="SVGID_1_" gradientUnits="userSpaceOnUse" x1="513.711" x2="123.731" y1="99.627" y2="408.611"><stop offset="0" stop-color="#c6d1ff"/><stop offset=".5834" stop-color="#e6d5f4"/><stop offset=".997" stop-color="#ffd9ec"/></linearGradient><g><g><path d="m364.823 54.227c-69.098-27.035-164.784-16.764-217.662 31.51-37.336 34.085-8.439 43.8 17.016 106.17 18.423 45.141-164.177 38.928-164.177 120.496 0 94.299 132.251 76.424 181.329 87.218 75.036 16.504 140.496 78.242 220.668 70.103 69.795-7.086 96.403-61.855 106.109-124.642 18.082-116.976-26.329-245.095-143.283-290.855z" fill="url(#SVGID_1_)"/></g><g><g><g fill="#2626bc" opacity=".1"><path d="m236.953 311.961c-23.648.653-42.665 20.151-42.76 43.808-.038 9.369 2.854 18.061 7.81 25.212 5.716 8.249 10.717 16.971 14.86 26.112l16.814 37.105h-1.315c-2.761 0-5 2.238-5 5s2.239 5 5 5h12.356c2.761 0 5-2.238 5-5s-2.239-5-5-5h-1.996l16.952-37.41c4.125-9.103 9.185-17.736 14.839-25.978 4.853-7.073 7.693-15.635 7.693-24.861-.001-24.717-20.38-44.675-45.253-43.988z"/><path d="m447.259 265.864c4.853-7.073 7.693-15.635 7.693-24.861 0-24.718-20.379-44.676-45.252-43.989-23.648.653-42.665 20.151-42.76 43.808-.038 9.369 2.854 18.061 7.81 25.212 5.716 8.249 10.717 16.971 14.86 26.112l16.813 37.105h-1.984c-2.761 0-5 2.238-5 5s2.239 5 5 5h12.526c2.761 0 5-2.238 5-5s-2.239-5-5-5h-1.496l16.952-37.41c4.124-9.103 9.184-17.736 14.838-25.977z"/><path d="m71.985 202.959 24.546 54.17c1.68 3.708 6.946 3.708 8.626 0l24.733-54.582c5.579-12.313 12.424-23.99 20.071-35.137 1.232-1.796 2.368-3.663 3.401-5.594 5.872 2.228 12.235 3.458 18.889 3.458 29.42 0 53.269-23.849 53.269-53.269s-23.849-53.269-53.269-53.269c-17.95 0-33.814 8.887-43.465 22.492-8.795-4.686-18.899-7.24-29.628-6.943-31.986.883-57.708 27.256-57.837 59.254-.051 12.673 3.86 24.428 10.564 34.102 7.734 11.157 14.498 22.954 20.1 35.318z"/><ellipse cx="354.865" cy="429.994" rx="53.269" ry="53.269" transform="matrix(.987 -.16 .16 .987 -64.295 62.396)"/><path d="m177.978 329.251h-6c-2.761 0-5 2.238-5 5s2.239 5 5 5h6c2.761 0 5-2.238 5-5s-2.239-5-5-5z"/><path d="m71.796 333.615c-4.154 1.645-8.146 3.747-11.862 6.25-2.291 1.542-2.897 4.649-1.355 6.94.966 1.434 2.544 2.208 4.152 2.208.96 0 1.932-.276 2.788-.854 3.121-2.102 6.471-3.866 9.958-5.246 2.567-1.017 3.825-3.922 2.809-6.489s-3.923-3.822-6.49-2.809z"/><path d="m170.58 444.198h-12.356c-2.761 0-5 2.238-5 5s2.239 5 5 5h12.356c2.761 0 5-2.238 5-5s-2.239-5-5-5z"/><path d="m96.442 444.198h-1.663c-.005 0-.009 0-.014 0-3.258 0-6.521-.301-9.696-.896-2.715-.505-5.326 1.28-5.834 3.995s1.281 5.327 3.995 5.835c3.78.707 7.661 1.065 11.534 1.065h.017 1.662c2.761 0 5-2.238 5-5s-2.24-4.999-5.001-4.999z"/><path d="m110.196 329.251h-12.356c-2.761 0-5 2.238-5 5s2.239 5 5 5h12.356c2.761 0 5-2.238 5-5s-2.239-5-5-5z"/><path d="m133.51 444.198h-12.356c-2.761 0-5 2.238-5 5s2.239 5 5 5h12.356c2.761 0 5-2.238 5-5s-2.238-5-5-5z"/><path d="m147.265 329.251h-12.356c-2.761 0-5 2.238-5 5s2.239 5 5 5h12.356c2.761 0 5-2.238 5-5s-2.239-5-5-5z"/><path d="m42.542 396.725c-.26-2.749-2.701-4.779-5.448-4.508-2.749.26-4.767 2.698-4.508 5.447.421 4.462 1.326 8.882 2.688 13.137.68 2.123 2.645 3.477 4.761 3.477.505 0 1.019-.077 1.525-.239 2.63-.842 4.08-3.656 3.237-6.286-1.142-3.572-1.902-7.282-2.255-11.028z"/><path d="m64.472 434.566c-3.064-2.172-5.904-4.681-8.44-7.457-1.862-2.037-5.025-2.18-7.064-.318-2.039 1.863-2.181 5.025-.319 7.064 3.017 3.302 6.395 6.285 10.04 8.869.878.622 1.887.921 2.887.921 1.566 0 3.109-.733 4.083-2.108 1.598-2.254 1.066-5.375-1.187-6.971z"/><path d="m48.372 357.448c-2.354-1.446-5.433-.707-6.877 1.646-2.343 3.818-4.274 7.896-5.741 12.117-.906 2.608.474 5.458 3.083 6.363.543.189 1.096.278 1.641.278 2.07 0 4.006-1.295 4.723-3.36 1.23-3.542 2.852-6.963 4.818-10.168 1.444-2.352.707-5.431-1.647-6.876z"/><path d="m207.649 444.198h-12.356c-2.761 0-5 2.238-5 5s2.239 5 5 5h12.356c2.761 0 5-2.238 5-5s-2.239-5-5-5z"/><path d="m275.534 444.198h-6c-2.761 0-5 2.238-5 5s2.239 5 5 5h6c2.761 0 5-2.238 5-5s-2.238-5-5-5z"/><path d="m471.396 281.107c2.318-1.501 2.98-4.597 1.479-6.915-1.229-1.898-2.621-3.711-4.138-5.388-1.852-2.049-5.014-2.207-7.062-.354-2.048 1.852-2.207 5.014-.355 7.062 1.159 1.281 2.222 2.666 3.161 4.116.957 1.478 2.563 2.283 4.202 2.283.931-.001 1.873-.26 2.713-.804z"/><path d="m474.932 295.837c-2.752-.281-5.197 1.732-5.471 4.479-.36 3.615-1.322 7.111-2.859 10.394-1.171 2.501-.094 5.478 2.407 6.648.686.322 1.407.474 2.118.474 1.88 0 3.681-1.065 4.531-2.88 2.019-4.31 3.282-8.9 3.755-13.644.272-2.747-1.733-5.196-4.481-5.471z"/><path d="m329.282 339.251h12.526c2.761 0 5-2.238 5-5s-2.239-5-5-5h-12.526c-2.761 0-5 2.238-5 5s2.239 5 5 5z"/><path d="m366.861 339.251h12.526c2.761 0 5-2.238 5-5s-2.239-5-5-5h-12.526c-2.761 0-5 2.238-5 5s2.238 5 5 5z"/><path d="m451.721 325.922c-3.247 1.61-6.72 2.65-10.323 3.09-2.741.334-4.692 2.827-4.358 5.568.31 2.536 2.466 4.396 4.957 4.396.202 0 .406-.013.612-.038 4.73-.577 9.291-1.941 13.556-4.057 2.474-1.227 3.484-4.228 2.258-6.701-1.227-2.473-4.227-3.482-6.702-2.258z"/><path d="m309.192 334.251c0-2.762-2.239-5-5-5h-6c-2.761 0-5 2.238-5 5s2.239 5 5 5h6c2.761 0 5-2.238 5-5z"/><path d="m131.051 254.909c-2.761 0-5 2.238-5 5s2.239 5 5 5h6c2.761 0 5-2.238 5-5s-2.239-5-5-5z"/><path d="m197.999 254.909c-2.761 0-5 2.238-5 5s2.239 5 5 5h12.189c2.761 0 5-2.238 5-5s-2.239-5-5-5z"/><path d="m161.43 254.909c-2.761 0-5 2.238-5 5s2.239 5 5 5h12.189c2.761 0 5-2.238 5-5s-2.239-5-5-5z"/><path d="m283.325 254.909h-12.189c-2.761 0-5 2.238-5 5s2.239 5 5 5h12.189c2.761 0 5-2.238 5-5s-2.239-5-5-5z"/><path d="m307.704 264.909h12.189c2.761 0 5-2.238 5-5s-2.239-5-5-5h-12.189c-2.761 0-5 2.238-5 5s2.239 5 5 5z"/><path d="m234.567 264.909h12.189c2.761 0 5-2.238 5-5s-2.239-5-5-5h-12.189c-2.761 0-5 2.238-5 5s2.239 5 5 5z"/><path d="m344.273 264.909h6c2.761 0 5-2.238 5-5s-2.239-5-5-5h-6c-2.761 0-5 2.238-5 5s2.238 5 5 5z"/></g><g><g><path d="m160.367 108.784c0-33.433-27.565-60.428-61.207-59.499-31.986.883-57.708 27.256-57.837 59.254-.051 12.673 3.86 24.428 10.564 34.102 7.732 11.157 14.496 22.954 20.099 35.319l24.546 54.17c1.68 3.708 6.946 3.708 8.626 0l24.733-54.582c5.579-12.313 12.424-23.99 20.071-35.137 6.563-9.568 10.405-21.149 10.405-33.627z" fill="#ff7eb8"/><path d="m160.37 108.784c0 12.48-3.84 24.06-10.41 33.63-3.2 4.67-6.28 9.44-9.17 14.31-13.22-9.69-21.81-25.34-21.81-42.99 0-19.24 10.2-36.09 25.48-45.45 9.87 10.62 15.91 24.86 15.91 40.5z" fill="#ff5ba8"/><circle cx="100.636" cy="109.224" fill="#fff" r="36.573"/><path d="m137.21 109.224c0 11.15-4.98 21.13-12.85 27.83-3.45-7.04-5.38-14.95-5.38-23.32 0-10.76 3.19-20.78 8.68-29.15 5.94 6.5 9.55 15.15 9.55 24.64z" fill="#ffdbed"/></g><g><path d="m282.205 330.95c0-24.718-20.379-44.676-45.252-43.989-23.648.653-42.665 20.151-42.76 43.808-.038 9.369 2.854 18.06 7.81 25.212 5.716 8.249 10.717 16.971 14.86 26.112l18.148 40.049c1.242 2.741 5.135 2.741 6.377 0l18.286-40.354c4.125-9.103 9.185-17.737 14.839-25.978 4.852-7.072 7.692-15.634 7.692-24.86z" fill="#ff7eb8"/><circle cx="238.045" cy="331.276" fill="#fff" r="25.425"/></g><g><path d="m454.952 216.003c0-24.718-20.379-44.676-45.252-43.989-23.648.653-42.665 20.151-42.76 43.808-.038 9.369 2.854 18.06 7.81 25.212 5.716 8.249 10.717 16.971 14.86 26.112l18.148 40.049c1.242 2.741 5.135 2.741 6.377 0l18.286-40.354c4.125-9.103 9.185-17.737 14.839-25.978 4.851-7.072 7.692-15.634 7.692-24.86z" fill="#ff7eb8"/><circle cx="410.791" cy="216.329" fill="#fff" r="25.425"/></g><g fill="#2626bc"><g><path d="m177.978 314.251h-6c-2.761 0-5-2.238-5-5s2.239-5 5-5h6c2.761 0 5 2.238 5 5s-2.239 5-5 5z"/><g><path d="m272.366 295.82c-9.565-9.305-22.192-14.219-35.551-13.856-26.153.723-47.517 22.607-47.622 48.785-.041 10.099 2.967 19.809 8.701 28.081 5.631 8.126 10.481 16.647 14.415 25.327l16.535 36.491c-.915.906-1.483 2.161-1.483 3.551 0 2.762 2.239 5 5 5h12.356c2.761 0 5-2.238 5-5 0-1.62-.783-3.046-1.978-3.959l16.488-36.387c3.782-8.346 8.495-16.593 14.408-25.213 5.606-8.172 8.57-17.746 8.57-27.688 0-13.348-5.27-25.825-14.839-35.132zm-1.977 57.163c-6.249 9.108-11.244 17.856-15.271 26.742l-16.92 37.34-16.782-37.035c-4.181-9.228-9.331-18.276-15.304-26.896-4.56-6.58-6.953-14.307-6.92-22.345.084-20.836 17.085-38.255 37.898-38.83.373-.01.744-.016 1.116-.016 10.223 0 19.84 3.897 27.187 11.044 7.617 7.409 11.812 17.34 11.812 27.963 0 7.915-2.357 15.533-6.816 22.033z"/><path d="m96.441 419.198h-1.661c-3.265 0-6.533-.302-9.711-.896-2.717-.502-5.327 1.281-5.834 3.995-.508 2.715 1.281 5.327 3.995 5.835 3.784.708 7.67 1.066 11.55 1.066h1.661c2.761 0 5-2.238 5-5s-2.238-5-5-5z"/><path d="m71.796 308.615c-4.154 1.645-8.146 3.747-11.862 6.25-2.291 1.542-2.897 4.649-1.354 6.94.966 1.434 2.544 2.208 4.152 2.208.96 0 1.932-.276 2.789-.854 3.12-2.102 6.47-3.866 9.957-5.246 2.567-1.017 3.825-3.922 2.809-6.489-1.018-2.567-3.924-3.822-6.491-2.809z"/><path d="m64.472 409.567c-3.064-2.172-5.904-4.681-8.44-7.457-1.862-2.037-5.025-2.18-7.064-.318-2.039 1.863-2.181 5.025-.319 7.064 3.017 3.302 6.395 6.285 10.04 8.869.878.622 1.887.921 2.887.921 1.566 0 3.109-.733 4.083-2.108 1.597-2.254 1.066-5.375-1.187-6.971z"/><path d="m42.542 371.724c-.26-2.75-2.702-4.776-5.448-4.508-2.749.26-4.767 2.698-4.508 5.447.421 4.462 1.326 8.882 2.688 13.137.68 2.123 2.645 3.477 4.761 3.477.505 0 1.019-.077 1.525-.239 2.63-.842 4.08-3.656 3.237-6.286-1.143-3.572-1.902-7.282-2.255-11.028z"/><path d="m48.373 332.448c-2.354-1.445-5.433-.707-6.877 1.646-2.342 3.817-4.274 7.895-5.742 12.116-.906 2.608.474 5.458 3.082 6.364.543.189 1.097.278 1.641.278 2.07 0 4.005-1.295 4.723-3.359 1.231-3.543 2.853-6.965 4.819-10.169 1.444-2.352.707-5.431-1.646-6.876z"/><path d="m147.265 304.251h-12.356c-2.761 0-5 2.238-5 5s2.239 5 5 5h12.356c2.761 0 5-2.238 5-5s-2.239-5-5-5z"/><path d="m170.579 419.198h-12.356c-2.761 0-5 2.238-5 5s2.239 5 5 5h12.356c2.761 0 5-2.238 5-5s-2.239-5-5-5z"/><path d="m207.648 419.198h-12.356c-2.761 0-5 2.238-5 5s2.239 5 5 5h12.356c2.761 0 5-2.238 5-5s-2.239-5-5-5z"/><path d="m110.196 304.251h-12.356c-2.761 0-5 2.238-5 5s2.239 5 5 5h12.356c2.761 0 5-2.238 5-5s-2.238-5-5-5z"/><path d="m133.51 419.198h-12.356c-2.761 0-5 2.238-5 5s2.239 5 5 5h12.356c2.761 0 5-2.238 5-5s-2.239-5-5-5z"/></g><path d="m275.535 429.198h-6c-2.761 0-5-2.238-5-5s2.239-5 5-5h6c2.761 0 5 2.238 5 5s-2.239 5-5 5z"/></g><g><path d="m468.683 256.91c-1.639 0-3.245-.806-4.202-2.283-.94-1.451-2.003-2.836-3.161-4.116-1.852-2.048-1.693-5.21.355-7.062s5.209-1.694 7.062.354c1.516 1.676 2.908 3.488 4.137 5.388 1.501 2.318.839 5.414-1.479 6.915-.839.545-1.781.804-2.712.804z"/><g><path d="m409.561 167.016c-26.153.723-47.516 22.608-47.622 48.786-.041 10.1 2.968 19.81 8.701 28.08 5.633 8.129 10.483 16.651 14.415 25.328l16.353 36.089c-1.19.914-1.969 2.336-1.969 3.952 0 2.762 2.239 5 5 5h12.526c2.761 0 5-2.238 5-5 0-1.451-.628-2.746-1.615-3.659l16.624-36.686c3.784-8.35 8.497-16.597 14.408-25.213 5.606-8.172 8.57-17.746 8.57-27.689 0-13.346-5.27-25.822-14.838-35.13-9.565-9.305-22.18-14.208-35.553-13.858zm33.575 71.018c-6.247 9.105-11.242 17.854-15.271 26.744l-16.92 37.34-16.782-37.035c-4.18-9.225-9.329-18.273-15.304-26.897-4.559-6.578-6.952-14.305-6.92-22.343.084-20.837 17.085-38.256 37.898-38.831.373-.01.743-.016 1.114-.016 10.224 0 19.843 3.898 27.19 11.045 7.616 7.409 11.811 17.339 11.811 27.962 0 7.915-2.357 15.533-6.816 22.031z"/><path d="m341.809 304.251h-12.526c-2.761 0-5 2.238-5 5s2.239 5 5 5h12.526c2.761 0 5-2.238 5-5s-2.239-5-5-5z"/><path d="m379.386 304.251h-12.526c-2.761 0-5 2.238-5 5s2.239 5 5 5h12.526c2.761 0 5-2.238 5-5s-2.239-5-5-5z"/><path d="m474.933 270.837c-2.738-.263-5.197 1.732-5.471 4.479-.361 3.615-1.323 7.112-2.86 10.394-1.171 2.501-.094 5.478 2.407 6.648.686.322 1.407.474 2.118.474 1.88 0 3.681-1.065 4.531-2.88 2.019-4.309 3.282-8.899 3.755-13.644.273-2.747-1.732-5.196-4.48-5.471z"/><path d="m451.722 300.922c-3.247 1.61-6.72 2.65-10.324 3.091-2.741.335-4.692 2.828-4.356 5.569.31 2.535 2.466 4.395 4.957 4.395.203 0 .407-.013.613-.038 4.731-.578 9.292-1.943 13.555-4.058 2.474-1.227 3.484-4.228 2.258-6.701s-4.227-3.482-6.703-2.258z"/></g><path d="m304.192 314.251h-6c-2.761 0-5-2.238-5-5s2.239-5 5-5h6c2.761 0 5 2.238 5 5s-2.238 5-5 5z"/></g><g><path d="m137.052 239.909h-6c-2.761 0-5-2.238-5-5s2.239-5 5-5h6c2.761 0 5 2.238 5 5s-2.239 5-5 5z"/><path d="m319.894 239.909h-12.19c-2.761 0-5-2.238-5-5s2.239-5 5-5h12.19c2.761 0 5 2.238 5 5s-2.239 5-5 5zm-36.569 0h-12.189c-2.761 0-5-2.238-5-5s2.239-5 5-5h12.189c2.761 0 5 2.238 5 5s-2.239 5-5 5zm-36.568 0h-12.189c-2.761 0-5-2.238-5-5s2.239-5 5-5h12.189c2.761 0 5 2.238 5 5s-2.239 5-5 5zm-36.569 0h-12.189c-2.761 0-5-2.238-5-5s2.239-5 5-5h12.189c2.761 0 5 2.238 5 5s-2.238 5-5 5zm-36.568 0h-12.189c-2.761 0-5-2.238-5-5s2.239-5 5-5h12.189c2.761 0 5 2.238 5 5s-2.239 5-5 5z"/><path d="m350.272 239.909h-6c-2.761 0-5-2.238-5-5s2.239-5 5-5h6c2.761 0 5 2.238 5 5s-2.238 5-5 5z"/></g></g></g><g><circle cx="172.252" cy="87.005" fill="#01eca5" r="53.269"/><path d="m185.239 94.248c3.978-3.57 6.499-8.733 6.499-14.486 0-10.745-8.741-19.486-19.486-19.486s-19.486 8.741-19.486 19.486c0 5.753 2.521 10.916 6.499 14.486-3.978 3.57-6.499 8.733-6.499 14.486 0 2.761 2.239 5 5 5s5-2.239 5-5c0-5.23 4.255-9.486 9.486-9.486s9.486 4.255 9.486 9.486c0 2.761 2.239 5 5 5s5-2.239 5-5c0-5.753-2.521-10.916-6.499-14.486zm-22.473-14.486c0-5.23 4.255-9.486 9.486-9.486s9.486 4.255 9.486 9.486-4.255 9.486-9.486 9.486-9.486-4.255-9.486-9.486z" fill="#fff"/><path d="m172.252 28.737c-18.062 0-34.23 8.26-44.926 21.201-8.828-3.97-18.536-5.921-28.305-5.652-16.773.464-32.508 7.376-44.305 19.465-11.793 12.086-18.326 27.984-18.394 44.767-.054 13.296 3.907 26.081 11.454 36.971 7.679 11.081 14.292 22.7 19.654 34.534l24.546 54.171c1.598 3.525 4.996 5.716 8.868 5.716 3.871 0 7.269-2.19 8.866-5.717l24.733-54.582c2.387-5.269 5.167-10.716 8.264-16.192 1.359-2.403.513-5.454-1.891-6.813-2.403-1.357-5.454-.512-6.813 1.892-3.243 5.733-6.159 11.449-8.668 16.987l-24.492 54.049-24.303-53.638c-5.61-12.382-12.522-24.528-20.543-36.103-6.374-9.198-9.719-19.998-9.673-31.234.117-29.124 23.882-53.473 52.975-54.276 7.652-.216 15.243 1.204 22.245 4.075-4.802 8.467-7.559 18.239-7.559 28.648 0 32.13 26.139 58.27 58.269 58.27s58.269-26.14 58.269-58.27-26.141-58.269-58.271-58.269zm0 106.538c-26.616 0-48.269-21.653-48.269-48.27 0-26.615 21.653-48.269 48.269-48.269s48.269 21.653 48.269 48.269-21.653 48.27-48.269 48.27z" fill="#2626bc"/></g><g><circle cx="354.865" cy="404.994" fill="#6583fe" r="53.269"/><path d="m367.852 412.237c3.978-3.57 6.499-8.733 6.499-14.486 0-10.745-8.741-19.486-19.486-19.486s-19.486 8.741-19.486 19.486c0 5.753 2.521 10.916 6.499 14.486-3.978 3.57-6.499 8.733-6.499 14.486 0 2.761 2.239 5 5 5s5-2.239 5-5c0-5.23 4.255-9.486 9.486-9.486s9.486 4.255 9.486 9.486c0 2.761 2.239 5 5 5s5-2.239 5-5c0-5.753-2.521-10.916-6.499-14.486zm-22.472-14.486c0-5.23 4.255-9.486 9.486-9.486s9.486 4.255 9.486 9.486-4.255 9.486-9.486 9.486-9.486-4.255-9.486-9.486z" fill="#fff"/><path d="m354.865 463.263c-32.13 0-58.269-26.139-58.269-58.269 0-25.935 17.418-48.984 42.358-56.053 2.657-.752 5.421.791 6.174 3.447s-.791 5.421-3.447 6.174c-20.657 5.854-35.085 24.948-35.085 46.432 0 26.615 21.653 48.269 48.269 48.269s48.27-21.653 48.27-48.269c0-21.415-14.369-40.492-34.942-46.391-2.655-.762-4.189-3.53-3.428-6.185s3.528-4.188 6.184-3.429c24.839 7.122 42.187 30.151 42.187 56.004-.001 32.131-26.141 58.27-58.271 58.27z" fill="#2626bc"/></g></g><path d="m244.521 192.612c-1.28 0-2.559-.488-3.536-1.465l-5.964-5.964-5.964 5.964c-1.953 1.953-5.118 1.953-7.071 0-1.953-1.952-1.953-5.118 0-7.07l9.5-9.5c1.953-1.953 5.118-1.953 7.071 0l9.5 9.5c1.953 1.952 1.953 5.118 0 7.07-.977.976-2.256 1.465-3.536 1.465z" fill="#ff7eb8"/><path d="m272.97 150.025c-1.28 0-2.559-.488-3.536-1.465l-5.964-5.964-5.964 5.964c-1.953 1.953-5.118 1.953-7.071 0-1.953-1.952-1.953-5.118 0-7.07l9.5-9.5c1.953-1.953 5.118-1.953 7.071 0l9.5 9.5c1.953 1.952 1.953 5.118 0 7.07-.977.976-2.256 1.465-3.536 1.465z" fill="#6583fe"/><path d="m50.758 233.133c-3.874 0-7.515-1.509-10.254-4.248-5.653-5.653-5.653-14.852 0-20.505s14.853-5.654 20.506 0c5.653 5.653 5.653 14.852 0 20.505-2.737 2.739-6.379 4.248-10.252 4.248zm0-18.998c-1.152 0-2.305.438-3.182 1.315-1.754 1.755-1.754 4.609 0 6.364.85.851 1.98 1.318 3.182 1.318s2.332-.468 3.181-1.318c1.755-1.755 1.755-4.609 0-6.364-.876-.877-2.028-1.315-3.181-1.315z" fill="#00eca2"/><path d="m436.216 482.256c-3.713.001-7.426-1.413-10.253-4.24-5.653-5.653-5.653-14.852 0-20.505 5.653-5.654 14.853-5.654 20.506 0 2.739 2.738 4.247 6.379 4.247 10.253 0 3.873-1.508 7.514-4.248 10.253-2.825 2.826-6.539 4.239-10.252 4.239zm0-18.99c-1.152 0-2.305.438-3.182 1.315-1.754 1.755-1.754 4.609 0 6.364 1.754 1.754 4.609 1.754 6.363 0 .851-.851 1.318-1.98 1.318-3.182s-.468-2.332-1.318-3.182v-.001c-.876-.876-2.028-1.314-3.181-1.314z" fill="#00eca2"/><path d="m437.003 366.218c-3.713.001-7.426-1.413-10.253-4.24-2.739-2.738-4.247-6.38-4.247-10.253s1.508-7.515 4.248-10.254c5.652-5.653 14.851-5.653 20.505.001v-.001.001c2.739 2.738 4.247 6.38 4.247 10.253s-1.508 7.515-4.248 10.254c-2.826 2.826-6.539 4.239-10.252 4.239zm0-18.991c-1.152 0-2.305.438-3.182 1.315-.851.851-1.318 1.98-1.318 3.183s.468 2.332 1.318 3.182c1.755 1.756 4.61 1.755 6.364.001.851-.851 1.318-1.98 1.318-3.183s-.468-2.332-1.318-3.182v-.001c-.877-.877-2.03-1.315-3.182-1.315z" fill="#ff7eb8"/></g></g></svg>