<svg id="Capa_1" enable-background="new 0 0 512 512" height="512" viewBox="0 0 512 512" width="512" xmlns="http://www.w3.org/2000/svg" xmlns:xlink="http://www.w3.org/1999/xlink"><linearGradient id="SVGID_1_" gradientUnits="userSpaceOnUse" x1="212.615" x2="305.615" y1="86.943" y2="446.943"><stop offset=".0112" stop-color="#dafced"/><stop offset=".761" stop-color="#cbdcfa"/><stop offset="1" stop-color="#c6d1ff"/></linearGradient><g><g><path d="m501.873 140.302c-22.357-56.888-91.226-91.003-149.556-68.427-66.582 25.769-44.506 131.673-104.983 153.088-32.669 11.568-80.963-31.644-113.969-38.27-60.821-12.21-115.881 30.705-129.439 90.134-13.832 60.63 8.353 141.61 74.967 158.066 79.35 19.602 120.683-51.729 187.249-72.211 68.31-21.019 144.263 28.622 200.814-31.776 41.78-44.622 57.055-134.273 34.917-190.604z" fill="url(#SVGID_1_)"/></g><g><g><path d="m381.866 148.05-54.879-95.053c-.938-1.625-2.672-2.626-4.548-2.626h-109.757c-1.876 0-3.61 1.001-4.548 2.626l-54.879 95.053c-.938 1.625-.938 3.627 0 5.252l12.082 20.926c-43.286 1.66-77.873 37.256-77.873 80.949 0 44.751 36.278 81.029 81.028 81.029 31.89 0 59.464-18.43 72.686-45.213h15.213v47.932c-4.728 3.452-7.813 9.021-7.813 15.324s3.085 11.872 7.813 15.324v34.158c0 13.491 7.625 26.077 19.894 32.847 6.098 3.36 9.69 9.776 9.36 16.741-.415 9.079-8.138 16.802-17.218 17.218-5.022.232-9.764-1.54-13.368-4.986-3.617-3.458-5.609-8.102-5.609-13.1 0-6.171-4.998-11.169-11.157-11.169-6.171 0-11.169 4.998-11.169 11.169 0 11.157 4.448 21.544 12.513 29.242 7.601 7.258 17.438 11.193 27.898 11.193.635 0 1.283-.012 1.919-.049 20.639-.941 37.551-17.853 38.492-38.492.721-15.531-7.283-29.828-20.884-37.331-5.23-2.872-8.334-7.845-8.334-13.283v-34.158c4.728-3.452 7.813-9.022 7.813-15.324 0-6.303-3.085-11.872-7.813-15.324v-47.932h23.26c6.749 0 12.22-5.471 12.22-12.22v-27.792h8.23c1.876 0 3.61-1.001 4.548-2.626l54.879-95.053c.939-1.625.939-3.627.001-5.252z" fill="#2626bc" opacity=".1"/><g><g><g><path d="m307.947 428.088c-.941 20.639-17.853 37.551-38.492 38.492-.635.037-1.283.049-1.918.049-10.46 0-20.297-3.935-27.898-11.193-8.065-7.699-12.513-18.085-12.513-29.242 0-6.171 4.998-11.169 11.169-11.169 6.159 0 11.157 4.998 11.157 11.169 0 4.998 1.992 9.641 5.609 13.1 3.605 3.446 8.346 5.218 13.368 4.986 9.079-.415 16.802-8.138 17.218-17.218.33-6.965-3.263-13.381-9.36-16.741-12.269-6.77-19.894-19.356-19.894-32.847v-118.912c0-6.159 4.998-11.157 11.169-11.157s11.169 4.998 11.169 11.157v118.911c0 5.438 3.104 10.411 8.334 13.283 13.599 7.503 21.603 21.8 20.882 37.332z" fill="#4369fd"/></g></g><path d="m278.73 258.562v25.979h-22.338v-25.979c0-6.159 4.998-11.157 11.169-11.157 6.171.001 11.169 4.999 11.169 11.157z" fill="#2d58e0"/><path d="m278.73 331.637v30.672c-3.128 2.285-6.99 3.641-11.169 3.641s-8.041-1.356-11.169-3.641v-30.672c3.128-2.285 6.99-3.641 11.169-3.641s8.04 1.356 11.169 3.641z" fill="#2d58e0"/><path d="m301.989 264.734h-68.857c-6.749 0-12.22-5.471-12.22-12.22v-34.367h93.297v34.367c0 6.749-5.471 12.22-12.22 12.22z" fill="#ff7eb8"/><path d="m220.912 218.147h93.297v27.946h-93.297z" fill="#ff5ba8"/><g><path d="m322.439 24.113h-109.757c-1.876 0-3.61 1.001-4.548 2.626l-54.879 95.053c-.938 1.625-.938 3.627 0 5.252l54.879 95.053c.938 1.625 2.672 2.626 4.548 2.626h109.757c1.876 0 3.61-1.001 4.548-2.626l54.879-95.053c.938-1.625.938-3.627 0-5.252l-54.879-95.053c-.938-1.625-2.671-2.626-4.548-2.626z" fill="#9fb0fe"/><path d="m225.145 197.883-42.416-73.466 42.416-73.466h84.832l42.415 73.466-42.415 73.466z" fill="#6583fe"/><g fill="#8399fe"><path d="m309.977 50.951h-37.217l-83.968 83.968 22.168 38.395c35.813-35.913 71.719-71.733 107.489-107.69z"/><path d="m249.105 197.883c30.738-30.807 61.581-61.508 92.524-92.108l-14.341-24.84-107.562 107.563 5.419 9.386h23.96z"/></g></g><g><g><path d="m234.051 193.726c-3.374 0-6.11-2.735-6.11-6.11v-.141c0-3.375 2.736-6.11 6.11-6.11s6.11 2.735 6.11 6.11v.141c0 3.375-2.736 6.11-6.11 6.11z" fill="#6583fe"/></g><g><path d="m301.071 193.726c-3.374 0-6.11-2.735-6.11-6.11v-.141c0-3.375 2.736-6.11 6.11-6.11s6.11 2.735 6.11 6.11v.141c0 3.375-2.736 6.11-6.11 6.11z" fill="#4369fd"/></g></g><circle cx="267.561" cy="327.99" fill="#9fb0fe" r="18.982"/></g><g><g><circle cx="168.492" cy="228.918" fill="#01eca5" r="81.028"/><path d="m386.196 119.291-54.879-95.053c-1.826-3.162-5.229-5.126-8.878-5.126h-109.757c-3.651 0-7.053 1.965-8.878 5.127l-54.878 95.051c-1.827 3.162-1.827 7.092 0 10.253l8.142 14.103c-36.551 4.859-66.458 32.724-73.193 69.816-.494 2.718 1.309 5.319 4.026 5.813 2.709.489 5.319-1.31 5.813-4.026 6.561-36.134 38.01-62.359 74.779-62.359 41.922 0 76.028 34.106 76.028 76.028s-34.106 76.028-76.028 76.028c-36.709 0-68.149-26.176-74.757-62.239-.498-2.716-3.107-4.517-5.819-4.017-2.716.497-4.515 3.103-4.017 5.819 7.479 40.813 43.055 70.437 84.593 70.437 32.675 0 61.151-18.313 75.711-45.213h7.194v40.557c-4.802 4.388-7.819 10.698-7.819 17.7s3.017 13.312 7.819 17.7v31.779c0 15.322 8.61 29.586 22.47 37.224 4.42 2.437 7.021 7.088 6.788 12.14-.297 6.454-6 12.157-12.454 12.454-3.65.162-7.079-1.115-9.691-3.61-2.617-2.5-4.059-5.868-4.059-9.484 0-8.912-7.251-16.163-16.163-16.163s-16.163 7.251-16.163 16.163c0 12.532 4.992 24.202 14.057 32.859 8.492 8.111 19.625 12.578 31.349 12.578.717 0 1.438-.017 2.155-.05 23.191-1.067 42.193-20.069 43.262-43.262.802-17.443-8.194-33.513-23.478-41.936-3.599-1.983-5.747-5.315-5.747-8.913v-31.779c4.802-4.388 7.819-10.698 7.819-17.7s-3.018-13.312-7.819-17.7v-40.557h18.266c9.495 0 17.22-7.725 17.22-17.22v-22.792h3.23c3.65 0 7.052-1.964 8.878-5.126l54.879-95.052c1.825-3.161 1.825-7.091-.001-10.252zm-104.653 208.699c0 7.71-6.272 13.982-13.982 13.982s-13.982-6.272-13.982-13.982c0-7.709 6.272-13.981 13.982-13.981s13.982 6.272 13.982 13.981zm3.102 67.15c11.922 6.571 18.939 19.108 18.313 32.719-.832 18.083-15.648 32.899-33.736 33.731-9.771.461-19.104-3.057-26.133-9.771-7.07-6.752-10.964-15.854-10.964-25.628 0-3.398 2.765-6.163 6.163-6.163s6.163 2.765 6.163 6.163c0 6.374 2.54 12.311 7.151 16.715 4.607 4.401 10.657 6.652 17.059 6.37 11.588-.534 21.45-10.396 21.984-21.984.409-8.885-4.17-17.068-11.951-21.357-10.669-5.88-17.297-16.787-17.297-28.466v-26.304c1.968.524 4.033.807 6.163.807s4.195-.283 6.163-.807v26.304c.001 7.297 4.083 13.903 10.922 17.671zm-10.921-90.325c-1.968-.524-4.033-.807-6.163-.807s-4.195.283-6.163.807v-35.082h12.326zm103.812-180.272-54.879 95.052c-.045.078-.128.127-.218.127h-43.666c-2.762 0-5 2.238-5 5s2.238 5 5 5h30.436v22.792c0 3.981-3.238 7.22-7.22 7.22h-53.197c3.687-9.574 5.729-19.958 5.729-30.815 0-47.437-38.592-86.028-86.028-86.028-.104 0-.207.007-.311.007l-10.597-18.354c-.044-.077-.044-.173 0-.251l54.879-95.052c.045-.078.128-.127.218-.127h109.757c.089 0 .173.049.218.127l54.879 95.053c.045.075.045.171 0 .249z" fill="#2626bc"/></g><g><g><path d="m210.301 275.601h-82.885c-2.894 0-5.241-2.346-5.241-5.241v-82.885c0-2.894 2.346-5.241 5.241-5.241h82.885c2.894 0 5.241 2.346 5.241 5.241v82.885c0 2.895-2.347 5.241-5.241 5.241z" fill="#ffa8cf"/><path d="m135.277 195.336h67.163v67.163h-67.163z" fill="#ff5ba8" transform="matrix(0 1 -1 0 397.776 60.059)"/><g fill="#ff7eb8"><path d="m191.416 203.138-56.137 57.754v-57.754z"/><path d="m194.746 231.53v30.972h-38.45l33.166-33.161c1.95-1.951 5.284-.569 5.284 2.189z"/></g></g><path d="m163.116 177.135h13.102v102.037h-13.102z" fill="#ffa8cf" transform="matrix(.707 .707 -.707 .707 211.024 -53.148)"/></g></g></g><path d="m341.629 419.147c-3.713 0-7.426-1.413-10.252-4.24-5.654-5.653-5.654-14.853 0-20.506 5.653-5.655 14.854-5.653 20.505 0 5.654 5.653 5.654 14.853 0 20.506-2.826 2.827-6.539 4.24-10.253 4.24zm0-18.991c-1.151 0-2.304.438-3.182 1.315-1.754 1.755-1.754 4.61 0 6.365 1.757 1.755 4.609 1.753 6.364 0 1.754-1.755 1.754-4.61 0-6.365-.877-.876-2.03-1.315-3.182-1.315z" fill="#ff7eb8"/><path d="m116.211 118.611c-3.873 0-7.515-1.509-10.253-4.248-2.738-2.737-4.247-6.379-4.247-10.252s1.508-7.515 4.248-10.254c5.652-5.653 14.851-5.653 20.505.001v-.001.001c2.739 2.738 4.247 6.38 4.247 10.253s-1.508 7.515-4.248 10.253c-2.737 2.738-6.379 4.247-10.252 4.247zm0-18.998c-1.152 0-2.305.438-3.182 1.315-.851.851-1.318 1.98-1.318 3.183 0 1.201.468 2.331 1.317 3.181.851.852 1.981 1.319 3.183 1.319s2.332-.468 3.181-1.318c.851-.851 1.319-1.98 1.319-3.182s-.468-2.332-1.318-3.182v-.001c-.877-.876-2.029-1.315-3.182-1.315z" fill="#00eca2"/><path d="m221.136 366.767c-1.28 0-2.559-.488-3.536-1.465l-5.964-5.964-5.964 5.964c-1.953 1.953-5.118 1.953-7.071 0-1.953-1.952-1.953-5.118 0-7.07l9.5-9.5c1.953-1.953 5.118-1.953 7.071 0l9.5 9.5c1.953 1.952 1.953 5.118 0 7.07-.977.977-2.256 1.465-3.536 1.465z" fill="#6583fe"/><path d="m398.495 68.411c-1.279 0-2.56-.488-3.535-1.465l-5.965-5.964-5.965 5.964c-1.951 1.953-5.119 1.953-7.07 0-1.953-1.952-1.953-5.118 0-7.07l9.5-9.5c1.951-1.953 5.119-1.953 7.07 0l9.5 9.5c1.953 1.952 1.953 5.118 0 7.07-.975.977-2.256 1.465-3.535 1.465z" fill="#ff7eb8"/><path d="m398.495 197.296c-1.279 0-2.56-.488-3.535-1.465l-5.965-5.964-5.965 5.964c-1.951 1.953-5.119 1.953-7.07 0-1.953-1.952-1.953-5.118 0-7.07l9.5-9.5c1.951-1.953 5.119-1.953 7.07 0l9.5 9.5c1.953 1.952 1.953 5.118 0 7.07-.975.976-2.256 1.465-3.535 1.465z" fill="#6583fe"/></g></g></svg>