<svg id="Capa_1" enable-background="new 0 0 512 512" height="512" viewBox="0 0 512 512" width="512" xmlns="http://www.w3.org/2000/svg" xmlns:xlink="http://www.w3.org/1999/xlink"><linearGradient id="SVGID_1_" gradientUnits="userSpaceOnUse" x1="513.711" x2="123.731" y1="97.563" y2="406.548"><stop offset="0" stop-color="#c6d1ff"/><stop offset=".5834" stop-color="#e6d5f4"/><stop offset=".997" stop-color="#ffd9ec"/></linearGradient><g><g><path d="m364.823 52.164c-69.099-27.036-164.784-16.764-217.662 31.509-37.336 34.085-8.439 43.8 17.016 106.17 18.423 45.141-164.177 38.928-164.177 120.496 0 94.299 132.251 76.424 181.329 87.218 75.036 16.504 140.496 78.242 220.668 70.103 69.795-7.086 96.403-61.855 106.109-124.642 18.082-116.976-26.329-245.094-143.283-290.854z" fill="url(#SVGID_1_)"/></g><g><g><path d="m422.581 111.944c-15.822-15.822-36.559-23.733-57.296-23.733v-19.009c0-5.523-4.477-10-10-10h-198.57c-5.523 0-10 4.477-10 10v127.405c0 22.915 7.058 44.179 19.112 61.748-28.759 3.345-51.084 27.773-51.084 57.429 0 31.941 25.893 57.834 57.834 57.834 29.392 0 53.646-21.932 57.332-50.319 3.522 4.746 8.31 8.493 13.862 10.753v110.535h-27.225c-16.439 0-29.766 13.327-29.766 29.766 0 4.664 3.781 8.445 8.444 8.445h121.554c4.664 0 8.444-3.781 8.444-8.445 0-16.439-13.327-29.766-29.766-29.766h-27.226v-110.535c11.871-4.831 20.242-16.476 20.242-30.082 0-.992-.052-1.972-.139-2.942 27.289-8.441 50.005-27.285 63.521-51.898 24.951 4.173 51.476-3.343 70.727-22.595 31.644-31.643 31.644-82.947 0-114.591z" fill="#2626bc" opacity=".1"/><path d="m243.77 300.792h24.46v129.44h-24.46z" fill="#d2deff"/><path d="m268.23 300.792v25.67c-3.78 1.53-7.91 2.38-12.23 2.38s-8.45-.85-12.23-2.38v-25.67z" fill="#b7c5ff"/><circle cx="256" cy="278.97" fill="#8399fe" r="32.472"/><path d="m288.47 278.972c0 5.48-1.36 10.64-3.76 15.17-9.15 2.49-18.77 3.82-28.71 3.82s-19.56-1.33-28.71-3.82c-2.4-4.53-3.76-9.69-3.76-15.17 0-17.94 14.54-32.47 32.47-32.47s32.47 14.53 32.47 32.47z" fill="#6583fe"/><g><path d="m256 280.893c-60.357 0-109.285-48.929-109.285-109.285v-127.406c0-5.523 4.477-10 10-10h198.571c5.523 0 10 4.477 10 10v127.405c-.001 60.357-48.929 109.286-109.286 109.286z" fill="#b7c5ff"/><path d="m365.29 92.512v79.1c0 29.86-11.97 56.92-31.4 76.64-9.41-3.94-18.23-9.75-25.9-17.42-31.64-31.64-31.64-82.94 0-114.59 15.82-15.82 36.56-23.73 57.3-23.73z" fill="#9fb0fe"/><path d="m341.116 99.365c-51.853 51.929-103.769 103.794-155.633 155.712 8.133 6.876 17.277 12.593 27.188 16.878 50.762-50.913 101.637-101.713 152.615-152.411v-44.42c-8.059 8.078-16.108 16.166-24.17 24.241z" fill="#d2deff"/><path d="m365.29 92.512v27.03c-25.89 25.75-51.76 51.53-77.6 77.34-4.21-14-4.54-28.9-1.01-43.04 18.15-18.16 36.3-36.31 54.44-54.48 1.47-1.47 2.93-2.94 4.39-4.41 6.48-1.63 13.13-2.44 19.78-2.44z" fill="#b7c5ff"/><path d="m228.963 277.519c8.647 2.201 17.705 3.374 27.037 3.374 60.357 0 109.285-48.929 109.285-109.285v-30.411s-97.522 97.522-136.322 136.322z" fill="#d2deff"/><path d="m365.29 141.202v30.41c0 29.86-11.97 56.92-31.4 76.64-9.41-3.94-18.23-9.75-25.9-17.42-5.62-5.62-10.24-11.85-13.85-18.49 36.32-36.31 71.15-71.14 71.15-71.14z" fill="#b7c5ff"/><g><path d="m255.998 34.205-22.984 39.215 8.868 33.767c.326 1.24-.037 2.559-.951 3.458l-36.481 35.874 19.337 43.177c1.665 3.717-3.184 6.881-5.916 3.861l-36.911-40.807c-1.106-1.223-1.233-3.043-.307-4.407l27.97-41.224-25.683-38.038c-.776-1.149-.818-2.644-.107-3.835l18.535-31.045z" fill="#6583fe"/><path d="m241.886 107.187c.325 1.236-.041 2.561-.951 3.455l-36.488 35.879 19.342 43.172c1.667 3.715-3.187 6.886-5.919 3.862l-21.431-23.692-10.455-23.342 36.48-35.879c.919-.894 1.277-2.22.951-3.455l-8.862-33.765 22.984-39.22h18.463l-22.984 39.22z" fill="#4369fd"/></g></g><path d="m316.777 457.798h-121.554c-4.664 0-8.445-3.781-8.445-8.445 0-16.439 13.327-29.766 29.766-29.766h78.91c16.439 0 29.766 13.327 29.766 29.766.001 4.664-3.779 8.445-8.443 8.445z" fill="#9fb0fe"/><g><circle cx="365.286" cy="144.24" fill="#ff5ba8" r="81.028"/><g fill="#fff"><path d="m340.646 190.576 70.979-70.979c10.564 19.841 7.474 45.036-9.235 61.745-16.715 16.715-41.902 19.798-61.744 9.234z"/><path d="m389.932 97.902-70.979 70.979c-10.564-19.841-7.481-45.029 9.235-61.745 16.708-16.708 41.902-19.798 61.744-9.234z"/></g></g><g><g><circle cx="172.576" cy="290.784" fill="#02ffb3" r="57.834"/><path d="m426.116 83.409c-15.064-15.064-34.733-23.84-55.831-25.041v-14.166c0-8.271-6.729-15-15-15h-198.57c-8.271 0-15 6.729-15 15v127.405c0 20.621 5.49 40.582 15.904 58.156-27.447 6.73-47.877 31.528-47.877 61.021 0 34.646 28.188 62.834 62.834 62.834 28.512 0 52.635-19.097 60.288-45.167 6.525 5.143 14.599 7.991 23.136 7.991 2.474 0 4.89-.247 7.231-.707v98.852h-14.463v-77.825c0-2.762-2.238-5-5-5s-5 2.238-5 5v77.825h-22.224c-19.17 0-34.767 15.597-34.767 34.767 0 7.413 6.031 13.444 13.445 13.444h121.553c7.414 0 13.445-6.031 13.445-13.444 0-19.17-15.597-34.767-34.767-34.767h-22.224v-102.359c11.821-6.15 19.966-18.41 20.224-32.57 16.883-5.83 32.264-15.638 45.045-28.968 1.911-1.993 1.845-5.158-.149-7.069-1.992-1.91-5.157-1.844-7.069.149-19.861 20.714-46.597 32.122-75.281 32.122-7.793 0-15.548-.872-23.078-2.573-7.588-26.173-31.76-45.369-60.346-45.369-1.421 0-2.826.064-4.224.158-10.882-16.842-16.638-36.324-16.638-56.501v-127.405c0-2.757 2.243-5 5-5h198.57c2.757 0 5 2.243 5 5v14.166c-21.098 1.202-40.767 9.977-55.83 25.041-33.543 33.542-33.543 88.12 0 121.662 16.248 16.249 37.852 25.197 60.831 25.197s44.582-8.948 60.83-25.197c16.249-16.248 25.197-37.852 25.197-60.831s-8.946-44.583-25.195-60.831zm-105.894 365.944c0 1.899-1.546 3.444-3.445 3.444h-121.553c-1.899 0-3.445-1.545-3.445-3.444 0-13.656 11.11-24.767 24.767-24.767h78.91c13.655.001 24.766 11.111 24.766 24.767zm-64.222-163.461c9.308 0 18.425-1.105 27.218-3.237-1.807 13.411-13.32 23.787-27.218 23.787-8.107 0-15.648-3.5-20.885-9.635.19-1.983.295-3.991.295-6.023 0-2.305-.134-4.579-.377-6.821 6.887 1.276 13.914 1.929 20.967 1.929zm-30.59 4.892c0 29.133-23.701 52.834-52.834 52.834s-52.834-23.701-52.834-52.834 23.701-52.834 52.834-52.834 52.834 23.701 52.834 52.834zm193.636-92.783c-14.36 14.359-33.452 22.268-53.76 22.268-20.309 0-39.4-7.908-53.761-22.268-29.644-29.644-29.644-77.878 0-107.521 14.36-14.359 33.452-22.268 53.761-22.268 20.308 0 39.399 7.908 53.76 22.268 14.359 14.36 22.268 33.453 22.268 53.761s-7.909 39.4-22.268 53.76z" fill="#2626bc"/></g><g fill="#fff"><path d="m150.118 278.391c.573 0 1.145-.101 1.692-.291v19.691c0 2.85 2.31 5.16 5.16 5.16s5.16-2.311 5.16-5.16v-19.691c1.809.626 3.896.223 5.34-1.221 2.016-2.015 2.016-5.283 0-7.298l-6.848-6.848c-1.922-1.999-5.382-1.998-7.304 0l-6.849 6.848c-2.016 2.015-2.016 5.282-.001 7.298 1.008 1.008 2.33 1.512 3.65 1.512z"/><path d="m183.021 278.101v19.691c0 2.85 2.31 5.16 5.16 5.16s5.16-2.311 5.16-5.16v-19.691c.547.19 1.119.29 1.691.29 1.32 0 2.642-.504 3.649-1.511 2.016-2.015 2.016-5.283 0-7.298l-6.848-6.848c-1.922-1.999-5.382-1.999-7.305-.001l-6.848 6.848c-2.016 2.015-2.016 5.283 0 7.298 1.445 1.445 3.533 1.848 5.341 1.222z"/><path d="m195.033 310.029h-43.906c-2.85 0-5.16 2.311-5.16 5.16 0 2.85 2.31 5.16 5.16 5.16h43.906c2.85 0 5.16-2.311 5.16-5.16.001-2.849-2.309-5.16-5.16-5.16z"/></g></g></g><path d="m124.742 209.244c-1.279 0-2.56-.488-3.535-1.465l-5.965-5.964-5.965 5.964c-1.951 1.953-5.119 1.953-7.07 0-1.953-1.952-1.953-5.118 0-7.07l9.5-9.5c1.951-1.953 5.119-1.953 7.07 0l9.5 9.5c1.953 1.952 1.953 5.118 0 7.07-.975.977-2.256 1.465-3.535 1.465z" fill="#6583fe"/><path d="m411.34 49.898c-1.279 0-2.56-.488-3.535-1.465l-5.965-5.964-5.965 5.964c-1.951 1.953-5.119 1.953-7.07 0-1.953-1.952-1.953-5.118 0-7.07l9.5-9.5c1.951-1.953 5.119-1.953 7.07 0l9.5 9.5c1.953 1.952 1.953 5.118 0 7.07-.976.977-2.256 1.465-3.535 1.465z" fill="#00eca2"/><path d="m171.215 424.337c-1.279 0-2.56-.488-3.535-1.465l-5.965-5.964-5.965 5.964c-1.951 1.953-5.119 1.953-7.07 0-1.953-1.952-1.953-5.118 0-7.07l9.5-9.5c1.951-1.953 5.119-1.953 7.07 0l9.5 9.5c1.953 1.952 1.953 5.118 0 7.07-.976.977-2.256 1.465-3.535 1.465z" fill="#ff7eb8"/><path d="m324.715 321.192c-1.279 0-2.56-.488-3.535-1.465l-5.965-5.964-5.965 5.964c-1.951 1.953-5.119 1.953-7.07 0-1.953-1.952-1.953-5.118 0-7.07l9.5-9.5c1.951-1.953 5.119-1.953 7.07 0l9.5 9.5c1.953 1.952 1.953 5.118 0 7.07-.976.977-2.256 1.465-3.535 1.465z" fill="#ff7eb8"/><path d="m105.741 174.338c-3.873 0-7.514-1.509-10.253-4.248-2.738-2.737-4.246-6.379-4.246-10.252s1.508-7.515 4.247-10.253c5.651-5.653 14.852-5.655 20.505 0 2.739 2.738 4.248 6.38 4.248 10.253 0 3.874-1.509 7.515-4.249 10.253-2.737 2.738-6.378 4.247-10.252 4.247zm.001-18.998c-1.152 0-2.305.438-3.183 1.315-.85.851-1.317 1.98-1.317 3.183s.468 2.331 1.317 3.181c.851.852 1.98 1.319 3.182 1.319s2.332-.468 3.182-1.318c.852-.851 1.319-1.98 1.319-3.182s-.468-2.332-1.318-3.182c0 0 0 0 0-.001-.878-.877-2.03-1.315-3.182-1.315z" fill="#00eca2"/></g></g></svg>