<svg id="Capa_1" enable-background="new 0 0 512 512" height="512" viewBox="0 0 512 512" width="512" xmlns="http://www.w3.org/2000/svg" xmlns:xlink="http://www.w3.org/1999/xlink"><linearGradient id="SVGID_1_" gradientUnits="userSpaceOnUse" x1="420.854" x2="181.854" y1="78.879" y2="449.879"><stop offset=".0112" stop-color="#dafced"/><stop offset=".3814" stop-color="#e7f0ed"/><stop offset="1" stop-color="#ffd9ec"/></linearGradient><g><g><path d="m364.823 52.458c-69.098-27.035-164.784-16.764-217.662 31.51-37.336 34.085-8.439 43.8 17.016 106.17 18.423 45.14-164.177 38.927-164.177 120.495 0 94.299 132.251 76.424 181.329 87.218 75.036 16.504 140.496 78.242 220.668 70.103 69.795-7.086 96.403-61.855 106.109-124.642 18.082-116.976-26.329-245.095-143.283-290.854z" fill="url(#SVGID_1_)"/></g><g><path d="m459.366 432.853h-406.732c-2.761 0-5 2.239-5 5v17.914c0 2.761 2.239 5 5 5h6.257v18.796c0 2.761 2.239 5 5 5h23.796c2.761 0 5-2.239 5-5v-18.796h146.415v18.796c0 2.761 2.239 5 5 5h23.796c2.761 0 5-2.239 5-5v-18.796h146.415v18.796c0 2.761 2.239 5 5 5h23.796c2.761 0 5-2.239 5-5v-18.796h6.257c2.761 0 5-2.239 5-5v-17.914c0-2.761-2.239-5-5-5z" fill="#2626bc" opacity=".1"/><g><g><g><g fill="#8399fe"><path d="m87.687 459.564h-23.796c-2.761 0-5-2.239-5-5v-28.796h33.796v28.796c0 2.761-2.239 5-5 5z"/><path d="m267.898 459.564h-23.796c-2.761 0-5-2.239-5-5v-28.796h33.796v28.796c0 2.761-2.239 5-5 5z"/><path d="m448.109 459.564h-23.796c-2.761 0-5-2.239-5-5v-28.796h33.796v28.796c0 2.761-2.239 5-5 5z"/></g><path d="m459.366 435.768h-406.732c-2.761 0-5-2.239-5-5v-17.914c0-2.761 2.239-5 5-5h406.732c2.761 0 5 2.239 5 5v17.914c0 2.761-2.239 5-5 5z" fill="#d2deff"/></g></g></g><g><g><g><path d="m246 407.853h-136.828c-5.523 0-10-4.477-10-10v-136.828c0-5.523 4.477-10 10-10h136.828c5.523 0 10 4.477 10 10v136.828c0 5.523-4.477 10-10 10z" fill="#ffa8cf"/><path d="m192.324 285.385h-29.476c-2.761 0-5-2.239-5-5v-29.36h39.476v29.36c0 2.762-2.238 5-5 5z" fill="#6583fe"/></g><g><g><path d="m148.294 308.091h58.583c2.761 0 5-2.239 5-5s-2.239-5-5-5h-58.583c-2.761 0-5 2.239-5 5s2.239 5 5 5z" fill="#ff5ba8"/></g><g><path d="m163.294 328.413h28.583c2.761 0 5-2.239 5-5s-2.239-5-5-5h-28.583c-2.761 0-5 2.239-5 5s2.239 5 5 5z" fill="#ff5ba8"/></g><g><path d="m163.294 345.734h28.583c2.761 0 5-2.239 5-5s-2.239-5-5-5h-28.583c-2.761 0-5 2.239-5 5s2.239 5 5 5z" fill="#ff5ba8"/></g></g><path d="m150.717 390.137h-22.134c-2.761 0-5-2.239-5-5v-7.154c0-2.761 2.239-5 5-5h22.134c2.761 0 5 2.239 5 5v7.154c0 2.761-2.238 5-5 5z" fill="#02ffb3"/><g fill="#ff5ba8"><circle cx="170.572" cy="381.56" r="8.577"/><circle cx="192.231" cy="381.56" r="8.577"/></g></g><g><g><path d="m402.828 407.853h-136.828c-5.523 0-10-4.477-10-10v-136.828c0-5.523 4.477-10 10-10h136.828c5.523 0 10 4.477 10 10v136.828c0 5.523-4.477 10-10 10z" fill="#ffa8cf"/><path d="m349.152 285.385h-29.476c-2.761 0-5-2.239-5-5v-29.36h39.476v29.36c0 2.762-2.238 5-5 5z" fill="#6583fe"/></g><g><g><path d="m305.123 308.091h58.583c2.761 0 5-2.239 5-5s-2.239-5-5-5h-58.583c-2.761 0-5 2.239-5 5s2.238 5 5 5z" fill="#ff5ba8"/></g><g><path d="m320.123 328.413h28.583c2.761 0 5-2.239 5-5s-2.239-5-5-5h-28.583c-2.761 0-5 2.239-5 5s2.238 5 5 5z" fill="#ff5ba8"/></g><g><path d="m320.123 345.734h28.583c2.761 0 5-2.239 5-5s-2.239-5-5-5h-28.583c-2.761 0-5 2.239-5 5s2.238 5 5 5z" fill="#ff5ba8"/></g></g><path d="m307.545 390.137h-22.134c-2.761 0-5-2.239-5-5v-7.154c0-2.761 2.239-5 5-5h22.134c2.761 0 5 2.239 5 5v7.154c0 2.761-2.238 5-5 5z" fill="#02ffb3"/><g fill="#ff5ba8"><circle cx="327.4" cy="381.56" r="8.577"/><circle cx="349.06" cy="381.56" r="8.577"/></g></g><g><g><path d="m246 251.025h-136.828c-5.523 0-10-4.477-10-10v-136.828c0-5.523 4.477-10 10-10h136.828c5.523 0 10 4.477 10 10v136.828c0 5.523-4.477 10-10 10z" fill="#ffa8cf"/><path d="m192.324 128.557h-29.476c-2.761 0-5-2.239-5-5v-29.36h39.476v29.36c0 2.762-2.238 5-5 5z" fill="#6583fe"/></g><g><g><path d="m148.294 151.263h58.583c2.761 0 5-2.239 5-5s-2.239-5-5-5h-58.583c-2.761 0-5 2.239-5 5s2.239 5 5 5z" fill="#ff5ba8"/></g><g><path d="m163.294 171.585h28.583c2.761 0 5-2.239 5-5s-2.239-5-5-5h-28.583c-2.761 0-5 2.239-5 5s2.239 5 5 5z" fill="#ff5ba8"/></g><g><path d="m163.294 188.906h28.583c2.761 0 5-2.239 5-5s-2.239-5-5-5h-28.583c-2.761 0-5 2.239-5 5s2.239 5 5 5z" fill="#ff5ba8"/></g></g><path d="m150.717 233.309h-22.134c-2.761 0-5-2.239-5-5v-7.154c0-2.761 2.239-5 5-5h22.134c2.761 0 5 2.239 5 5v7.154c0 2.761-2.238 5-5 5z" fill="#02ffb3"/><g fill="#ff5ba8"><circle cx="170.572" cy="224.731" r="8.577"/><circle cx="192.231" cy="224.731" r="8.577"/></g></g><g><g><path d="m402.828 251.025h-136.828c-5.523 0-10-4.477-10-10v-136.828c0-5.523 4.477-10 10-10h136.828c5.523 0 10 4.477 10 10v136.828c0 5.523-4.477 10-10 10z" fill="#ffa8cf"/><path d="m349.152 128.557h-29.476c-2.761 0-5-2.239-5-5v-29.36h39.476v29.36c0 2.762-2.238 5-5 5z" fill="#6583fe"/><path d="m459.366 402.853h-42.413c.556-1.567.875-3.245.875-5v-136.828c0-3.844-1.465-7.343-3.851-10 2.386-2.657 3.851-6.156 3.851-10v-136.828c0-8.271-6.729-15-15-15h-136.828c-3.844 0-7.343 1.466-10 3.851-2.657-2.386-6.156-3.851-10-3.851h-136.828c-8.271 0-15 6.729-15 15v136.828c0 3.844 1.466 7.343 3.851 10-2.386 2.657-3.851 6.156-3.851 10v136.828c0 1.755.319 3.433.875 5h-42.413c-5.514 0-10 4.486-10 10v17.915c0 5.514 4.486 10 10 10h1.257v13.796c0 5.514 4.486 10 10 10h23.796c5.514 0 10-4.486 10-10v-13.796h14.254c2.761 0 5-2.239 5-5s-2.239-5-5-5h-59.307v-17.915h406.732v17.915h-318.172c-2.761 0-5 2.239-5 5s2.239 5 5 5h92.908v13.796c0 5.514 4.486 10 10 10h23.796c5.514 0 10-4.486 10-10v-13.796h136.415v13.796c0 5.514 4.486 10 10 10h23.796c5.514 0 10-4.486 10-10v-13.796h1.257c5.514 0 10-4.486 10-10v-17.915c0-5.514-4.486-10-10-10zm-371.679 37.915v13.796h-23.796v-13.796zm178.313-341.571h136.828c2.757 0 5 2.243 5 5v136.828c0 2.757-2.243 5-5 5h-136.828c-2.757 0-5-2.243-5-5v-136.828c0-2.757 2.243-5 5-5zm-161.828 5c0-2.757 2.243-5 5-5h136.828c2.757 0 5 2.243 5 5v136.828c0 2.757-2.243 5-5 5h-136.828c-2.757 0-5-2.243-5-5zm161.828 298.656c-2.757 0-5-2.243-5-5v-74.701c0-2.761-2.238-5-5-5-2.761 0-5 2.239-5 5v74.701c0 2.757-2.243 5-5 5h-136.828c-2.757 0-5-2.243-5-5v-136.828c0-2.757 2.243-5 5-5h136.828c2.757 0 5 2.243 5 5v32.875c0 2.761 2.239 5 5 5 2.762 0 5-2.239 5-5v-32.875c0-2.757 2.243-5 5-5h136.828c2.757 0 5 2.243 5 5v136.828c0 2.757-2.243 5-5 5zm1.898 51.711h-23.796v-13.796h23.796zm180.211 0h-23.796v-13.796h23.796z" fill="#2626bc"/></g><g><g><path d="m305.123 151.263h58.583c2.761 0 5-2.239 5-5s-2.239-5-5-5h-58.583c-2.761 0-5 2.239-5 5s2.238 5 5 5z" fill="#ff5ba8"/></g><g><path d="m320.123 171.585h28.583c2.761 0 5-2.239 5-5s-2.239-5-5-5h-28.583c-2.761 0-5 2.239-5 5s2.238 5 5 5z" fill="#ff5ba8"/></g><g><path d="m320.123 188.906h28.583c2.761 0 5-2.239 5-5s-2.239-5-5-5h-28.583c-2.761 0-5 2.239-5 5s2.238 5 5 5z" fill="#ff5ba8"/></g></g><path d="m307.545 233.309h-22.134c-2.761 0-5-2.239-5-5v-7.154c0-2.761 2.239-5 5-5h22.134c2.761 0 5 2.239 5 5v7.154c0 2.761-2.238 5-5 5z" fill="#02ffb3"/><g fill="#ff5ba8"><circle cx="327.4" cy="224.731" r="8.577"/><circle cx="349.06" cy="224.731" r="8.577"/></g></g></g><path d="m66.634 219.648c-3.874 0-7.515-1.508-10.253-4.248-5.653-5.653-5.653-14.852 0-20.506 5.653-5.652 14.853-5.653 20.506 0 5.653 5.654 5.653 14.853 0 20.506-2.739 2.739-6.38 4.248-10.253 4.248zm0-18.998c-1.152 0-2.305.438-3.182 1.316-1.755 1.754-1.755 4.609 0 6.364.85.851 1.98 1.318 3.182 1.318s2.332-.468 3.182-1.318c1.755-1.755 1.755-4.61 0-6.364-.877-.878-2.029-1.316-3.182-1.316z" fill="#00eca2"/><path d="m349.982 46.936c-1.279 0-2.56-.488-3.535-1.464l-5.965-5.964-5.965 5.964c-1.951 1.952-5.119 1.952-7.07 0-1.953-1.953-1.953-5.119 0-7.071l9.5-9.5c1.951-1.952 5.119-1.952 7.07 0l9.5 9.5c1.953 1.953 1.953 5.119 0 7.071-.975.976-2.255 1.464-3.535 1.464z" fill="#ff7eb8"/><path d="m454.188 362.728c-3.713 0-7.427-1.414-10.253-4.24-5.654-5.654-5.654-14.853 0-20.506 5.652-5.653 14.854-5.653 20.506 0 5.654 5.654 5.654 14.853 0 20.506-2.827 2.826-6.541 4.24-10.253 4.24zm0-18.992c-1.152 0-2.305.438-3.183 1.316-1.754 1.754-1.754 4.609 0 6.364 1.756 1.755 4.609 1.755 6.365 0 1.754-1.754 1.754-4.609 0-6.364-.878-.877-2.03-1.316-3.182-1.316z" fill="#ff7eb8"/><path d="m458.583 93.672c-3.874 0-7.515-1.508-10.254-4.248-2.738-2.738-4.246-6.379-4.246-10.252s1.508-7.514 4.247-10.253c5.653-5.654 14.854-5.653 20.505 0 2.739 2.739 4.247 6.38 4.247 10.253 0 3.874-1.508 7.515-4.247 10.253-2.738 2.739-6.379 4.247-10.252 4.247zm-.001-18.998c-1.151 0-2.304.438-3.182 1.316-.85.85-1.317 1.98-1.317 3.182s.468 2.332 1.317 3.182c.851.851 1.98 1.318 3.183 1.318 1.201 0 2.331-.468 3.181-1.318.851-.85 1.318-1.98 1.318-3.182s-.468-2.332-1.317-3.182c-.878-.877-2.031-1.316-3.183-1.316z" fill="#00eca2"/><path d="m463.688 128.557c-1.279 0-2.56-.488-3.535-1.464l-5.965-5.964-5.965 5.964c-1.951 1.952-5.119 1.952-7.07 0-1.953-1.953-1.953-5.119 0-7.071l9.5-9.5c1.951-1.952 5.119-1.952 7.07 0l9.5 9.5c1.953 1.953 1.953 5.119 0 7.071-.976.976-2.256 1.464-3.535 1.464z" fill="#6583fe"/></g></g></svg>