<svg id="Capa_1" enable-background="new 0 0 512 512" height="512" viewBox="0 0 512 512" width="512" xmlns="http://www.w3.org/2000/svg" xmlns:xlink="http://www.w3.org/1999/xlink"><linearGradient id="SVGID_1_" gradientUnits="userSpaceOnUse" x1="337.577" x2="228.577" y1="484" y2="123"><stop offset="0" stop-color="#c6d1ff"/><stop offset=".5834" stop-color="#e6d5f4"/><stop offset=".997" stop-color="#ffd9ec"/></linearGradient><g><g><path d="m471.476 135.543c-65.417-50.293-128.867-9.306-199.64-23.797-71.285-14.597-99.685-63.201-180.876-40.766-71.922 19.873-115.562 99.551-76.024 166.258 11.267 19.009 30.461 33.35 38.305 54.619 12.653 34.311-6.607 60.653-2.85 94.372 15.612 140.102 229.574 85.834 308.303 42.245 123.47-68.36 206.998-220.497 112.782-292.931z" fill="url(#SVGID_1_)"/></g><g><g><g fill="#2626bc" opacity=".1"><path d="m113.943 155.379c2.762 0 5-2.238 5-5v-9.206c0-2.762-2.238-5-5-5s-5 2.238-5 5v9.206c0 2.761 2.239 5 5 5z"/><path d="m144.177 117.95c2.762 0 5-2.238 5-5v-9.207c0-2.762-2.238-5-5-5s-5 2.238-5 5v9.207c0 2.762 2.238 5 5 5z"/><path d="m188.729 96.065c2.762 0 5-2.238 5-5v-9.206c0-2.762-2.238-5-5-5s-5 2.238-5 5v9.206c0 2.762 2.238 5 5 5z"/><path d="m118.943 89.391c2.762 0 5-2.238 5-5v-9.206c0-2.762-2.238-5-5-5s-5 2.238-5 5v9.206c0 2.762 2.239 5 5 5z"/><path d="m323.271 96.065c2.762 0 5-2.238 5-5v-9.206c0-2.762-2.238-5-5-5s-5 2.238-5 5v9.206c0 2.762 2.239 5 5 5z"/><path d="m393.057 89.391c2.762 0 5-2.238 5-5v-9.206c0-2.762-2.238-5-5-5s-5 2.238-5 5v9.206c0 2.762 2.238 5 5 5z"/><path d="m458.834 178.423c0-36.328-29.45-65.777-65.778-65.777-7.531 0-14.764 1.271-21.502 3.602.78-.882 1.269-2.028 1.269-3.298v-9.207c0-2.762-2.238-5-5-5s-5 2.238-5 5v9.207c0 2.576 1.955 4.672 4.458 4.945-14.903 6.359-26.98 18.06-33.827 32.699-20.295-11.898-43.076-19.431-67.254-21.099v-12.455c0-5.522-4.478-10-10-10s-10 4.478-10 10v12.429c-76.196 5.048-138.605 68.379-153.149 142.93-.975 4.997 5.352 8.084 8.674 4.226 4.728-5.491 10.427-9.491 16.564-9.491 9.383 0 17.741 9.99 23.165 19.613 1.932 3.428 6.817 3.428 8.75 0 5.424-9.623 13.783-19.613 23.165-19.613 9.383 0 17.748 9.991 23.174 19.615 1.932 3.427 6.815 3.426 8.746-.002 5.423-9.623 13.787-19.613 23.169-19.613 6.657 0 12.797 5.031 17.741 11.39v27.53h-5.703c-2.762 0-5 2.238-5 5s2.238 5 5 5h5.703v111.16c0 12.374-10.067 22.441-22.441 22.441s-22.441-10.067-22.441-22.441v-14.672c0-5.522-4.478-10-10-10s-10 4.478-10 10v14.672c0 23.402 19.039 42.441 42.441 42.441s42.441-19.039 42.441-42.441v-111.16c2.762 0 5-2.238 5-5s-2.238-5-5-5v-28.043c4.873-6.115 10.862-10.877 17.339-10.877 9.383 0 17.747 9.99 23.169 19.613 1.931 3.427 6.814 3.428 8.746.002 5.427-9.623 13.792-19.615 23.174-19.615s17.741 9.99 23.165 19.613c1.932 3.428 6.817 3.428 8.75 0 5.424-9.623 13.782-19.613 23.165-19.613 6.137 0 11.836 4 16.564 9.491 3.322 3.858 9.649.771 8.674-4.226-2.031-10.413-5.005-20.604-8.812-30.452 28.048-7.521 48.701-33.105 48.701-63.524z"/></g><g><g><path d="m223.76 444.656c-23.402 0-42.441-19.039-42.441-42.441v-14.672c0-5.522 4.478-10 10-10s10 4.478 10 10v14.672c0 12.374 10.067 22.441 22.441 22.441s22.441-10.067 22.441-22.441v-153.996c0-5.522 4.478-10 10-10s10 4.478 10 10v153.995c0 23.403-19.039 42.442-42.441 42.442z" fill="#6583fe"/></g><g><path d="m266.201 303.683v-55.464c0-5.522-4.478-10-10-10s-10 4.478-10 10v55.464z" fill="#4369fd"/></g><g><path d="m266.201 402.214c0 23.402-19.039 42.441-42.441 42.441s-42.441-19.039-42.441-42.441v-14.672c0-5.522 4.478-10 10-10s10 4.478 10 10v14.672c0 12.374 10.067 22.441 22.441 22.441s22.441-10.067 22.441-22.441z" fill="#01eca5"/></g><g><path d="m256.201 118.127c-5.522 0-10-4.478-10-10v-16.086c0-5.522 4.478-10 10-10s10 4.478 10 10v16.086c0 5.522-4.477 10-10 10z" fill="#6583fe"/></g><path d="m418.948 247.4c.975 4.997-5.352 8.084-8.674 4.226-4.728-5.491-10.427-9.491-16.564-9.491-9.383 0-17.741 9.99-23.165 19.613-1.932 3.428-6.817 3.428-8.75 0-5.424-9.623-13.783-19.613-23.165-19.613-9.383 0-17.748 9.991-23.174 19.615-1.932 3.427-6.815 3.426-8.746-.002-5.423-9.623-13.787-19.613-23.169-19.613s-17.741 9.99-23.165 19.613c-1.932 3.428-6.817 3.428-8.75 0-5.424-9.623-13.783-19.613-23.165-19.613s-17.747 9.99-23.169 19.613c-1.931 3.427-6.814 3.428-8.746.002-5.427-9.623-13.791-19.615-23.174-19.615s-17.741 9.99-23.165 19.613c-1.932 3.428-6.817 3.428-8.75 0-5.424-9.623-13.783-19.613-23.165-19.613-6.137 0-11.836 4-16.564 9.491-3.322 3.858-9.649.771-8.674-4.226 15.163-77.724 82.35-143.265 162.948-143.265s147.783 65.541 162.946 143.265z" fill="#ff5ba8"/><path d="m416.58 236.969c-7.3 2.81-15.23 4.34-23.52 4.34-36.33 0-65.78-29.45-65.78-65.78 0-16.66 6.19-31.86 16.39-43.45 35.41 24.36 61.92 62.37 72.91 104.89z" fill="#fe2c8f"/><path d="m338.63 242.139c-9.38 0-17.75 9.99-23.17 19.61-1.94 3.43-6.82 3.43-8.75 0-5.42-9.62-13.79-19.61-23.17-19.61s-17.74 9.99-23.17 19.61c-1.93 3.43-6.81 3.43-8.74 0-5.43-9.62-13.79-19.61-23.17-19.61s-17.75 9.99-23.17 19.61c-1.93 3.43-6.81 3.43-8.75 0-5.42-9.62-13.79-19.61-23.17-19.61 13.91-85.37 45.28-138 82.63-138s68.72 52.63 82.63 138z" fill="#ff7eb8"/></g><g fill="#2626bc"><g><path d="m113.943 130.379c-2.762 0-5-2.238-5-5v-9.206c0-2.762 2.238-5 5-5s5 2.238 5 5v9.206c0 2.761-2.238 5-5 5z"/><path d="m144.177 92.95c-2.762 0-5-2.238-5-5v-9.207c0-2.762 2.238-5 5-5s5 2.238 5 5v9.207c0 2.762-2.239 5-5 5z"/><path d="m188.729 71.065c-2.762 0-5-2.238-5-5v-9.206c0-2.762 2.238-5 5-5s5 2.238 5 5v9.206c0 2.762-2.239 5-5 5z"/><path d="m118.943 64.391c-2.762 0-5-2.238-5-5v-9.206c0-2.762 2.238-5 5-5s5 2.238 5 5v9.206c0 2.762-2.238 5-5 5z"/></g><g><path d="m398.057 130.379c-2.762 0-5-2.238-5-5v-9.206c0-2.762 2.238-5 5-5s5 2.238 5 5v9.206c0 2.761-2.239 5-5 5z"/><path d="m367.823 92.95c-2.762 0-5-2.238-5-5v-9.207c0-2.762 2.238-5 5-5s5 2.238 5 5v9.207c0 2.762-2.238 5-5 5z"/><path d="m323.271 71.065c-2.762 0-5-2.238-5-5v-9.206c0-2.762 2.238-5 5-5s5 2.238 5 5v9.206c0 2.762-2.238 5-5 5z"/><path d="m393.057 64.391c-2.762 0-5-2.238-5-5v-9.206c0-2.762 2.238-5 5-5s5 2.238 5 5v9.206c0 2.762-2.239 5-5 5z"/></g></g><g><g><circle cx="393.057" cy="153.423" fill="#02ffb3" r="65.777"/><path d="m463.834 153.423c0-39.026-31.751-70.777-70.777-70.777s-70.777 31.751-70.777 70.777 31.751 70.777 70.777 70.777c4.769 0 9.427-.481 13.934-1.385 2.989 8.334 5.354 16.882 7.038 25.508-6.316-7.32-13.341-11.189-20.319-11.189-13.079 0-22.856 13.883-27.56 22.158-4.664-8.275-14.441-22.158-27.521-22.158s-22.862 13.884-27.564 22.159c-4.663-8.276-14.439-22.159-27.525-22.159-13.079 0-22.856 13.883-27.56 22.158-4.664-8.275-14.441-22.158-27.521-22.158-13.086 0-22.862 13.883-27.56 22.159-4.667-8.275-14.448-22.159-27.53-22.159-13.079 0-22.856 13.883-27.56 22.158-4.664-8.275-14.441-22.158-27.521-22.158-6.963 0-13.974 3.854-20.323 11.188 7.309-37.424 26.977-72.227 55.382-97.999 29.273-26.562 65.729-41.189 102.651-41.189 16.589 0 33.034 2.88 48.88 8.56 2.599.929 5.462-.419 6.395-3.02.932-2.6-.421-5.463-3.02-6.395-12.08-4.329-24.49-7.128-37.054-8.381v-7.859c0-8.271-6.729-15-15-15s-15 6.729-15 15v7.824c-34.241 3.374-67.361 18.363-94.572 43.053-30 27.22-50.77 63.986-58.483 103.524-.88 4.505 1.313 8.883 5.458 10.894 4.139 2.01 8.923 1.023 11.912-2.447 3.045-3.537 7.733-7.754 12.774-7.754 5.754 0 12.785 6.381 18.81 17.068 1.806 3.204 5.069 5.116 8.73 5.116s6.925-1.912 8.73-5.116c6.024-10.688 13.056-17.068 18.81-17.068 5.757 0 12.792 6.382 18.819 17.07 1.805 3.202 5.067 5.114 8.728 5.114s6.924-1.913 8.73-5.117c6.021-10.687 13.054-17.067 18.813-17.067 3.898 0 8.381 2.936 12.741 8.147v25.773h-.703c-2.762 0-5 2.238-5 5s2.238 5 5 5h.703v111.16c0 9.617-7.824 17.441-17.441 17.441s-17.441-7.824-17.441-17.441v-14.672c0-8.271-6.729-15-15-15s-15 6.729-15 15v14.672c0 26.159 21.282 47.441 47.441 47.441s47.441-21.282 47.441-47.441v-34.134c0-2.762-2.238-5-5-5s-5 2.238-5 5v34.134c0 20.646-16.796 37.441-37.441 37.441s-37.441-16.796-37.441-37.441v-14.672c0-2.757 2.243-5 5-5s5 2.243 5 5v14.672c0 15.131 12.311 27.441 27.441 27.441s27.441-12.311 27.441-27.441v-111.16h10v47.774c0 2.762 2.238 5 5 5s5-2.238 5-5v-84.014c4.233-4.915 8.561-7.68 12.339-7.68 5.759 0 12.791 6.381 18.813 17.068 1.806 3.203 5.069 5.116 8.729 5.116s6.923-1.912 8.728-5.113c6.028-10.689 13.063-17.071 18.819-17.071 5.754 0 12.785 6.381 18.81 17.068 1.806 3.204 5.069 5.116 8.73 5.116s6.925-1.912 8.73-5.116c6.024-10.688 13.056-17.068 18.81-17.068 5.041 0 9.729 4.216 12.774 7.754 2.988 3.47 7.776 4.457 11.912 2.447 4.145-2.011 6.338-6.389 5.458-10.893-1.727-8.855-4.145-17.685-7.197-26.303 27.458-9.74 47.18-35.962 47.18-66.715zm-212.633-61.382c0-2.757 2.243-5 5-5s5 2.243 5 5v7.191c-1.732-.059-3.466-.097-5.201-.097-1.601 0-3.2.035-4.799.086zm0 189.013v-12.961c1.439.786 3.071 1.226 4.799 1.226 1.89 0 3.669-.518 5.201-1.452v13.187zm141.856-66.853c-33.513 0-60.777-27.265-60.777-60.777s27.265-60.777 60.777-60.777 60.777 27.265 60.777 60.777-27.265 60.777-60.777 60.777z" fill="#2626bc"/></g><g><path d="m383.814 188.776c-.219 0-.438-.009-.657-.029-2.818-.247-5.258-2.059-6.309-4.686l-8.117-20.294c-.164-.412-.558-.678-1.001-.678-4.143 0-7.5-3.358-7.5-7.5s3.357-7.5 7.5-7.5c6.612 0 12.473 3.967 14.929 10.107l2.606 6.516 26.748-43.098c2.185-3.52 6.809-4.601 10.327-2.417 3.52 2.185 4.602 6.808 2.417 10.328l-34.573 55.707c-1.375 2.216-3.793 3.544-6.37 3.544z" fill="#fff"/></g></g></g><path d="m196.038 330.346c-1.279 0-2.56-.488-3.535-1.465l-5.965-5.964-5.965 5.964c-1.951 1.953-5.119 1.953-7.07 0-1.953-1.952-1.953-5.118 0-7.07l9.5-9.5c1.951-1.953 5.119-1.953 7.07 0l9.5 9.5c1.953 1.952 1.953 5.118 0 7.07-.975.977-2.256 1.465-3.535 1.465z" fill="#ff7eb8"/><path d="m347.688 375.285c-1.279 0-2.56-.488-3.535-1.465l-5.965-5.964-5.965 5.964c-1.951 1.953-5.119 1.953-7.07 0-1.953-1.952-1.953-5.118 0-7.07l9.5-9.5c1.951-1.953 5.119-1.953 7.07 0l9.5 9.5c1.953 1.952 1.953 5.118 0 7.07-.976.977-2.256 1.465-3.535 1.465z" fill="#6583fe"/><path d="m95.281 169.879c-1.279 0-2.56-.488-3.535-1.465l-5.965-5.964-5.965 5.964c-1.951 1.953-5.119 1.953-7.07 0-1.953-1.952-1.953-5.118 0-7.07l9.5-9.5c1.951-1.953 5.119-1.953 7.07 0l9.5 9.5c1.953 1.952 1.953 5.118 0 7.07-.975.976-2.255 1.465-3.535 1.465z" fill="#ff7eb8"/><path d="m281.241 64.677c-3.713 0-7.427-1.413-10.253-4.24-5.654-5.653-5.654-14.852 0-20.505 5.652-5.654 14.854-5.654 20.506 0 5.654 5.653 5.654 14.852 0 20.505-2.826 2.827-6.54 4.24-10.253 4.24zm0-18.99c-1.152 0-2.305.438-3.183 1.315-1.754 1.755-1.754 4.609 0 6.364 1.756 1.754 4.609 1.754 6.365 0 1.754-1.755 1.754-4.609 0-6.364-.877-.876-2.029-1.315-3.182-1.315z" fill="#00eca2"/><path d="m138.799 367.881c-3.713 0-7.427-1.413-10.253-4.24-5.653-5.652-5.653-14.852-.001-20.506 5.655-5.655 14.855-5.653 20.507 0h.001c5.652 5.654 5.652 14.854-.001 20.506-2.826 2.827-6.54 4.24-10.253 4.24zm0-18.991c-1.152 0-2.305.438-3.183 1.315-1.754 1.755-1.754 4.61 0 6.365 1.756 1.754 4.609 1.754 6.365 0 1.754-1.755 1.754-4.61-.001-6.365-.876-.876-2.029-1.315-3.181-1.315z" fill="#6583fe"/></g></g></svg>