<svg id="Capa_1" enable-background="new 0 0 512 512" height="512" viewBox="0 0 512 512" width="512" xmlns="http://www.w3.org/2000/svg" xmlns:xlink="http://www.w3.org/1999/xlink"><linearGradient id="SVGID_1_" gradientUnits="userSpaceOnUse" x1="162.196" x2="412.196" y1="208.063" y2="312.063"><stop offset="0" stop-color="#c6d1ff"/><stop offset=".5834" stop-color="#e6d5f4"/><stop offset=".997" stop-color="#ffd9ec"/></linearGradient><g><g><path d="m330.117.425c-95.817 8.652-105.09 192.428-146.416 286.587-20.478 46.658-68.772 94.794-60.258 149.782 9.605 62.035 72.897 80.075 121.683 74.14 120.723-14.685 172.899-141.053 180.797-260.801 4.87-73.829 20.301-260.192-95.806-249.708z" fill="url(#SVGID_1_)"/></g><g><path d="m394.885 190.449c0-26.076-17.358-48.086-41.145-55.139v-30.52c0-11.04-8.96-20-20-20h-181.98c-11.04 0-20 8.96-20 20v352.42c0 11.04 8.96 20 20 20h181.98c11.04 0 20-8.96 20-20v-211.623c23.788-7.053 41.145-29.063 41.145-55.138z" fill="#2626bc" opacity=".1"/><g><g><path d="m353.741 79.79v352.42c0 11.04-8.96 20-20 20h-181.98c-11.04 0-20-8.96-20-20v-352.42c0-11.04 8.96-20 20-20h181.98c11.04 0 20 8.96 20 20z" fill="#ffa8cf"/><path d="m353.741 132.316v110.29c-5.19 1.54-10.68 2.37-16.37 2.37-31.77 0-57.52-25.75-57.52-57.52 0-31.76 25.75-57.51 57.52-57.51 5.69 0 11.18.83 16.37 2.37z" fill="#ff7eb8"/><path d="m131.761 258.577v173.633c0 11.04 8.96 20 20 20h181.98c11.04 0 20-8.96 20-20v-173.633z" fill="#ff7eb8"/><path d="m131.761 258.577h221.98v15.705h-221.98z" fill="#ff5ba8"/><g fill="#ffdbed"><path d="m288.234 88.826h-90.967c-4.268 0-8.065-2.708-9.455-6.743l-7.677-22.29h125.232l-7.677 22.29c-1.39 4.034-5.188 6.743-9.456 6.743z"/><path d="m197.267 423.174h90.967c4.268 0 8.065 2.708 9.455 6.743l7.677 22.29h-125.231l7.677-22.29c1.39-4.034 5.187-6.743 9.455-6.743z"/></g></g><path d="m396.243 85.206c-1.28 0-2.559-.488-3.536-1.465l-5.964-5.964-5.964 5.964c-1.953 1.953-5.118 1.953-7.071 0-1.953-1.952-1.953-5.118 0-7.07l9.5-9.5c1.953-1.953 5.118-1.953 7.071 0l9.5 9.5c1.953 1.952 1.953 5.118 0 7.07-.977.977-2.256 1.465-3.536 1.465z" fill="#6583fe"/><path d="m110.758 180.854c-1.28 0-2.559-.488-3.536-1.465l-5.964-5.964-5.964 5.964c-1.953 1.953-5.118 1.953-7.071 0-1.953-1.952-1.953-5.118 0-7.07l9.5-9.5c1.953-1.953 5.118-1.953 7.071 0l9.5 9.5c1.953 1.952 1.953 5.118 0 7.07-.977.976-2.257 1.465-3.536 1.465z" fill="#6583fe"/><path d="m96.757 411.703c-3.713 0-7.426-1.413-10.253-4.24-5.654-5.653-5.654-14.853 0-20.506 5.653-5.655 14.853-5.654 20.506 0 5.654 5.653 5.654 14.853 0 20.506-2.826 2.827-6.54 4.24-10.253 4.24zm.001-18.991c-1.153 0-2.305.438-3.182 1.315-1.755 1.755-1.755 4.61 0 6.365 1.753 1.754 4.609 1.754 6.364 0 1.755-1.755 1.755-4.61 0-6.365-.878-.877-2.03-1.315-3.182-1.315z" fill="#00eca2"/></g><g><path d="m226.637 390.657h-59.584c-2.761 0-5-2.239-5-5v-17.288c0-2.761 2.239-5 5-5h59.584c2.761 0 5 2.239 5 5v17.288c0 2.762-2.239 5-5 5z" fill="#fe2c8f"/><path d="m318.449 390.657h-59.584c-2.761 0-5-2.239-5-5v-17.288c0-2.761 2.239-5 5-5h59.584c2.761 0 5 2.239 5 5v17.288c0 2.762-2.239 5-5 5z" fill="#01eca5"/></g><g><g><path d="m318.052 292.623h-41.403c-2.761 0-5-2.239-5-5s2.239-5 5-5h41.403c2.761 0 5 2.239 5 5s-2.238 5-5 5z" fill="#01eca5"/></g><g><path d="m317.932 320.884h-150.483c-2.761 0-5-2.239-5-5s2.239-5 5-5h150.483c2.761 0 5 2.239 5 5s-2.239 5-5 5z" fill="#fff"/></g><g><path d="m318.052 339.387h-150.482c-2.761 0-5-2.239-5-5s2.239-5 5-5h150.483c2.761 0 5 2.239 5 5s-2.239 5-5.001 5z" fill="#fff"/></g></g><g fill="#fff"><path d="m207.361 126.63c-2.761 0-5 2.238-5 5v19.396c0 3.959-2.211 7.412-5.463 9.188v-28.584c0-2.762-2.239-5-5-5s-5 2.238-5 5v28.585c-3.252-1.777-5.464-5.229-5.464-9.188v-19.397c0-2.762-2.239-5-5-5s-5 2.238-5 5v19.396c0 9.556 6.594 17.579 15.464 19.819v56.636c0 2.762 2.239 5 5 5s5-2.238 5-5v-56.636c8.87-2.24 15.463-10.264 15.463-19.819v-19.396c0-2.762-2.239-5-5-5z"/><path d="m225.755 126.702c-1.451-.243-2.943.154-4.071 1.104s-1.779 2.35-1.779 3.824v64.145 31.707c0 2.762 2.239 5 5 5s5-2.238 5-5v-26.707h18.692c2.761 0 5-2.238 5-5v-36.016c.001-16.371-11.709-30.274-27.842-33.057zm17.843 64.072h-13.692v-52.409c8.196 3.759 13.692 11.996 13.692 21.394z"/></g><g><g><circle cx="337.369" cy="165.449" fill="#01eca5" r="57.517"/><path d="m350.682 216.26c-2.671.698-4.271 3.43-3.573 6.102.587 2.248 2.614 3.737 4.834 3.737.418 0 .844-.053 1.268-.163 27.481-7.181 46.675-32.054 46.675-60.486 0-26.97-17.167-50.004-41.147-58.753v-26.904c0-13.785-11.215-25-25-25h-181.976c-13.785 0-25 11.215-25 25v352.414c0 13.785 11.215 25 25 25h181.975c13.785 0 25-11.215 25-25v-182.794c0-2.762-2.239-5-5-5s-5 2.238-5 5v182.794c0 8.271-6.729 15-15 15h-181.975c-8.271 0-15-6.729-15-15v-352.414c0-8.271 6.729-15 15-15h181.975c8.271 0 15 6.729 15 15v24.194c-3.69-.681-7.485-1.055-11.369-1.055-34.472 0-62.517 28.045-62.517 62.518 0 28.38 19.15 53.24 46.57 60.455 2.672.703 5.406-.891 6.108-3.563.703-2.671-.893-5.405-3.563-6.107-23.03-6.061-39.115-26.944-39.115-50.785 0-28.958 23.559-52.518 52.517-52.518s52.517 23.56 52.517 52.518c-.001 23.885-16.122 44.779-39.204 50.81z" fill="#2626bc"/></g></g><g><path d="m361.619 154.196c0-13.621-11.23-24.619-24.937-24.241-13.031.36-23.511 11.105-23.564 24.141-.021 5.163 1.573 9.952 4.304 13.894 3.15 4.546 5.906 9.352 8.189 14.389l10 22.069c.684 1.511 2.83 1.511 3.514 0l10.077-22.238c2.273-5.016 5.062-9.774 8.177-14.315 2.675-3.897 4.24-8.615 4.24-13.699z" fill="#ff7eb8"/><circle cx="337.284" cy="154.376" fill="#fff" r="14.011"/></g><path d="m415.242 124.939c-3.713 0-7.426-1.413-10.253-4.24-5.654-5.653-5.654-14.853 0-20.506 5.653-5.655 14.853-5.655 20.506 0 5.654 5.653 5.654 14.853 0 20.506-2.826 2.827-6.539 4.24-10.253 4.24zm.001-18.991c-1.153 0-2.305.438-3.182 1.315-1.755 1.755-1.755 4.61 0 6.365 1.753 1.754 4.609 1.754 6.364 0 1.755-1.755 1.755-4.61 0-6.365-.877-.876-2.03-1.315-3.182-1.315z" fill="#ff7eb8"/><path d="m396.243 401.563c-1.28 0-2.559-.488-3.536-1.465l-5.964-5.964-5.964 5.964c-1.953 1.953-5.118 1.953-7.071 0-1.953-1.952-1.953-5.118 0-7.07l9.5-9.5c1.953-1.953 5.118-1.953 7.071 0l9.5 9.5c1.953 1.952 1.953 5.118 0 7.07-.977.976-2.256 1.465-3.536 1.465z" fill="#6583fe"/></g></g></svg>