<svg id="Capa_1" enable-background="new 0 0 512 512" height="512" viewBox="0 0 512 512" width="512" xmlns="http://www.w3.org/2000/svg" xmlns:xlink="http://www.w3.org/1999/xlink"><linearGradient id="SVGID_1_" gradientUnits="userSpaceOnUse" x1="195.32" x2="322.32" y1="76.83" y2="447.83"><stop offset=".0112" stop-color="#dafced"/><stop offset=".3814" stop-color="#e7f0ed"/><stop offset="1" stop-color="#ffd9ec"/></linearGradient><g><g><path d="m501.873 139.504c-22.357-56.888-91.226-91.003-149.556-68.427-66.582 25.769-44.506 131.673-104.983 153.088-32.669 11.568-80.963-31.644-113.969-38.27-60.821-12.21-115.881 30.705-129.439 90.134-13.832 60.63 8.353 141.61 74.967 158.066 79.35 19.602 120.683-51.729 187.249-72.211 68.31-21.019 144.263 28.622 200.814-31.776 41.78-44.621 57.055-134.272 34.917-190.604z" fill="url(#SVGID_1_)"/></g><g><g><path d="m478.781 138.606c0-31.766-25.751-57.517-57.517-57.517s-57.517 25.751-57.517 57.517c0 3.031.238 6.005.69 8.909h-69.52l8.913-8.913c4.134-4.134 4.134-10.837 0-14.971s-10.837-4.134-14.971 0l-22.277 22.277c-.052-5.802-4.767-10.49-10.581-10.49s-10.529 4.688-10.581 10.49l-22.277-22.277c-4.134-4.134-10.837-4.134-14.971 0s-4.134 10.837 0 14.971l8.913 8.913h-153.028c-2.761 0-5 2.239-5 5v60.341c0 2.761 2.239 5 5 5-2.761 0-5 2.239-5 5v60.341c0 2.761 2.239 5 5 5-2.761 0-5 2.239-5 5v60.341c0 2.761 2.239 5 5 5-2.761 0-5 2.239-5 5v60.341c0 2.761 2.239 5 5 5h181.357v1.51c0 5.846 4.739 10.586 10.586 10.586s10.586-4.74 10.586-10.586v-1.51h181.357c2.761 0 5-2.239 5-5v-60.341c0-2.761-2.239-5-5-5 2.761 0 5-2.239 5-5v-60.341c0-2.761-2.239-5-5-5 2.761 0 5-2.239 5-5v-60.341c0-2.761-2.239-5-5-5 2.761 0 5-2.239 5-5v-26.249c15.565-10.293 25.838-27.943 25.838-48.001z" fill="#2626bc" opacity=".1"/><g><g fill="#00d890"><path d="m285.751 131.681 18.078-18.078c4.134-4.134 4.134-10.837 0-14.971-4.134-4.134-10.837-4.134-14.971 0l-33.049 33.049z"/><path d="m226.249 131.681h29.941l-33.049-33.049c-4.134-4.134-10.837-4.134-14.971 0-4.134 4.134-4.134 10.837 0 14.971z"/></g><g><g><path d="m447.943 403.88h-383.886c-2.761 0-5-2.239-5-5v-60.341c0-2.761 2.239-5 5-5h383.886c2.761 0 5 2.239 5 5v60.341c0 2.761-2.239 5-5 5z" fill="#b7c5ff"/><g><path d="m100.448 333.539h29.638v70.036h-29.638z" fill="#01eca5"/><path d="m130.085 333.539h29.638v70.036h-29.638z" fill="#ff5ba8"/></g><path d="m452.94 352.689v46.19c0 2.761-2.239 5-5 5h-383.88c-2.761 0-5-2.239-5-5v-46.19h166.692c2.422 0 4.531 1.731 4.918 4.122 1.973 12.209 12.564 21.528 25.33 21.528 12.767 0 23.358-9.319 25.33-21.528.386-2.391 2.495-4.122 4.918-4.122z" fill="#d2deff"/><g><path d="m100.448 352.689h29.638v50.886h-29.638z" fill="#02ffb3"/><path d="m130.085 352.689h29.638v50.886h-29.638z" fill="#ff7eb8"/></g><g><path d="m165.077 379.139h-76.52c-2.762 0-5-2.239-5-5s2.238-5 5-5h76.52c2.762 0 5 2.239 5 5s-2.238 5-5 5z" fill="#fff"/></g><g><path d="m424.524 379.139h-6.52c-2.762 0-5-2.239-5-5s2.238-5 5-5h6.52c2.762 0 5 2.239 5 5s-2.239 5-5 5z" fill="#fff"/></g><g><path d="m397.973 379.139h-61.52c-2.762 0-5-2.239-5-5s2.238-5 5-5h61.52c2.762 0 5 2.239 5 5s-2.238 5-5 5z" fill="#fff"/></g></g><g><path d="m447.943 333.539h-383.886c-2.761 0-5-2.239-5-5v-60.341c0-2.761 2.239-5 5-5h383.886c2.761 0 5 2.239 5 5v60.341c0 2.761-2.239 5-5 5z" fill="#b7c5ff"/><g><path d="m100.448 263.198h29.638v70.036h-29.638z" fill="#01eca5"/><path d="m130.085 263.198h29.638v70.036h-29.638z" fill="#ff5ba8"/></g><path d="m452.94 282.348v46.19c0 2.761-2.239 5-5 5h-383.88c-2.761 0-5-2.239-5-5v-46.19h166.692c2.422 0 4.531 1.731 4.918 4.122 1.973 12.209 12.564 21.528 25.33 21.528 12.767 0 23.358-9.319 25.33-21.528.386-2.391 2.495-4.122 4.918-4.122z" fill="#d2deff"/><g><path d="m100.448 282.348h29.638v50.886h-29.638z" fill="#02ffb3"/><path d="m130.085 282.348h29.638v50.886h-29.638z" fill="#ff7eb8"/></g><g><path d="m165.077 308.798h-76.52c-2.762 0-5-2.239-5-5s2.238-5 5-5h76.52c2.762 0 5 2.239 5 5s-2.238 5-5 5z" fill="#fff"/></g><g><path d="m424.524 308.798h-6.52c-2.762 0-5-2.239-5-5s2.238-5 5-5h6.52c2.762 0 5 2.239 5 5s-2.239 5-5 5z" fill="#fff"/></g><g><path d="m397.973 308.798h-61.52c-2.762 0-5-2.239-5-5s2.238-5 5-5h61.52c2.762 0 5 2.239 5 5s-2.238 5-5 5z" fill="#fff"/></g></g><g><path d="m447.943 263.198h-383.886c-2.761 0-5-2.239-5-5v-60.341c0-2.761 2.239-5 5-5h383.886c2.761 0 5 2.239 5 5v60.341c0 2.761-2.239 5-5 5z" fill="#b7c5ff"/><g><path d="m100.448 192.857h29.638v70.036h-29.638z" fill="#01eca5"/><path d="m130.085 192.857h29.638v70.036h-29.638z" fill="#ff5ba8"/></g><path d="m452.94 212.007v46.19c0 2.761-2.239 5-5 5h-383.88c-2.761 0-5-2.239-5-5v-46.19h166.692c2.422 0 4.531 1.731 4.918 4.122 1.973 12.209 12.564 21.528 25.33 21.528 12.767 0 23.358-9.319 25.33-21.528.386-2.391 2.495-4.122 4.918-4.122z" fill="#d2deff"/><g><path d="m100.448 212.007h29.638v50.886h-29.638z" fill="#02ffb3"/><path d="m130.085 212.007h29.638v50.886h-29.638z" fill="#ff7eb8"/></g><g><path d="m165.077 238.457h-76.52c-2.762 0-5-2.239-5-5s2.238-5 5-5h76.52c2.762 0 5 2.239 5 5s-2.238 5-5 5z" fill="#fff"/></g><g><path d="m424.524 238.457h-6.52c-2.762 0-5-2.239-5-5s2.238-5 5-5h6.52c2.762 0 5 2.239 5 5s-2.239 5-5 5z" fill="#fff"/></g><g><path d="m397.973 238.457h-61.52c-2.762 0-5-2.239-5-5s2.238-5 5-5h61.52c2.762 0 5 2.239 5 5s-2.238 5-5 5z" fill="#fff"/></g></g><g><path d="m447.943 192.857h-383.886c-2.761 0-5-2.239-5-5v-60.341c0-2.761 2.239-5 5-5h383.886c2.761 0 5 2.239 5 5v60.341c0 2.761-2.239 5-5 5z" fill="#b7c5ff"/><g><path d="m100.448 122.516h29.638v70.036h-29.638z" fill="#01eca5"/><path d="m130.085 122.516h29.638v70.036h-29.638z" fill="#ff5ba8"/></g><path d="m452.94 141.663v46.19c0 2.76-2.24 5-5 5h-383.88c-2.76 0-5-2.24-5-5v-46.19h166.69c2.42 0 4.53 1.73 4.92 4.13 1.97 12.2 12.56 21.52 25.33 21.52s23.36-9.32 25.33-21.52c.39-2.4 2.5-4.13 4.92-4.13z" fill="#d2deff"/><path d="m452.94 141.663v38.02c-9.09 6.01-19.98 9.51-31.68 9.51-28.36 0-51.92-20.53-56.64-47.53z" fill="#b7c5ff"/><g><path d="m100.448 141.666h29.638v50.886h-29.638z" fill="#02ffb3"/><path d="m130.085 141.666h29.638v50.886h-29.638z" fill="#ff7eb8"/></g><g><path d="m165.077 168.116h-76.52c-2.762 0-5-2.239-5-5s2.238-5 5-5h76.52c2.762 0 5 2.239 5 5s-2.238 5-5 5z" fill="#fff"/></g><g><path d="m424.524 168.116h-6.52c-2.762 0-5-2.239-5-5s2.238-5 5-5h6.52c2.762 0 5 2.239 5 5s-2.239 5-5 5z" fill="#fff"/></g><g><path d="m402.97 163.113c0 2.76-2.24 5-5 5h-61.52c-2.76 0-5-2.24-5-5s2.24-5 5-5h61.52c2.76 0 5 2.24 5 5z" fill="#fff"/></g><path d="m402.97 163.113c0 2.76-2.24 5-5 5h-21.2c-2.53-3.08-4.74-6.43-6.59-10h27.79c2.76 0 5 2.24 5 5z" fill="#d2deff"/></g></g><g><path d="m256 415.976c-5.846 0-10.586-4.739-10.586-10.586v-284.385c0-5.846 4.739-10.586 10.586-10.586 5.846 0 10.586 4.739 10.586 10.586v284.385c0 5.847-4.74 10.586-10.586 10.586z" fill="#02ffb3"/></g></g><g><circle cx="421.264" cy="113.606" fill="#01eca5" r="57.517"/><g><path d="m445.514 102.354c0-13.621-11.23-24.619-24.937-24.241-13.031.36-23.511 11.105-23.564 24.141-.021 5.163 1.573 9.952 4.304 13.894 3.15 4.546 5.906 9.352 8.189 14.389l10 22.069c.684 1.511 2.83 1.511 3.514 0l10.077-22.238c2.273-5.016 5.062-9.774 8.177-14.315 2.675-3.897 4.24-8.615 4.24-13.699z" fill="#ff7eb8"/><circle cx="421.179" cy="102.533" fill="#fff" r="14.011"/></g></g><path d="m320.596 74.659c-1.28 0-2.559-.488-3.536-1.465l-5.964-5.964-5.964 5.964c-1.953 1.953-5.118 1.953-7.071 0-1.953-1.952-1.953-5.118 0-7.07l9.5-9.5c1.953-1.953 5.118-1.953 7.071 0l9.5 9.5c1.953 1.952 1.953 5.118 0 7.07-.977.977-2.256 1.465-3.536 1.465z" fill="#6583fe"/><path d="m230.63 460.91c-1.28 0-2.559-.488-3.536-1.465l-5.964-5.964-5.964 5.964c-1.953 1.953-5.118 1.953-7.071 0-1.953-1.952-1.953-5.118 0-7.07l9.5-9.5c1.953-1.953 5.118-1.953 7.071 0l9.5 9.5c1.953 1.952 1.953 5.118 0 7.07-.977.977-2.256 1.465-3.536 1.465z" fill="#6583fe"/><path d="m194.58 441.644c-1.28 0-2.559-.488-3.536-1.465l-5.964-5.964-5.964 5.964c-1.953 1.953-5.118 1.953-7.071 0-1.953-1.952-1.953-5.118 0-7.07l9.5-9.5c1.953-1.953 5.118-1.953 7.071 0l9.5 9.5c1.953 1.952 1.953 5.118 0 7.07-.977.976-2.257 1.465-3.536 1.465z" fill="#ff7eb8"/><g fill="#00eca2"><path d="m159.723 102.151c-3.713 0-7.427-1.413-10.253-4.24-5.653-5.653-5.653-14.852 0-20.505 5.653-5.654 14.853-5.654 20.506 0 5.653 5.653 5.653 14.852 0 20.505-2.827 2.827-6.54 4.24-10.253 4.24zm0-18.99c-1.152 0-2.305.438-3.182 1.315-1.754 1.755-1.754 4.609 0 6.364 1.753 1.754 4.609 1.753 6.364 0 1.754-1.755 1.754-4.609 0-6.364-.877-.876-2.03-1.315-3.182-1.315z"/><path d="m478.781 207.35c-3.713 0-7.426-1.413-10.253-4.24-5.653-5.653-5.653-14.852 0-20.505 2.738-2.739 6.38-4.248 10.253-4.248 3.874 0 7.515 1.509 10.253 4.248 5.653 5.653 5.653 14.852 0 20.505-2.826 2.827-6.54 4.24-10.253 4.24zm0-18.994c-1.202 0-2.332.468-3.181 1.318-1.755 1.755-1.755 4.609 0 6.364 1.753 1.754 4.609 1.754 6.364 0 1.754-1.755 1.754-4.609 0-6.364-.851-.85-1.981-1.318-3.183-1.318z"/></g></g><path d="m483.781 113.606c0-34.472-28.045-62.517-62.517-62.517s-62.517 28.045-62.517 62.517 28.045 62.517 62.517 62.517c9.539 0 18.582-2.156 26.679-5.993v17.726h-176.357v-60.341h63.782c2.761 0 5-2.238 5-5s-2.239-5-5-5h-28.381l.378-.378c2.943-2.943 4.565-6.857 4.565-11.021s-1.622-8.077-4.565-11.021c-6.077-6.076-15.964-6.077-22.042.001l-16.744 16.744c-2.837-3.883-7.412-6.421-12.579-6.421s-9.741 2.538-12.579 6.421l-16.744-16.744c-6.076-6.077-15.964-6.076-22.042 0-2.943 2.943-4.565 6.857-4.565 11.021s1.622 8.077 4.565 11.021l.378.378h-140.956c-5.514 0-10 4.486-10 10v60.341c0 1.822.498 3.527 1.353 5-.855 1.473-1.353 3.178-1.353 5v60.342c0 1.822.498 3.527 1.353 5-.855 1.473-1.353 3.178-1.353 5v60.341c0 1.822.498 3.527 1.353 5-.855 1.473-1.353 3.178-1.353 5v60.341c0 5.514 4.486 10 10 10h176.765c1.591 6.917 7.785 12.097 15.178 12.097s13.587-5.18 15.178-12.097h176.765c5.514 0 10-4.486 10-10v-60.341c0-1.822-.498-3.527-1.353-5 .855-1.473 1.353-3.178 1.353-5v-60.341c0-1.822-.498-3.527-1.353-5 .855-1.473 1.353-3.178 1.353-5v-60.342c0-1.822-.498-3.527-1.353-5 .855-1.473 1.353-3.178 1.353-5v-23.67c15.642-11.374 25.838-29.804 25.838-50.581zm-35.838 84.25v60.342h-176.357v-60.342zm0 130.683h-176.357v-60.341h176.357zm-155.549-226.372c2.177-2.178 5.721-2.179 7.899 0s2.178 5.722 0 7.9l-7.448 7.448h-15.8zm-80.687 7.9c-2.178-2.179-2.178-5.722 0-7.899 2.179-2.18 5.722-2.179 7.9-.001l15.349 15.349h-15.8zm-147.65 17.449h176.357v60.341h-176.357zm176.357 140.682v60.341h-176.357v-60.341zm-176.357 70.341h176.357v60.341h-176.357zm191.943 72.438c-3.08 0-5.586-2.506-5.586-5.586v-142.193c0-2.762-2.239-5-5-5h-181.357v-60.342h176.357v36.089c0 2.762 2.239 5 5 5s5-2.238 5-5v-109.898c.798-1.399.871-3.087.21-4.538.657-2.354 2.815-4.089 5.376-4.089s4.72 1.735 5.376 4.089c-.662 1.451-.589 3.139.21 4.538v281.344c0 3.08-2.506 5.586-5.586 5.586zm191.943-12.097h-176.357v-60.341h176.357zm-26.679-232.757c-28.958 0-52.517-23.559-52.517-52.517s23.559-52.517 52.517-52.517 52.517 23.559 52.517 52.517-23.559 52.517-52.517 52.517z" fill="#2626bc"/></g></g></svg>