<svg id="Capa_1" enable-background="new 0 0 512 512" height="512" viewBox="0 0 512 512" width="512" xmlns="http://www.w3.org/2000/svg" xmlns:xlink="http://www.w3.org/1999/xlink"><linearGradient id="SVGID_1_" gradientUnits="userSpaceOnUse" x1="214.508" x2="342.508" y1="157.604" y2="521.604"><stop offset="0" stop-color="#c6d1ff"/><stop offset=".5834" stop-color="#e6d5f4"/><stop offset=".997" stop-color="#ffd9ec"/></linearGradient><g><g><path d="m501.873 161c-22.357-56.888-91.226-91.003-149.556-68.427-66.582 25.769-44.506 131.673-104.983 153.088-32.669 11.568-80.963-31.644-113.969-38.27-60.821-12.211-115.881 30.704-129.439 90.134-13.832 60.63 8.353 141.61 74.967 158.066 79.35 19.602 120.683-51.729 187.249-72.211 68.31-21.019 144.263 28.622 200.814-31.776 41.78-44.621 57.055-134.272 34.917-190.604z" fill="url(#SVGID_1_)"/></g><g><path d="m472.922 385.691c-9.296-21.783-28.69-37.11-51.396-38.375-.54-11.492-1.563-23.021-2.901-34.215-.787-6.586-4.03-12.629-9.085-16.923l-10.754-9.134 4.166-50.185h.308c5.523 0 10-4.477 10-10v-30.289c0-5.523-4.477-10-10-10h-19.129l1.512-31.39c.104-2.143-1.172-4.111-3.168-4.895l-29.174-11.443 2.747-8.726c.829-2.634-.634-5.441-3.269-6.271-2.631-.829-5.441.635-6.271 3.269l-8.215 26.094c-.829 2.634.634 5.441 3.269 6.271.499.157 1.005.231 1.502.231 2.125 0 4.097-1.365 4.769-3.5l2.458-7.808 25.19 9.881-1.362 28.287h-3.246c-13.887 0-25.144 11.258-25.144 25.145 0 5.913 2.046 11.344 5.461 15.637-.086.591-.146 1.191-.146 1.806 0 6.85 5.553 12.403 12.403 12.403.339 0 .671-.024 1.003-.051-3.912 6.031-6.506 13.025-7.348 20.603-3.521 31.703-7.087 69.579-7.087 69.579-2.83 26.833-20.925 48.535-45.139 56.898-2.115-9.334-5.239-18.215-9.224-26.5 10.779-22.188 19.503-52.079 14.026-85.867-.976-6.023-6.21-10.436-12.312-10.436h-17.131c9.461 0 17.131-7.67 17.131-17.131 0-5.523-4.477-10-10-10h-133.934v-23.916h18.779c2.761 0 5-2.239 5-5v-118.538c0-2.761-2.239-5-5-5h-118.537c-2.761 0-5 2.239-5 5v118.537c0 2.761 2.239 5 5 5h25.317v41.047c0 8.271 6.729 15 15 15h33.307c-5.614 4.359-9.232 11.168-9.232 18.827v-.413h-5.123c-8.863 0-16.047 7.185-16.047 16.047 0 8.863 7.185 16.047 16.047 16.047h5.123v29.842c-7.541 12.236-13.056 26.161-15.99 41.17h-.521c-5.326 0-9.977 4.019-10.321 9.333-.378 5.824 4.235 10.667 9.978 10.667h28.815c3.42 21.343 21.912 37.652 44.219 37.652s40.799-16.309 44.219-37.652h89.208c20.955 0 40.278-7.323 55.429-19.661h8.058c-1.156 3.975-1.787 8.173-1.787 12.521 0 24.738 20.054 44.792 44.792 44.792s44.792-20.054 44.792-44.792c0-4.348-.631-8.546-1.787-12.521h11.143c3.579-.001 6.014-3.661 4.609-6.954zm-383.931-129.906v-41.047h54.44v23.916h-.397c-9.461 0-17.131 7.67-17.131 17.131 0 1.824.496 3.528 1.349 5h-33.261c-2.757 0-5-2.243-5-5z" fill="#2626bc" opacity=".1"/><g><g><path d="m172.211 189.738h-118.537c-2.761 0-5-2.239-5-5v-118.536c0-2.761 2.239-5 5-5h118.537c2.761 0 5 2.239 5 5v118.537c0 2.761-2.239 4.999-5 4.999z" fill="#ffdbed"/><path d="m177.211 171.061h-10.85c-2.761 0-5-2.239-5-5v-80.846c0-2.761 2.239-5 5-5h10.85z" fill="#ffa8cf"/></g><g><g><path d="m118.067 296.293h-5.123c-8.863 0-16.047-7.185-16.047-16.047 0-8.863 7.185-16.047 16.047-16.047h5.123z" fill="#02ffb3"/><g><path d="m268.76 377.305s52.566-54.233 40.919-126.083c-.976-6.023-6.21-10.436-12.312-10.436h-155.474c-13.159 0-23.827 10.668-23.827 23.827v112.693h150.694z" fill="#ff5ba8"/><g><circle cx="414.164" cy="380.165" fill="#6583fe" r="44.792"/><path d="m458.774 384.099c.115-1.297.182-2.607.182-3.934 0-24.738-20.054-44.792-44.792-44.792s-44.792 20.054-44.792 44.792c0 1.327.067 2.637.182 3.934z" fill="#4369fd"/><circle cx="414.164" cy="380.165" fill="#d2deff" r="25.813"/><path d="m439.663 384.099c.198-1.284.315-2.594.315-3.934 0-14.256-11.557-25.813-25.813-25.813s-25.813 11.557-25.813 25.813c0 1.339.117 2.65.315 3.934z" fill="#b7c5ff"/><path d="m419.004 390.377c-4.766 2.199-10.412.118-12.611-4.648l-13.429-29.105 17.258-7.963 13.429 29.105c2.199 4.766.118 10.412-4.647 12.611z" fill="#ff7eb8"/><path d="m424.22 384.099c.526-2.042.384-4.268-.568-6.333l-13.429-29.105-17.258 7.963 12.677 27.475z" fill="#ff5ba8"/></g><g><circle cx="174.245" cy="380.165" fill="#6583fe" r="44.792"/><path d="m213.43 401.817c3.557-6.421 5.607-13.792 5.607-21.652 0-24.738-20.054-44.792-44.792-44.792s-44.792 20.054-44.792 44.792c0 7.86 2.05 15.231 5.607 21.652z" fill="#4369fd"/><circle cx="174.245" cy="380.165" fill="#d2deff" r="25.813"/><path d="m160.225 401.817h28.04c7.091-4.6 11.793-12.57 11.793-21.652 0-14.256-11.557-25.813-25.813-25.813s-25.813 11.557-25.813 25.813c0 9.083 4.702 17.052 11.793 21.652z" fill="#b7c5ff"/></g><path d="m307.217 377.305c-6.611-57.355-50.36-101.666-103.348-101.666s-96.737 44.311-103.348 101.666z" fill="#ff7eb8"/><path d="m381.976 247.765-12.603 91.611h52.58c0-17.01-1.324-34.518-3.327-51.275-.787-6.586-4.03-12.629-9.085-16.923z" fill="#ffdbed"/><path d="m468.312 367.644c3.58 0 6.016-3.66 4.61-6.953-9.709-22.75-30.429-38.47-54.437-38.47-26.384 0-48.797 18.986-56.988 45.423z" fill="#ff7eb8"/><g><path d="m404.368 194.812c-24.232 0-44.59 18.215-47.264 42.3-3.521 31.703-7.087 69.579-7.087 69.579-3.645 34.556-32.597 60.614-67.344 60.614h-181.118c-5.326 0-9.977 4.019-10.321 9.334-.378 5.824 4.235 10.666 9.978 10.666h206.461c45.01 0 82.512-33.755 87.233-78.517z" fill="#ff5ba8"/></g><path d="m404.37 194.809-2.58 31.06h-18.63c-2.27 2.86-5.78 4.7-9.71 4.7-5.64 0-10.4-3.77-11.9-8.92 7.75-16 24.13-26.84 42.82-26.84z" fill="#fe2c8f"/><g><path d="m280.236 240.785h-144.332c-5.523 0-10-4.477-10-10 0-9.461 7.67-17.131 17.131-17.131h144.332c5.523 0 10 4.477 10 10 0 9.461-7.67 17.131-17.131 17.131z" fill="#6583fe"/><path d="m160.279 213.654h11.275v27.131h-11.275z" fill="#9fb0fe"/></g></g></g><g><g><path d="m403.26 211.859h-32.386c-13.887 0-25.144-11.258-25.144-25.144 0-13.887 11.258-25.144 25.144-25.144h32.386c5.523 0 10 4.477 10 10v30.289c0 5.522-4.477 9.999-10 9.999z" fill="#ff7eb8"/><path d="m403.26 161.57h-6.427v50.289h6.427c5.523 0 10-4.477 10-10v-30.289c0-5.523-4.477-10-10-10z" fill="#ffdbed"/></g><circle cx="363.448" cy="204.158" fill="#6583fe" r="12.403"/></g><g fill="#ff5ba8"><path d="m213.699 321.392h-44.036c-2.948 0-5.338-2.39-5.338-5.338 0-2.948 2.39-5.338 5.338-5.338h44.036c2.948 0 5.338 2.39 5.338 5.338 0 2.948-2.39 5.338-5.338 5.338z"/><path d="m213.699 337.5h-44.036c-2.948 0-5.338-2.39-5.338-5.338 0-2.948 2.39-5.338 5.338-5.338h44.036c2.948 0 5.338 2.39 5.338 5.338 0 2.948-2.39 5.338-5.338 5.338z"/><path d="m213.699 353.607h-44.036c-2.948 0-5.338-2.39-5.338-5.338 0-2.948 2.39-5.338 5.338-5.338h44.036c2.948 0 5.338 2.39 5.338 5.338 0 2.948-2.39 5.338-5.338 5.338z"/></g></g><path d="m477.521 358.729c-9.632-22.571-29.213-37.982-51.217-40.969-.552-9.61-1.461-19.767-2.714-30.253-.939-7.862-4.78-15.015-10.813-20.14l-8.796-7.471 3.626-43.685c6.157-1.868 10.653-7.593 10.653-14.353v-30.288c0-8.271-6.729-15-15-15h-18.888l1.271-26.391c.104-2.143-1.172-4.111-3.168-4.895l-29.174-11.443 2.747-8.726c.829-2.634-.634-5.441-3.269-6.271-2.631-.828-5.441.635-6.271 3.269l-8.215 26.094c-.829 2.634.634 5.441 3.269 6.271.499.157 1.005.231 1.502.231 2.125 0 4.097-1.365 4.769-3.5l2.458-7.808 25.19 9.881-1.121 23.287h-3.487c-16.622 0-30.145 13.522-30.145 30.145 0 6.158 1.851 12.052 5.333 17.095-.002.117-.018.23-.018.347 0 7.208 4.406 13.406 10.667 16.044-2.404 5.149-3.942 10.63-4.578 16.359-3.484 31.381-7.06 69.282-7.09 69.605-2.418 22.932-16.873 41.82-36.712 50.688-13.918-50.972-56.325-86.215-104.463-86.215-24.81 0-49.095 9.522-68.383 26.814-4.457 3.995-8.599 8.381-12.419 13.076v-45.917c0-10.381 8.446-18.827 18.827-18.827h138.343 17.131c3.688 0 6.791 2.623 7.376 6.236 3.048 18.797 1.776 38.121-3.777 57.436-.763 2.654.771 5.424 3.424 6.188 2.657.763 5.424-.771 6.188-3.424 5.964-20.743 7.322-41.535 4.037-61.799-1.303-8.041-7.893-13.982-15.92-14.578 2.318-3.499 3.673-7.689 3.673-12.191 0-8.271-6.729-15-15-15h-109.683c-2.761 0-5 2.238-5 5s2.239 5 5 5h109.683c2.757 0 5 2.243 5 5 0 6.689-5.441 12.132-12.131 12.132h-126.804v-41.047h18.779c5.514 0 10-4.486 10-10v-118.535c0-5.514-4.486-10-10-10h-118.537c-5.514 0-10 4.486-10 10v118.537c0 5.514 4.486 10 10 10h25.317v36.047c0 8.271 6.729 15 15 15h26.1c-3.247 3.754-5.542 8.35-6.508 13.414h-.64c-11.605 0-21.047 9.441-21.047 21.047s9.442 21.047 21.047 21.047h.123v23.376c0 .046.012.088.013.133-6.931 11.563-12.09 24.409-15.131 37.939-6.385 1.512-11.274 6.925-11.705 13.573-.268 4.134 1.199 8.233 4.023 11.247 2.826 3.015 6.815 4.743 10.945 4.743h24.758c5.49 22.026 25.225 37.652 48.276 37.652 23.052 0 42.787-15.626 48.276-37.652h85.151c21.501 0 41.367-7.306 57.161-19.661h.134c-.382 2.497-.595 5.012-.595 7.521 0 27.455 22.336 49.792 49.791 49.792s49.792-22.337 49.792-49.792c0-2.509-.213-5.024-.596-7.521h4.951c3.371 0 6.494-1.681 8.354-4.496 1.856-2.808 2.176-6.328.857-9.418zm-335.627-122.944h-5.99c-2.757 0-5-2.243-5-5 0-6.689 5.442-12.132 12.131-12.132h.396v17.132zm-88.22-169.584h118.536l.006 118.537h-118.542zm35.317 164.584v-36.047h54.44v13.915h-.396c-12.203 0-22.131 9.929-22.131 22.132 0 1.755.319 3.433.875 5h-27.788c-2.757 0-5-2.243-5-5zm23.953 60.508c-6.091 0-11.047-4.956-11.047-11.047s4.956-11.047 11.047-11.047h.123v22.094zm293.359-16.304c4.105 3.487 6.718 8.354 7.357 13.705 1.182 9.895 2.053 19.484 2.598 28.573-6.257.238-12.454 1.48-18.365 3.655.887-3.782 1.568-7.65 1.986-11.609.004-.037.007-.074.01-.11l3.075-37.05zm-35.429-108.418h3.005l-.348 7.229c-.133 2.758 1.995 5.102 4.754 5.234.082.004.163.006.244.006 2.651 0 4.861-2.083 4.99-4.76l.371-7.71h19.37c2.757 0 5 2.243 5 5v30.288c0 2.757-2.243 5-5 5h-22.642c.138-.883.231-1.78.231-2.701 0-9.596-7.807-17.402-17.403-17.402-4.699 0-8.961 1.88-12.096 4.917-.406-1.605-.622-3.265-.622-4.958.001-11.106 9.039-20.143 20.146-20.143zm-7.427 30.184c4.082 0 7.403 3.32 7.403 7.402s-3.321 7.402-7.403 7.402-7.402-3.32-7.402-7.402 3.32-7.402 7.402-7.402zm-221.286 108.144c17.704-15.871 39.042-24.26 61.708-24.26 43.816 0 82.464 32.554 94.999 79.548-5.175 1.373-10.601 2.118-16.195 2.118h-174.358c5.586-22.489 17.501-42.754 33.846-57.406zm32.084 115.058c-17.563 0-32.721-11.346-37.897-27.652h75.794c-5.176 16.307-20.334 27.652-37.897 27.652zm-73.034-37.652c-1.396 0-2.692-.562-3.648-1.582s-1.431-2.355-1.34-3.762c.167-2.567 2.558-4.656 5.332-4.656h181.118c37.313 0 68.402-27.982 72.321-65.146.036-.378 3.604-38.196 7.079-69.495.656-5.915 2.506-11.497 5.477-16.613 2.951-.717 5.605-2.183 7.756-4.192h22.214l-7.593 91.46c-4.477 42.183-39.829 73.986-82.255 73.986zm352.745-2.14c0 21.941-17.851 39.792-39.792 39.792-21.94 0-39.791-17.851-39.791-39.792 0-2.51.255-5.032.733-7.521h78.116c.479 2.491.734 5.013.734 7.521zm-78.222-17.521c7.699-8.312 13.888-18.072 18.148-28.869 7.673-4.333 15.938-6.554 24.603-6.554 21.089 0 40.651 13.908 49.826 35.423z" fill="#2626bc"/><g fill="#ff5ba8"><path d="m86.376 139.626h53.132c1.36 0 2.662-.555 3.604-1.535.943-.98 1.445-2.303 1.392-3.662-.606-15.306-11.898-27.621-26.562-29.932v-2.343c0-2.762-2.238-5-5-5s-5 2.238-5 5v2.343c-14.664 2.311-25.957 14.626-26.563 29.932-.054 1.359.448 2.682 1.392 3.662.943.981 2.245 1.535 3.605 1.535zm26.567-25.524c9.831 0 18.12 6.499 20.731 15.524h-41.464c2.612-9.025 10.901-15.524 20.733-15.524z"/><path d="m139.508 143.786h-53.132c-2.762 0-5 2.238-5 5s2.238 5 5 5h53.132c2.762 0 5-2.238 5-5s-2.238-5-5-5z"/></g></g><path d="m232.5 184.29c-1.28 0-2.559-.488-3.536-1.465l-5.964-5.963-5.964 5.964c-1.953 1.953-5.118 1.953-7.071 0-1.953-1.952-1.953-5.118 0-7.07l9.5-9.5c1.953-1.953 5.118-1.953 7.071 0l9.5 9.5c1.953 1.952 1.953 5.118 0 7.07-.977.976-2.256 1.464-3.536 1.464z" fill="#00eca2"/><path d="m360.779 72.535c-1.279 0-2.56-.488-3.535-1.465l-5.965-5.964-5.965 5.964c-1.951 1.953-5.119 1.953-7.07 0-1.953-1.952-1.953-5.118 0-7.07l9.5-9.5c1.951-1.953 5.119-1.953 7.07 0l9.5 9.5c1.953 1.952 1.953 5.118 0 7.07-.975.977-2.255 1.465-3.535 1.465z" fill="#ff7eb8"/><path d="m67.674 360.199c-1.28 0-2.559-.488-3.536-1.465l-5.964-5.964-5.964 5.964c-1.953 1.953-5.118 1.953-7.071 0-1.953-1.952-1.953-5.118 0-7.07l9.5-9.5c1.953-1.953 5.118-1.953 7.071 0l9.5 9.5c1.953 1.952 1.953 5.118 0 7.07-.977.976-2.256 1.465-3.536 1.465z" fill="#ff7eb8"/><path d="m351.279 438.345c-3.714 0-7.427-1.413-10.253-4.24-5.654-5.653-5.654-14.852 0-20.505 5.651-5.653 14.852-5.655 20.505 0 5.653 5.653 5.653 14.852 0 20.505-2.826 2.827-6.539 4.24-10.252 4.24zm0-18.99c-1.152 0-2.305.438-3.183 1.315-1.754 1.755-1.754 4.609 0 6.364 1.756 1.754 4.608 1.754 6.364 0 1.754-1.755 1.754-4.609 0-6.364-.877-.877-2.029-1.315-3.181-1.315z" fill="#00eca2"/><path d="m426.912 141.937c-3.714 0-7.427-1.413-10.253-4.24-5.654-5.653-5.654-14.852 0-20.505 5.651-5.653 14.852-5.655 20.505 0 5.653 5.653 5.653 14.852 0 20.505-2.826 2.827-6.539 4.24-10.252 4.24zm0-18.99c-1.152 0-2.305.438-3.183 1.315-1.754 1.755-1.754 4.609 0 6.364 1.755 1.753 4.607 1.755 6.364 0 1.754-1.755 1.754-4.609 0-6.364-.877-.877-2.03-1.315-3.181-1.315z" fill="#6583fe"/><circle cx="148.432" cy="268.079" fill="#ffa8cf" r="10.949"/></g></g></svg>