<svg id="Capa_1" enable-background="new 0 0 512 512" height="512" viewBox="0 0 512 512" width="512" xmlns="http://www.w3.org/2000/svg" xmlns:xlink="http://www.w3.org/1999/xlink"><linearGradient id="SVGID_1_" gradientUnits="userSpaceOnUse" x1="355.582" x2="218.582" y1="465.213" y2="74.213"><stop offset=".0112" stop-color="#dafced"/><stop offset=".3814" stop-color="#e7f0ed"/><stop offset="1" stop-color="#ffd9ec"/></linearGradient><g><path d="m121.579 473.341c-3.873 0-7.515-1.509-10.254-4.248-2.738-2.737-4.246-6.379-4.246-10.252s1.508-7.515 4.247-10.253c5.652-5.654 14.854-5.654 20.506 0 2.739 2.738 4.247 6.38 4.247 10.253s-1.508 7.515-4.247 10.253c-2.738 2.738-6.38 4.247-10.253 4.247zm0-18.998c-1.152 0-2.305.438-3.183 1.315-.85.851-1.317 1.98-1.317 3.183s.468 2.331 1.317 3.181c.851.852 1.98 1.319 3.183 1.319s2.332-.468 3.182-1.318c.851-.851 1.318-1.979 1.318-3.182s-.468-2.332-1.317-3.183c-.878-.877-2.031-1.315-3.183-1.315z" fill="#00eca2"/><g><g><path d="m341.576.425c-95.818 8.652-105.091 192.428-146.416 286.587-20.478 46.658-68.772 94.794-60.258 149.782 9.605 62.035 72.897 80.075 121.683 74.14 120.723-14.685 172.899-141.053 180.797-260.801 4.869-73.829 20.3-260.192-95.806-249.708z" fill="url(#SVGID_1_)"/></g><path d="m190.616 172.101c-3.713 0-7.427-1.413-10.253-4.24-5.654-5.653-5.654-14.853 0-20.506 5.652-5.654 14.854-5.654 20.506 0 5.654 5.653 5.654 14.853 0 20.506-2.826 2.827-6.54 4.24-10.253 4.24zm0-18.992c-1.152 0-2.305.438-3.183 1.315-1.754 1.755-1.754 4.61 0 6.365 1.756 1.754 4.609 1.754 6.365 0 1.754-1.755 1.754-4.61 0-6.365-.877-.876-2.029-1.315-3.182-1.315z" fill="#6583fe"/><g><path d="m473.601 319.487h8.018c6.216 0 11.256-5.04 11.256-11.255 0-6.216-5.04-11.256-11.256-11.256h-31.684v-35.636c0-2.247-1.821-4.068-4.068-4.068h-36.225c2.238-.015 4.047-1.83 4.047-4.072v-12.73-15.934c17.187-11.639 28.483-31.32 28.483-53.64 0-35.754-28.984-64.738-64.738-64.738s-64.738 28.984-64.738 64.738c0 18.344 7.642 34.892 19.901 46.672h-59.847c-2.247 0-4.068 1.821-4.068 4.068 0-2.247-1.821-4.068-4.068-4.068h-64.365c-2.247 0-4.068 1.821-4.068 4.068v31.568c0 2.247 1.821 4.068 4.068 4.068h-36.251c-2.247 0-4.068 1.821-4.068 4.068v35.636h-32.723v-77.362-.001h7.887c3.108 0 5.628-2.519 5.628-5.628 0-3.108-2.519-5.628-5.628-5.628h-28.275v-20.132c0-3.108-2.519-5.628-5.628-5.628s-5.628 2.519-5.628 5.628v25.76.001h-3.792v-.001-39.357c0-3.108-2.519-5.628-5.628-5.628s-5.628 2.519-5.628 5.628v39.357c0 .01.003.019.003.029-2.973.151-5.343 2.588-5.343 5.599v16.02h-15.795c-4.414 0-8.316 2.562-10.15 6.389-.423.883-.736 1.834-.92 2.836l-9.563 52.118h-8.366c-6.216 0-11.256 5.04-11.256 11.256s5.04 11.255 11.256 11.255h8.018v11.729c0 16.524 5.903 31.666 15.709 43.444l-24.97 5.981c-3.022.723-4.886 3.761-4.161 6.784.618 2.584 2.929 4.302 5.475 4.302v50.859c0 6.216 5.039 11.255 11.256 11.255h428.587c6.216 0 11.256-5.039 11.256-11.255v-50.844h.006c2.543 0 4.85-1.736 5.468-4.318.724-3.023-1.139-6.06-4.161-6.784l-24.97-5.981c9.806-11.778 15.709-26.92 15.709-43.443v-11.729z" fill="#2626bc" opacity=".1"/><g><g><path d="m38.746 273.837h36.428v-61.342h-15.794c-5.433 0-10.09 3.881-11.071 9.224z" fill="#ff5ba8"/><path d="m75.175 228.449v-15.954h-15.795c-5.433 0-10.09 3.881-11.071 9.224l-1.235 6.73z" fill="#fe2c8f"/><path d="m127.207 273.837h-52.032v-77.362c0-3.108 2.52-5.628 5.628-5.628h40.777c3.108 0 5.628 2.52 5.628 5.628v77.362z" fill="#d2deff"/><path d="m75.175 204.057h52.032v16.415h-52.032z" fill="#9fb0fe"/><path d="m75.175 232.342h52.032v16.415h-52.032z" fill="#9fb0fe"/><g><path d="m405.654 376.024h-299.308c-37.526 0-67.947-30.421-67.947-67.947v-11.729h435.202v11.729c0 37.526-30.421 67.947-67.947 67.947z" fill="#d2deff"/><path d="m472.73 318.735c.553-3.475.872-7.028.872-10.658v-11.729h-435.203v11.729c0 3.631.319 7.183.872 10.658z" fill="#b7c5ff"/><path d="m42.659 331.788c9.622 25.832 34.502 44.235 63.686 44.235h299.308c29.184 0 54.064-18.403 63.686-44.235z" fill="#ff5ba8"/></g><path d="m481.549 362.978v56.469c0 6.216-5.039 11.255-11.256 11.255h-428.587c-6.216 0-11.256-5.039-11.256-11.255v-56.469l51.145-12.257c3.455-.822 7.046-.822 10.49 0l45.911 10.996c3.444.822 7.035.822 10.479 0l45.9-10.996c3.444-.822 7.046-.822 10.49 0l45.9 10.996c3.444.822 7.035.822 10.49 0l45.889-10.996c3.456-.822 7.046-.822 10.49 0l45.9 10.996c3.444.822 7.035.822 10.49 0l45.9-10.996c3.444-.822 7.035-.822 10.479 0z" fill="#9fb0fe"/><g><path d="m481.619 296.348h-451.238c-6.216 0-11.256-5.04-11.256-11.255 0-6.216 5.04-11.256 11.256-11.256h451.238c6.216 0 11.256 5.04 11.256 11.256 0 6.215-5.04 11.255-11.256 11.255z" fill="#8399fe"/></g><g><g><g><path d="m268.682 198.497v31.568c0 2.247-1.821 4.068-4.068 4.068h-64.365c-2.247 0-4.068-1.821-4.068-4.068v-31.568c0-2.247 1.821-4.068 4.068-4.068h64.365c2.247 0 4.068 1.822 4.068 4.068z" fill="#97ffd2"/><path d="m207.965 205.279h48.933v18.003h-48.933z" fill="#01eca5"/></g><g><path d="m341.183 198.497v31.568c0 2.247-1.821 4.068-4.068 4.068h-64.365c-2.247 0-4.068-1.821-4.068-4.068v-31.568c0-2.247 1.821-4.068 4.068-4.068h64.365c2.247 0 4.068 1.822 4.068 4.068z" fill="#8399fe"/><path d="m280.466 205.279h48.933v18.003h-48.933z" fill="#6583fe"/></g><g><path d="m413.69 198.501v31.56c0 2.251-1.823 4.074-4.074 4.074h-64.359c-2.251 0-4.075-1.823-4.075-4.074v-31.56c0-2.251 1.824-4.075 4.075-4.075h64.359c2.25 0 4.074 1.824 4.074 4.075z" fill="#ff7eb8"/><path d="m413.69 198.501v18.83c-10.366 7.057-22.882 11.177-36.355 11.177-13.394 0-25.831-4.063-36.153-11.042v-18.965c0-2.251 1.824-4.075 4.075-4.075h64.359c2.25 0 4.074 1.824 4.074 4.075z" fill="#ff5ba8"/><path d="m352.968 205.279h48.933v18.003h-48.933z" fill="#fe2c8f"/></g></g><g><g><path d="m232.431 238.201v31.568c0 2.247-1.821 4.068-4.068 4.068h-64.365c-2.247 0-4.068-1.821-4.068-4.068v-31.568c0-2.247 1.821-4.068 4.068-4.068h64.365c2.247 0 4.068 1.821 4.068 4.068z" fill="#ff7eb8"/><path d="m171.714 244.983h48.933v18.003h-48.933z" fill="#ff5ba8"/></g><g><path d="m304.933 238.201v31.568c0 2.247-1.821 4.068-4.068 4.068h-64.365c-2.247 0-4.068-1.821-4.068-4.068v-31.568c0-2.247 1.821-4.068 4.068-4.068h64.365c2.246 0 4.068 1.821 4.068 4.068z" fill="#97ffd2"/><path d="m244.216 244.983h48.933v18.003h-48.933z" fill="#01eca5"/></g><g><path d="m377.434 238.201v31.568c0 2.247-1.821 4.068-4.068 4.068h-64.365c-2.247 0-4.068-1.821-4.068-4.068v-31.568c0-2.247 1.821-4.068 4.068-4.068h64.365c2.247 0 4.068 1.821 4.068 4.068z" fill="#ff7eb8"/><path d="m316.717 244.983h48.933v18.003h-48.933z" fill="#ff5ba8"/></g><g><path d="m449.935 238.201v31.568c0 2.247-1.821 4.068-4.068 4.068h-64.365c-2.247 0-4.068-1.821-4.068-4.068v-31.568c0-2.247 1.821-4.068 4.068-4.068h64.365c2.247 0 4.068 1.821 4.068 4.068z" fill="#8399fe"/><path d="m389.218 244.983h48.933v18.003h-48.933z" fill="#6583fe"/></g></g></g></g><g><g><g><circle cx="377.435" cy="147.757" fill="#01eca5" r="64.738"/><path d="m478.602 301.348h3.018c8.964 0 16.256-7.292 16.256-16.255 0-8.964-7.292-16.256-16.256-16.256h-26.685v-30.635c0-5-4.068-9.068-9.068-9.068h-27.183v-25.191c17.262-12.707 28.489-33.156 28.489-56.186 0-38.454-31.284-69.738-69.738-69.738-38.453 0-69.737 31.284-69.737 69.738 0 23.028 11.226 43.477 28.485 56.184v25.192h-62.499v-29.702h30.283c2.762 0 5-2.238 5-5s-2.238-5-5-5h-31.216c-1.464 0-2.844.357-4.069.976-1.225-.619-2.605-.976-4.069-.976h-64.363c-5 0-9.068 4.068-9.068 9.068v30.635h-27.183c-5 0-9.068 4.068-9.068 9.068v30.635h-74.756v-72.362c0-.347.281-.628.628-.628h40.776c.347 0 .628.281.628.628v48.11c0 2.762 2.238 5 5 5s5-2.238 5-5v-48.11c0-.212-.02-.419-.032-.628h2.918c2.762 0 5-2.238 5-5s-2.238-5-5-5h-28.903v-20.761c0-2.762-2.238-5-5-5s-5 2.238-5 5v20.761h-5.047v-34.357c0-2.762-2.238-5-5-5s-5 2.238-5 5v34.357h-.341c-5.86 0-10.628 4.768-10.628 10.628v11.021h-10.794c-7.848 0-14.572 5.603-15.988 13.322l-8.812 48.02h-4.199c-8.964 0-16.256 7.292-16.256 16.256 0 8.963 7.292 16.255 16.256 16.255h3.018v6.729c0 16.577 5.562 32.414 15.774 45.272l-19.888 4.763c-2.685.643-4.341 3.342-3.697 6.026.549 2.295 2.599 3.837 4.858 3.837.385 0 .777-.045 1.168-.139l51.152-12.25c2.666-.639 5.486-.639 8.156 0l45.905 10.994c4.193 1.006 8.626 1.006 12.817 0l45.898-10.994c2.668-.639 5.49-.639 8.158 0l45.899 10.994c4.193 1.006 8.625 1.006 12.818 0l45.896-10.994c2.668-.639 5.49-.639 8.158 0l45.896 10.994c4.193 1.006 8.625 1.006 12.818 0l45.899-10.994c2.67-.639 5.49-.639 8.158 0l51.141 12.25c2.687.646 5.385-1.013 6.027-3.697.644-2.686-1.012-5.384-3.697-6.027l-19.887-4.764c10.211-12.858 15.773-28.695 15.773-45.271v-6.73zm-106.168-62.214v29.702h-62.5v-29.702zm-135.001 0h62.499v29.702h-62.499zm207.502 29.702h-62.5v-29.702h62.5zm-36.251-39.703h-62.499v-19.06c9.408 4.737 20.018 7.422 31.25 7.422 11.231 0 21.842-2.685 31.249-7.421zm-90.987-81.376c0-32.939 26.798-59.738 59.737-59.738s59.738 26.799 59.738 59.738-26.799 59.738-59.738 59.738-59.737-26.799-59.737-59.738zm-116.515 51.674h62.5v29.702h-62.5zm-36.251 39.703h62.5v29.702h-62.5zm-111.703-16.512c.545-2.971 3.133-5.127 6.152-5.127h10.795v51.342h-25.428zm-29.103 62.471c0-3.449 2.807-6.256 6.256-6.256h8.36c.004 0 .007.001.011.001s.007-.001.011-.001h442.856c3.449 0 6.256 2.807 6.256 6.256s-2.807 6.255-6.256 6.255h-8.018-435.203-8.018c-3.448 0-6.255-2.806-6.255-6.255zm444.477 22.983c0 15.89-5.932 30.987-16.703 42.653l-20.323-4.868c-4.193-1.006-8.625-1.006-12.818 0l-45.899 10.994c-2.67.639-5.49.639-8.158 0l-45.896-10.994c-4.193-1.006-8.625-1.006-12.818 0l-45.896 10.994c-2.668.639-5.49.639-8.158 0l-45.899-10.994c-4.193-1.006-8.625-1.006-12.818 0l-45.899 10.994c-2.666.639-5.486.639-8.156 0l-45.905-10.994c-4.193-1.006-8.627-1.006-12.816 0l-20.333 4.869c-10.772-11.666-16.704-26.764-16.704-42.655v-6.729h425.203v6.73z" fill="#2626bc"/></g></g><g><path d="m404.73 135.092c0-15.331-12.64-27.71-28.068-27.284-14.668.405-26.463 12.499-26.522 27.172-.023 5.811 1.77 11.202 4.844 15.638 3.546 5.116 6.647 10.526 9.217 16.196l11.256 24.84c.77 1.7 3.185 1.7 3.956 0l11.342-25.029c2.559-5.646 5.697-11.001 9.204-16.113 3.009-4.387 4.771-9.698 4.771-15.42z" fill="#ff7eb8"/><circle cx="377.339" cy="135.294" fill="#fff" r="15.77"/></g></g></g><g><path d="m481.549 378.983v11.413c-.439 0-.867-.045-1.306-.146l-51.145-12.257c-2.578-.608-5.29-.608-7.868 0l-45.9 10.997c-4.288 1.024-8.813 1.024-13.101 0l-45.9-10.997c-2.577-.608-5.29-.608-7.868 0l-45.9 10.997c-4.288 1.024-8.813 1.024-13.102 0l-45.911-10.997c-2.566-.608-5.29-.608-7.856 0l-45.9 10.997c-4.288 1.024-8.824 1.024-13.113 0l-45.9-10.997c-2.578-.608-5.301-.608-7.868 0l-51.154 12.257c-.439.101-.878.158-1.306.158v-11.424l49.839-11.931c4.288-1.024 8.824-1.024 13.101 0l45.911 10.997c2.577.608 5.29.608 7.868 0l45.9-10.997c4.288-1.024 8.813-1.024 13.101 0l45.9 10.997c2.578.608 5.301.608 7.868 0l45.9-10.997c4.288-1.024 8.824-1.024 13.113 0l45.9 10.997c2.566.608 5.29.608 7.856 0l45.9-10.997c4.288-1.024 8.824-1.024 13.113 0z" fill="#b7c5ff"/></g></g><path d="m148.58 155.174c-1.279 0-2.56-.488-3.535-1.465l-5.965-5.964-5.965 5.964c-1.951 1.953-5.119 1.953-7.07 0-1.953-1.952-1.953-5.118 0-7.07l9.5-9.5c1.951-1.953 5.119-1.953 7.07 0l9.5 9.5c1.953 1.952 1.953 5.118 0 7.07-.975.977-2.256 1.465-3.535 1.465z" fill="#ff7eb8"/><path d="m180.147 116.772c-1.279 0-2.56-.488-3.535-1.465l-5.965-5.964-5.965 5.964c-1.951 1.953-5.119 1.953-7.07 0-1.953-1.952-1.953-5.118 0-7.07l9.5-9.5c1.951-1.953 5.119-1.953 7.07 0l9.5 9.5c1.953 1.952 1.953 5.118 0 7.07-.975.977-2.255 1.465-3.535 1.465z" fill="#00eca2"/></g><path d="m468.328 217.223c-3.713 0-7.426-1.413-10.252-4.24-5.653-5.653-5.653-14.852 0-20.505 5.652-5.655 14.853-5.653 20.505 0 5.654 5.653 5.654 14.852 0 20.505-2.826 2.827-6.539 4.24-10.253 4.24zm0-18.991c-1.151 0-2.304.438-3.182 1.315-1.754 1.755-1.754 4.609 0 6.364 1.757 1.755 4.609 1.753 6.364 0 1.754-1.755 1.754-4.609 0-6.364-.877-.876-2.03-1.315-3.182-1.315z" fill="#ff7eb8"/></g></svg>