<svg id="Capa_1" enable-background="new 0 0 512 512" height="512" viewBox="0 0 512 512" width="512" xmlns="http://www.w3.org/2000/svg" xmlns:xlink="http://www.w3.org/1999/xlink"><linearGradient id="SVGID_1_" gradientUnits="userSpaceOnUse" x1="434.539" x2="217.539" y1="47.347" y2="295.347"><stop offset="0" stop-color="#c6d1ff"/><stop offset=".5834" stop-color="#e6d5f4"/><stop offset=".997" stop-color="#ffd9ec"/></linearGradient><g><g><path d="m38.145 134.71c19.974-57.707 57.562-157.818 137.712-129.893 31.204 10.872 41.003 52.164 72.37 57.311 29.626 4.861 54.704-24.255 82.89-29.776 35.014-6.859 72.067 2.317 85.37 36.48 15.916 40.874-30.997 86.737-19.655 124.062 18.708 61.564 87.863-40.471 100.229 58.88 17.304 139.025-136.801 386.519-240.619 182.998-52.643-103.199-107.815-30.825-189.876-82.161-77.922-48.747-53.805-144.567-28.421-217.901z" fill="url(#SVGID_1_)"/></g><g><g><path d="m430.404 408.609c-3.444-.822-7.035-.822-10.479 0l-22.505 5.391c6.672-8.139 10.679-18.548 10.679-29.894v-42.051c0-4.777-3.378-8.886-8.065-9.811l-9.327-1.84v-141.129h-54.136l54.158-32.598c1.503-.905 2.422-2.53 2.422-4.284v-12.453c0-2.761-2.239-5-5-5h-67.469v-16.921h9.995c2.762 0 5-2.238 5-5s-2.238-5-5-5h-26.847v-11.522c0-2.762-2.238-5-5-5s-5 2.238-5 5v11.521h-15.677v-18.77c0-2.762-2.238-5-5-5s-5 2.238-5 5v18.77h-6.952v-18.77c0-2.762-2.238-5-5-5s-5 2.238-5 5v18.77h-10.803v-46.313c0-2.762-2.238-5-5-5s-5 2.238-5 5v46.313h-7.229v-18.77c0-2.762-2.238-5-5-5s-5 2.238-5 5v18.77h-15.235c-2.598-28.627-26.648-51.061-55.952-51.061-31.039 0-56.202 25.162-56.202 56.202s25.162 56.202 56.202 56.202c.246 0 .487-.016.732-.019l33.116 19.932h-54.539v141.131l-9.327 1.84c-4.687.924-8.065 5.034-8.065 9.811v42.051c0 11.344 4.005 21.75 10.676 29.889l-22.49-5.387c-3.444-.822-7.035-.822-10.49 0l-51.145 12.257v56.469c0 6.216 5.039 11.256 11.255 11.256h428.587c6.216 0 11.255-5.039 11.255-11.256v-56.469zm-203.873-219.334h-19.009l-14.621-8.802c-5.295-3.188-3.035-11.323 3.145-11.323h25.485c2.761 0 5 2.239 5 5zm92.97-8.802-14.621 8.802h-19.009v-15.125c0-2.761 2.239-5 5-5h25.484c6.181 0 8.441 8.136 3.146 11.323z" fill="#2626bc" opacity=".1"/><g><g><path d="m393.151 114.94v12.454c0 1.754-.919 3.379-2.422 4.284l-63.968 38.502h-31.69l24.43-14.707c5.295-3.188 3.035-11.324-3.145-11.324h-25.485c-2.761 0-5 2.239-5 5v21.03h-59.34v-21.03c0-2.761-2.239-5-5-5h-25.485c-6.181 0-8.441 8.136-3.145 11.324l24.43 14.706h-31.69l-63.968-38.502c-1.503-.904-2.422-2.53-2.422-4.284v-12.453c0-2.761 2.239-5 5-5h263.9c2.762 0 5 2.239 5 5z" fill="#d2deff"/><path d="m198.14 109.94c-.8 21.44-13.61 39.8-31.89 48.57l-44.58-26.83c-1.5-.91-2.42-2.53-2.42-4.29v-12.45c0-2.76 2.24-5 5-5z" fill="#b7c5ff"/><g><g><g><path d="m121.292 271.839h35.013v35.853h-35.013z" fill="#ff7eb8"/><path d="m131.983 281.637h13.631v16.257h-13.631z" fill="#ff5ba8"/></g><g><g><g><path d="m226.332 235.984h35.013v35.853h-35.013z" fill="#ff7eb8"/><path d="m237.023 245.782h13.631v16.257h-13.631z" fill="#ff5ba8"/></g><g><path d="m191.319 235.984h35.013v35.853h-35.013z" fill="#97ffd2"/><path d="m202.01 245.782h13.631v16.257h-13.631z" fill="#01eca5"/></g><g><path d="m156.305 235.984h35.013v35.853h-35.013z" fill="#ff7eb8"/><path d="m166.996 245.782h13.631v16.257h-13.631z" fill="#ff5ba8"/></g><g><path d="m121.292 235.984h35.013v35.853h-35.013z" fill="#8399fe"/><path d="m131.983 245.782h13.631v16.257h-13.631z" fill="#6583fe"/></g></g></g><g><g><g><path d="m121.292 200.13h35.013v35.853h-35.013z" fill="#ff7eb8"/><path d="m131.983 209.928h13.631v16.257h-13.631z" fill="#ff5ba8"/></g><g><path d="m156.305 200.13h35.013v35.853h-35.013z" fill="#97ffd2"/><path d="m166.996 209.928h13.631v16.257h-13.631z" fill="#01eca5"/></g><g><path d="m191.319 200.13h35.013v35.853h-35.013z" fill="#ff7eb8"/><path d="m202.01 209.928h13.631v16.257h-13.631z" fill="#ff5ba8"/></g><g><path d="m226.332 200.13h35.013v35.853h-35.013z" fill="#8399fe"/><path d="m237.023 209.928h13.631v16.257h-13.631z" fill="#6583fe"/></g></g></g><g><g><g><path d="m226.332 164.275h35.013v35.853h-35.013z" fill="#ff7eb8"/><path d="m237.023 174.073h13.631v16.257h-13.631z" fill="#ff5ba8"/></g><g><path d="m191.319 164.275h35.013v35.853h-35.013z" fill="#97ffd2"/><path d="m202.01 174.073h13.631v16.257h-13.631z" fill="#01eca5"/></g><g><path d="m156.305 164.275h35.013v35.853h-35.013z" fill="#ff7eb8"/><path d="m166.996 174.073h13.631v16.257h-13.631z" fill="#ff5ba8"/></g><g><path d="m121.292 164.275h35.013v35.853h-35.013z" fill="#8399fe"/><path d="m131.983 174.073h13.631v16.257h-13.631z" fill="#6583fe"/></g></g></g></g><g><g><path d="m355.695 271.839h35.013v35.853h-35.013z" fill="#8399fe"/><path d="m366.386 281.637h13.631v16.257h-13.631z" fill="#6583fe"/></g><g><g><g><path d="m355.695 235.984h35.013v35.853h-35.013z" fill="#ff7eb8"/><path d="m366.386 245.782h13.631v16.257h-13.631z" fill="#ff5ba8"/></g><g><path d="m320.681 235.984h35.013v35.853h-35.013z" fill="#97ffd2"/><path d="m331.372 245.782h13.631v16.257h-13.631z" fill="#01eca5"/></g><g><path d="m285.668 235.984h35.013v35.853h-35.013z" fill="#ff7eb8"/><path d="m296.359 245.782h13.631v16.257h-13.631z" fill="#ff5ba8"/></g><g><path d="m250.655 235.984h35.013v35.853h-35.013z" fill="#8399fe"/><path d="m261.346 245.782h13.631v16.257h-13.631z" fill="#6583fe"/></g></g></g><g><g><g><path d="m250.655 200.13h35.013v35.853h-35.013z" fill="#ff7eb8"/><path d="m261.345 209.928h13.631v16.257h-13.631z" fill="#ff5ba8"/></g><g><path d="m285.668 200.13h35.013v35.853h-35.013z" fill="#97ffd2"/><path d="m296.359 209.928h13.631v16.257h-13.631z" fill="#01eca5"/></g><g><path d="m320.681 200.13h35.013v35.853h-35.013z" fill="#ff7eb8"/><path d="m331.372 209.928h13.631v16.257h-13.631z" fill="#ff5ba8"/></g><g><path d="m355.695 200.13h35.013v35.853h-35.013z" fill="#8399fe"/><path d="m366.386 209.928h13.631v16.257h-13.631z" fill="#6583fe"/></g></g></g><g><g><g><path d="m355.695 164.275h35.013v35.853h-35.013z" fill="#ff7eb8"/><path d="m366.386 174.073h13.631v16.257h-13.631z" fill="#ff5ba8"/></g><g><path d="m320.681 164.275h35.013v35.853h-35.013z" fill="#97ffd2"/><path d="m331.372 174.073h13.631v16.257h-13.631z" fill="#01eca5"/></g><g><path d="m285.668 164.275h35.013v35.853h-35.013z" fill="#ff7eb8"/><path d="m296.359 174.073h13.631v16.257h-13.631z" fill="#ff5ba8"/></g><g><path d="m250.655 164.275h35.013v35.853h-35.013z" fill="#8399fe"/><path d="m261.346 174.073h13.631v16.257h-13.631z" fill="#6583fe"/></g></g></g></g></g><path d="m366.654 306.348h-221.308l8.325-39.429c.976-4.625 5.058-7.934 9.784-7.934h185.09c4.727 0 8.808 3.309 9.784 7.934z" fill="#b7c5ff"/><g fill="#8399fe"><circle cx="195.074" cy="288.217" r="13.131"/><circle cx="316.926" cy="288.217" r="13.131"/></g><path d="m265.423 282.666h-18.846v-120.486c0-5.204 4.219-9.423 9.423-9.423 5.204 0 9.423 4.219 9.423 9.423z" fill="#fff"/><path d="m360.912 406.295h-209.824c-26.061 0-47.188-21.127-47.188-47.188v-42.051c0-4.777 3.378-8.887 8.065-9.811l144.035-28.409 144.035 28.409c4.686.924 8.065 5.034 8.065 9.811v42.051c0 26.061-21.127 47.188-47.188 47.188z" fill="#d2deff"/><path d="m256 278.836 144.035 28.409c4.686.924 8.065 5.034 8.065 9.811v42.051c0 26.061-21.127 47.188-47.188 47.188h-104.912z" fill="#b7c5ff"/><path d="m408.1 317.06v15.49l-152.1-30-152.1 30v-15.49c0-4.777 3.378-8.887 8.065-9.811l144.035-28.409 144.035 28.409c4.687.924 8.065 5.034 8.065 9.811z" fill="#fff"/><path d="m256 278.84 144.035 28.409c4.687.924 8.065 5.034 8.065 9.811v15.49l-152.1-30z" fill="#d2deff"/><path d="m360.912 406.295h-209.824c-26.061 0-47.188-21.127-47.188-47.188h304.2c0 26.061-21.127 47.188-47.188 47.188z" fill="#ff5ba8"/><path d="m408.1 359.11c0 13.03-5.28 24.83-13.82 33.36-8.54 8.54-20.34 13.82-33.37 13.82h-104.91v-47.18z" fill="#fe2c8f"/><g><path d="m481.549 395.866v56.469c0 6.216-5.039 11.256-11.256 11.256h-428.587c-6.216 0-11.256-5.039-11.256-11.256v-56.469l51.145-12.257c3.455-.822 7.046-.822 10.49 0l45.911 10.996c3.444.822 7.035.822 10.479 0l45.9-10.996c3.444-.822 7.046-.822 10.49 0l45.9 10.996c3.444.822 7.035.822 10.49 0l45.889-10.996c3.456-.822 7.046-.822 10.49 0l45.9 10.996c3.444.822 7.035.822 10.49 0l45.9-10.996c3.444-.822 7.035-.822 10.479 0z" fill="#9fb0fe"/><g><path d="m481.549 411.872v11.413c-.439 0-.867-.045-1.306-.146l-51.145-12.257c-2.578-.608-5.29-.608-7.868 0l-45.9 10.997c-4.288 1.024-8.813 1.024-13.101 0l-45.9-10.997c-2.577-.608-5.29-.608-7.868 0l-45.9 10.997c-4.288 1.024-8.813 1.024-13.102 0l-45.911-10.997c-2.566-.608-5.29-.608-7.856 0l-45.9 10.997c-4.288 1.024-8.824 1.024-13.113 0l-45.9-10.997c-2.578-.608-5.301-.608-7.868 0l-51.156 12.257c-.439.101-.878.158-1.306.158v-11.425l49.839-11.931c4.288-1.024 8.824-1.024 13.101 0l45.911 10.997c2.577.608 5.29.608 7.868 0l45.9-10.997c4.288-1.024 8.813-1.024 13.101 0l45.9 10.997c2.578.608 5.301.608 7.868 0l45.9-10.997c4.288-1.024 8.824-1.024 13.113 0l45.9 10.997c2.566.608 5.29.608 7.856 0l45.9-10.997c4.288-1.024 8.824-1.024 13.113 0z" fill="#b7c5ff"/></g></g><path d="" style="fill:none;stroke:#2626bc;stroke-width:10;stroke-linecap:round;stroke-linejoin:round;stroke-miterlimit:10"/><g><g><g><path d="m174.49 130.45h-6.816c-2.762 0-5-2.238-5-5s2.238-5 5-5h6.816c2.762 0 5 2.238 5 5s-2.239 5-5 5z" fill="#8399fe"/></g><g><path d="m217.013 130.45h-6.816c-2.762 0-5-2.238-5-5s2.238-5 5-5h6.816c2.762 0 5 2.238 5 5s-2.238 5-5 5z" fill="#8399fe"/></g><g><path d="m242.254 130.45h-6.816c-2.762 0-5-2.238-5-5s2.238-5 5-5h6.816c2.762 0 5 2.238 5 5s-2.238 5-5 5z" fill="#8399fe"/></g></g><g><g><path d="m337.51 130.45h6.816c2.762 0 5-2.238 5-5s-2.238-5-5-5h-6.816c-2.762 0-5 2.238-5 5s2.239 5 5 5z" fill="#8399fe"/></g><g><path d="m294.987 130.45h6.816c2.762 0 5-2.238 5-5s-2.238-5-5-5h-6.816c-2.762 0-5 2.238-5 5s2.238 5 5 5z" fill="#8399fe"/></g><g><path d="m269.746 130.45h6.816c2.762 0 5-2.238 5-5s-2.238-5-5-5h-6.816c-2.762 0-5 2.238-5 5s2.238 5 5 5z" fill="#8399fe"/></g></g></g><path d="m191.318 88.019h129.363v21.921h-129.363z" fill="#ff5ba8"/><g fill="#ffc4df"><path d="m281.241 88.019h17.491v21.921h-17.491z"/><path d="m260.1 88.019h12.491v21.921h-12.491z"/></g></g><g><path d="m216.399 330.962-13.751 2.5v-13.751l13.751-2.5z" fill="#9fb0fe"/><path d="m295.601 330.962 13.751 2.5v-13.751l-13.751-2.5z" fill="#8399fe"/></g></g><g><circle cx="141.983" cy="88.16" fill="#01eca5" r="56.202"/><g><path d="m165.679 77.165c0-13.31-10.973-24.056-24.366-23.686-12.734.352-22.973 10.851-23.025 23.589-.02 5.045 1.537 9.725 4.205 13.576 3.078 4.442 5.771 9.138 8.001 14.06l9.772 21.565c.669 1.476 2.765 1.476 3.434 0l9.846-21.729c2.221-4.902 4.946-9.55 7.99-13.988 2.613-3.81 4.143-8.42 4.143-13.387z" fill="#ff7eb8"/><circle cx="141.9" cy="77.34" fill="#fff" r="13.69"/></g></g></g><path d="m72.619 289.587c-3.873 0-7.515-1.509-10.254-4.248-5.653-5.653-5.653-14.852.001-20.505 5.652-5.654 14.854-5.654 20.506 0 5.654 5.653 5.654 14.852 0 20.505-2.738 2.739-6.38 4.248-10.253 4.248zm0-18.998c-1.152 0-2.305.438-3.183 1.315-1.754 1.755-1.754 4.609 0 6.364.851.851 1.98 1.318 3.183 1.318s2.332-.468 3.182-1.318c1.755-1.755 1.755-4.609.001-6.364-.878-.877-2.031-1.315-3.183-1.315z" fill="#ff7eb8"/><path d="m427.1 201.686c-3.713 0-7.426-1.413-10.252-4.24-2.739-2.738-4.248-6.379-4.248-10.253 0-3.873 1.509-7.514 4.248-10.253 5.653-5.655 14.854-5.653 20.505 0 5.653 5.654 5.653 14.854 0 20.506-2.827 2.826-6.54 4.24-10.253 4.24zm.001-18.992c-1.152 0-2.305.438-3.183 1.315-.85.851-1.318 1.981-1.318 3.183s.468 2.332 1.318 3.182c1.754 1.756 4.608 1.755 6.364.001 1.754-1.755 1.754-4.61-.001-6.365-.877-.877-2.029-1.316-3.18-1.316z" fill="#6583fe"/><path d="m452.068 350.936c-1.279 0-2.56-.488-3.535-1.465l-5.965-5.964-5.965 5.964c-1.951 1.953-5.119 1.953-7.07 0-1.953-1.952-1.953-5.118 0-7.07l9.5-9.5c1.951-1.953 5.119-1.953 7.07 0l9.5 9.5c1.953 1.952 1.953 5.118 0 7.07-.975.976-2.255 1.465-3.535 1.465z" fill="#ff7eb8"/><path d="m90.281 239.031c-1.279 0-2.56-.488-3.535-1.465l-5.965-5.964-5.965 5.964c-1.951 1.953-5.119 1.953-7.07 0-1.953-1.952-1.953-5.118 0-7.07l9.5-9.5c1.951-1.953 5.119-1.953 7.07 0l9.5 9.5c1.953 1.952 1.953 5.118 0 7.07-.975.977-2.255 1.465-3.535 1.465z" fill="#6583fe"/><path d="m436.6 151.107c-1.279 0-2.56-.488-3.535-1.465l-5.965-5.964-5.965 5.964c-1.951 1.953-5.119 1.953-7.07 0-1.953-1.952-1.953-5.118 0-7.07l9.5-9.5c1.951-1.953 5.119-1.953 7.07 0l9.5 9.5c1.953 1.952 1.953 5.118 0 7.07-.976.977-2.256 1.465-3.535 1.465z" fill="#00eca2"/></g><path d="m116.292 301.297-5.294 1.044c-7.01 1.382-12.098 7.57-12.098 14.716v42.051c0 7.756 1.7 15.282 4.952 22.179l-10.605-2.54c-4.185-.998-8.614-.998-12.816.001l-51.145 12.257c-2.686.644-4.341 3.342-3.697 6.027s3.341 4.341 6.027 3.697l51.137-12.255c2.681-.638 5.507-.638 8.168-.002l45.915 10.997c4.188 1 8.614.999 12.806-.001l45.896-10.995c2.671-.638 5.497-.639 8.164-.001l45.904 10.997c4.186.999 8.614 1 12.815-.001l45.881-10.994c2.68-.638 5.506-.638 8.168-.002l45.904 10.997c4.186.999 8.615 1 12.816-.001l45.896-10.995c2.668-.638 5.487-.637 8.153-.001l51.145 12.257c.392.094.783.139 1.169.139 2.26 0 4.309-1.542 4.858-3.836.644-2.686-1.012-5.384-3.697-6.027l-51.148-12.258c-4.188-1.001-8.615-.998-12.806.001l-10.614 2.543c3.253-6.897 4.953-14.425 4.953-22.182 0-2.762-2.238-5-5-5s-5 2.238-5 5c0 8.792-2.688 17.225-7.774 24.387-.225.316-.397.652-.539.996l-21.918 5.251c-2.68.639-5.504.637-8.168.002l-45.904-10.997c-4.184-.998-8.613-.998-12.816.001l-45.881 10.994c-2.68.639-5.505.637-8.167.002l-45.904-10.997c-4.191-1-8.621-1-12.816.001l-45.896 10.995c-2.67.637-5.491.636-8.153.001l-21.95-5.257c-.142-.342-.313-.677-.537-.992-5.086-7.162-7.774-15.595-7.774-24.387v-42.051c0-2.382 1.695-4.444 4.032-4.905l143.066-28.22 143.068 28.219c2.336.461 4.031 2.523 4.031 4.905v12.798c0 2.762 2.238 5 5 5s5-2.238 5-5v-12.798c0-7.146-5.088-13.334-12.097-14.716l-5.295-1.044v-137.02c0-2.762-2.238-5-5-5h-35.013s0 0 0 0h-1.322l38.734-23.314c2.987-1.798 4.844-5.081 4.844-8.568v-12.454c0-5.514-4.486-10-10-10h-62.269v-11.922h4.995c2.762 0 5-2.238 5-5s-2.238-5-5-5h-26.846v-11.522c0-2.762-2.238-5-5-5s-5 2.238-5 5v11.521h-15.677v-18.77c0-2.762-2.238-5-5-5s-5 2.238-5 5v18.77h-6.952v-18.77c0-2.762-2.238-5-5-5s-5 2.238-5 5v18.77h-10.803v-46.313c0-2.762-2.238-5-5-5s-5 2.238-5 5v46.313h-7.229v-18.77c0-2.762-2.238-5-5-5s-5 2.238-5 5v18.77h-10.217c-2.622-31.348-28.956-56.061-60.969-56.061-33.747 0-61.202 27.455-61.202 61.201 0 33.457 26.989 60.714 60.338 61.18l16.509 9.937h-1.322s0 0 0 0h-35.013c-2.762 0-5 2.238-5 5v137.022zm90.922-142.922-11.935-7.185c-.195-.118-.716-.432-.492-1.236s.83-.804 1.059-.804h25.484v10.126h-13.043c-.313-.338-.659-.651-1.073-.901zm-80.922 72.607v-25.852h25.013v25.852zm35.014 0v-25.852h25.013v25.852zm60.026 0h-25.013v-25.852h25.013zm10-25.851h10.245v25.852h-10.245zm-10-35.855v25.852h-25.013v-25.852zm-95.04 71.709h25.013v19.236c-1.203 1.657-2.084 3.572-2.526 5.664l-.201.951h-22.286zm35.014 0h25.013v12.999h-22.863c-.728 0-1.444.066-2.149.169v-13.168zm35.013 0h25.013v12.999h-25.013zm35.013 0h10.245v12.999h-10.245zm10.245-45.857h-10.245v-25.852h10.245zm-55.259 0h-25.013v-25.852h25.013zm-27.755 72.824c.485-2.299 2.542-3.968 4.892-3.968h78.122v12.6l-88.523 17.461zm96.469 5.979-3.455.682v-112.433c0-2.438 1.984-4.423 4.423-4.423s4.423 1.984 4.423 4.423v112.433l-3.455-.682c-.639-.127-1.297-.127-1.936 0zm25.636-104.655v25.852h-10.245v-25.852zm45.014 61.706v-25.852h25.013v25.852zm-35.014-25.851h25.013v25.852h-25.013zm-20.245 0h10.245v25.852h-10.245zm115.285 61.706h-22.286l-.201-.951c-.442-2.093-1.323-4.007-2.526-5.664v-19.236h25.013zm0-35.855h-25.013v-25.852h25.013zm-70.027-61.706v25.852h-25.013v-25.852zm-45.258 71.709h10.245v12.999h-10.245zm20.245 0h25.013v12.999h-25.013zm35.014 0h25.013v13.168c-.705-.104-1.421-.169-2.149-.169h-22.863v-12.999zm25.012-71.709v25.852h-25.013v-25.852zm-33.973-18.086-11.935 7.185c-.415.25-.76.563-1.073.901h-13.043v-10.126h25.484c.229 0 .835 0 1.059.804.224.805-.297 1.118-.492 1.236zm-46.298 112.794h78.122c2.35 0 4.406 1.669 4.892 3.968l5.509 26.093-88.523-17.461zm99.188 32.165-4.077-19.309h20.174v22.484zm-8.916-126.873h25.013v25.852h-25.013zm-269.914-81.117c0-28.232 22.969-51.201 51.202-51.201 28.232 0 51.201 22.969 51.201 51.201 0 28.233-22.969 51.202-51.201 51.202-28.233 0-51.202-22.968-51.202-51.202zm84.74 70.215-18.206-10.958c24.835-6.43 43.582-28.105 45.659-54.397h112.708v11.921h-92.772c-2.762 0-5 2.238-5 5s2.238 5 5 5h165.04v12.454l-51.471 30.98c-.415.25-.761.564-1.074.902h-12.797c3.813-2.708 5.511-7.421 4.239-11.999-1.351-4.861-5.647-8.127-10.693-8.127h-25.484c-5.514 0-10 4.486-10 10v10.126h-10.541c-1.347-6.566-7.17-11.52-14.129-11.52s-12.782 4.953-14.129 11.52h-10.541v-10.126c0-5.514-4.486-10-10-10h-25.484c-5.046 0-9.343 3.266-10.693 8.127-1.272 4.578.426 9.292 4.239 11.999h-12.797c-.313-.338-.66-.652-1.074-.902zm-49.229 10.902h25.013v25.852h-25.013zm0 107.564h20.174l-4.077 19.309-16.097 3.175z" fill="#2626bc"/></g></svg>