<svg id="Capa_1" enable-background="new 0 0 512 512" height="512" viewBox="0 0 512 512" width="512" xmlns="http://www.w3.org/2000/svg" xmlns:xlink="http://www.w3.org/1999/xlink"><linearGradient id="SVGID_1_" gradientUnits="userSpaceOnUse" x1="215.735" x2="382.735" y1="210.768" y2="518.768"><stop offset="0" stop-color="#c6d1ff"/><stop offset=".5834" stop-color="#e6d5f4"/><stop offset=".997" stop-color="#ffd9ec"/></linearGradient><g><g><path d="m364.823 64.28c-69.098-27.035-164.784-16.764-217.662 31.51-37.336 34.085-8.439 43.8 17.016 106.17 18.423 45.14-164.177 38.927-164.177 120.495 0 94.299 132.251 76.424 181.329 87.218 75.036 16.504 140.496 78.242 220.668 70.103 69.795-7.086 96.403-61.855 106.109-124.642 18.082-116.976-26.329-245.094-143.283-290.854z" fill="url(#SVGID_1_)"/></g><g><g fill="#2626bc" opacity=".1"><path d="m475.511 398.997-.001-89.601c0-5.53-4.48-10-10-10h-24.52v-84.737c0-3.341-2.708-6.049-6.049-6.049h-178.121c-3.34 0-6.048 2.708-6.048 6.049v84.737h-25.192v-118.86c0-5.52-4.48-10-10-10h-84.25c-23.27 0-43.46 16.06-48.7 38.74l-28.593 123.764c-2.328-1.833-5.031-2.903-7.925-2.903-8.675 0-15.708 9.444-15.708 21.094 0 11.136 6.431 20.234 14.575 21.017l-6.179 26.749h-2.31c-5.523 0-10 4.477-10 10v19.141c0 5.523 4.477 10 10 10h32.388c4.94 16.421 20.17 28.387 38.201 28.387s33.261-11.965 38.201-28.387h235.938c4.94 16.421 20.17 28.387 38.201 28.387s33.261-11.965 38.201-28.387h17.892c5.523 0 10-4.477 10-10v-19.141c-.001-5.523-4.479-10-10.001-10z"/><g><path d="m339.066 166.021 92.627 23.894c3.235.834 6.533-1.111 7.368-4.346l23.894-92.627c.834-3.235-1.111-6.533-4.346-7.367l-92.627-23.895c-3.235-.834-6.533 1.111-7.368 4.346l-23.894 92.627c-.834 3.235 1.112 6.533 4.346 7.368z"/><path d="m283.808 184.3c0 2.762 2.239 5 5 5s5-2.238 5-5c0-15.746 10.072-29.528 25.062-34.297 2.631-.837 4.086-3.648 3.249-6.28s-3.65-4.084-6.28-3.249c-19.159 6.093-32.031 23.705-32.031 43.826z"/><path d="m266.722 189.3c2.761 0 5-2.238 5-5 0-24.182 15.468-45.348 38.49-52.671 2.631-.837 4.086-3.648 3.249-6.28-.837-2.631-3.649-4.084-6.28-3.249-27.19 8.648-45.458 33.645-45.458 62.2-.001 2.761 2.238 5 4.999 5z"/></g></g><g><g><g><g><g><path d="m352.479 291.366h-95.659c-3.34 0-6.048-2.708-6.048-6.048v-95.659c0-3.34 2.708-6.048 6.048-6.048h95.659c3.341 0 6.049 2.708 6.049 6.048v95.659c0 3.34-2.708 6.048-6.049 6.048z" fill="#ffa8cf"/><path d="m265.893 198.731h77.514v77.514h-77.514z" fill="#ff5ba8" transform="matrix(0 1 -1 0 542.138 -67.162)"/><g fill="#ff7eb8"><path d="m334.527 205.758-68.632 68.632v-68.632z"/><path d="m336.384 233.914v42.334h-50.965l44.866-44.86c2.251-2.252 6.099-.657 6.099 2.526z"/></g></g><path d="m298.023 177.725h15.121v117.762h-15.121z" fill="#ffa8cf" transform="matrix(.707 .707 -.707 .707 256.809 -146.78)"/></g><g><g><path d="m434.941 291.366h-95.659c-3.34 0-6.048-2.708-6.048-6.048v-95.659c0-3.34 2.708-6.048 6.048-6.048h95.659c3.341 0 6.049 2.708 6.049 6.048v95.659c0 3.34-2.708 6.048-6.049 6.048z" fill="#ffa8cf"/><path d="m348.355 198.731h77.514v77.514h-77.514z" fill="#ff5ba8" transform="matrix(0 1 -1 0 624.6 -149.624)"/><g fill="#ff7eb8"><path d="m416.989 205.758-68.632 68.632v-68.632z"/><path d="m418.846 233.914v42.334h-50.965l44.866-44.86c2.251-2.252 6.099-.657 6.099 2.526z"/></g></g><path d="m380.485 177.725h15.121v117.762h-15.121z" fill="#ffa8cf" transform="matrix(.707 .707 -.707 .707 280.962 -205.089)"/></g></g><g><g><path d="m431.693 164.915-92.627-23.894c-3.235-.834-5.18-4.133-4.346-7.368l23.894-92.627c.834-3.235 4.133-5.18 7.368-4.346l92.627 23.894c3.235.834 5.18 4.133 4.346 7.368l-23.894 92.627c-.835 3.234-4.133 5.18-7.368 4.346z" fill="#ffa8cf"/><path d="m360.081 62.041h77.514v77.514h-77.514z" fill="#ff5ba8" transform="matrix(-.25 .968 -.968 -.25 596.063 -260.22)"/><g fill="#ff7eb8"><path d="m435.694 77.536-83.6 49.314 17.143-66.457z"/><path d="m430.459 105.263-10.574 40.992-49.349-12.73 54.649-32.232c2.741-1.617 6.069.888 5.274 3.97z"/></g></g><g><path d="m433.202 170.107c-.911 0-1.835-.113-2.757-.351l-92.627-23.894c-5.898-1.522-9.459-7.56-7.939-13.458l23.895-92.628c1.521-5.898 7.558-9.456 13.458-7.938l92.627 23.894c5.898 1.523 9.459 7.561 7.939 13.458l-23.895 92.628c-1.284 4.977-5.783 8.289-10.701 8.289zm-.26-10.034c.559.145 1.133-.193 1.277-.753l23.894-92.627c.144-.56-.194-1.133-.755-1.278l-92.626-23.893c-.559-.143-1.132.193-1.277.753l-23.894 92.627c-.144.56.194 1.133.754 1.277z" fill="#2626bc"/></g><path d="m392.401 41.296h15.121v117.762h-15.121z" fill="#ffa8cf" transform="matrix(.508 .861 -.861 .508 283.038 -295.213)"/></g></g><path d="m475.51 284.395v99.6h-439.02l46.14-199.72c5.24-22.68 25.43-38.74 48.7-38.74h84.25c5.52 0 10 4.48 10 10v118.86h239.93c5.52 0 10 4.47 10 10z" fill="#02ffb3"/><path d="m475.51 292.165v-7.769c0-5.53-4.48-10-10-10h-239.93c0 9.814 7.956 17.769 17.769 17.769z" fill="#00d890"/><path d="m156.476 250.045h11.434v123.952h-11.434z" fill="#01eca5"/><path d="m187.72 250.045h11.434v123.952h-11.434z" fill="#01eca5"/><path d="m85.276 176.118c-1.1 2.605-1.995 5.327-2.646 8.157l-17.5 75.77h92.78c5.523 0 10-4.477 10-10v-63.927c0-5.523-4.477-10-10-10z" fill="#b7c5ff"/><path d="m158.774 176.162-83.884 83.883h23.343l69.677-69.677v-4.251c0-5.231-4.019-9.517-9.136-9.955z" fill="#d2deff"/><path d="m118.751 260.045h39.159c5.523 0 10-4.477 10-10v-39.243c-16.42 16.381-32.791 32.811-49.159 49.243z" fill="#d2deff"/><path d="m225.58 176.115v83.93h-27.86c-5.53 0-10-4.48-10-10v-63.93c0-5.52 4.47-10 10-10z" fill="#b7c5ff"/><path d="m190.971 257.41c11.56-11.573 23.102-23.164 34.609-34.791v-38.625c-12.608 12.696-25.226 25.382-37.86 38.052v27.999c0 2.918 1.257 5.537 3.251 7.365z" fill="#d2deff"/><path d="m218.638 176.115h-20.918c-5.53 0-10 4.48-10 10v21.04c10.328-10.325 20.631-20.674 30.918-31.04z" fill="#d2deff"/><path d="m475.51 333.405v50.59h-439.02l11.69-50.59z" fill="#01eca5"/><g><path d="m156.48 333.405h11.43v40.59h-11.43z" fill="#00d890"/></g><g><path d="m187.724 333.405h11.43v40.59h-11.43z" fill="#00d890"/></g><path d="m460.374 326.232h15.136v-34.067h-15.136c-9.407 0-17.034 7.626-17.034 17.034.001 9.406 7.627 17.033 17.034 17.033z" fill="#ff7eb8"/><g><g><path d="m475.511 413.138h-439.022c-5.523 0-10-4.477-10-10v-19.141c0-5.523 4.477-10 10-10h439.021c5.523 0 10 4.477 10 10v19.141c.001 5.522-4.477 10-9.999 10z" fill="#d2deff"/><path d="m26.489 396.929v6.208c0 5.523 4.477 10 10 10h439.021c5.523 0 10-4.477 10-10v-6.208z" fill="#b7c5ff"/></g><g><g><g><g><g><g><g><circle cx="107.078" cy="401.631" fill="#6583fe" r="39.893"/><circle cx="107.078" cy="401.631" fill="#d2deff" r="18.066"/></g></g></g></g></g></g><g><circle cx="419.418" cy="401.631" fill="#6583fe" r="39.893"/><circle cx="419.418" cy="401.631" fill="#d2deff" r="18.066"/></g></g></g><g><path d="m456.314 353.331c-3.374 0-6.11-2.735-6.11-6.11v-.141c0-3.375 2.736-6.11 6.11-6.11s6.11 2.735 6.11 6.11v.141c0 3.374-2.736 6.11-6.11 6.11z" fill="#dcfdee"/></g><g fill="#2626bc"><path d="m288.808 164.3c-2.761 0-5-2.238-5-5 0-20.12 12.872-37.732 32.031-43.826 2.63-.834 5.443.617 6.28 3.249s-.618 5.443-3.249 6.28c-14.99 4.769-25.062 18.551-25.062 34.297 0 2.761-2.239 5-5 5z"/><path d="m266.722 164.3c-2.761 0-5-2.238-5-5 0-28.556 18.269-53.552 45.458-62.2 2.631-.834 5.443.618 6.28 3.249.837 2.632-.618 5.443-3.249 6.28-23.022 7.323-38.49 28.489-38.49 52.671.001 2.761-2.238 5-4.999 5z"/></g><g><path d="m46.113 305.138h21.806c11.65 0 21.094 9.444 21.094 21.094 0 11.65-9.444 21.094-21.094 21.094h-21.806z" fill="#ff7eb8"/><path d="m46.113 330.245v17.08h21.806c10.273 0 18.792-7.356 20.668-17.08z" fill="#ff5ba8"/><ellipse cx="46.113" cy="326.232" fill="#ffdbed" rx="15.708" ry="21.094"/><path d="m475.511 368.997h-25.307c-.002 0-.004 0-.006 0-8.044-7.591-18.874-12.259-30.78-12.259s-22.736 4.668-30.78 12.259h-250.766c-.004 0-.008.001-.012.001-8.044-7.592-18.874-12.26-30.781-12.26-11.906 0-22.736 4.668-30.78 12.259h-31.213l3.851-16.671h18.981c14.388 0 26.094-11.706 26.094-26.095 0-14.388-11.706-26.094-26.094-26.094h-6.925l26.507-114.741c4.742-20.526 22.767-34.862 43.834-34.862h84.243c2.757 0 5 2.243 5 5v118.856c0 2.762 2.239 5 5 5h239.935c2.757 0 5 2.243 5 5v61.059c0 2.762 2.239 5 5 5s5-2.238 5-5v-61.059c0-8.271-6.729-15-15-15h-19.522v-79.731c0-6.093-4.956-11.049-11.048-11.049h-95.659c-6.092 0-11.048 4.956-11.048 11.049v79.731h-72.462v-79.732c0-.578.47-1.048 1.048-1.048h48.6c2.761 0 5-2.238 5-5s-2.239-5-5-5h-48.6c-6.092 0-11.048 4.956-11.048 11.048v79.732h-15.195v-113.856c0-8.271-6.729-15-15-15h-84.243c-25.75 0-47.781 17.522-53.577 42.612l-27.028 116.991h-4.618c-11.419 0-20.708 11.706-20.708 26.094 0 11.259 5.688 20.874 13.633 24.525l-4.237 18.343c-7.477.843-13.31 7.199-13.31 14.898v19.141c0 8.271 6.729 15 15 15h28.854c6.592 16.607 22.809 28.387 41.735 28.387s35.144-11.779 41.735-28.387h228.868c6.592 16.607 22.809 28.387 41.735 28.387s35.144-11.779 41.735-28.387h14.357c8.271 0 15-6.729 15-15v-19.141c.002-8.272-6.727-15-14.998-15zm-137.277-179.338c0-.578.47-1.049 1.048-1.049h95.659c.578 0 1.048.471 1.048 1.049v79.731h-97.756v-79.731zm-275.839 120.478h5.524c8.875 0 16.094 7.22 16.094 16.095 0 8.874-7.22 16.094-16.094 16.094h-5.524c2.769-4.438 4.426-10.025 4.426-16.095 0-6.069-1.658-11.656-4.426-16.094zm-16.282 0c5.804 0 10.708 7.37 10.708 16.094 0 8.725-4.904 16.095-10.708 16.095-5.805 0-10.708-7.37-10.708-16.095-.001-8.723 4.903-16.094 10.708-16.094zm16.073 91.495c0 2.21.167 4.381.477 6.506h-26.174c-2.757 0-5-2.243-5-5v-19.141c0-2.757 2.243-5 5-5h31.844c-3.9 6.651-6.147 14.383-6.147 22.635zm44.893 34.892c-19.24 0-34.893-15.652-34.893-34.893s15.653-34.894 34.893-34.894 34.893 15.653 34.893 34.894-15.653 34.893-34.893 34.893zm267.446-34.892c0 2.21.167 4.381.477 6.506h-223.508c.31-2.125.477-4.296.477-6.506 0-8.251-2.248-15.984-6.148-22.635h234.849c-3.9 6.651-6.147 14.383-6.147 22.635zm44.893 34.892c-19.24 0-34.893-15.652-34.893-34.893s15.653-34.894 34.893-34.894 34.893 15.653 34.893 34.894-15.653 34.893-34.893 34.893zm61.093-33.387c0 2.757-2.243 5-5 5h-11.677c.31-2.125.477-4.296.477-6.506 0-8.251-2.248-15.984-6.148-22.635h17.348c2.757 0 5 2.243 5 5z" fill="#2626bc"/></g><path d="m116.52 276.245c0-3.247 2.632-5.879 5.879-5.879h15c3.247 0 5.879 2.632 5.879 5.879 0 3.247-2.632 5.879-5.879 5.879h-15c-3.247 0-5.879-2.632-5.879-5.879z" fill="#00d890"/><path d="m423.15 347.15h-41.536c-2.761 0-5-2.239-5-5v-17.999c0-2.761 2.239-5 5-5h41.536c2.761 0 5 2.239 5 5v17.999c0 2.762-2.238 5-5 5z" fill="#fff"/></g><path d="m475.51 145.074c-3.713 0-7.426-1.413-10.253-4.24-5.653-5.653-5.653-14.852 0-20.505 5.653-5.655 14.853-5.654 20.506 0 5.653 5.653 5.653 14.852 0 20.505-2.826 2.827-6.539 4.24-10.253 4.24zm.001-18.99c-1.153 0-2.305.438-3.182 1.315-1.754 1.755-1.754 4.609 0 6.364 1.753 1.754 4.609 1.754 6.364 0 1.754-1.755 1.754-4.609 0-6.364-.878-.877-2.03-1.315-3.182-1.315z" fill="#00eca2"/><path d="m230.08 475.017c-3.713 0-7.426-1.413-10.253-4.24-5.654-5.653-5.654-14.853 0-20.506 5.653-5.655 14.853-5.654 20.506 0 5.654 5.653 5.654 14.853 0 20.506-2.827 2.827-6.54 4.24-10.253 4.24zm0-18.991c-1.153 0-2.305.438-3.182 1.315-1.755 1.755-1.755 4.61 0 6.365 1.753 1.753 4.609 1.755 6.364 0s1.755-4.61 0-6.365c-.877-.876-2.03-1.315-3.182-1.315z" fill="#ff7eb8"/><path d="m105.506 128.521c-3.873 0-7.515-1.509-10.253-4.248-5.653-5.653-5.653-14.852 0-20.505 5.653-5.655 14.853-5.654 20.506 0 5.653 5.653 5.653 14.852 0 20.505-2.738 2.739-6.379 4.248-10.253 4.248zm.001-18.998c-1.153 0-2.305.438-3.182 1.315-1.754 1.755-1.754 4.609 0 6.364.85.851 1.98 1.318 3.182 1.318s2.332-.468 3.182-1.318c1.755-1.755 1.755-4.609 0-6.364-.877-.876-2.03-1.315-3.182-1.315z" fill="#ff7eb8"/><g fill="#6583fe"><path d="m197.224 456.024c-1.28 0-2.559-.488-3.536-1.465l-5.964-5.964-5.964 5.964c-1.953 1.953-5.118 1.953-7.071 0-1.953-1.952-1.953-5.118 0-7.07l9.5-9.5c1.953-1.953 5.118-1.953 7.071 0l9.5 9.5c1.953 1.952 1.953 5.118 0 7.07-.977.977-2.256 1.465-3.536 1.465z"/><path d="m317.581 74.119c-1.28 0-2.559-.488-3.536-1.465l-5.964-5.964-5.964 5.964c-1.953 1.953-5.118 1.953-7.071 0-1.953-1.952-1.953-5.118 0-7.07l9.5-9.5c1.953-1.953 5.118-1.953 7.071 0l9.5 9.5c1.953 1.952 1.953 5.118 0 7.07-.977.977-2.256 1.465-3.536 1.465z"/></g></g></g></svg>