<svg id="Capa_1" enable-background="new 0 0 512 512" height="512" viewBox="0 0 512 512" width="512" xmlns="http://www.w3.org/2000/svg" xmlns:xlink="http://www.w3.org/1999/xlink"><linearGradient id="SVGID_1_" gradientUnits="userSpaceOnUse" x1="177.911" x2="427.911" y1="208.063" y2="312.063"><stop offset="0" stop-color="#c6d1ff"/><stop offset=".5834" stop-color="#e6d5f4"/><stop offset=".997" stop-color="#ffd9ec"/></linearGradient><g><g><path d="m345.832.425c-95.818 8.652-105.091 192.429-146.416 286.587-20.478 46.658-68.772 94.794-60.258 149.782 9.605 62.035 72.897 80.075 121.683 74.14 120.723-14.685 172.899-141.053 180.797-260.801 4.869-73.829 20.3-260.192-95.806-249.708z" fill="url(#SVGID_1_)"/></g><g><g><path d="m387.051 243.831c3.616-7.224-1.796-15.719-9.874-15.719h-39.352v-20.885c13.401-.412 24.195-19.851 24.195-43.787 0-5.205-.513-10.197-1.45-14.828 14.816-5.686 22.502-14.827 26.481-22.776 3.616-7.224-1.796-15.719-9.874-15.719h-39.352v-22.214c0-6.053-4.907-10.96-10.96-10.96h-154.798c-6.053 0-10.96 4.907-10.96 10.96v22.214h-39.352c-8.078 0-13.491 8.495-9.874 15.719 3.98 7.949 11.665 17.09 26.481 22.776-.937 4.631-1.45 9.623-1.45 14.828 0 23.936 10.794 43.375 24.195 43.787v20.885h-39.352c-8.078 0-13.491 8.495-9.874 15.719 3.991 7.971 11.709 17.139 26.606 22.822-.91 4.573-1.41 9.49-1.41 14.618 0 23.838 10.706 43.215 24.031 43.78v21.057h-39.352c-8.078 0-13.491 8.495-9.874 15.719 3.98 7.949 11.665 17.09 26.481 22.776-.937 4.632-1.45 9.623-1.45 14.828 0 23.936 10.794 43.375 24.195 43.787v21.832c0 6.053 4.907 10.96 10.96 10.96h154.797c6.053 0 10.96-4.907 10.96-10.96v-21.832c13.401-.412 24.195-19.851 24.195-43.787 0-5.206-.513-10.197-1.45-14.828 14.816-5.686 22.502-14.827 26.481-22.776 3.616-7.224-1.796-15.719-9.874-15.719h-39.352v-21.058c13.325-.565 24.031-19.941 24.031-43.78 0-5.127-.5-10.045-1.41-14.618 14.896-5.682 22.614-14.85 26.605-22.821z" fill="#2626bc" opacity=".1"/><g><g><g><ellipse cx="337.392" cy="138.44" fill="#01eca5" rx="24.627" ry="43.806"/><ellipse cx="337.228" cy="256.27" fill="#6583fe" rx="24.627" ry="43.806"/><ellipse cx="337.392" cy="374.429" fill="#fe2c8f" rx="24.627" ry="43.806"/><g fill="#9fb0fe"><path d="m331.75 85.117v43.888c34.811-1.403 49.284-16.151 55.301-28.17 3.616-7.224-1.796-15.719-9.874-15.719h-45.427z"/><path d="m331.75 203.112v43.888c34.811-1.403 49.284-16.151 55.301-28.17 3.616-7.224-1.796-15.719-9.874-15.719h-45.427z"/><path d="m331.75 321.106v43.888c34.811-1.403 49.284-16.151 55.301-28.17 3.616-7.224-1.796-15.719-9.874-15.719h-45.427z"/></g></g><g><ellipse cx="161.538" cy="138.44" fill="#01eca5" rx="24.627" ry="43.806"/><ellipse cx="161.703" cy="256.27" fill="#6583fe" rx="24.627" ry="43.806"/><ellipse cx="161.538" cy="374.429" fill="#fe2c8f" rx="24.627" ry="43.806"/><g fill="#9fb0fe"><path d="m167.18 85.117v43.888c-34.811-1.403-49.284-16.151-55.301-28.17-3.616-7.224 1.796-15.719 9.874-15.719h45.427z"/><path d="m167.18 203.112v43.888c-34.811-1.403-49.284-16.151-55.301-28.17-3.616-7.224 1.796-15.719 9.874-15.719h45.427z"/><path d="m167.18 321.106v43.888c-34.811-1.403-49.284-16.151-55.301-28.17-3.616-7.224 1.796-15.719 9.874-15.719h45.427z"/></g></g></g><g><path d="m326.864 451.008h-154.797c-6.053 0-10.96-4.907-10.96-10.96v-377.145c0-6.053 4.907-10.96 10.96-10.96h154.797c6.053 0 10.96 4.907 10.96 10.96v377.146c0 6.052-4.907 10.959-10.96 10.959z" fill="#d2deff"/><path d="m391.522 221.068c2.457-4.908 2.191-10.643-.711-15.341-2.946-4.77-8.043-7.616-13.635-7.616h-34.353v-11.661c14.136-4.116 24.195-23.795 24.195-48.011 0-3.991-.296-7.931-.855-11.759 13.915-6.335 21.376-15.651 25.358-23.606 2.457-4.908 2.191-10.643-.711-15.341-2.946-4.77-8.043-7.616-13.635-7.616h-34.353v-17.215c0-8.801-7.16-15.96-15.96-15.96h-154.795c-8.8 0-15.96 7.159-15.96 15.96v60.065c-24.458-3.598-35.121-15.112-39.756-24.37-.907-1.812-.807-3.856.276-5.609 1.11-1.798 3.027-2.871 5.127-2.871h9.367c2.761 0 5-2.238 5-5s-2.239-5-5-5h-9.367c-5.592 0-10.689 2.847-13.635 7.616-2.902 4.698-3.168 10.433-.711 15.341 3.989 7.967 11.452 17.273 25.357 23.603-.559 3.829-.854 7.77-.854 11.762 0 24.216 10.059 43.896 24.195 48.011v11.661h-34.353c-5.592 0-10.689 2.847-13.635 7.616-2.902 4.698-3.168 10.433-.711 15.341 4.001 7.992 11.498 17.332 25.487 23.663-.538 3.759-.82 7.625-.82 11.54 0 24.083 10.104 43.745 24.031 47.959v11.877h-34.353c-5.592 0-10.689 2.847-13.635 7.616-2.902 4.698-3.168 10.433-.711 15.341 3.988 7.965 11.449 17.271 25.35 23.6-.559 3.828-.847 7.769-.847 11.765 0 24.238 10.172 43.913 24.195 48.01v17.609c0 8.801 7.16 15.96 15.96 15.96h154.797c8.8 0 15.96-7.159 15.96-15.96v-17.608c14.136-4.116 24.195-23.795 24.195-48.011 0-3.997-.287-7.937-.846-11.763 13.91-6.335 21.368-15.649 25.349-23.602 2.457-4.908 2.191-10.643-.711-15.341-2.946-4.77-8.043-7.616-13.635-7.616h-34.353v-11.874c14.05-4.219 24.031-23.84 24.031-47.962 0-3.914-.282-7.779-.82-11.537 14.003-6.338 21.497-15.687 25.491-23.666zm-34.503-82.629c0 16.958-6.092 32.263-14.195 37.171v-42.543c5.028-.667 9.592-1.628 13.716-2.833.307 2.687.479 5.428.479 8.205zm20.157-48.322c2.1 0 4.017 1.073 5.127 2.871 1.083 1.753 1.184 3.798.276 5.609-4.626 9.241-15.281 20.776-39.756 24.375v-32.855zm-235.264 48.322c0-2.781.173-5.522.481-8.21 4.126 1.204 8.684 2.172 13.715 2.839v42.542c-8.105-4.908-14.196-20.213-14.196-37.171zm-25.561 78.153c-.907-1.812-.807-3.856.276-5.609 1.11-1.798 3.027-2.871 5.127-2.871h34.353v32.85c-24.458-3.598-35.121-15.112-39.756-24.37zm25.725 39.679c0-2.709.165-5.382.457-8.004 4.089 1.185 8.601 2.136 13.574 2.796v42.313c-8.556-5.273-14.031-21.927-14.031-37.105zm-25.725 78.316c-.907-1.812-.807-3.856.276-5.609 1.11-1.798 3.027-2.871 5.127-2.871h34.353v32.85c-24.459-3.599-35.122-15.113-39.756-24.37zm25.561 39.842c0-2.782.174-5.523.481-8.21 4.126 1.204 8.683 2.172 13.714 2.839v42.583c-8.653-5.145-14.195-21.894-14.195-37.212zm215.107 0c0 16.958-6.092 32.263-14.195 37.171v-8.626c0-2.762-2.239-5-5-5s-5 2.238-5 5v37.074c0 3.286-2.674 5.96-5.96 5.96h-154.797c-3.286 0-5.96-2.674-5.96-5.96v-377.146c0-3.286 2.674-5.96 5.96-5.96h154.797c3.286 0 5.96 2.674 5.96 5.96v310.819c0 2.762 2.239 5 5 5s5-2.238 5-5v-4.665c5.028-.667 9.591-1.628 13.715-2.832.307 2.685.48 5.423.48 8.205zm20.157-48.323c2.1 0 4.017 1.073 5.127 2.871 1.083 1.753 1.184 3.798.276 5.609-4.626 9.241-15.28 20.777-39.756 24.375v-32.855zm-20.321-69.835c0 16.843-6.01 32.052-14.031 37.066v-42.274c4.972-.66 9.487-1.608 13.574-2.794.292 2.622.457 5.294.457 8.002zm-14.031-15.303v-32.856h34.353c2.1 0 4.017 1.073 5.127 2.871 1.083 1.753 1.184 3.798.276 5.609-4.626 9.241-15.281 20.776-39.756 24.376z" fill="#2626bc"/></g><g><circle cx="249.465" cy="138.44" fill="#02ffb3" r="46.875"/><path d="m296.335 138.44c0 4.26-.57 8.4-1.64 12.32-8-.22-15.79-3.05-22.04-8.04-6.65-5.31-14.67-8.11-23.19-8.11s-16.54 2.8-23.19 8.11c-6.25 4.99-14.04 7.82-22.04 8.04-1.07-3.92-1.64-8.06-1.64-12.32 0-25.89 20.98-46.87 46.87-46.87s46.87 20.98 46.87 46.87z" fill="#01eca5"/><path d="m203.211 135.784c4.981 0 9.816-1.683 13.71-4.789 8.93-7.122 20.236-11.387 32.544-11.387s23.614 4.264 32.544 11.387c3.894 3.106 8.73 4.789 13.71 4.789 3.344 0 5.929-2.974 5.428-6.28-3.81-25.128-25.49-44.386-51.682-44.386s-47.872 19.258-51.682 44.386c-.501 3.306 2.084 6.28 5.428 6.28z" fill="#9fb0fe"/></g><g><circle cx="249.465" cy="256.434" fill="#8399fe" r="46.875"/><path d="m296.335 256.43c0 4.27-.57 8.4-1.64 12.33-8-.22-15.79-3.05-22.04-8.05-6.65-5.3-14.67-8.11-23.19-8.11s-16.54 2.81-23.19 8.12c-6.25 4.99-14.04 7.82-22.04 8.04-1.07-3.93-1.64-8.06-1.64-12.33 0-25.88 20.98-46.87 46.87-46.87s46.87 20.99 46.87 46.87z" fill="#6583fe"/><path d="m203.211 253.778c4.981 0 9.816-1.683 13.71-4.789 8.93-7.122 20.236-11.387 32.544-11.387s23.614 4.264 32.544 11.387c3.894 3.106 8.73 4.789 13.71 4.789 3.344 0 5.929-2.974 5.428-6.28-3.81-25.128-25.49-44.386-51.682-44.386s-47.872 19.258-51.682 44.386c-.501 3.307 2.084 6.28 5.428 6.28z" fill="#9fb0fe"/></g><g><circle cx="249.465" cy="374.429" fill="#ff7eb8" r="46.875"/><path d="m296.335 374.43c0 4.27-.57 8.4-1.64 12.32-8-.22-15.79-3.05-22.04-8.04-6.65-5.31-14.67-8.11-23.19-8.11s-16.54 2.8-23.19 8.11c-6.25 4.99-14.04 7.82-22.04 8.04-1.07-3.92-1.64-8.05-1.64-12.32 0-25.89 20.98-46.88 46.87-46.88s46.87 20.99 46.87 46.88z" fill="#ff5ba8"/><path d="m203.211 371.773c4.981 0 9.816-1.683 13.71-4.789 8.93-7.122 20.236-11.387 32.544-11.387s23.614 4.264 32.544 11.387c3.894 3.106 8.73 4.789 13.71 4.789 3.344 0 5.929-2.974 5.428-6.28-3.81-25.128-25.49-44.386-51.682-44.386s-47.872 19.258-51.682 44.386c-.501 3.306 2.084 6.28 5.428 6.28z" fill="#9fb0fe"/></g></g><g><g><g><path d="m189.818 431.361c-5.052 0-9.147-4.095-9.147-9.147v-.211c0-5.053 4.096-9.147 9.147-9.147 5.052 0 9.147 4.095 9.147 9.147v.211c0 5.052-4.096 9.147-9.147 9.147z" fill="#b7c5ff"/></g><g><path d="m309.113 431.361c-5.052 0-9.147-4.095-9.147-9.147v-.211c0-5.053 4.096-9.147 9.147-9.147s9.147 4.095 9.147 9.147v.211c0 5.052-4.096 9.147-9.147 9.147z" fill="#b7c5ff"/></g></g><g><g><path d="m189.818 87.724c-5.052 0-9.147-4.095-9.147-9.147v-.211c0-5.053 4.096-9.147 9.147-9.147 5.052 0 9.147 4.095 9.147 9.147v.211c0 5.052-4.096 9.147-9.147 9.147z" fill="#b7c5ff"/></g><g><path d="m309.113 87.724c-5.052 0-9.147-4.095-9.147-9.147v-.211c0-5.053 4.096-9.147 9.147-9.147s9.147 4.095 9.147 9.147v.211c0 5.052-4.096 9.147-9.147 9.147z" fill="#b7c5ff"/></g></g></g></g><path d="m81.397 331.659c-3.713 0-7.427-1.413-10.253-4.24-5.653-5.653-5.653-14.852 0-20.505s14.853-5.653 20.506 0 5.653 14.852 0 20.505c-2.826 2.827-6.54 4.24-10.253 4.24zm0-18.99c-1.152 0-2.305.438-3.182 1.315-1.754 1.755-1.754 4.609 0 6.364 1.754 1.754 4.61 1.753 6.364 0 1.754-1.755 1.754-4.609 0-6.364-.877-.877-2.029-1.315-3.182-1.315z" fill="#00eca2"/><path d="m366.256 60.047c-3.713 0-7.427-1.413-10.253-4.24-5.654-5.653-5.654-14.853 0-20.506s14.854-5.654 20.506 0c5.654 5.653 5.654 14.853 0 20.506-2.827 2.827-6.54 4.24-10.253 4.24zm-.001-18.991c-1.152 0-2.305.438-3.182 1.315-1.755 1.755-1.755 4.61 0 6.365 1.754 1.754 4.61 1.752 6.364 0 1.755-1.755 1.755-4.61 0-6.365-.877-.877-2.029-1.315-3.182-1.315z" fill="#6583fe"/><path d="m108.336 291.226c-1.28 0-2.559-.488-3.536-1.465l-5.964-5.964-5.964 5.964c-1.953 1.953-5.118 1.953-7.071 0-1.953-1.952-1.953-5.118 0-7.07l9.5-9.5c1.953-1.953 5.118-1.953 7.071 0l9.5 9.5c1.953 1.952 1.953 5.118 0 7.07-.977.976-2.256 1.465-3.536 1.465z" fill="#ff7eb8"/><path d="m381.019 461.209c-1.28 0-2.559-.488-3.536-1.465l-5.964-5.964-5.964 5.964c-1.953 1.953-5.118 1.953-7.071 0-1.953-1.952-1.953-5.118 0-7.07l9.5-9.5c1.953-1.953 5.118-1.953 7.071 0l9.5 9.5c1.953 1.952 1.953 5.118 0 7.07-.977.977-2.256 1.465-3.536 1.465z" fill="#ff7eb8"/><path d="m100.397 148.189c-1.28 0-2.559-.488-3.536-1.465l-5.964-5.964-5.964 5.964c-1.953 1.953-5.118 1.953-7.071 0-1.953-1.952-1.953-5.118 0-7.07l9.5-9.5c1.953-1.953 5.118-1.953 7.071 0l9.5 9.5c1.953 1.952 1.953 5.118 0 7.07-.977.977-2.256 1.465-3.536 1.465z" fill="#6583fe"/></g></g></svg>