<svg id="Capa_1" enable-background="new 0 0 512 512" height="512" viewBox="0 0 512 512" width="512" xmlns="http://www.w3.org/2000/svg" xmlns:xlink="http://www.w3.org/1999/xlink"><linearGradient id="SVGID_1_" gradientUnits="userSpaceOnUse" x1="542.63" x2="208.63" y1="522.94" y2="223.94"><stop offset="0" stop-color="#c6d1ff"/><stop offset=".5834" stop-color="#e6d5f4"/><stop offset=".997" stop-color="#ffd9ec"/></linearGradient><g><g><path d="m471.476 128.1c-65.417-50.293-128.867-9.306-199.64-23.797-71.285-14.597-99.685-63.201-180.876-40.766-71.922 19.873-115.562 99.551-76.024 166.258 11.267 19.009 30.461 33.35 38.305 54.619 12.653 34.311-6.607 60.653-2.85 94.372 15.612 140.101 229.574 85.834 308.303 42.245 123.47-68.36 206.998-220.497 112.782-292.931z" fill="url(#SVGID_1_)"/></g><g><g fill="#2626bc" opacity=".1"><path d="m63.603 113.176c-5.22 0-9.452 4.232-9.452 9.451v249.574c0 5.22 4.232 9.451 9.452 9.451s9.452-4.231 9.452-9.451v-249.574c0-5.22-4.232-9.451-9.452-9.451z"/><path d="m120.59 308.206c5.22 0 9.452-4.231 9.452-9.451v-176.128c0-5.22-4.232-9.451-9.452-9.451s-9.452 4.232-9.452 9.451v176.127c.001 5.22 4.232 9.452 9.452 9.452z"/><path d="m169.34 298.754v-176.127c0-5.22-4.232-9.451-9.452-9.451s-9.452 4.232-9.452 9.451v176.127c0 5.22 4.232 9.451 9.452 9.451s9.452-4.231 9.452-9.451z"/><path d="m448.902 381.653c5.22 0 9.452-4.231 9.452-9.451v-249.575c0-5.22-4.232-9.451-9.452-9.451s-9.452 4.232-9.452 9.451v249.574c0 5.22 4.232 9.452 9.452 9.452z"/><path d="m473.937 449.618-87.08-87.08c21.211-27.709 26.046-63.926 14.509-95.518v-144.393c0-5.22-4.232-9.451-9.452-9.451s-9.452 4.232-9.452 9.451v112.604c-1.417-1.609-2.886-3.188-4.423-4.725-4.966-4.966-10.323-9.301-15.972-13.01v-94.869c0-5.22-4.232-9.451-9.452-9.451s-9.452 4.232-9.452 9.451v85.167c-12.911-4.973-26.639-7.182-40.278-6.628v-78.538c0-5.22-4.232-9.451-9.452-9.451-5.22 0-9.452 4.232-9.452 9.451v81.111c-6.304 1.476-12.493 3.568-18.472 6.276v-87.387c0-5.22-4.232-9.451-9.452-9.451s-9.452 4.232-9.452 9.451v98.608c-3.716 2.801-7.286 5.886-10.671 9.271-3.567 3.567-6.806 7.338-9.724 11.271v-119.15c0-5.22-4.232-9.451-9.452-9.451-5.22 0-9.452 4.232-9.452 9.451v166.262c-2.332 18.457.453 37.435 8.359 54.641-5.961 2.1-10.24 7.766-10.24 14.445 0 8.465 6.863 15.328 15.328 15.328 4.434 0 8.416-1.894 11.214-4.903 1.276 1.43 2.595 2.835 3.968 4.207 36.038 36.038 92.638 38.974 132.033 8.817l87.08 87.08c5.215 5.215 13.671 5.215 18.886 0 5.218-5.216 5.218-13.671.003-18.887z"/><circle cx="117.469" cy="357.976" r="15.328"/><circle cx="169.173" cy="357.976" r="15.328"/></g><g><circle cx="220.756" cy="332.976" fill="#01eca5" r="15.328"/></g><g><path d="m92.641 399.517c-3.713 0-7.426-1.413-10.252-4.24-5.654-5.653-5.654-14.853 0-20.506 5.653-5.655 14.854-5.653 20.505 0 5.654 5.653 5.654 14.853 0 20.506-2.827 2.827-6.54 4.24-10.253 4.24zm0-18.992c-1.151 0-2.304.438-3.182 1.315-1.754 1.755-1.754 4.61 0 6.365 1.757 1.755 4.609 1.753 6.364 0 1.754-1.755 1.754-4.61 0-6.365-.878-.876-2.03-1.315-3.182-1.315z" fill="#ff7eb8"/><path d="m65.959 418.857c-1.279 0-2.56-.488-3.535-1.465l-5.965-5.964-5.965 5.964c-1.951 1.953-5.119 1.953-7.07 0-1.953-1.952-1.953-5.118 0-7.07l9.5-9.5c1.951-1.953 5.119-1.953 7.07 0l9.5 9.5c1.953 1.952 1.953 5.118 0 7.07-.975.977-2.256 1.465-3.535 1.465z" fill="#6583fe"/></g><g><path d="m313.753 63.827c-1.279 0-2.56-.488-3.535-1.465l-5.965-5.964-5.965 5.964c-1.951 1.953-5.119 1.953-7.07 0-1.953-1.952-1.953-5.118 0-7.07l9.5-9.5c1.951-1.953 5.119-1.953 7.07 0l9.5 9.5c1.953 1.952 1.953 5.118 0 7.07-.975.977-2.256 1.465-3.535 1.465z" fill="#00eca2"/></g><g><g><g><g><path d="m63.603 356.653c-5.22 0-9.452-4.232-9.452-9.452v-249.574c0-5.22 4.232-9.452 9.452-9.452 5.22 0 9.452 4.232 9.452 9.452v249.574c0 5.22-4.232 9.452-9.452 9.452z" fill="#6583fe"/></g><g><path d="m120.59 283.206c-5.22 0-9.452-4.232-9.452-9.452v-176.127c0-5.22 4.232-9.452 9.452-9.452 5.22 0 9.452 4.232 9.452 9.452v176.127c0 5.22-4.232 9.452-9.452 9.452z" fill="#6583fe"/></g><g><path d="m159.889 283.206c-5.22 0-9.452-4.232-9.452-9.452v-176.127c0-5.22 4.232-9.452 9.452-9.452 5.22 0 9.452 4.232 9.452 9.452v176.127c-.001 5.22-4.232 9.452-9.452 9.452z" fill="#6583fe"/></g><g><path d="m448.902 356.653c5.22 0 9.452-4.232 9.452-9.452v-249.574c0-5.22-4.232-9.452-9.452-9.452-5.22 0-9.452 4.232-9.452 9.452v249.574c0 5.22 4.232 9.452 9.452 9.452z" fill="#6583fe"/></g><g><path d="m391.915 283.206c5.22 0 9.452-4.232 9.452-9.452v-176.127c0-5.22-4.232-9.452-9.452-9.452-5.22 0-9.452 4.232-9.452 9.452v176.127c0 5.22 4.232 9.452 9.452 9.452z" fill="#6583fe"/></g><g><path d="m352.617 283.206c5.22 0 9.452-4.232 9.452-9.452v-176.127c0-5.22-4.232-9.452-9.452-9.452-5.22 0-9.452 4.232-9.452 9.452v176.127c0 5.22 4.232 9.452 9.452 9.452z" fill="#6583fe"/></g><g><path d="m216.762 283.206c-5.22 0-9.452-4.232-9.452-9.452v-176.127c0-5.22 4.232-9.452 9.452-9.452 5.22 0 9.452 4.232 9.452 9.452v176.127c-.001 5.22-4.232 9.452-9.452 9.452z" fill="#6583fe"/></g><g><path d="m256.06 283.206c-5.22 0-9.452-4.232-9.452-9.452v-176.127c0-5.22 4.232-9.452 9.452-9.452 5.22 0 9.452 4.232 9.452 9.452v176.127c0 5.22-4.232 9.452-9.452 9.452z" fill="#6583fe"/></g><g><path d="m293.435 283.206c-5.22 0-9.452-4.232-9.452-9.452v-176.127c0-5.22 4.232-9.452 9.452-9.452 5.22 0 9.452 4.232 9.452 9.452v176.127c0 5.22-4.232 9.452-9.452 9.452z" fill="#6583fe"/></g></g><g><g><path d="m54.152 142.104h18.903v20.779h-18.903z" fill="#9fb0fe"/></g><g><path d="m111.139 142.104h18.903v20.779h-18.903z" fill="#9fb0fe"/></g><g><path d="m150.437 142.104h18.903v20.779h-18.903z" fill="#9fb0fe"/></g><g><path d="m439.45 142.104h18.903v20.779h-18.903z" fill="#9fb0fe"/></g><g><path d="m382.463 142.104h18.903v20.779h-18.903z" fill="#9fb0fe"/></g><g><path d="m343.165 142.104h18.903v20.779h-18.903z" fill="#9fb0fe"/></g><g><path d="m207.31 142.104h18.903v20.779h-18.903z" fill="#9fb0fe"/></g><g><path d="m246.608 142.104h18.903v20.779h-18.903z" fill="#9fb0fe"/></g><g><path d="m283.984 142.104h18.903v20.779h-18.903z" fill="#9fb0fe"/></g></g><g fill="#2626bc"><path d="m63.604 361.653c-7.969 0-14.452-6.483-14.452-14.452v-249.574c0-7.969 6.483-14.451 14.452-14.451s14.451 6.482 14.451 14.451v108.615c0 2.762-2.238 5-5 5s-5-2.238-5-5v-108.615c0-2.454-1.997-4.451-4.451-4.451-2.455 0-4.452 1.997-4.452 4.451v249.574c0 2.455 1.997 4.452 4.452 4.452 2.454 0 4.451-1.997 4.451-4.452v-111.706c0-2.762 2.238-5 5-5s5 2.238 5 5v111.706c0 7.969-6.483 14.452-14.451 14.452z"/><path d="m120.591 288.206c-7.969 0-14.452-6.483-14.452-14.452v-176.127c0-7.969 6.483-14.451 14.452-14.451s14.451 6.482 14.451 14.451v176.127c0 7.969-6.482 14.452-14.451 14.452zm0-195.03c-2.455 0-4.452 1.997-4.452 4.451v176.127c0 2.455 1.997 4.452 4.452 4.452 2.454 0 4.451-1.997 4.451-4.452v-176.127c0-2.454-1.997-4.451-4.451-4.451z"/><path d="m159.889 288.206c-7.969 0-14.451-6.483-14.451-14.452v-176.127c0-7.969 6.482-14.451 14.451-14.451s14.451 6.482 14.451 14.451v176.127c0 7.969-6.483 14.452-14.451 14.452zm0-195.03c-2.454 0-4.451 1.997-4.451 4.451v176.127c0 2.455 1.997 4.452 4.451 4.452s4.451-1.997 4.451-4.452v-176.127c0-2.454-1.997-4.451-4.451-4.451z"/><path d="m448.902 361.653c-7.969 0-14.452-6.483-14.452-14.452v-249.574c0-7.969 6.483-14.451 14.452-14.451s14.451 6.482 14.451 14.451v249.574c.001 7.969-6.482 14.452-14.451 14.452zm0-268.477c-2.455 0-4.452 1.997-4.452 4.451v249.574c0 2.455 1.997 4.452 4.452 4.452 2.454 0 4.451-1.997 4.451-4.452v-249.574c.001-2.454-1.997-4.451-4.451-4.451z"/></g></g><g><g><g><g><path d="m473.937 443.505c-5.215 5.215-13.671 5.215-18.887 0l-98.065-98.065 18.887-18.886 98.065 98.065c5.215 5.215 5.215 13.67 0 18.886z" fill="#8399fe"/><path d="m398.251 348.93c-2.73 3.46-5.7 6.79-8.9 9.99-3.18 3.18-6.51 6.15-9.98 8.91l-22.39-22.39 18.89-18.89z" fill="#6583fe"/><path d="m423.798 412.252 31.253 31.253c5.215 5.215 13.671 5.215 18.886 0s5.215-13.671 0-18.886l-31.253-31.253z" fill="#ff5ba8"/></g><circle cx="306.989" cy="276.557" fill="#ff7eb8" r="100.481"/><circle cx="306.989" cy="276.557" fill="#ffc4df" r="77.332"/><g fill="#6583fe"><path d="m376.8 243.266v47.38c0 6.56-5.31 11.87-11.86 11.87-6.56 0-11.87-5.31-11.87-11.87v-76.2c3 2.23 5.88 4.71 8.6 7.43 6.4 6.4 11.45 13.65 15.13 21.39z"/><path d="m255.6 218.786v71.86c0 6.56-5.31 11.87-11.86 11.87s-11.86-5.31-11.86-11.87v-32.54c3.25-13.28 10.06-25.86 20.43-36.23 1.07-1.07 2.17-2.11 3.29-3.09z"/><path d="m302.52 199.366v91.28c0 6.56-5.31 11.87-11.87 11.87-6.55 0-11.86-5.31-11.86-11.87v-86.11c7.64-2.99 15.65-4.72 23.73-5.17z"/></g><path d="m477.472 421.083-84.051-84.051c19.81-28.285 24.127-64.194 12.949-95.8v-143.606c0-7.968-6.486-14.45-14.46-14.45-3.856 0-7.484 1.504-10.214 4.234-2.732 2.729-4.236 6.357-4.236 10.216v100.445c-3.311-2.98-6.781-5.729-10.39-8.24v-92.205c0-7.968-6.482-14.45-14.45-14.45-3.863 0-7.495 1.504-10.226 4.235-2.73 2.729-4.234 6.357-4.234 10.215v78.112c-9.688-2.982-19.86-4.564-30.271-4.651v-73.461c0-3.857-1.504-7.485-4.234-10.215-2.73-2.731-6.358-4.235-10.215-4.235-7.974 0-14.46 6.482-14.46 14.45v77.191c-2.865.784-5.69 1.693-8.471 2.715v-79.906c0-3.857-1.504-7.485-4.234-10.215-2.73-2.731-6.358-4.235-10.216-4.235-7.968 0-14.449 6.482-14.449 14.45v96.144c-3.2 2.537-6.277 5.27-9.208 8.201-.407.407-.793.827-1.192 1.239v-105.584c0-3.857-1.504-7.485-4.234-10.215-2.73-2.731-6.358-4.235-10.216-4.235-7.968 0-14.45 6.482-14.45 14.45v166.28c0 .005.001.009.001.014-2.107 17.609.207 35.652 6.943 52.31-5.42 3.732-8.824 9.952-8.824 16.745 0 11.21 9.12 20.33 20.33 20.33 3.824 0 7.536-1.111 10.729-3.099.305.312.604.628.913.937 16.134 16.134 36.562 26.421 59.075 29.751 2.733.398 5.273-1.484 5.678-4.215.404-2.731-1.483-5.273-4.215-5.678-20.374-3.014-38.863-12.325-53.468-26.929-37.228-37.229-37.228-97.804 0-135.032 18.034-18.033 42.012-27.965 67.517-27.965 25.504 0 49.481 9.932 67.516 27.965 37.228 37.229 37.228 97.803 0 135.032-14.683 14.681-33.272 24.009-53.761 26.975-2.732.396-4.627 2.932-4.231 5.665.36 2.489 2.498 4.284 4.942 4.284.238 0 .479-.018.723-.053 16.501-2.389 31.878-8.528 45.289-17.953l84.048 84.049c3.578 3.577 8.278 5.366 12.979 5.366s9.401-1.789 12.979-5.367c7.156-7.154 7.156-18.799-.001-25.955zm-265.162-323.457c0-2.454 1.996-4.45 4.45-4.45 1.186 0 2.303.464 3.146 1.306.841.842 1.305 1.959 1.305 3.145v117.555c-3.41 4.761-6.378 9.742-8.9 14.89v-132.446zm1.263 227.939c3.102 5.922 6.81 11.605 11.114 16.966-1.225.503-2.549.775-3.928.775-5.696 0-10.33-4.634-10.33-10.33.001-2.852 1.183-5.504 3.144-7.411zm134.587-227.939c0-1.186.464-2.303 1.305-3.145.843-.842 1.963-1.306 3.155-1.306 2.454 0 4.45 1.996 4.45 4.45v86.046c-2.904-1.57-5.877-2.998-8.91-4.284zm-59.18 0c0-2.454 2.001-4.45 4.46-4.45 1.186 0 2.302.464 3.145 1.306.841.842 1.305 1.959 1.305 3.145v73.843c-2.997.255-5.97.629-8.909 1.131v-74.975zm-37.37 0c0-2.454 1.996-4.45 4.449-4.45 1.186 0 2.303.464 3.146 1.306.841.842 1.305 1.959 1.305 3.145v84.19c-3.039 1.494-6.008 3.138-8.899 4.928v-89.119zm137.156-3.144c.843-.842 1.959-1.306 3.145-1.306 2.459 0 4.46 1.996 4.46 4.45v122.898c-2.64-4.21-5.619-8.264-8.91-12.142v-110.756c-.001-1.186.463-2.302 1.305-3.144zm81.635 345.488c-3.258 3.256-8.559 3.256-11.816 0l-83.149-83.149c2.108-1.804 4.157-3.695 6.139-5.677 1.989-1.989 3.878-4.039 5.674-6.142l83.152 83.152c3.257 3.257 3.257 8.558 0 11.816z" fill="#2626bc"/></g></g></g></g><g><g><circle cx="117.469" cy="332.976" fill="#01eca5" r="15.328"/></g><g><circle cx="169.173" cy="332.976" fill="#01eca5" r="15.328"/></g><g><path d="m117.469 353.304c-11.209 0-20.328-9.119-20.328-20.328 0-11.208 9.119-20.327 20.328-20.327s20.328 9.119 20.328 20.327c0 11.209-9.119 20.328-20.328 20.328zm0-30.656c-5.695 0-10.328 4.633-10.328 10.327 0 5.695 4.633 10.328 10.328 10.328s10.328-4.633 10.328-10.328c0-5.694-4.633-10.327-10.328-10.327z" fill="#2626bc"/></g><g><path d="m169.174 353.304c-11.209 0-20.328-9.119-20.328-20.328 0-11.208 9.119-20.327 20.328-20.327 11.208 0 20.327 9.119 20.327 20.327 0 11.209-9.119 20.328-20.327 20.328zm0-30.656c-5.695 0-10.328 4.633-10.328 10.327 0 5.695 4.633 10.328 10.328 10.328 5.694 0 10.327-4.633 10.327-10.328 0-5.694-4.633-10.327-10.327-10.327z" fill="#2626bc"/></g></g><g><path d="m281.09 349.426c-10.51-3.71-20.37-9.78-28.78-18.19-1.19-1.19-2.32-2.4-3.4-3.64 2.26-.68 4.66-1.04 7.15-1.04 13.12 0 23.89 10.05 25.03 22.87z" fill="#01eca5"/></g><path d="m382.115 454.9c-3.713 0-7.426-1.413-10.252-4.24-5.653-5.653-5.653-14.852 0-20.505 5.653-5.655 14.854-5.653 20.505 0 5.654 5.653 5.654 14.852 0 20.505-2.826 2.827-6.539 4.24-10.253 4.24zm0-18.99c-1.151 0-2.304.438-3.182 1.315-1.754 1.755-1.754 4.609 0 6.364 1.757 1.755 4.609 1.753 6.364 0 1.754-1.755 1.754-4.609 0-6.364-.877-.876-2.029-1.315-3.182-1.315z" fill="#00eca2"/><path d="m254.29 68.577c-3.873 0-7.515-1.509-10.254-4.248-2.738-2.737-4.246-6.379-4.246-10.252s1.508-7.515 4.247-10.253c5.652-5.654 14.854-5.654 20.506 0 2.739 2.738 4.247 6.38 4.247 10.253s-1.508 7.515-4.247 10.253c-2.738 2.738-6.38 4.247-10.253 4.247zm0-18.998c-1.152 0-2.305.438-3.183 1.315-.85.851-1.317 1.98-1.317 3.183s.468 2.331 1.317 3.181c.851.852 1.98 1.319 3.183 1.319s2.332-.468 3.182-1.318c.851-.851 1.318-1.979 1.318-3.182s-.468-2.332-1.317-3.183c-.878-.876-2.031-1.315-3.183-1.315z" fill="#ff7eb8"/></g></g></svg>