<svg id="Capa_1" enable-background="new 0 0 512 512" height="512" viewBox="0 0 512 512" width="512" xmlns="http://www.w3.org/2000/svg" xmlns:xlink="http://www.w3.org/1999/xlink"><linearGradient id="SVGID_1_" gradientTransform="matrix(.987 .163 -.163 .987 31.955 122.249)" gradientUnits="userSpaceOnUse" x1="462.61" x2="137.637" y1="164.551" y2="32.917"><stop offset=".0112" stop-color="#dafced"/><stop offset=".761" stop-color="#cbdcfa"/><stop offset="1" stop-color="#c6d1ff"/></linearGradient><g><g><path d="m346.151.425c-95.818 8.652-105.091 192.429-146.416 286.587-20.478 46.658-68.772 94.794-60.258 149.782 9.605 62.035 72.897 80.075 121.683 74.14 120.723-14.685 172.899-141.053 180.797-260.801 4.87-73.829 20.301-260.192-95.806-249.708z" fill="url(#SVGID_1_)"/></g><g><g><g fill="#2626bc" opacity=".1"><path d="m313.027 212.175h30.097c13.968 7.812 30.197 12.065 47.471 11.478 47.155-1.603 85.605-39.615 87.694-86.751 2.371-53.495-41.495-97.36-94.991-94.988-47.136 2.09-85.147 40.54-86.749 87.695-.587 17.274 3.666 33.501 11.478 47.469v30.097c0 2.762 2.238 5 5 5z"/><path d="m454.444 300.962-49.212-29.379c-9.254-5.524-21.095-3.936-28.567 3.831l-18.095 18.812s-31.624-11.389-76.324-56.089c-44.7-44.7-56.089-76.324-56.089-76.324l18.812-18.095c7.767-7.471 9.356-19.313 3.831-28.567l-29.379-49.211c-6.241-10.454-19.51-14.292-30.367-8.784l-15.172 7.697c-35.063 17.788-48.123 61.176-28.906 95.477 24.815 44.296 55.538 85.307 92.655 122.423 37.117 37.117 78.127 67.84 122.423 92.655 6.537 3.662 13.406 6.145 20.363 7.533l32.122 32.122c3.905 3.905 10.237 3.905 14.142 0l.51-.51c.191.298.411.582.672.843l12.373 12.373c7.458 7.458 11.565 17.375 11.565 27.922 0 10.548-4.107 20.464-11.565 27.922-15.396 15.397-40.449 15.396-55.846 0l-43.837-43.838c-3.603-3.603-8.394-5.587-13.488-5.587-5.096 0-9.886 1.984-13.488 5.587l-4.007 4.006c-1.793 1.793-4.178 2.781-6.714 2.781-2.537 0-4.922-.988-6.716-2.782-3.702-3.703-3.702-9.727 0-13.43l15.813-15.813c7.601-7.602 7.601-19.971-.001-27.572-7.601-7.601-19.97-7.601-27.572 0l-15.812 15.812c-3.702 3.703-9.728 3.704-13.432 0-3.702-3.703-3.702-9.728 0-13.43l15.813-15.812c7.602-7.602 7.602-19.97 0-27.573-7.601-7.601-19.969-7.602-27.571 0l-15.813 15.813c-3.701 3.702-9.727 3.703-13.43 0s-3.703-9.728-.001-13.431l15.812-15.812c3.683-3.683 5.711-8.579 5.711-13.786 0-5.208-2.028-10.104-5.711-13.787-7.599-7.6-19.969-7.602-27.571 0l-15.813 15.813c-1.793 1.793-4.178 2.781-6.715 2.781-2.536 0-4.921-.988-6.715-2.782-3.702-3.703-3.702-9.727 0-13.43l15.813-15.813c3.683-3.683 5.711-8.579 5.711-13.786s-2.028-10.104-5.711-13.786-8.579-5.71-13.786-5.71c-5.208 0-10.104 2.028-13.786 5.71l-15.812 15.812c-3.703 3.703-9.729 3.704-13.432 0-3.702-3.703-3.702-9.728 0-13.43l4.006-4.006c3.604-3.603 5.588-8.393 5.588-13.488s-1.984-9.885-5.588-13.488l-28.943-28.944c-17.948-17.95-47.156-17.951-65.106 0-17.95 17.95-17.95 47.157 0 65.107l220.622 220.623c1.951 1.952 5.119 1.952 7.07 0 1.953-1.953 1.953-5.119 0-7.071l-220.623-220.621c-14.051-14.051-14.051-36.914 0-50.965 14.05-14.05 36.912-14.053 50.966 0l28.943 28.944c1.714 1.714 2.658 3.993 2.658 6.417s-.944 4.703-2.658 6.417l-4.007 4.006c-7.601 7.603-7.601 19.971.001 27.573 7.603 7.603 19.974 7.6 27.572 0l15.813-15.812c1.793-1.794 4.178-2.782 6.715-2.782 2.536 0 4.922.988 6.716 2.782 3.702 3.703 3.702 9.727 0 13.43l-15.813 15.813c-3.683 3.683-5.711 8.579-5.711 13.786s2.028 10.104 5.71 13.786c3.683 3.683 8.579 5.711 13.786 5.711 5.208 0 10.104-2.028 13.786-5.71l15.813-15.812c1.794-1.793 4.179-2.781 6.716-2.781 2.536 0 4.921.988 6.715 2.781 1.793 1.793 2.781 4.178 2.781 6.715s-.988 4.921-2.781 6.715l-15.812 15.812c-7.602 7.602-7.602 19.971 0 27.573 7.602 7.601 19.97 7.603 27.571 0l15.813-15.813c1.794-1.794 4.179-2.781 6.715-2.781 2.537 0 4.922.988 6.716 2.782 3.702 3.703 3.702 9.727 0 13.43l-15.813 15.813c-7.601 7.602-7.601 19.971.001 27.572 7.604 7.603 19.975 7.6 27.572 0l15.812-15.812c3.705-3.704 9.73-3.701 13.432 0 3.702 3.703 3.702 9.728 0 13.43l-15.813 15.812c-7.602 7.602-7.602 19.971-.001 27.572 3.683 3.683 8.579 5.71 13.787 5.71 5.207 0 10.104-2.028 13.785-5.71l4.006-4.006c1.715-1.714 3.994-2.658 6.418-2.658s4.703.944 6.417 2.658l43.838 43.838c9.647 9.647 22.32 14.471 34.993 14.471s25.346-4.824 34.993-14.471c9.348-9.347 14.495-21.774 14.495-34.994 0-13.219-5.147-25.646-14.495-34.993l-12.373-12.373c-.26-.26-.544-.48-.842-.671l.511-.511c3.905-3.905 3.905-10.237 0-14.142l-14.046-14.046c14.606-6.072 27.223-17.17 34.975-32.452l7.697-15.172c5.508-10.86 1.67-24.129-8.784-30.37z"/></g><g><g><g><g><path d="m478.288 111.905c2.373-53.497-41.494-97.364-94.991-94.991-47.136 2.091-85.146 40.54-86.748 87.695-.587 17.273 3.666 33.501 11.478 47.469v30.097c0 2.761 2.239 5 5 5h30.097c13.968 7.811 30.196 12.064 47.469 11.478 47.155-1.602 85.605-39.612 87.695-86.748z" fill="#ff5ba8"/><path d="m375.802 202.954c-.212 0-.426-.013-.642-.041-11.738-1.506-22.941-5.116-33.321-10.737h-28.813c-5.514 0-10-4.486-10-10v-28.813c-8.09-14.948-12.055-31.833-11.475-48.922 1.688-49.679 41.89-90.319 91.523-92.521 26.896-1.201 53.214 9.014 72.204 28.004s29.197 45.307 28.004 72.204c-.949 21.398-9.267 42.148-23.421 58.427-13.993 16.095-33.116 27.217-53.844 31.319-2.709.538-5.34-1.226-5.876-3.934-.536-2.709 1.226-5.339 3.935-5.875 18.563-3.673 35.693-13.642 48.239-28.071 12.678-14.581 20.127-33.158 20.977-52.309 1.085-24.455-7.824-47.428-25.085-64.689-17.26-17.261-40.239-26.172-64.689-25.085-44.455 1.972-80.461 38.373-81.973 82.87-.533 15.708 3.217 31.22 10.845 44.858.417.746.636 1.586.636 2.44v30.097h30.098c.854 0 1.694.219 2.44.636 9.581 5.358 19.967 8.784 30.867 10.182 2.739.352 4.675 2.856 4.323 5.596-.322 2.522-2.474 4.364-4.952 4.364z" fill="#2626bc"/></g></g><g><g><g><g><path d="m436.354 133.444h-97.833c-2.762 0-5-2.239-5-5s2.238-5 5-5h97.833c2.762 0 5 2.239 5 5s-2.238 5-5 5z" fill="#fff"/></g></g><g><g><path d="m436.354 153.766h-97.833c-2.762 0-5-2.239-5-5s2.238-5 5-5h97.833c2.762 0 5 2.239 5 5s-2.238 5-5 5z" fill="#fff"/></g></g></g><g fill="#fff"><path d="m372.783 59.846h-4.993c-7.053 0-12.791 5.738-12.791 12.791v18.243c0 7.053 5.738 12.791 12.791 12.791h4.993c7.053 0 12.791-5.738 12.791-12.791v-18.243c0-7.053-5.738-12.791-12.791-12.791zm2.791 31.034c0 1.539-1.252 2.791-2.791 2.791h-4.993c-1.539 0-2.791-1.252-2.791-2.791v-18.243c0-1.539 1.252-2.791 2.791-2.791h4.993c1.539 0 2.791 1.252 2.791 2.791z"/><path d="m404.331 81.766 13.99-13.287c2.002-1.902 2.084-5.066.182-7.069-1.9-2.002-5.064-2.084-7.068-.182l-9.364 8.894v-5.268c0-2.761-2.238-5-5-5s-5 2.239-5 5v33.825c0 2.761 2.238 5 5 5s5-2.239 5-5v-5.269l9.364 8.894c.968.919 2.206 1.375 3.442 1.375 1.323 0 2.644-.522 3.626-1.557 1.902-2.002 1.82-5.167-.182-7.069z"/></g></g></g><g><path d="m412.538 390.063-38.544-38.544 22.063-22.063 38.544 38.544c3.905 3.905 3.905 10.237 0 14.142l-7.921 7.921c-3.905 3.905-10.237 3.905-14.142 0z" fill="#8399fe"/><g><path d="m282.246 213.138c44.7 44.7 76.324 56.089 76.324 56.089l18.095-18.812c7.471-7.767 19.313-9.356 28.567-3.831l49.212 29.379c10.454 6.241 14.292 19.51 8.784 30.368l-7.697 15.172c-17.788 35.063-61.175 48.122-95.477 28.906-44.296-24.815-85.306-55.538-122.423-92.655s-67.84-78.128-92.655-122.423c-19.216-34.301-6.157-77.689 28.906-95.477l15.172-7.697c10.858-5.508 24.127-1.67 30.367 8.784l29.379 49.211c5.524 9.254 3.936 21.095-3.831 28.567l-18.812 18.095c0-.001 11.389 31.623 56.089 76.324z" fill="#02ffb3"/><path d="m282.246 213.138c44.7 44.7 76.324 56.089 76.324 56.089l18.095-18.812c7.471-7.767 19.313-9.356 28.567-3.831l49.212 29.379c10.454 6.241 14.292 19.51 8.784 30.368l-7.697 15.172c-17.788 35.063-61.175 48.122-95.477 28.906-44.296-24.815-85.306-55.538-122.423-92.655s-67.84-78.128-92.655-122.423c-19.216-34.301-6.157-77.689 28.906-95.477l15.172-7.697c10.858-5.508 24.127-1.67 30.367 8.784l29.379 49.211c5.524 9.254 3.936 21.095-3.831 28.567l-18.812 18.095c0-.001 11.389 31.623 56.089 76.324z" fill="#02ffb3"/><path d="m307.317 285.789-17.805 17.805c-18.031-14.043-35.348-29.31-51.881-45.842s-31.798-33.849-45.842-51.88l17.805-17.805c3.903-3.903 10.239-3.903 14.142 0l83.58 83.58c3.904 3.903 3.904 10.239.001 14.142z" fill="#8399fe"/><g fill="#dcfdee"><path d="m244.971 118.721-10.105 9.723c-18.116-24.508-34.33-50.169-48.698-76.884-2.574-4.794-4.625-9.758-6.159-14.814l9.044-4.589c10.854-5.508 24.127-1.669 30.363 8.782l29.387 49.215c5.523 9.256 3.939 21.093-3.832 28.567z"/><path d="m458.638 315.374c-5.056-1.535-10.02-3.585-14.814-6.159-26.714-14.368-52.375-30.582-76.884-48.698l9.723-10.105c7.474-7.771 19.311-9.355 28.567-3.833l49.215 29.387c10.451 6.237 14.291 19.509 8.782 30.363z"/></g></g><path d="m459.989 323.764 7.696-15.172c6.67-13.147 1.979-29.366-10.68-36.923l-49.212-29.378c-11.314-6.756-25.599-4.839-34.733 4.658l-15.711 16.334c-8.693-3.949-35.991-18.104-71.568-53.681-35.582-35.582-49.737-62.884-53.682-71.567l16.335-15.712c9.498-9.135 11.413-23.418 4.658-34.733l-29.379-49.212c-7.556-12.66-23.776-17.349-36.922-10.68l-15.173 7.697c-18.131 9.198-31.374 24.975-37.292 44.426-5.941 19.53-3.71 40.112 6.285 57.954 22.949 40.964 50.939 78.958 83.191 112.925 1.901 2.002 5.066 2.084 7.068.183 2.003-1.901 2.085-5.066.184-7.069-31.681-33.365-59.175-70.687-81.719-110.927-8.651-15.443-10.584-33.255-5.442-50.156 5.117-16.821 16.57-30.465 32.248-38.418l15.173-7.697c8.48-4.302 18.938-1.276 23.813 6.888l29.379 49.212c4.356 7.297 3.121 16.508-3.004 22.4l-18.813 18.095c-1.422 1.367-1.906 3.442-1.238 5.298.48 1.334 12.285 33.192 57.259 78.166 44.973 44.973 76.831 56.777 78.165 57.257 1.858.668 3.931.184 5.298-1.238l18.094-18.812c5.892-6.125 15.102-7.361 22.401-3.004l49.211 29.378c8.164 4.874 11.189 15.333 6.888 23.813l-7.696 15.172c-7.954 15.679-21.599 27.132-38.419 32.25-16.899 5.14-34.712 3.208-50.155-5.443-40.245-22.545-77.57-50.044-110.939-81.731-2.004-1.901-5.167-1.819-7.069.183-1.901 2.002-1.819 5.167.183 7.069 33.972 32.259 71.97 60.252 112.939 83.204 6.485 3.633 13.334 6.235 20.361 7.797l31.031 31.031c2.833 2.833 6.6 4.394 10.606 4.394s7.773-1.561 10.606-4.394l.425-.425 9.595 9.594c7.458 7.458 11.565 17.375 11.565 27.922 0 10.548-4.107 20.464-11.565 27.922-15.396 15.397-40.449 15.396-55.846 0l-43.837-43.838c-3.603-3.603-8.394-5.587-13.488-5.587-5.096 0-9.886 1.984-13.488 5.587l-4.007 4.006c-1.793 1.793-4.178 2.781-6.714 2.781-2.537 0-4.922-.988-6.716-2.782-3.702-3.703-3.702-9.727 0-13.43l15.813-15.813c7.601-7.602 7.601-19.971-.001-27.572-7.601-7.601-19.97-7.601-27.572 0l-15.812 15.812c-3.702 3.702-9.728 3.704-13.432 0-3.702-3.703-3.702-9.728 0-13.43l15.813-15.812c7.602-7.602 7.602-19.97 0-27.573-7.601-7.601-19.969-7.602-27.571 0l-15.813 15.813c-3.701 3.702-9.727 3.703-13.43 0s-3.703-9.728-.001-13.431l15.812-15.812c3.683-3.683 5.711-8.579 5.711-13.786 0-5.208-2.028-10.104-5.711-13.787-7.599-7.6-19.969-7.602-27.571 0l-15.813 15.813c-1.793 1.793-4.178 2.781-6.715 2.781-2.536 0-4.921-.988-6.715-2.782-3.702-3.703-3.702-9.727 0-13.43l15.813-15.813c3.683-3.683 5.711-8.579 5.711-13.786s-2.028-10.104-5.711-13.786-8.579-5.71-13.786-5.71c-5.208 0-10.104 2.028-13.786 5.71l-15.812 15.812c-3.703 3.703-9.729 3.704-13.432 0-3.702-3.703-3.702-9.728 0-13.43l4.006-4.006c3.604-3.603 5.588-8.393 5.588-13.488s-1.984-9.885-5.588-13.488l-28.943-28.944c-17.948-17.95-47.156-17.951-65.106 0-17.95 17.95-17.95 47.157 0 65.107l220.622 220.623c1.951 1.952 5.119 1.952 7.07 0 1.953-1.953 1.953-5.119 0-7.071l-220.622-220.622c-14.051-14.051-14.051-36.914 0-50.965 14.05-14.05 36.912-14.053 50.966 0l28.943 28.944c1.714 1.714 2.658 3.993 2.658 6.417s-.944 4.703-2.658 6.417l-4.007 4.006c-7.601 7.603-7.601 19.971.001 27.573 7.603 7.603 19.974 7.6 27.572 0l15.813-15.812c1.793-1.794 4.178-2.782 6.715-2.782 2.536 0 4.922.988 6.716 2.782 3.702 3.703 3.702 9.727 0 13.43l-15.813 15.813c-3.683 3.683-5.711 8.579-5.711 13.786s2.028 10.104 5.71 13.786c3.683 3.683 8.579 5.711 13.786 5.711 5.208 0 10.104-2.028 13.786-5.71l15.813-15.812c1.794-1.793 4.179-2.781 6.716-2.781 2.536 0 4.921.988 6.715 2.781 1.793 1.793 2.781 4.178 2.781 6.715s-.988 4.921-2.781 6.715l-15.812 15.812c-7.602 7.602-7.602 19.971 0 27.573 7.602 7.601 19.97 7.603 27.571 0l15.813-15.813c1.794-1.794 4.179-2.781 6.715-2.781 2.537 0 4.922.988 6.716 2.782 3.702 3.703 3.702 9.727 0 13.43l-15.813 15.813c-7.601 7.602-7.601 19.971.001 27.572 7.604 7.603 19.975 7.6 27.572 0l15.812-15.812c3.705-3.704 9.73-3.701 13.432 0 3.702 3.703 3.702 9.728 0 13.43l-15.813 15.812c-7.602 7.602-7.602 19.971-.001 27.572 3.683 3.683 8.579 5.71 13.787 5.71 5.207 0 10.104-2.028 13.785-5.71l4.006-4.006c1.715-1.714 3.994-2.658 6.418-2.658s4.703.944 6.417 2.658l43.838 43.838c9.647 9.647 22.32 14.471 34.993 14.471s25.346-4.824 34.993-14.471c9.348-9.347 14.495-21.774 14.495-34.994 0-13.219-5.147-25.646-14.495-34.993l-9.594-9.594.425-.425c2.834-2.833 4.394-6.6 4.394-10.606 0-4.007-1.56-7.774-4.394-10.607l-9.026-9.026c13.213-7.07 23.927-17.974 30.878-31.677zm-28.922 47.772c.944.944 1.464 2.2 1.464 3.536 0 1.335-.52 2.591-1.464 3.535l-7.921 7.921c-.944.944-2.2 1.465-3.536 1.465s-2.592-.521-3.536-1.465l-22.213-22.212c7.251-.003 14.547-1.082 21.702-3.259 1.272-.387 2.526-.809 3.766-1.258z" fill="#2626bc"/></g></g></g><path d="m100.296 131.308c-3.713 0-7.427-1.414-10.253-4.24-5.654-5.654-5.654-14.853 0-20.506 5.652-5.653 14.854-5.653 20.506 0 5.654 5.654 5.654 14.853 0 20.506-2.826 2.826-6.54 4.24-10.253 4.24zm0-18.992c-1.152 0-2.305.438-3.183 1.316-1.754 1.754-1.754 4.609 0 6.364 1.756 1.755 4.609 1.755 6.365 0 1.754-1.754 1.754-4.609 0-6.364-.877-.877-2.03-1.316-3.182-1.316z" fill="#00eca2"/><path d="m119.296 401.198c-3.713 0-7.427-1.414-10.253-4.24-5.654-5.654-5.654-14.853 0-20.506 5.652-5.653 14.854-5.653 20.506 0 5.654 5.654 5.654 14.853 0 20.506-2.826 2.827-6.54 4.24-10.253 4.24zm0-18.991c-1.152 0-2.305.438-3.183 1.316-1.754 1.754-1.754 4.609 0 6.364 1.756 1.755 4.609 1.755 6.365 0 1.754-1.754 1.754-4.609 0-6.364-.877-.877-2.03-1.316-3.182-1.316z" fill="#6583fe"/><path d="m104.391 82.179c-1.279 0-2.56-.488-3.535-1.464l-5.965-5.964-5.965 5.964c-1.951 1.952-5.119 1.952-7.07 0-1.953-1.953-1.953-5.119 0-7.071l9.5-9.5c1.951-1.952 5.119-1.952 7.07 0l9.5 9.5c1.953 1.953 1.953 5.119 0 7.071-.976.976-2.256 1.464-3.535 1.464z" fill="#ff7eb8"/><path d="m460.355 245.816c-1.279 0-2.56-.488-3.535-1.464l-5.965-5.964-5.965 5.964c-1.951 1.952-5.119 1.952-7.07 0-1.953-1.953-1.953-5.119 0-7.071l9.5-9.5c1.951-1.952 5.119-1.952 7.07 0l9.5 9.5c1.953 1.953 1.953 5.119 0 7.071-.976.976-2.256 1.464-3.535 1.464z" fill="#00eca2"/><path d="m329.244 481.196c-1.279 0-2.56-.488-3.535-1.464l-5.965-5.964-5.965 5.964c-1.951 1.952-5.119 1.952-7.07 0-1.953-1.953-1.953-5.119 0-7.071l9.5-9.5c1.951-1.952 5.119-1.952 7.07 0l9.5 9.5c1.953 1.953 1.953 5.119 0 7.071-.975.976-2.255 1.464-3.535 1.464z" fill="#ff7eb8"/></g></g></svg>