<svg id="Capa_1" enable-background="new 0 0 512 512" height="512" viewBox="0 0 512 512" width="512" xmlns="http://www.w3.org/2000/svg" xmlns:xlink="http://www.w3.org/1999/xlink"><linearGradient id="SVGID_1_" gradientUnits="userSpaceOnUse" x1="232.681" x2="286.681" y1="136.001" y2="394.001"><stop offset=".0112" stop-color="#dafced"/><stop offset=".761" stop-color="#cbdcfa"/><stop offset="1" stop-color="#c6d1ff"/></linearGradient><g><g><path d="m501.873 132.754c-22.357-56.888-91.226-91.003-149.556-68.427-66.582 25.769-44.506 131.673-104.983 153.087-32.669 11.568-80.963-31.644-113.969-38.27-60.821-12.21-115.881 30.705-129.439 90.134-13.832 60.63 8.353 141.61 74.967 158.066 79.35 19.602 120.683-51.729 187.249-72.211 68.31-21.019 144.263 28.622 200.814-31.776 41.78-44.621 57.055-134.272 34.917-190.603z" fill="url(#SVGID_1_)"/></g><g><g><path d="m472.37 110.617h-42.138c-2.23 0-4.396.745-6.153 2.117l-18.042 14.085c-2.428 1.895-3.847 4.803-3.847 7.883v197.14h-161.088c5.523 0 10-4.477 10-10v-49.934h61.858v22.687c0 4.386 5.245 6.647 8.433 3.635l49.961-47.193c2.089-1.973 2.089-5.297 0-7.27l-49.961-47.193c-3.189-3.012-8.433-.751-8.433 3.635v22.687h-61.858v-37.881c0-5.523-4.477-10-10-10h-131.828c-5.523 0-10 4.477-10 10v136.828c0 5.523 4.477 10 10 10h-33.571c-22.684 0-41.074 18.389-41.074 41.074 0 22.684 18.389 41.074 41.074 41.074l396.667.002c2.761 0 5-2.239 5-5v-293.376c0-2.761-2.238-5-5-5z" fill="#2626bc" opacity=".1"/><g><g><path d="m371.355 218.767-49.961-47.193c-3.189-3.012-8.433-.751-8.433 3.635v22.687h-69.647c-2.761 0-5 2.239-5 5v39.013c0 2.761 2.239 5 5 5h69.647v22.687c0 4.386 5.245 6.647 8.433 3.635l49.961-47.193c2.089-1.975 2.089-5.298 0-7.271z" fill="#02ffb3"/></g><path d="m418.917 388.99h-343.214c-22.684 0-41.074-18.389-41.074-41.074 0-22.684 18.389-41.074 41.074-41.074h343.214c22.684 0 41.074 18.389 41.074 41.074 0 22.684-18.389 41.074-41.074 41.074z" fill="#8399fe"/><g><g><circle cx="92.427" cy="347.916" fill="#b7c5ff" r="24.383"/><circle cx="92.427" cy="347.916" fill="#ff7eb8" r="11.042"/></g><g><circle cx="154.38" cy="347.916" fill="#b7c5ff" r="24.383"/><circle cx="154.38" cy="347.916" fill="#ff7eb8" r="11.042"/></g><g><circle cx="216.334" cy="347.916" fill="#b7c5ff" r="24.383"/><circle cx="216.334" cy="347.916" fill="#ff7eb8" r="11.042"/></g><g><circle cx="278.287" cy="347.916" fill="#b7c5ff" r="24.383"/><circle cx="278.287" cy="347.916" fill="#ff7eb8" r="11.042"/></g><g><circle cx="340.241" cy="347.916" fill="#b7c5ff" r="24.383"/><circle cx="340.241" cy="347.916" fill="#ff7eb8" r="11.042"/></g><g><circle cx="402.194" cy="347.916" fill="#b7c5ff" r="24.383"/><circle cx="402.194" cy="347.916" fill="#ff7eb8" r="11.042"/></g></g><g><g><path d="m241.102 306.842h-131.828c-5.523 0-10-4.477-10-10v-136.828c0-5.523 4.477-10 10-10h131.828c5.523 0 10 4.477 10 10v136.828c0 5.523-4.477 10-10 10z" fill="#ffa8cf"/><path d="m192.426 184.374h-29.476c-2.761 0-5-2.239-5-5v-29.36h39.476v29.36c0 2.762-2.238 5-5 5z" fill="#6583fe"/></g><g><g><path d="m148.397 207.08h58.583c2.761 0 5-2.239 5-5s-2.239-5-5-5h-58.583c-2.761 0-5 2.239-5 5s2.238 5 5 5z" fill="#ff5ba8"/></g><g><path d="m163.397 227.402h28.583c2.761 0 5-2.239 5-5s-2.239-5-5-5h-28.583c-2.761 0-5 2.239-5 5s2.238 5 5 5z" fill="#ff5ba8"/></g><g><path d="m163.397 244.723h28.583c2.761 0 5-2.239 5-5s-2.239-5-5-5h-28.583c-2.761 0-5 2.239-5 5s2.238 5 5 5z" fill="#ff5ba8"/></g></g><path d="m150.819 289.126h-22.134c-2.761 0-5-2.239-5-5v-7.154c0-2.761 2.239-5 5-5h22.134c2.761 0 5 2.239 5 5v7.154c0 2.761-2.238 5-5 5z" fill="#02ffb3"/><g fill="#ff5ba8"><circle cx="170.674" cy="280.549" r="8.577"/><circle cx="192.334" cy="280.549" r="8.577"/></g></g><g><path d="m424.079 87.734-18.042 14.085c-2.428 1.895-3.847 4.803-3.847 7.883v279.29h70.18c2.761 0 5-2.239 5-5v-293.375c0-2.761-2.239-5-5-5h-42.137c-2.23 0-4.396.745-6.154 2.117z" fill="#6583fe"/><path d="m477.368 361.053h-34.651c-2.761 0-5-2.239-5-5v-10.868c0-2.761 2.239-5 5-5h34.651z" fill="#4369fd"/><path d="m477.37 227.402v22.68h-11.34c-2.76 0-5-2.24-5-5v-12.68c0-2.76 2.24-5 5-5z" fill="#b7c5ff"/><path d="m477.37 260.632v22.68h-11.34c-2.76 0-5-2.24-5-5v-12.68c0-2.76 2.24-5 5-5z" fill="#b7c5ff"/><path d="m477.368 202.08h-48.49c-2.761 0-5-2.239-5-5v-55.799c0-2.761 2.239-5 5-5h48.49z" fill="#02ffb3"/><path d="m423.878 185.178v11.902c0 1.889 1.06 3.513 2.606 4.364 16.935-17.026 33.905-34.017 50.884-50.999v-14.164h-4.668c-16.283 16.289-32.559 32.587-48.822 48.897z" fill="#97ffd2"/><path d="m437.502 202.08h39.866v-39.866z" fill="#97ffd2"/><path d="m472.368 80.617h-42.146c-3.33 0-6.609 1.129-9.233 3.178l-18.028 14.08c-3.665 2.862-5.767 7.171-5.767 11.822v274.293h-321.491c-19.891 0-36.073-16.183-36.073-36.074s16.183-36.074 36.073-36.074h298.286c2.761 0 5-2.239 5-5s-2.239-5-5-5h-118.762c.556-1.567.875-3.245.875-5v-21.583c0-2.761-2.239-5-5-5s-5 2.239-5 5v21.583c0 2.757-2.243 5-5 5h-131.828c-2.757 0-5-2.243-5-5v-136.828c0-2.757 2.243-5 5-5h131.829c2.757 0 5 2.243 5 5v86.898c0 2.761 2.239 5 5 5h56.857v17.68c0 3.999 2.371 7.604 6.04 9.187 3.725 1.606 7.871.874 10.824-1.913l49.956-47.196c1.994-1.879 3.138-4.528 3.138-7.268s-1.144-5.389-3.134-7.265l-49.962-47.203c-2.906-2.744-7.155-3.492-10.822-1.91-3.726 1.607-6.04 5.127-6.04 9.187v17.68h-51.857v-32.878c0-8.271-6.729-15-15-15h-131.829c-8.271 0-15 6.729-15 15v136.828c0 1.755.319 3.433.875 5h-19.446c-25.405 0-46.073 20.668-46.073 46.074s20.668 46.074 46.073 46.074h396.665c5.514 0 10-4.486 10-10v-293.372c0-5.514-4.486-10-10-10zm-216.265 122.275h56.857c2.761 0 5-2.239 5-5l-.003-22.686 49.96 47.191-49.957 47.194v-22.68c0-2.761-2.239-5-5-5h-56.857zm216.265 181.098h-53.451-11.724v-274.293c0-1.55.701-2.987 1.922-3.941l18.028-14.08c.874-.683 1.967-1.059 3.077-1.059h42.146v293.373z" fill="#2626bc"/></g><path d="m446.556 250.08h-17.678c-2.761 0-5-2.239-5-5v-12.678c0-2.761 2.239-5 5-5h17.678c2.761 0 5 2.239 5 5v12.678c0 2.761-2.238 5-5 5z" fill="#b7c5ff"/><path d="m446.556 283.31h-17.678c-2.761 0-5-2.239-5-5v-12.678c0-2.761 2.239-5 5-5h17.678c2.761 0 5 2.239 5 5v12.678c0 2.762-2.238 5-5 5z" fill="#b7c5ff"/><circle cx="423.878" cy="111.55" fill="#2d58e0" r="4.678"/><g fill="#6583fe"><circle cx="123.403" cy="367.621" r="4.678"/><circle cx="185.357" cy="367.621" r="4.678"/></g><g fill="#6583fe"><circle cx="247.31" cy="367.621" r="4.678"/><circle cx="309.264" cy="367.621" r="4.678"/></g><g><circle cx="371.217" cy="367.621" fill="#6583fe" r="4.678"/></g></g></g><path d="m192.333 454.711c-3.713 0-7.426-1.413-10.253-4.24-5.653-5.654-5.653-14.853 0-20.506 5.653-5.654 14.853-5.653 20.506 0 5.653 5.654 5.653 14.853 0 20.506-2.826 2.827-6.54 4.24-10.253 4.24zm0-18.99c-1.152 0-2.305.438-3.182 1.316-1.755 1.754-1.755 4.609 0 6.364 1.754 1.755 4.609 1.754 6.364 0 1.754-1.754 1.754-4.609 0-6.364-.876-.877-2.029-1.316-3.182-1.316z" fill="#00eca2"/><path d="m324.167 109.61c-3.713 0-7.426-1.413-10.253-4.24-5.653-5.654-5.653-14.853 0-20.506s14.853-5.653 20.506 0c5.653 5.654 5.653 14.853 0 20.506-2.826 2.826-6.54 4.24-10.253 4.24zm0-18.991c-1.152 0-2.305.438-3.182 1.316-1.755 1.754-1.755 4.609 0 6.364 1.754 1.755 4.609 1.754 6.364 0 1.754-1.754 1.754-4.609 0-6.364-.876-.877-2.029-1.316-3.182-1.316z" fill="#ff7eb8"/><path d="m365.644 130.053c-1.28 0-2.559-.488-3.536-1.464l-5.964-5.964-5.964 5.964c-1.953 1.952-5.118 1.952-7.071 0-1.953-1.953-1.953-5.119 0-7.071l9.5-9.5c1.953-1.952 5.118-1.952 7.071 0l9.5 9.5c1.953 1.953 1.953 5.119 0 7.071-.977.976-2.256 1.464-3.536 1.464z" fill="#6583fe"/><path d="m66.634 272.055c-1.28 0-2.559-.488-3.536-1.464l-5.964-5.964-5.964 5.964c-1.953 1.952-5.118 1.952-7.071 0-1.953-1.953-1.953-5.119 0-7.071l9.5-9.5c1.953-1.952 5.118-1.952 7.071 0l9.5 9.5c1.953 1.953 1.953 5.119 0 7.071-.977.975-2.256 1.464-3.536 1.464z" fill="#6583fe"/><path d="m383.064 440.468c-1.28 0-2.559-.488-3.536-1.464l-5.964-5.964-5.964 5.964c-1.953 1.952-5.118 1.952-7.071 0-1.953-1.953-1.953-5.119 0-7.071l9.5-9.5c1.953-1.952 5.118-1.952 7.071 0l9.5 9.5c1.953 1.953 1.953 5.119 0 7.071-.976.976-2.256 1.464-3.536 1.464z" fill="#ff7eb8"/></g></g></svg>