<svg id="Capa_1" enable-background="new 0 0 512 512" height="512" viewBox="0 0 512 512" width="512" xmlns="http://www.w3.org/2000/svg" xmlns:xlink="http://www.w3.org/1999/xlink"><linearGradient id="SVGID_1_" gradientTransform="matrix(.987 .163 -.163 .987 -47.594 28.49)" gradientUnits="userSpaceOnUse" x1="550.613" x2="225.64" y1="245.052" y2="113.417"><stop offset=".0112" stop-color="#dafced"/><stop offset=".761" stop-color="#cbdcfa"/><stop offset="1" stop-color="#c6d1ff"/></linearGradient><g><g><path d="m340.319.425c-95.818 8.652-105.091 192.429-146.416 286.587-20.478 46.658-68.772 94.794-60.258 149.782 9.605 62.035 72.897 80.075 121.683 74.14 120.723-14.685 172.899-141.053 180.797-260.801 4.869-73.829 20.3-260.192-95.806-249.708z" fill="url(#SVGID_1_)"/></g><g><path d="m442.727 283.782h-.708c5.523 0 10-4.477 10-10v-136.828c0-5.523-4.477-10-10-10h-136.829c-5.523 0-10 4.477-10 10v67.908h-64.005c5.523 0 10-4.477 10-10v-27.066c0-5.523-4.477-10-10-10h-131.489c-5.523 0-10 4.477-10 10v27.066c0 5.523 4.477 10 10 10h-26.067c-7.928 0-14.355 6.427-14.355 14.355v227.037c0 7.928 6.427 14.355 14.355 14.355h192.27 34.767 142.061c5.523 0 10-4.477 10-10v-156.827c0-5.523-4.477-10-10-10z" fill="#2626bc" opacity=".1"/><g><g><path d="m231.185 179.862h-131.489c-5.523 0-10-4.477-10-10v-27.066c0-5.523 4.477-10 10-10h131.49c5.523 0 10 4.477 10 10v27.066c-.001 5.523-4.478 10-10.001 10z" fill="#02ffb3"/><path d="m149.148 132.796h32.585v47.066h-32.585z" fill="#ff5ba8"/></g><g><g><path d="m300.666 435.611h-227.037c-7.928 0-14.355-6.427-14.355-14.355v-227.038c0-7.928 6.427-14.355 14.355-14.355h227.037c7.928 0 14.355 6.427 14.355 14.355v227.037c.001 7.928-6.427 14.356-14.355 14.356z" fill="#ffa8cf"/><path d="m95.162 215.751h183.971v183.97h-183.971z" fill="#ff5ba8" transform="matrix(0 1 -1 0 494.884 120.589)"/><g fill="#ff7eb8"><path d="m258.059 232.429-162.892 162.892v-162.892z"/><path d="m262.466 299.253v100.475h-120.959l106.484-106.471c5.342-5.342 14.475-1.558 14.475 5.996z"/></g></g><path d="m171.419 165.896h35.889v279.497h-35.889z" fill="#ffa8cf" transform="matrix(.707 .707 -.707 .707 271.587 -44.379)"/></g><g><g><g><path d="m442.727 435.611h-176.828c-5.523 0-10-4.477-10-10v-156.829c0-5.523 4.477-10 10-10h176.828c5.523 0 10 4.477 10 10v156.828c0 5.523-4.477 10.001-10 10.001z" fill="#ffa8cf"/><path d="m369.051 308.143h-29.476c-2.761 0-5-2.239-5-5v-44.36h39.476v44.36c0 2.761-2.238 5-5 5z" fill="#6583fe"/></g><g><g><path d="m325.022 335.849h58.583c2.761 0 5-2.239 5-5s-2.239-5-5-5h-58.583c-2.761 0-5 2.239-5 5s2.238 5 5 5z" fill="#ff5ba8"/></g><g><path d="m340.022 356.17h28.583c2.761 0 5-2.239 5-5s-2.239-5-5-5h-28.583c-2.761 0-5 2.239-5 5s2.238 5 5 5z" fill="#ff5ba8"/></g><g><path d="m340.022 373.491h28.583c2.761 0 5-2.239 5-5s-2.239-5-5-5h-28.583c-2.761 0-5 2.239-5 5s2.238 5 5 5z" fill="#ff5ba8"/></g></g><path d="m317.444 417.894h-32.134c-2.761 0-5-2.239-5-5v-7.154c0-2.761 2.239-5 5-5h32.134c2.761 0 5 2.239 5 5v7.154c0 2.761-2.238 5-5 5z" fill="#02ffb3"/><g fill="#ff5ba8"><circle cx="337.299" cy="409.317" r="8.577"/><circle cx="358.958" cy="409.317" r="8.577"/></g></g></g><g><g><path d="m442.019 258.782h-136.829c-5.523 0-10-4.477-10-10v-136.828c0-5.523 4.477-10 10-10h136.828c5.523 0 10 4.477 10 10v136.828c.001 5.523-4.476 10-9.999 10z" fill="#02ffb3"/><path d="m388.343 136.314h-29.476c-2.761 0-5-2.239-5-5v-29.36h39.476v29.36c0 2.762-2.239 5-5 5z" fill="#dcfdee"/><path d="m453.521 258.393c2.18-2.605 3.497-5.956 3.497-9.611v-136.828c0-8.271-6.729-15-15-15h-136.827c-8.271 0-15 6.729-15 15v136.828c0 1.755.319 3.433.875 5h-25.167c-8.271 0-15 6.729-15 15v97.484c0 2.761 2.239 5 5 5 2.762 0 5-2.239 5-5v-97.484c0-2.757 2.243-5 5-5h176.12.708c2.757 0 5 2.243 5 5v156.828c0 2.757-2.243 5-5 5h-176.828c-2.757 0-5-2.243-5-5v-30.091c0-2.761-2.238-5-5-5-2.761 0-5 2.239-5 5v30.091c0 1.755.319 3.433.875 5h-178.145c-5.159 0-9.355-4.197-9.355-9.355v-227.037c0-5.159 4.197-9.355 9.355-9.355h192.309c2.762 0 5-2.239 5-5s-2.238-5-5-5h-20.628c.556-1.567.875-3.245.875-5v-27.066c0-8.271-6.729-15-15-15h-131.489c-8.271 0-15 6.729-15 15v27.066c0 1.755.319 3.433.875 5h-11.942c-10.673 0-19.355 8.683-19.355 19.355v227.037c0 10.673 8.683 19.355 19.355 19.355h369.098c8.271 0 15-6.729 15-15v-156.828c0-4.032-1.608-7.691-4.206-10.389zm-358.825-88.531v-27.066c0-2.757 2.243-5 5-5h131.489c2.757 0 5 2.243 5 5v27.066c0 2.757-2.243 5-5 5h-131.489c-2.757 0-5-2.243-5-5zm210.495 83.92c-2.757 0-5-2.243-5-5v-136.828c0-2.757 2.243-5 5-5h136.828c2.757 0 5 2.243 5 5v136.828c0 2.757-2.243 5-5 5z" fill="#2626bc"/></g></g><g><g><path d="m359.313 159.02h58.583c2.761 0 5-2.239 5-5s-2.239-5-5-5h-58.583c-2.761 0-5 2.239-5 5s2.239 5 5 5z" fill="#00d890"/></g><g><path d="m389.313 179.342h28.583c2.761 0 5-2.239 5-5s-2.239-5-5-5h-28.583c-2.761 0-5 2.239-5 5s2.239 5 5 5z" fill="#00d890"/></g><g><path d="m389.313 196.663h28.583c2.761 0 5-2.239 5-5s-2.239-5-5-5h-28.583c-2.761 0-5 2.239-5 5s2.239 5 5 5z" fill="#00d890"/></g></g></g><path d="m214.18 111.108c-3.713 0-7.427-1.414-10.253-4.24-5.653-5.654-5.653-14.853 0-20.506s14.853-5.653 20.506 0c5.653 5.654 5.653 14.853 0 20.506-2.826 2.827-6.54 4.24-10.253 4.24zm0-18.991c-1.152 0-2.305.438-3.182 1.316-1.755 1.754-1.755 4.609 0 6.364 1.754 1.755 4.61 1.754 6.364 0 1.755-1.754 1.755-4.609 0-6.364-.877-.877-2.029-1.316-3.182-1.316z" fill="#ff7eb8"/><path d="m396.281 78.03c-3.713 0-7.426-1.413-10.252-4.24-5.654-5.654-5.654-14.853 0-20.506 5.653-5.654 14.854-5.652 20.505 0 5.654 5.654 5.654 14.853 0 20.506-2.826 2.827-6.539 4.24-10.253 4.24zm0-18.991c-1.151 0-2.304.438-3.182 1.316-1.754 1.754-1.754 4.609 0 6.364 1.757 1.756 4.609 1.754 6.364 0 1.754-1.754 1.754-4.609 0-6.364-.877-.877-2.029-1.316-3.182-1.316z" fill="#6583fe"/><path d="m183.649 88.037c-1.28 0-2.559-.488-3.536-1.464l-5.964-5.964-5.964 5.964c-1.953 1.952-5.118 1.952-7.071 0-1.953-1.953-1.953-5.119 0-7.071l9.5-9.5c1.953-1.952 5.118-1.952 7.071 0l9.5 9.5c1.953 1.953 1.953 5.119 0 7.071-.977.975-2.256 1.464-3.536 1.464z" fill="#00eca2"/><path d="m128.742 479.028c-1.28 0-2.559-.488-3.536-1.464l-5.964-5.964-5.964 5.964c-1.953 1.952-5.118 1.952-7.071 0-1.953-1.953-1.953-5.119 0-7.071l9.5-9.5c1.953-1.952 5.118-1.952 7.071 0l9.5 9.5c1.953 1.953 1.953 5.119 0 7.071-.976.976-2.256 1.464-3.536 1.464z" fill="#ff7eb8"/><path d="m386.782 479.028c-1.279 0-2.56-.488-3.535-1.464l-5.965-5.964-5.965 5.964c-1.951 1.952-5.119 1.952-7.07 0-1.953-1.953-1.953-5.119 0-7.071l9.5-9.5c1.951-1.952 5.119-1.952 7.07 0l9.5 9.5c1.953 1.953 1.953 5.119 0 7.071-.975.976-2.255 1.464-3.535 1.464z" fill="#6583fe"/></g></g></svg>