<svg id="Capa_1" enable-background="new 0 0 512 512" height="512" viewBox="0 0 512 512" width="512" xmlns="http://www.w3.org/2000/svg" xmlns:xlink="http://www.w3.org/1999/xlink"><linearGradient id="SVGID_1_" gradientUnits="userSpaceOnUse" x1="432.334" x2="198.334" y1="490.234" y2="180.234"><stop offset="0" stop-color="#c6d1ff"/><stop offset=".5834" stop-color="#e6d5f4"/><stop offset=".997" stop-color="#ffd9ec"/></linearGradient><g><g><path d="m501.873 141.171c-22.357-56.888-91.226-91.003-149.556-68.427-66.582 25.769-44.506 131.673-104.983 153.088-32.669 11.568-80.963-31.644-113.969-38.271-60.821-12.21-115.881 30.705-129.439 90.134-13.832 60.63 8.353 141.61 74.967 158.066 79.35 19.602 120.683-51.729 187.249-72.211 68.31-21.019 144.263 28.622 200.814-31.776 41.78-44.62 57.055-134.271 34.917-190.603z" fill="url(#SVGID_1_)"/></g><g><path d="m472.37 84.502h-42.137c-2.23 0-4.396.745-6.154 2.117l-18.042 14.085c-2.427 1.895-3.846 4.803-3.846 7.883v232.14h-157.692c5.523 0 10-4.477 10-10v-49.934h58.461v22.687c0 4.386 5.245 6.647 8.433 3.635l49.961-47.193c2.089-1.973 2.089-5.297 0-7.27l-49.961-47.193c-3.189-3.012-8.433-.751-8.433 3.635v22.687h-58.461v-59.206c0-5.523-4.477-10-10-10h-158.153c-5.523 0-10 4.477-10 10v158.153c0 5.523 4.477 10 10 10h-10.643c-22.684 0-41.074 18.389-41.074 41.074 0 22.684 18.389 41.074 41.074 41.074l396.667.002c2.761 0 5-2.239 5-5v-328.376c0-2.761-2.238-5-5-5z" fill="#2626bc" opacity=".1"/><g><path d="m371.355 227.652-49.961-47.193c-3.189-3.012-8.433-.751-8.433 3.635v22.687h-69.647c-2.761 0-5 2.239-5 5v39.013c0 2.761 2.239 5 5 5h69.647v22.687c0 4.386 5.245 6.647 8.433 3.635l49.961-47.193c2.089-1.974 2.089-5.298 0-7.271z" fill="#02ffb3"/><path d="m418.917 397.875h-343.214c-22.684 0-41.074-18.389-41.074-41.074 0-22.684 18.389-41.074 41.074-41.074h343.214c22.684 0 41.074 18.389 41.074 41.074 0 22.685-18.389 41.074-41.074 41.074z" fill="#8399fe"/><g><g><circle cx="92.427" cy="356.801" fill="#b7c5ff" r="24.383"/><circle cx="92.427" cy="356.801" fill="#ff7eb8" r="11.042"/></g><g><circle cx="154.38" cy="356.801" fill="#b7c5ff" r="24.383"/><circle cx="154.38" cy="356.801" fill="#ff7eb8" r="11.042"/></g><g><circle cx="216.334" cy="356.801" fill="#b7c5ff" r="24.383"/><circle cx="216.334" cy="356.801" fill="#ff7eb8" r="11.042"/></g><g><circle cx="278.287" cy="356.801" fill="#b7c5ff" r="24.383"/><circle cx="278.287" cy="356.801" fill="#ff7eb8" r="11.042"/></g><g><circle cx="340.241" cy="356.801" fill="#b7c5ff" r="24.383"/><circle cx="340.241" cy="356.801" fill="#ff7eb8" r="11.042"/></g><g><circle cx="402.194" cy="356.801" fill="#b7c5ff" r="24.383"/><circle cx="402.194" cy="356.801" fill="#ff7eb8" r="11.042"/></g></g><g><path d="m424.079 61.62-18.042 14.085c-2.428 1.895-3.847 4.803-3.847 7.883v314.29h70.18c2.761 0 5-2.239 5-5v-328.376c0-2.761-2.239-5-5-5h-42.137c-2.23 0-4.396.746-6.154 2.118z" fill="#6583fe"/><path d="m477.368 369.938h-34.651c-2.761 0-5-2.239-5-5v-10.868c0-2.761 2.239-5 5-5h34.651z" fill="#4369fd"/><path d="m477.37 236.287v22.68h-11.34c-2.76 0-5-2.24-5-5v-12.68c0-2.76 2.24-5 5-5z" fill="#b7c5ff"/><path d="m477.37 269.517v22.68h-11.34c-2.76 0-5-2.24-5-5v-12.68c0-2.76 2.24-5 5-5z" fill="#b7c5ff"/><path d="m477.368 210.966h-48.49c-2.761 0-5-2.239-5-5v-55.799c0-2.761 2.239-5 5-5h48.49z" fill="#02ffb3"/><g fill="#97ffd2"><path d="m423.878 194.063v11.902c0 1.889 1.06 3.513 2.606 4.364 16.935-17.026 33.905-34.017 50.884-50.999v-14.164h-4.668c-16.283 16.29-32.559 32.587-48.822 48.897z"/><path d="m437.502 210.966h39.866v-39.867z"/></g></g><path d="m446.556 258.965h-17.678c-2.761 0-5-2.239-5-5v-12.678c0-2.761 2.239-5 5-5h17.678c2.761 0 5 2.239 5 5v12.678c0 2.762-2.238 5-5 5z" fill="#b7c5ff"/><path d="m446.556 292.196h-17.678c-2.761 0-5-2.239-5-5v-12.678c0-2.761 2.239-5 5-5h17.678c2.761 0 5 2.239 5 5v12.678c0 2.761-2.238 5-5 5z" fill="#b7c5ff"/><circle cx="423.878" cy="85.435" fill="#2d58e0" r="4.678"/><g fill="#6583fe"><circle cx="123.403" cy="376.507" r="4.678"/><circle cx="185.357" cy="376.507" r="4.678"/></g><g fill="#6583fe"><circle cx="247.31" cy="376.507" r="4.678"/><circle cx="309.264" cy="376.507" r="4.678"/></g><g><circle cx="371.217" cy="376.507" fill="#6583fe" r="4.678"/></g></g><g><g><path d="m244.499 315.728h-158.153c-5.523 0-10-4.477-10-10v-158.154c0-5.523 4.477-10 10-10h158.153c5.523 0 10 4.477 10 10v158.153c0 5.523-4.477 10.001-10 10.001z" fill="#ffa8cf"/><path d="m101.345 162.574h128.154v128.153h-128.154z" fill="#ff5ba8" transform="matrix(0 1 -1 0 392.073 61.229)"/><path d="m214.819 174.192-113.47 113.47v-113.47z" fill="#ff7eb8"/><path d="m217.889 220.741v69.991h-84.26l74.176-74.168c3.722-3.721 10.084-1.085 10.084 4.177z" fill="#ff7eb8"/><path d="m213.466 282.625h-22.134c-2.761 0-5-2.239-5-5v-7.154c0-2.761 2.239-5 5-5h22.134c2.761 0 5 2.239 5 5v7.154c0 2.761-2.239 5-5 5z" fill="#02ffb3"/></g><path d="m472.368 54.502h-42.146c-3.33 0-6.609 1.129-9.233 3.178l-18.027 14.08c-3.665 2.863-5.767 7.171-5.767 11.822v227.146h-138.57c.556-1.567.875-3.245.875-5v-93.947h53.461c2.762 0 5-2.239 5-5v-22.687l49.962 47.193-49.963 47.193v-22.687c0-2.761-2.238-5-5-5h-28.095c-2.762 0-5 2.239-5 5s2.238 5 5 5h23.095v17.687c0 3.997 2.372 7.601 6.042 9.183 1.276.55 2.623.818 3.959.818 2.505 0 4.971-.942 6.866-2.732l49.963-47.194c1.99-1.881 3.132-4.53 3.132-7.269s-1.142-5.388-3.133-7.27l-49.962-47.193c-2.903-2.744-7.15-3.496-10.825-1.914-3.67 1.582-6.042 5.187-6.042 9.184v17.687h-48.461v-54.207c0-8.271-6.729-15-15-15h-158.153c-8.271 0-15 6.729-15 15v158.153c0 1.808.338 3.535.927 5.141-23.807 1.763-42.643 21.682-42.643 45.933 0 25.405 20.668 46.074 46.073 46.074h396.665c5.514 0 10-4.486 10-10v-328.372c0-5.514-4.486-10-10-10zm-391.022 93.072c0-2.757 2.243-5 5-5h158.153c2.757 0 5 2.243 5 5v158.153c0 2.757-2.243 5-5 5h-158.153c-2.757 0-5-2.243-5-5zm391.022 245.301h-65.174v-28.626c0-2.761-2.238-5-5-5s-5 2.239-5 5v28.626h-321.491c-19.891 0-36.073-16.183-36.073-36.074s16.183-36.074 36.073-36.074h321.491v14.269c0 2.761 2.238 5 5 5s5-2.239 5-5v-251.414c0-1.55.701-2.986 1.922-3.941l18.028-14.08c.874-.683 1.967-1.059 3.077-1.059h42.146v328.373z" fill="#2626bc"/><path d="m154.466 127.845h25v194.697h-25z" fill="#ffa8cf" transform="matrix(.707 .707 -.707 .707 208.139 -52.105)"/></g><path d="m190.035 457.491c-3.714 0-7.427-1.413-10.253-4.24-5.654-5.654-5.654-14.853 0-20.506 5.651-5.652 14.852-5.654 20.505 0 5.654 5.654 5.654 14.853 0 20.506-2.826 2.827-6.539 4.24-10.252 4.24zm0-18.991c-1.152 0-2.305.438-3.183 1.316-1.754 1.754-1.754 4.609 0 6.364 1.755 1.754 4.607 1.756 6.364 0 1.754-1.754 1.754-4.609 0-6.364-.877-.878-2.029-1.316-3.181-1.316z" fill="#ff7eb8"/><path d="m240.717 106.817c-3.713 0-7.427-1.414-10.253-4.24-5.654-5.654-5.654-14.853 0-20.506 5.652-5.653 14.854-5.653 20.506 0 5.654 5.654 5.654 14.853 0 20.506-2.826 2.827-6.54 4.24-10.253 4.24zm0-18.991c-1.152 0-2.305.438-3.183 1.316-1.754 1.754-1.754 4.609 0 6.364 1.756 1.755 4.609 1.755 6.365 0 1.754-1.754 1.754-4.609 0-6.364-.878-.877-2.03-1.316-3.182-1.316z" fill="#00eca2"/><path d="m247.813 452.748c-1.279 0-2.56-.488-3.535-1.464l-5.965-5.964-5.965 5.964c-1.951 1.952-5.119 1.952-7.07 0-1.953-1.953-1.953-5.119 0-7.071l9.5-9.5c1.951-1.952 5.119-1.952 7.07 0l9.5 9.5c1.953 1.953 1.953 5.119 0 7.071-.975.975-2.255 1.464-3.535 1.464z" fill="#00eca2"/><g fill="#6583fe"><path d="m454.925 457.498c-1.279 0-2.56-.488-3.535-1.464l-5.965-5.964-5.965 5.964c-1.951 1.952-5.119 1.952-7.07 0-1.953-1.953-1.953-5.119 0-7.071l9.5-9.5c1.951-1.952 5.119-1.952 7.07 0l9.5 9.5c1.953 1.953 1.953 5.119 0 7.071-.976.975-2.256 1.464-3.535 1.464z"/><path d="m291.458 124.252c-1.279 0-2.56-.488-3.535-1.464l-5.965-5.964-5.965 5.964c-1.951 1.952-5.119 1.952-7.07 0-1.953-1.953-1.953-5.119 0-7.071l9.5-9.5c1.951-1.952 5.119-1.952 7.07 0l9.5 9.5c1.953 1.953 1.953 5.119 0 7.071-.975.976-2.256 1.464-3.535 1.464z"/></g></g></g></svg>